<svg width="35" height="74" viewBox="0 0 35 74" fill="none" xmlns="http://www.w3.org/2000/svg">
<path d="M17.3904 42.1806C26.9744 42.1806 34.7714 34.1346 34.7714 24.2436C34.7754 21.7652 34.2788 19.3115 33.3114 17.0296C32.6168 15.41 31.6864 13.902 30.5504 12.5546L33.6734 2.94164L32.7194 2.63164C22.7529 -0.606788 12.0169 -0.606788 2.05039 2.63164L1.09639 2.94164L4.22139 12.5556C2.63589 14.4579 1.45508 16.6635 0.751146 19.0377C0.0472169 21.4118 -0.165024 23.9046 0.127398 26.3636C0.556272 30.6615 2.55397 34.6505 5.73863 37.5682C8.9233 40.4859 13.0715 42.1287 17.3904 42.1806ZM3.6274 4.23964C12.601 1.54391 22.1688 1.54391 31.1424 4.23964L28.9774 10.9026C26.4801 8.57794 23.3468 7.04995 19.9774 6.51364C19.2235 6.39399 18.4617 6.33115 17.6984 6.32564C17.5984 6.31664 17.4914 6.31464 17.3984 6.31464C13.0913 6.32055 8.94644 7.95814 5.79839 10.8976L3.6274 4.23964ZM5.72139 22.9396C7.56039 21.8686 17.5984 20.2396 19.4324 13.9126C19.4614 13.9876 19.4864 14.0626 19.5174 14.1376C20.0274 15.3188 20.757 16.3925 21.6674 17.3016C22.9271 18.6251 24.5493 19.5474 26.3308 19.953C28.1124 20.3585 29.9739 20.2294 31.6824 19.5816C32.1407 21.0942 32.3728 22.6662 32.3714 24.2466C32.3714 32.8146 25.6504 39.7836 17.3904 39.7836C13.837 39.7366 10.4137 38.4391 7.72194 36.1189C5.03015 33.7987 3.24193 30.6043 2.67139 27.0966C3.70939 26.0626 3.7804 24.0696 5.7224 22.9396" fill="black"/>
<path d="M31.8013 43.6376H2.96426C2.49603 43.639 2.04735 43.8255 1.71626 44.1566C1.38517 44.4877 1.19858 44.9364 1.19727 45.4046V71.5846C1.19885 72.0528 1.38552 72.5013 1.71655 72.8323C2.04759 73.1634 2.49611 73.3501 2.96426 73.3516H31.8003C32.2686 73.3503 32.7174 73.1638 33.0486 72.8327C33.3799 72.5016 33.5667 72.053 33.5683 71.5846V45.4046C33.5667 44.9363 33.3799 44.4876 33.0486 44.1566C32.7174 43.8255 32.2696 43.639 31.8013 43.6376ZM2.75726 71.7596L2.82426 45.2306H8.48225V55.8306C10.8915 53.5642 14.0746 52.3023 17.3823 52.3023C20.69 52.3023 23.8731 53.5642 26.2823 55.8306V45.2306H31.7223L31.7863 71.7596H2.75726Z" fill="black"/>
</svg>
