<svg width="126" height="93" viewBox="0 0 126 93" fill="none" xmlns="http://www.w3.org/2000/svg">
<path d="M52.6228 73.432C49.8518 69.9181 45.9603 67.4599 41.5968 66.467L41.3518 66.413H41.3388C40.4273 66.2187 39.5034 66.0874 38.5738 66.02C37.8496 65.2817 36.926 64.7706 35.9158 64.549V62.581C37.4228 61.4188 38.7387 60.028 39.8158 58.459C40.86 56.9577 41.7202 55.3364 42.3778 53.63C42.4318 53.63 42.4848 53.63 42.5388 53.63C43.0684 53.6161 43.5869 53.4754 44.0508 53.2196C44.5147 52.9638 44.9104 52.6004 45.2048 52.16C45.8152 51.2749 46.1353 50.222 46.1208 49.147C46.1605 48.3339 45.9836 47.5248 45.6084 46.8024C45.2331 46.08 44.6729 45.4701 43.9848 45.035C43.9844 42.8446 43.5733 40.6738 42.7728 38.635C42.0228 36.7507 40.8794 35.0481 39.4188 33.641C36.3963 30.9612 32.4968 29.4814 28.4573 29.4814C24.4179 29.4814 20.5183 30.9612 17.4958 33.641C16.0351 35.048 14.8917 36.7506 14.1418 38.635C13.3412 40.6738 12.9301 42.8446 12.9298 45.035C12.242 45.4702 11.6819 46.0801 11.3068 46.8026C10.9317 47.525 10.755 48.334 10.7948 49.147C10.7803 50.222 11.1004 51.2749 11.7108 52.16C12.0051 52.6005 12.4009 52.9639 12.8648 53.2197C13.3287 53.4755 13.8472 53.6162 14.3768 53.63C14.4308 53.63 14.4848 53.63 14.5378 53.63C15.1955 55.3364 16.0556 56.9576 17.0998 58.459C18.1769 60.028 19.4928 61.4188 20.9998 62.581V64.781C20.3477 65.0548 19.7612 65.4638 19.2788 65.981C14.0788 66.2383 9.17717 68.4863 5.58952 72.2592C2.00186 76.0321 0.003255 81.0406 0.0078203 86.247V91.347C0.0078203 91.5142 0.0407394 91.6797 0.104714 91.8341C0.168688 91.9886 0.262445 92.1289 0.380654 92.2471C0.498863 92.3653 0.6392 92.4591 0.793648 92.5231C0.948095 92.5871 1.11363 92.62 1.2808 92.62H55.6348C55.802 92.62 55.9675 92.5871 56.122 92.5231C56.2764 92.4591 56.4167 92.3653 56.535 92.2471C56.6532 92.1289 56.7469 91.9886 56.8109 91.8341C56.8749 91.6797 56.9078 91.5142 56.9078 91.347V85.758C56.9102 81.2822 55.4002 76.9368 52.6228 73.427M39.0388 80.782C39.3774 80.7822 39.7083 80.8828 39.9897 81.071C40.2711 81.2592 40.4904 81.5267 40.6198 81.8395C40.7492 82.1524 40.783 82.4966 40.7168 82.8286C40.6506 83.1606 40.4875 83.4656 40.248 83.7049C40.0086 83.9442 39.7035 84.1072 39.3714 84.1732C39.0394 84.2391 38.6952 84.2052 38.3824 84.0756C38.0697 83.946 37.8023 83.7265 37.6143 83.445C37.4262 83.1635 37.3258 82.8325 37.3258 82.494C37.3263 82.0399 37.507 81.6046 37.8282 81.2837C38.1494 80.9627 38.5848 80.7823 39.0388 80.782ZM23.5388 66.725V64.133L23.6198 64.171L23.6778 64.198L23.8368 64.269L23.8618 64.28L24.0008 64.34L24.0588 64.364L24.1638 64.407L24.2288 64.433L24.3288 64.472L24.3958 64.498L24.4958 64.535L24.5618 64.559L24.6618 64.596L24.7228 64.618L24.8468 64.66L24.8868 64.674L25.0518 64.728L25.0948 64.741L25.2178 64.778L25.2788 64.796L25.3838 64.827L25.4498 64.846L25.5498 64.874L25.6158 64.892L25.7158 64.919L25.7788 64.935L25.8918 64.962L25.9458 64.975L26.1128 65.012H26.1198L26.2798 65.045L26.3348 65.056L26.4478 65.077L26.5128 65.088L26.6128 65.106L26.6798 65.117L26.7798 65.133L26.8458 65.143L26.9538 65.158L27.0148 65.166L27.1428 65.182H27.1828L27.3518 65.2H27.3938L27.5208 65.211H27.5828L27.6908 65.219H27.7568L27.8568 65.225H27.9238H28.0298H28.0948H28.2098H28.4548H28.6438H28.6998H28.8388H28.8948L29.0798 65.216L29.2658 65.204H29.3228L29.4598 65.192L29.5168 65.187L29.6998 65.168L29.8848 65.145L29.9418 65.137L30.0768 65.118L30.1338 65.11L30.3108 65.081H30.3218L30.5028 65.048L30.5608 65.037L30.6928 65.011L30.7518 64.999L30.9248 64.961H30.9398L31.1188 64.918L31.1778 64.903L31.3078 64.869L31.3678 64.853L31.5368 64.806H31.5538L31.7308 64.753L31.7898 64.735L31.9188 64.694L31.9788 64.675L32.1448 64.619L32.1628 64.613L32.3378 64.551L32.3958 64.529L32.5238 64.481L32.5828 64.458L32.7478 64.393L32.7648 64.386L32.9408 64.313L32.9978 64.288L33.1258 64.232L33.1838 64.206L33.3478 64.131L33.3628 64.124V66.715L28.4548 71.946L23.5388 66.725ZM19.2548 35.486C20.433 34.363 21.8282 33.4926 23.3548 32.928C26.6507 31.7383 30.2589 31.7383 33.5548 32.928C35.0815 33.4924 36.4767 34.3629 37.6548 35.486C39.9755 37.8028 41.3185 40.9219 41.4068 44.2C38.2487 44.8323 34.9716 44.4501 32.0438 43.108C30.0277 42.1923 28.1955 40.9168 26.6368 39.344C26.2749 38.9758 25.8282 38.7019 25.3359 38.5464C24.8435 38.3909 24.3206 38.3585 23.8128 38.452C21.6085 38.9766 19.5227 39.9119 17.6648 41.209C16.9538 41.684 16.2778 42.186 15.6648 42.693C16.0259 39.9572 17.2909 37.4205 19.2588 35.486M16.5358 51.681C16.475 51.4973 16.3731 51.3299 16.2379 51.1916C16.1027 51.0532 15.9377 50.9474 15.7555 50.8823C15.5733 50.8173 15.3787 50.7946 15.1864 50.816C14.9941 50.8374 14.8092 50.9024 14.6458 51.006C14.565 51.0616 14.4698 51.0925 14.3718 51.095C13.9498 51.095 13.3358 50.34 13.3358 49.158C13.3358 48.018 13.9158 47.258 14.3358 47.223H14.3488H14.3778L14.4198 47.217H14.4448L14.4928 47.207H14.5108C14.5559 47.1961 14.6002 47.1828 14.6438 47.167L14.6588 47.162L14.7068 47.143L14.7288 47.134L14.7688 47.116L14.7938 47.104L14.8288 47.085L14.8788 47.056L14.9058 47.039L14.9408 47.015L14.9598 47.002L14.9948 46.976L15.0118 46.963L15.0468 46.934L15.0548 46.927C15.0768 46.908 15.0968 46.888 15.1178 46.867L15.1368 46.847L15.1618 46.82L15.1858 46.792L15.2058 46.768L15.2458 46.716C16.3385 45.3967 17.6328 44.2583 19.0808 43.343C20.6451 42.2308 22.4068 41.4265 24.2718 40.973C24.3705 40.954 24.4724 40.9596 24.5685 40.9893C24.6646 41.0189 24.7519 41.0717 24.8228 41.143C26.6045 42.9398 28.6987 44.3969 31.0028 45.443C32.6839 46.2045 34.471 46.7059 36.3028 46.93C38.1016 47.1419 39.9222 47.0809 41.7028 46.749C41.8089 46.8854 41.9418 46.9987 42.0933 47.0819C42.2448 47.1652 42.4117 47.2166 42.5838 47.233C42.9998 47.273 43.5838 48.033 43.5838 49.168C43.5838 50.351 42.9698 51.105 42.5478 51.105C42.4498 51.1023 42.3547 51.0714 42.2738 51.016C42.1104 50.9126 41.9256 50.8478 41.7335 50.8265C41.5413 50.8051 41.3468 50.8279 41.1647 50.8929C40.9827 50.958 40.8178 51.0637 40.6827 51.2019C40.5476 51.3402 40.4457 51.5075 40.3848 51.691C39.2596 55.3664 36.9996 58.5911 33.9288 60.903C33.8188 60.98 33.7028 61.057 33.5758 61.139C32.0631 62.1525 30.2885 62.7049 28.4678 62.729C26.9164 62.7152 25.3938 62.3078 24.0428 61.545C23.7378 61.379 23.4318 61.192 23.1318 60.99L23.0028 60.902C19.9335 58.5902 17.6746 55.3662 16.5498 51.692M54.3758 90.092H47.1148V81.801C47.1148 81.4634 46.9807 81.1396 46.742 80.9008C46.5032 80.6621 46.1794 80.528 45.8418 80.528C45.5042 80.528 45.1804 80.6621 44.9417 80.9008C44.7029 81.1396 44.5688 81.4634 44.5688 81.801V90.081H12.3548V81.801C12.3548 81.4634 12.2207 81.1396 11.982 80.9008C11.7432 80.6621 11.4194 80.528 11.0818 80.528C10.7442 80.528 10.4204 80.6621 10.1817 80.9008C9.94294 81.1396 9.80882 81.4634 9.80882 81.801V90.081H2.5478V86.256C2.54797 82.1996 3.93728 78.2657 6.48447 75.1088C9.03167 71.9519 12.5831 69.7625 16.5478 68.905C17.0478 68.797 17.5578 68.712 18.0698 68.648C17.9969 69.1158 17.9615 69.5886 17.9638 70.062V77.046C17.3509 77.208 16.7893 77.5231 16.3316 77.9619C15.874 78.4006 15.5355 78.9485 15.3478 79.554L13.6478 86.267C13.6003 86.4548 13.5963 86.651 13.6361 86.8406C13.676 87.0302 13.7585 87.2082 13.8775 87.361C13.9965 87.5139 14.1488 87.6376 14.3229 87.7226C14.4969 87.8077 14.6881 87.852 14.8818 87.852H17.0228C17.1929 87.8568 17.3623 87.8274 17.5208 87.7656C17.6794 87.7038 17.8239 87.6108 17.9459 87.4922C18.0679 87.3735 18.1649 87.2316 18.2311 87.0749C18.2974 86.9181 18.3315 86.7497 18.3315 86.5795C18.3315 86.4093 18.2974 86.2409 18.2311 86.0841C18.1649 85.9273 18.0679 85.7854 17.9459 85.6668C17.8239 85.5482 17.6794 85.4552 17.5208 85.3934C17.3623 85.3316 17.1929 85.3022 17.0228 85.307H16.5178L17.8178 80.18C17.9058 79.832 18.6178 79.33 19.6818 79.33C20.7458 79.33 21.4578 79.83 21.5458 80.18L22.8458 85.308H22.2998C22.1297 85.3032 21.9604 85.3326 21.8018 85.3944C21.6432 85.4562 21.4987 85.5492 21.3767 85.6678C21.2547 85.7864 21.1577 85.9283 21.0915 86.0851C21.0252 86.2419 20.9911 86.4103 20.9911 86.5805C20.9911 86.7507 21.0252 86.9191 21.0915 87.0759C21.1577 87.2326 21.2547 87.3745 21.3767 87.4932C21.4987 87.6118 21.6432 87.7048 21.8018 87.7666C21.9604 87.8284 22.1297 87.8578 22.2998 87.853H24.4818C24.6756 87.8532 24.8669 87.809 25.041 87.724C25.2151 87.639 25.3676 87.5153 25.4866 87.3624C25.6057 87.2095 25.6882 87.0314 25.7279 86.8417C25.7676 86.6521 25.7635 86.4558 25.7158 86.268L24.0158 79.555C23.7641 78.8087 23.2977 78.1534 22.6751 77.6711C22.0524 77.1889 21.3013 76.9011 20.5158 76.844V70.063C20.5023 69.5391 20.568 69.0162 20.7108 68.512H21.7188L21.8998 68.704L27.5318 74.679C27.6508 74.8053 27.7944 74.9059 27.9537 74.9747C28.1131 75.0435 28.2848 75.079 28.4583 75.079C28.6319 75.079 28.8036 75.0435 28.9629 74.9747C29.1222 74.9059 29.2658 74.8053 29.3848 74.679L35.1968 68.513H37.2808C37.6133 69.1506 37.7817 69.861 37.7708 70.58V78.441C36.7997 78.7452 35.9696 79.3873 35.431 80.2508C34.8924 81.1143 34.6809 82.1421 34.8348 83.1481C34.9887 84.1541 35.4978 85.0718 36.2699 85.7347C37.0421 86.3977 38.0261 86.7622 39.0438 86.7622C40.0615 86.7622 41.0456 86.3977 41.8177 85.7347C42.5898 85.0718 43.0989 84.1541 43.2528 83.1481C43.4067 82.1421 43.1952 81.1143 42.6566 80.2508C42.118 79.3873 41.288 78.7452 40.3168 78.441V70.58C40.3181 69.9682 40.2421 69.3587 40.0908 68.766C40.3375 68.808 40.5825 68.855 40.8258 68.907H40.8468L41.0368 68.949C42.9459 69.3814 44.7655 70.1417 46.4148 71.196C49.6525 73.2714 52.1045 76.3685 53.3818 79.996C54.0345 81.8476 54.3673 83.7967 54.3658 85.76L54.3758 90.092Z" fill="black"/>
<path d="M124.494 79.153C123.027 74.9889 120.212 71.4342 116.494 69.053C114.599 67.8409 112.507 66.9666 110.313 66.469L110.063 66.414H110.053C108.963 66.1814 107.856 66.0389 106.743 65.988C106.426 65.973 106.107 65.966 105.793 65.966H104.63V62.581C106.137 61.4187 107.453 60.0279 108.53 58.459C109.574 56.9576 110.434 55.3363 111.092 53.63C111.146 53.63 111.2 53.63 111.253 53.63C111.783 53.6162 112.301 53.4755 112.765 53.2197C113.229 52.9639 113.625 52.6005 113.919 52.16C114.529 51.2749 114.85 50.222 114.835 49.147C114.875 48.334 114.698 47.525 114.323 46.8026C113.948 46.0801 113.388 45.4702 112.7 45.035C112.7 42.8446 112.289 40.6738 111.488 38.635C110.738 36.7507 109.595 35.0481 108.134 33.641C105.111 30.9612 101.212 29.4814 97.1725 29.4814C93.133 29.4814 89.2336 30.9612 86.211 33.641C84.7501 35.048 83.6063 36.7506 82.856 38.635C82.0554 40.6738 81.6443 42.8446 81.6441 45.035C80.9562 45.4702 80.3961 46.0801 80.021 46.8026C79.6459 47.525 79.4693 48.334 79.509 49.147C79.4947 50.222 79.8147 51.2749 80.425 52.16C80.7193 52.6005 81.1151 52.9639 81.579 53.2197C82.0429 53.4755 82.5614 53.6162 83.091 53.63C83.145 53.63 83.1987 53.63 83.252 53.63C83.9097 55.3364 84.7699 56.9576 85.814 58.459C86.8911 60.0279 88.207 61.4187 89.714 62.581V65.957H89.014C88.885 65.957 88.752 65.957 88.614 65.957H88.609C87.309 65.9826 86.0145 66.1326 84.743 66.405C80.2064 67.38 76.1414 69.8818 73.2269 73.4926C70.3124 77.1034 68.7248 81.6047 68.729 86.245V91.345C68.729 91.6826 68.8631 92.0064 69.1019 92.2451C69.3406 92.4839 69.6644 92.618 70.002 92.618H124.35C124.688 92.618 125.011 92.4839 125.25 92.2451C125.489 92.0064 125.623 91.6826 125.623 91.345V85.756C125.625 83.5045 125.243 81.2693 124.494 79.146M92.253 66.723V64.13L92.326 64.164L92.3941 64.196L92.523 64.254L92.599 64.287L92.713 64.336L92.783 64.365L92.876 64.403L92.951 64.433L93.039 64.468L93.116 64.498L93.202 64.53L93.28 64.559L93.366 64.59L93.444 64.618L93.533 64.649L93.608 64.674L93.763 64.724L93.845 64.75L93.926 64.775L94.013 64.801L94.089 64.823L94.179 64.848L94.253 64.868L94.345 64.892L94.416 64.91L94.516 64.934L94.58 64.949L94.68 64.973L94.714 64.981L94.962 65.034L94.993 65.04L95.104 65.061L95.158 65.071L95.265 65.09L95.322 65.1L95.43 65.118L95.485 65.126L95.595 65.143L95.6441 65.15L95.761 65.166H95.787C95.9297 65.184 96.0727 65.1993 96.216 65.212H96.235L96.36 65.222H96.4L96.52 65.23H96.564L96.685 65.236H96.726H96.851H96.878C96.978 65.236 97.078 65.236 97.171 65.236H97.34H97.447H97.523H97.629H97.706L97.889 65.226L97.969 65.221L98.069 65.213L98.152 65.206L98.252 65.197L98.346 65.187L98.493 65.17L98.593 65.157L98.6831 65.145L98.783 65.131L98.87 65.118L98.991 65.098L99.091 65.081L99.222 65.057L99.298 65.042L99.411 65.019L99.483 65.004L99.634 64.971L99.68 64.961L99.843 64.922L99.904 64.907L100.034 64.874L100.092 64.859L100.272 64.809L100.457 64.754L100.504 64.739L100.649 64.693L100.694 64.678C100.819 64.6367 100.943 64.5933 101.068 64.548L101.105 64.534L101.261 64.475L101.297 64.461C101.423 64.4123 101.548 64.3613 101.673 64.308L101.704 64.295L101.865 64.225L101.897 64.211L102.086 64.124V66.715L97.169 71.93L92.253 66.723ZM87.971 35.479C89.1492 34.356 90.5445 33.4856 92.0711 32.921C95.367 31.7313 98.9751 31.7313 102.271 32.921C103.798 33.4856 105.193 34.356 106.371 35.479C108.692 37.7958 110.035 40.9149 110.123 44.193C106.965 44.8252 103.688 44.443 100.76 43.101C98.7439 42.1854 96.9116 40.9098 95.353 39.337C94.991 38.9686 94.5441 38.6947 94.0516 38.5392C93.5591 38.3837 93.0359 38.3513 92.528 38.445C90.3237 38.9695 88.2379 39.9048 86.38 41.202C85.669 41.676 84.993 42.179 84.38 42.686C84.7412 39.9502 86.0062 37.4136 87.974 35.479M85.251 51.681C85.1902 51.4973 85.0883 51.3299 84.9531 51.1916C84.8179 51.0532 84.6529 50.9474 84.4707 50.8823C84.2885 50.8173 84.0939 50.7946 83.9016 50.816C83.7093 50.8374 83.5244 50.9024 83.361 51.006C83.2803 51.0616 83.1851 51.0925 83.087 51.095C82.665 51.095 82.051 50.34 82.051 49.158C82.051 48.018 82.631 47.258 83.051 47.223H83.063H83.092L83.133 47.217H83.159L83.207 47.207H83.226C83.271 47.1963 83.3154 47.1833 83.359 47.168L83.375 47.162L83.422 47.143L83.445 47.133L83.483 47.115L83.509 47.102L83.542 47.084L83.608 47.045L83.62 47.038L83.6571 47.013L83.674 47.001L83.71 46.974L83.724 46.963L83.761 46.932C83.786 46.911 83.81 46.888 83.833 46.864L83.849 46.848L83.876 46.819L83.897 46.795L83.919 46.768L83.952 46.726L83.961 46.715C85.0534 45.3958 86.3474 44.2574 87.7951 43.342C89.3594 42.2299 91.121 41.4256 92.986 40.972C93.0848 40.953 93.1866 40.9586 93.2827 40.9883C93.3788 41.0179 93.4661 41.0707 93.537 41.142C95.3188 42.9387 97.413 44.3958 99.717 45.442C101.398 46.2035 103.185 46.7049 105.017 46.929C106.816 47.1409 108.636 47.0799 110.417 46.748C110.523 46.8844 110.656 46.9977 110.808 47.0809C110.959 47.1642 111.126 47.2156 111.298 47.232C111.714 47.272 112.298 48.032 112.298 49.167C112.298 50.35 111.684 51.104 111.262 51.104C111.164 51.1013 111.069 51.0704 110.988 51.015C110.825 50.9116 110.64 50.8468 110.448 50.8255C110.256 50.8041 110.061 50.8269 109.879 50.8919C109.697 50.957 109.532 51.0627 109.397 51.201C109.262 51.3392 109.16 51.5065 109.099 51.69C107.974 55.3655 105.714 58.5906 102.643 60.903L102.628 60.913C102.516 60.99 102.401 61.067 102.289 61.139C102.177 61.211 102.078 61.272 101.972 61.339C101.281 61.7561 100.542 62.0898 99.772 62.333C98.9336 62.5967 98.06 62.7316 97.181 62.733C95.6296 62.7193 94.107 62.3119 92.7561 61.549C92.6434 61.4877 92.531 61.4237 92.419 61.357C92.191 61.222 91.963 61.076 91.739 60.922L91.716 60.906C88.6467 58.5942 86.3878 55.3702 85.263 51.696M123.089 90.096H115.828V81.801C115.828 81.4634 115.694 81.1396 115.455 80.9008C115.216 80.6621 114.893 80.528 114.555 80.528C114.217 80.528 113.894 80.6621 113.655 80.9008C113.416 81.1396 113.282 81.4634 113.282 81.801V90.081H81.082V81.801C81.082 81.4634 80.9479 81.1396 80.7092 80.9008C80.4704 80.6621 80.1467 80.528 79.809 80.528C79.4714 80.528 79.1476 80.6621 78.9089 80.9008C78.6701 81.1396 78.536 81.4634 78.536 81.801V90.081H71.275V86.256C71.2681 81.613 73.0834 77.1528 76.3308 73.8344C79.5781 70.516 83.998 68.6045 88.64 68.511C88.768 68.511 88.885 68.511 88.999 68.511H90.422L96.235 74.678C96.25 74.694 96.265 74.709 96.281 74.725L96.299 74.741L96.329 74.769C96.4913 74.909 96.6863 75.0056 96.896 75.05H96.902L96.957 75.06H96.966L97.007 75.065H97.031H97.068H97.096H97.162C97.3355 75.0649 97.5071 75.0294 97.6663 74.9606C97.8256 74.8918 97.9691 74.7912 98.088 74.665L103.901 68.499H105.788C106.062 68.499 106.342 68.505 106.62 68.519C107.598 68.5638 108.571 68.6896 109.529 68.895H109.551L109.741 68.937C111.65 69.3697 113.47 70.1299 115.119 71.184C118.357 73.2595 120.809 76.3566 122.086 79.984C122.739 81.8353 123.071 83.7841 123.07 85.747L123.089 90.096Z" fill="black"/>
<path d="M69.3709 26.1369V20.9919H70.1809L81.3519 28.6679C81.543 28.7993 81.7732 28.8615 82.0044 28.8442C82.2356 28.827 82.454 28.7313 82.6235 28.5731C82.7929 28.4148 82.9033 28.2034 82.9363 27.9739C82.9693 27.7444 82.9229 27.5105 82.8049 27.3109L79.0779 20.9909H84.7499C85.0199 20.9909 85.2788 20.8837 85.4697 20.6928C85.6606 20.5019 85.7679 20.2429 85.7679 19.9729V1.50894C85.7676 1.23913 85.6603 0.980451 85.4694 0.789755C85.2785 0.599059 85.0198 0.491943 84.7499 0.491943L58.4619 0.491943C58.1919 0.491943 57.933 0.599197 57.7421 0.790109C57.5512 0.981021 57.4439 1.23995 57.4439 1.50994V6.65994H42.0639C41.7939 6.65994 41.535 6.7672 41.3441 6.95811C41.1531 7.14902 41.0459 7.40795 41.0459 7.67794V26.1369C41.0459 26.4069 41.1531 26.6659 41.3441 26.8568C41.535 27.0477 41.7939 27.1549 42.0639 27.1549H47.7359L44.0089 33.4749C43.8905 33.6746 43.8438 33.9088 43.8768 34.1386C43.9097 34.3684 44.0202 34.5801 44.1899 34.7385C44.3597 34.8969 44.5784 34.9925 44.8099 35.0095C45.0415 35.0265 45.2718 34.9638 45.4629 34.8319L56.6339 27.1559H68.3529C68.4866 27.1559 68.619 27.1296 68.7425 27.0785C68.866 27.0273 68.9782 26.9523 69.0728 26.8578C69.1673 26.7632 69.2422 26.651 69.2934 26.5275C69.3446 26.404 69.3709 26.2706 69.3709 26.1369ZM59.4799 2.52794H83.7319V18.9509H77.2959C77.1163 18.9508 76.9398 18.9983 76.7844 19.0884C76.629 19.1785 76.5003 19.3082 76.4112 19.4642C76.3221 19.6202 76.2759 19.797 76.2773 19.9766C76.2786 20.1562 76.3275 20.3323 76.4189 20.4869L78.7189 24.3819L71.0769 19.1309C70.9071 19.0143 70.7059 18.9519 70.4999 18.9519H69.3739V7.67794C69.3739 7.40795 69.2667 7.14902 69.0757 6.95811C68.8848 6.7672 68.6259 6.65994 68.3559 6.65994H59.4829L59.4799 2.52794ZM67.3339 25.1189H56.3219C56.1159 25.1189 55.9148 25.1813 55.7449 25.2979L48.1029 30.5489L50.4029 26.6489C50.494 26.4943 50.5427 26.3184 50.5439 26.1389C50.5452 25.9594 50.4989 25.7828 50.4099 25.6269C50.3208 25.4711 50.1922 25.3416 50.0369 25.2515C49.8817 25.1614 49.7054 25.1139 49.5259 25.1139H43.0819V8.69194H67.3339V25.1189Z" fill="black"/>
<path d="M47.463 14.423C47.0872 14.423 46.7199 14.5344 46.4074 14.7432C46.095 14.952 45.8514 15.2487 45.7076 15.5959C45.5638 15.9431 45.5262 16.3251 45.5995 16.6936C45.6728 17.0622 45.8537 17.4008 46.1195 17.6665C46.3852 17.9322 46.7237 18.1132 47.0923 18.1865C47.4609 18.2598 47.8429 18.2222 48.1901 18.0783C48.5373 17.9345 48.834 17.691 49.0428 17.3786C49.2516 17.0661 49.363 16.6988 49.363 16.323C49.363 15.8191 49.1628 15.3358 48.8065 14.9795C48.4502 14.6232 47.9669 14.423 47.463 14.423ZM47.463 16.459C47.4355 16.459 47.4086 16.4508 47.3858 16.4355C47.3629 16.4203 47.3451 16.3986 47.3346 16.3732C47.324 16.3478 47.3213 16.3198 47.3267 16.2929C47.332 16.2659 47.3453 16.2411 47.3647 16.2217C47.3841 16.2022 47.4089 16.189 47.4359 16.1836C47.4628 16.1783 47.4908 16.181 47.5162 16.1916C47.5416 16.2021 47.5633 16.2199 47.5786 16.2427C47.5938 16.2656 47.602 16.2925 47.602 16.32C47.602 16.3568 47.5874 16.3922 47.5613 16.4183C47.5352 16.4443 47.4998 16.459 47.463 16.459Z" fill="black"/>
<path d="M54.8956 14.423C54.5198 14.423 54.1525 14.5344 53.84 14.7432C53.5276 14.952 53.2841 15.2487 53.1403 15.5959C52.9965 15.9431 52.9588 16.3251 53.0321 16.6936C53.1054 17.0622 53.2864 17.4008 53.5521 17.6665C53.8178 17.9322 54.1564 18.1132 54.525 18.1865C54.8935 18.2598 55.2755 18.2222 55.6227 18.0783C55.9699 17.9345 56.2666 17.691 56.4754 17.3786C56.6842 17.0661 56.7956 16.6988 56.7956 16.323C56.7956 15.8191 56.5955 15.3358 56.2391 14.9795C55.8828 14.6232 55.3995 14.423 54.8956 14.423ZM54.8956 16.459C54.8681 16.459 54.8412 16.4508 54.8184 16.4355C54.7955 16.4203 54.7777 16.3986 54.7672 16.3732C54.7567 16.3478 54.7539 16.3198 54.7593 16.2929C54.7646 16.2659 54.7779 16.2411 54.7973 16.2217C54.8167 16.2022 54.8415 16.189 54.8685 16.1836C54.8954 16.1783 54.9234 16.181 54.9488 16.1916C54.9742 16.2021 54.9959 16.2199 55.0112 16.2427C55.0264 16.2656 55.0346 16.2925 55.0346 16.32C55.0346 16.3568 55.02 16.3922 54.9939 16.4183C54.9678 16.4443 54.9325 16.459 54.8956 16.459Z" fill="black"/>
<path d="M62.3287 14.423C61.953 14.423 61.5856 14.5344 61.2731 14.7432C60.9607 14.952 60.7172 15.2487 60.5734 15.5959C60.4296 15.9431 60.3919 16.3251 60.4652 16.6936C60.5385 17.0622 60.7195 17.4008 60.9852 17.6665C61.251 17.9322 61.5895 18.1132 61.9581 18.1865C62.3266 18.2598 62.7086 18.2222 63.0558 18.0783C63.403 17.9345 63.6997 17.691 63.9085 17.3786C64.1173 17.0661 64.2287 16.6988 64.2287 16.323C64.2287 15.8191 64.0286 15.3358 63.6722 14.9795C63.3159 14.6232 62.8326 14.423 62.3287 14.423ZM62.3287 16.459C62.3012 16.459 62.2743 16.4508 62.2515 16.4355C62.2286 16.4203 62.2108 16.3986 62.2003 16.3732C62.1898 16.3478 62.187 16.3198 62.1924 16.2929C62.1977 16.2659 62.211 16.2411 62.2304 16.2217C62.2498 16.2022 62.2746 16.189 62.3016 16.1836C62.3285 16.1783 62.3565 16.181 62.3819 16.1916C62.4073 16.2021 62.429 16.2199 62.4443 16.2427C62.4595 16.2656 62.4677 16.2925 62.4677 16.32C62.4677 16.3568 62.4531 16.3922 62.427 16.4183C62.4009 16.4443 62.3656 16.459 62.3287 16.459Z" fill="black"/>
</svg>
