<svg width="47" height="45" viewBox="0 0 47 45" fill="none" xmlns="http://www.w3.org/2000/svg">
<path d="M9.27305 14.246V13.846C9.80407 13.6968 10.263 13.3602 10.5648 12.8985C10.8666 12.4368 10.9908 11.8814 10.9144 11.3351C10.838 10.7889 10.5661 10.2888 10.1492 9.92767C9.73231 9.56652 9.19862 9.36875 8.64705 9.371C8.44218 9.3716 8.24174 9.31138 8.07112 9.19797C7.9005 9.08456 7.76737 8.92306 7.6886 8.73393C7.60984 8.54481 7.58897 8.33656 7.62865 8.13556C7.66832 7.93457 7.76676 7.74987 7.91149 7.60486C8.05621 7.45985 8.24072 7.36106 8.44164 7.32099C8.64256 7.28093 8.85085 7.30139 9.04013 7.37979C9.2294 7.45819 9.39116 7.591 9.5049 7.7614C9.61864 7.93181 9.67925 8.13213 9.67905 8.337C9.67568 8.42125 9.68937 8.50531 9.71928 8.58414C9.7492 8.66296 9.79473 8.73494 9.85314 8.79573C9.91156 8.85653 9.98165 8.9049 10.0592 8.93794C10.1368 8.97099 10.2202 8.98802 10.3045 8.98802C10.3889 8.98802 10.4723 8.97099 10.5499 8.93794C10.6274 8.9049 10.6975 8.85653 10.756 8.79573C10.8144 8.73494 10.8599 8.66296 10.8898 8.58414C10.9197 8.50531 10.9334 8.42125 10.93 8.337C10.9284 7.84127 10.7654 7.35954 10.4658 6.96463C10.1661 6.56971 9.74603 6.28306 9.26905 6.148V5.748C9.26259 5.58644 9.19386 5.43364 9.07726 5.32161C8.96067 5.20958 8.80524 5.14702 8.64355 5.14702C8.48186 5.14702 8.32643 5.20958 8.20984 5.32161C8.09324 5.43364 8.02451 5.58644 8.01805 5.748V6.148C7.48712 6.29717 7.02824 6.63372 6.72644 7.0953C6.42465 7.55688 6.30038 8.11221 6.37666 8.65839C6.45294 9.20458 6.72461 9.70461 7.14132 10.0658C7.55804 10.4271 8.09156 10.625 8.64305 10.623C8.84796 10.6222 9.0485 10.6823 9.21925 10.7956C9.39001 10.9088 9.52329 11.0703 9.60221 11.2594C9.68113 11.4485 9.70214 11.6568 9.66257 11.8578C9.62301 12.0589 9.52466 12.2437 9.37997 12.3888C9.23528 12.5339 9.05078 12.6328 8.84983 12.6729C8.64889 12.7131 8.44055 12.6927 8.25121 12.6143C8.06187 12.5359 7.90006 12.4031 7.78627 12.2327C7.67249 12.0623 7.61185 11.8619 7.61205 11.657C7.61205 11.491 7.5461 11.3318 7.4287 11.2144C7.3113 11.097 7.15208 11.031 6.98605 11.031C6.82002 11.031 6.6608 11.097 6.5434 11.2144C6.426 11.3318 6.36005 11.491 6.36005 11.657C6.36193 12.1526 6.525 12.6341 6.82464 13.0288C7.12429 13.4235 7.54423 13.71 8.02105 13.845V14.245C8.01768 14.3292 8.03136 14.4133 8.06128 14.4921C8.0912 14.571 8.13673 14.6429 8.19514 14.7037C8.25356 14.7645 8.32365 14.8129 8.40122 14.8459C8.47879 14.879 8.56224 14.896 8.64655 14.896C8.73086 14.896 8.81431 14.879 8.89188 14.8459C8.96945 14.8129 9.03954 14.7645 9.09796 14.7037C9.15637 14.6429 9.2019 14.571 9.23182 14.4921C9.26173 14.4133 9.27542 14.3292 9.27205 14.245" fill="black"/>
<path d="M45.715 20.602H35.979V6.56201C35.9784 5.86657 35.7023 5.1997 35.211 4.70749C34.7197 4.21528 34.0534 3.93786 33.358 3.93601H16.596C16.5559 3.81199 16.4777 3.70381 16.3724 3.62694C16.2672 3.55007 16.1403 3.50844 16.01 3.50801C15.453 3.50801 14.9189 3.28676 14.525 2.89293C14.1312 2.4991 13.91 1.96496 13.91 1.40801C13.9101 1.32576 13.894 1.2443 13.8626 1.16829C13.8312 1.09228 13.7851 1.02322 13.7269 0.965064C13.6688 0.906908 13.5997 0.860802 13.5237 0.829389C13.4477 0.797977 13.3662 0.781874 13.284 0.782006H4.01097C3.92873 0.781874 3.84726 0.797977 3.77126 0.829389C3.69525 0.860802 3.62618 0.906908 3.56803 0.965064C3.50987 1.02322 3.46377 1.09228 3.43235 1.16829C3.40094 1.2443 3.38484 1.32576 3.38497 1.40801C3.38497 1.96496 3.16372 2.4991 2.7699 2.89293C2.37607 3.28676 1.84193 3.50801 1.28497 3.50801C1.20264 3.50774 1.12107 3.52375 1.04495 3.5551C0.968824 3.58645 0.899643 3.63254 0.841382 3.69071C0.78312 3.74888 0.736924 3.81798 0.705449 3.89406C0.673974 3.97013 0.657839 4.05168 0.657971 4.13401V11.474C0.655791 12.782 0.944468 14.074 1.5031 15.2567C2.06174 16.4393 2.87635 17.4829 3.88797 18.312C4.37382 18.7008 4.9002 19.0361 5.45797 19.312L7.07697 20.145V41.718C7.0775 42.4141 7.3542 43.0816 7.84634 43.5739C8.33848 44.0663 9.00585 44.3432 9.70197 44.344H33.358C34.0541 44.3432 34.7215 44.0663 35.2136 43.5739C35.7057 43.0816 35.9824 42.4141 35.983 41.718V36.45H45.719C45.8011 36.4501 45.8825 36.4341 45.9585 36.4027C46.0344 36.3714 46.1034 36.3254 46.1616 36.2673C46.2197 36.2093 46.2658 36.1403 46.2973 36.0644C46.3288 35.9885 46.345 35.9072 46.345 35.825V21.225C46.345 21.059 46.279 20.8998 46.1616 20.7824C46.0442 20.665 45.885 20.599 45.719 20.599M34.727 6.56201V20.602H32.8V8.02301C32.8001 7.94076 32.784 7.8593 32.7526 7.78329C32.7212 7.70728 32.6751 7.63822 32.6169 7.58006C32.5588 7.52191 32.4897 7.4758 32.4137 7.44439C32.3377 7.41298 32.2562 7.39687 32.174 7.39701H25.674C25.5764 7.3977 25.4804 7.42122 25.3936 7.46567C25.3068 7.51012 25.2316 7.57428 25.174 7.65301L24.192 8.99301H19.177L18.194 7.65501C18.1364 7.57622 18.0612 7.51202 17.9744 7.46756C17.8876 7.4231 17.7915 7.39962 17.694 7.39901H16.636V5.18801H33.358C33.7223 5.18827 34.0716 5.33312 34.3292 5.59073C34.5869 5.84835 34.7317 6.19768 34.732 6.56201M17.182 36.45H31.549V39.632H11.506V19.632H11.219L11.835 19.315C12.3928 19.0387 12.9195 18.7035 13.406 18.315C14.4181 17.4861 15.2331 16.4423 15.7919 15.2595C16.3507 14.0766 16.6394 12.7842 16.637 11.476V8.64901H17.373L18.355 9.98901C18.4126 10.0677 18.4878 10.1318 18.5746 10.1762C18.6615 10.2207 18.7574 10.2442 18.855 10.245H24.505C24.6025 10.2442 24.6985 10.2207 24.7853 10.1762C24.8721 10.1318 24.9473 10.0677 25.005 9.98901L25.987 8.64901H31.541V20.602H17.182C17.0159 20.602 16.8567 20.668 16.7393 20.7854C16.6219 20.9028 16.556 21.062 16.556 21.228V35.828C16.556 35.9102 16.5722 35.9915 16.6036 36.0674C16.6351 36.1433 16.6812 36.2123 16.7394 36.2703C16.7975 36.3284 16.8665 36.3744 16.9425 36.4057C17.0184 36.4371 17.0998 36.4531 17.182 36.453M4.68297 17.345C3.81409 16.6334 3.11439 15.7374 2.63461 14.722C2.15482 13.7066 1.90695 12.5971 1.90897 11.474V4.70101C2.56981 4.5742 3.17742 4.25207 3.65322 3.77626C4.12903 3.30045 4.45117 2.69285 4.57797 2.03201H12.716C12.843 2.69266 13.1652 3.30005 13.641 3.77567C14.1168 4.25128 14.7243 4.57327 15.385 4.70001V11.473C15.3871 12.5961 15.1393 13.7056 14.6595 14.7211C14.1797 15.7366 13.48 16.6325 12.611 17.344C12.1934 17.6761 11.7411 17.9621 11.262 18.197L8.64697 19.544L6.03097 18.198C5.55237 17.9628 5.10044 17.6768 4.68297 17.345ZM34.727 41.718C34.727 42.0816 34.5829 42.4305 34.3264 42.6882C34.0698 42.9459 33.7216 43.0914 33.358 43.093H9.70297C9.33864 43.0927 8.98932 42.9479 8.7317 42.6903C8.47408 42.4327 8.32924 42.0833 8.32897 41.719V20.789L8.35997 20.805C8.44861 20.8505 8.54682 20.8743 8.64647 20.8743C8.74612 20.8743 8.84433 20.8505 8.93297 20.805L10.255 20.125V40.255C10.2548 40.3372 10.2709 40.4185 10.3023 40.4945C10.3336 40.5704 10.3796 40.6395 10.4377 40.6976C10.4957 40.7557 10.5647 40.8019 10.6406 40.8333C10.7165 40.8648 10.7978 40.881 10.88 40.881H32.174C32.2562 40.8811 32.3377 40.865 32.4137 40.8336C32.4897 40.8022 32.5588 40.7561 32.6169 40.6979C32.6751 40.6398 32.7212 40.5707 32.7526 40.4947C32.784 40.4187 32.8001 40.3372 32.8 40.255V36.45H34.727V41.718ZM45.088 35.198H17.808V21.855H45.089L45.088 35.198Z" fill="black"/>
<path d="M19.6848 31.655C20.0469 31.6555 20.3941 31.7996 20.6501 32.0557C20.9062 32.3117 21.0503 32.6589 21.0508 33.021C21.0508 33.1454 21.1002 33.2647 21.1882 33.3526C21.2761 33.4406 21.3954 33.49 21.5198 33.49H41.3748C41.4992 33.49 41.6185 33.4406 41.7064 33.3526C41.7944 33.2647 41.8438 33.1454 41.8438 33.021C41.8443 32.6585 41.9887 32.3111 42.2452 32.055C42.5017 31.7989 42.8493 31.655 43.2118 31.655C43.3363 31.655 43.4557 31.6056 43.5438 31.5177C43.6319 31.4298 43.6815 31.3105 43.6818 31.186V25.867C43.6818 25.7424 43.6323 25.6228 43.5441 25.5347C43.456 25.4465 43.3365 25.397 43.2118 25.397C42.8497 25.3965 42.5025 25.2524 42.2465 24.9963C41.9904 24.7403 41.8463 24.3931 41.8458 24.031C41.8458 23.9066 41.7964 23.7873 41.7084 23.6994C41.6205 23.6114 41.5012 23.562 41.3768 23.562H21.5208C21.4592 23.562 21.3982 23.5741 21.3413 23.5977C21.2844 23.6213 21.2327 23.6558 21.1892 23.6994C21.1456 23.7429 21.1111 23.7946 21.0875 23.8515C21.0639 23.9084 21.0518 23.9694 21.0518 24.031C21.0513 24.3931 20.9072 24.7403 20.6511 24.9963C20.3951 25.2524 20.0479 25.3965 19.6858 25.397C19.5613 25.3973 19.442 25.4469 19.3541 25.535C19.2662 25.6231 19.2168 25.7425 19.2168 25.867V31.186C19.2168 31.3104 19.2662 31.4297 19.3542 31.5176C19.4421 31.6056 19.5604 31.655 19.6848 31.655ZM20.1548 26.287C20.5943 26.1948 20.9974 25.9766 21.3149 25.6591C21.6324 25.3416 21.8506 24.9385 21.9428 24.499H40.9538C41.0458 24.9384 41.2638 25.3415 41.5812 25.659C41.8985 25.9765 42.3015 26.1947 42.7408 26.287V30.764C42.3015 30.8563 41.8985 31.0745 41.5812 31.392C41.2638 31.7095 41.0458 32.1126 40.9538 32.552H21.9418C21.8496 32.1125 21.6314 31.7094 21.3139 31.3919C20.9964 31.0744 20.5933 30.8562 20.1538 30.764L20.1548 26.287Z" fill="black"/>
<path d="M31.4481 31.436C32.0441 31.5357 32.6564 31.4501 33.2022 31.1905C33.748 30.931 34.201 30.5102 34.4999 29.9849C34.7988 29.4596 34.9292 28.8553 34.8735 28.2535C34.8178 27.6517 34.5787 27.0815 34.1885 26.6201C33.7982 26.1586 33.2757 25.828 32.6916 25.6731C32.1074 25.5181 31.4898 25.5463 30.9221 25.7538C30.3545 25.9612 29.8642 26.3379 29.5176 26.833C29.171 27.3281 28.9848 27.9176 28.9841 28.522C28.9294 29.2341 29.1572 29.9391 29.6184 30.4844C30.0795 31.0297 30.7368 31.3716 31.4481 31.436Z" fill="black"/>
<path d="M37.4011 28.112H39.8571C39.9817 28.112 40.1011 28.0625 40.1891 27.9745C40.2772 27.8864 40.3266 27.767 40.3266 27.6425C40.3266 27.518 40.2772 27.3986 40.1891 27.3105C40.1011 27.2225 39.9817 27.173 39.8571 27.173H37.4011C37.2766 27.173 37.1572 27.2225 37.0692 27.3105C36.9811 27.3986 36.9316 27.518 36.9316 27.6425C36.9316 27.767 36.9811 27.8864 37.0692 27.9745C37.1572 28.0625 37.2766 28.112 37.4011 28.112Z" fill="black"/>
<path d="M37.4011 29.878H39.8571C39.9817 29.878 40.1011 29.8285 40.1891 29.7405C40.2772 29.6524 40.3266 29.533 40.3266 29.4085C40.3266 29.284 40.2772 29.1646 40.1891 29.0765C40.1011 28.9885 39.9817 28.939 39.8571 28.939H37.4011C37.2766 28.939 37.1572 28.9885 37.0692 29.0765C36.9811 29.1646 36.9316 29.284 36.9316 29.4085C36.9316 29.533 36.9811 29.6524 37.0692 29.7405C37.1572 29.8285 37.2766 29.878 37.4011 29.878Z" fill="black"/>
<path d="M23.0398 28.112H25.4958C25.6203 28.112 25.7397 28.0625 25.8278 27.9745C25.9158 27.8864 25.9653 27.767 25.9653 27.6425C25.9653 27.518 25.9158 27.3986 25.8278 27.3105C25.7397 27.2225 25.6203 27.173 25.4958 27.173H23.0398C22.9153 27.173 22.7959 27.2225 22.7078 27.3105C22.6198 27.3986 22.5703 27.518 22.5703 27.6425C22.5703 27.767 22.6198 27.8864 22.7078 27.9745C22.7959 28.0625 22.9153 28.112 23.0398 28.112Z" fill="black"/>
<path d="M23.0398 29.878H25.4958C25.6203 29.878 25.7397 29.8285 25.8278 29.7405C25.9158 29.6524 25.9653 29.533 25.9653 29.4085C25.9653 29.284 25.9158 29.1646 25.8278 29.0765C25.7397 28.9885 25.6203 28.939 25.4958 28.939H23.0398C22.9153 28.939 22.7959 28.9885 22.7078 29.0765C22.6198 29.1646 22.5703 29.284 22.5703 29.4085C22.5703 29.533 22.6198 29.6524 22.7078 29.7405C22.7959 29.8285 22.9153 29.878 23.0398 29.878Z" fill="black"/>
</svg>
