<svg width="176" height="38" viewBox="0 0 176 38" fill="none" xmlns="http://www.w3.org/2000/svg">
<mask id="mask0_1_35" style="mask-type:luminance" maskUnits="userSpaceOnUse" x="0" y="0" width="176" height="38">
<path d="M175.026 0.928955H0V37.07H175.026V0.928955Z" fill="white"/>
</mask>
<g mask="url(#mask0_1_35)">
<path d="M9.32911 11.205C4.45711 10.266 3.80111 8.65498 3.80111 7.20498C3.80111 5.43098 5.49311 3.63998 9.27311 3.63998C11.2893 3.5912 13.2456 4.32768 14.7291 5.69398C14.9413 5.92512 15.2366 6.0625 15.5501 6.07591C15.8635 6.08932 16.1695 5.97766 16.4006 5.76548C16.6318 5.55331 16.7691 5.25801 16.7825 4.94454C16.796 4.63107 16.6843 4.32512 16.4721 4.09398C14.541 2.2364 11.9512 1.22171 9.27211 1.27298C7.20134 1.17773 5.16072 1.79697 3.49211 3.02698C2.85586 3.52227 2.3402 4.15538 1.98391 4.87869C1.62763 5.60201 1.43999 6.3967 1.43511 7.20298C1.43511 11.586 5.68511 12.912 8.88111 13.528C13.3261 14.384 14.9011 15.399 14.9011 17.404C14.9011 20.46 10.5641 20.697 9.23511 20.697C7.96612 20.6767 6.71521 20.3927 5.5618 19.8632C4.40839 19.3337 3.37768 18.5701 2.53511 17.621C2.33443 17.3946 2.05462 17.2536 1.75323 17.2272C1.45183 17.2007 1.15175 17.2908 0.914702 17.4788C0.677648 17.6668 0.521637 17.9385 0.478747 18.238C0.435858 18.5375 0.509351 18.842 0.684113 19.089C1.74911 20.3165 3.06134 21.3053 4.5349 21.9907C6.00846 22.676 7.61014 23.0424 9.23511 23.066C14.1891 23.066 17.2671 20.898 17.2671 17.407C17.2671 12.738 12.1031 11.743 9.32911 11.207" fill="white"/>
</g>
<mask id="mask1_1_35" style="mask-type:luminance" maskUnits="userSpaceOnUse" x="19" y="0" width="25" height="24">
<path d="M31.4741 0.928992C28.3908 0.882754 25.4034 1.99997 23.1071 4.05799C22.0177 5.05201 21.1489 6.26341 20.5567 7.61399C19.9646 8.96457 19.6622 10.4243 19.6691 11.899C19.6745 13.4706 20.0247 15.0218 20.6949 16.4433C21.3652 17.8648 22.3391 19.1219 23.5481 20.126C25.606 21.9324 28.2263 22.9699 30.9631 23.062C36.9231 23.062 41.1581 20.08 43.5491 14.197C43.658 13.9083 43.6499 13.5885 43.5264 13.3057C43.4028 13.023 43.1737 12.7996 42.8879 12.6834C42.6021 12.5672 42.2821 12.5672 41.9963 12.6835C41.7105 12.7998 41.4815 13.0232 41.3581 13.306C39.3361 18.279 35.9361 20.696 30.9581 20.696C27.2301 20.696 22.0291 17.349 22.0291 11.896C22.0291 6.98999 26.0871 3.29599 31.4691 3.29599C35.9951 3.29599 39.8141 6.21899 39.8141 8.05499C39.824 8.27368 39.7852 8.49184 39.7005 8.69368C39.6157 8.89552 39.4872 9.07598 39.3241 9.22199C38.8241 9.68299 37.4151 10.407 33.6701 10.071C31.8795 9.81097 30.0577 10.2531 28.5855 11.3049C27.1132 12.3567 26.1045 13.9368 25.7701 15.715C25.7272 16.0205 25.8054 16.3306 25.9879 16.5792C26.1704 16.8279 26.4428 16.9955 26.747 17.0462C27.0513 17.0969 27.3633 17.0268 27.6166 16.8508C27.8699 16.6748 28.0445 16.4068 28.1031 16.104C28.1771 15.686 28.9561 12.024 33.4641 12.427C37.0591 12.748 39.5001 12.271 40.9251 10.967C41.3297 10.5987 41.6511 10.1482 41.8675 9.64563C42.0839 9.14307 42.1905 8.60007 42.1801 8.05299C42.1801 4.45799 36.8801 0.928992 31.4741 0.928992Z" fill="white"/>
</mask>
<g mask="url(#mask1_1_35)">
<path d="M43.794 0.928955H19.668V23.063H43.794V0.928955Z" fill="url(#paint0_linear_1_35)"/>
</g>
<mask id="mask2_1_35" style="mask-type:luminance" maskUnits="userSpaceOnUse" x="0" y="0" width="176" height="38">
<path d="M175.026 0.928955H0V37.07H175.026V0.928955Z" fill="white"/>
</mask>
<g mask="url(#mask2_1_35)">
<path d="M56.5414 3.63795C60.5314 3.63795 62.0174 4.78595 63.3044 6.06495C63.4136 6.17888 63.5445 6.26982 63.6893 6.33241C63.8342 6.395 63.9901 6.42798 64.1479 6.4294C64.3057 6.43082 64.4621 6.40066 64.6081 6.34068C64.7541 6.28071 64.8866 6.19215 64.9978 6.0802C65.109 5.96825 65.1967 5.83518 65.2557 5.68883C65.3147 5.54248 65.3438 5.3858 65.3414 5.22801C65.3389 5.07023 65.3049 4.91454 65.2414 4.77009C65.1778 4.62565 65.086 4.49538 64.9714 4.38695C63.0904 2.51795 60.9364 1.27295 56.5414 1.27295C51.3414 1.27295 45.5554 5.67295 45.5554 11.9959C45.5298 13.4442 45.7937 14.8829 46.3316 16.2278C46.8695 17.5726 47.6706 18.7965 48.6879 19.8277C49.7051 20.8588 50.918 21.6764 52.2555 22.2324C53.5929 22.7885 55.028 23.0719 56.4764 23.066C62.3764 23.066 64.9644 19.8239 65.0714 19.6859C65.2616 19.438 65.3459 19.125 65.3061 18.8151C65.2663 18.5052 65.1055 18.2236 64.8588 18.0319C64.6121 17.8401 64.2996 17.7538 63.9894 17.7916C63.6793 17.8295 63.3967 17.9885 63.2034 18.2339C63.1844 18.2589 61.1554 20.7009 56.4764 20.7009C55.3399 20.7035 54.2143 20.4792 53.1656 20.0411C52.117 19.603 51.1663 18.96 50.3694 18.1497C49.5725 17.3394 48.9454 16.3781 48.5249 15.3223C48.1043 14.2664 47.8988 13.1373 47.9204 12.0009C48.0126 9.76852 48.9584 7.65672 50.5627 6.10156C52.167 4.54641 54.3072 3.66665 56.5414 3.64395" fill="white"/>
<path d="M78.3353 11.1119L85.9613 3.68893C86.1785 3.46848 86.3007 3.17169 86.3016 2.86221C86.3026 2.55273 86.1822 2.2552 85.9663 2.03344C85.7504 1.81168 85.4563 1.68335 85.1469 1.67596C84.8375 1.66857 84.5375 1.78272 84.3113 1.99393L72.0413 13.9369V2.84093C72.0459 2.68274 72.0187 2.52525 71.9613 2.37776C71.904 2.23027 71.8176 2.09579 71.7073 1.98228C71.5971 1.86876 71.4652 1.77853 71.3194 1.71691C71.1737 1.65528 71.017 1.62354 70.8588 1.62354C70.7005 1.62354 70.5439 1.65528 70.3981 1.71691C70.2524 1.77853 70.1205 1.86876 70.0102 1.98228C69.8999 2.09579 69.8136 2.23027 69.7562 2.37776C69.6989 2.52525 69.6717 2.68274 69.6763 2.84093V21.4709C69.6717 21.6291 69.6989 21.7866 69.7562 21.9341C69.8136 22.0816 69.8999 22.2161 70.0102 22.3296C70.1205 22.4431 70.2524 22.5333 70.3981 22.5949C70.5439 22.6566 70.7005 22.6883 70.8588 22.6883C71.017 22.6883 71.1737 22.6566 71.3194 22.5949C71.4652 22.5333 71.5971 22.4431 71.7073 22.3296C71.8176 22.2161 71.904 22.0816 71.9613 21.9341C72.0187 21.7866 72.0459 21.6291 72.0413 21.4709V17.2299C72.0573 17.2159 72.0743 17.2059 72.0893 17.1909L76.6373 12.7639L84.8373 22.2439C85.044 22.4761 85.3338 22.6175 85.644 22.6377C85.9541 22.6579 86.2598 22.5552 86.4949 22.3518C86.7299 22.1484 86.8755 21.8607 86.9001 21.5508C86.9247 21.2409 86.8263 20.9339 86.6263 20.6959L78.3353 11.1119Z" fill="white"/>
<path d="M93.4989 1.65796C93.1852 1.65796 92.8843 1.7826 92.6624 2.00445C92.4406 2.22631 92.3159 2.52721 92.3159 2.84096V21.471C92.3113 21.6291 92.3385 21.7866 92.3959 21.9341C92.4532 22.0816 92.5396 22.2161 92.6499 22.3296C92.7601 22.4431 92.892 22.5334 93.0378 22.595C93.1835 22.6566 93.3401 22.6883 93.4984 22.6883C93.6566 22.6883 93.8133 22.6566 93.9591 22.595C94.1048 22.5334 94.2368 22.4431 94.347 22.3296C94.4573 22.2161 94.5436 22.0816 94.601 21.9341C94.6584 21.7866 94.6856 21.6291 94.681 21.471V2.84096C94.681 2.52721 94.5563 2.22631 94.3345 2.00445C94.1126 1.7826 93.8117 1.65796 93.4979 1.65796" fill="white"/>
<path d="M118.684 1.65791C118.371 1.65791 118.07 1.78255 117.848 2.0044C117.626 2.22626 117.501 2.52716 117.501 2.84091V18.6639L103.683 2.40891C103.577 2.28311 103.446 2.18091 103.298 2.10891C103.147 1.91469 102.939 1.77261 102.704 1.70262C102.468 1.63262 102.216 1.63822 101.983 1.71862C101.751 1.79903 101.549 1.95021 101.407 2.15094C101.265 2.35168 101.189 2.59191 101.19 2.83791V21.8809C101.199 22.1886 101.328 22.4806 101.549 22.6951C101.769 22.9096 102.065 23.0295 102.373 23.0295C102.681 23.0295 102.976 22.9096 103.197 22.6951C103.418 22.4806 103.546 22.1886 103.555 21.8809V5.91091L117.782 22.6469C117.791 22.6579 117.803 22.6649 117.812 22.6759C117.848 22.7145 117.886 22.7506 117.926 22.7839C117.95 22.8039 117.973 22.8249 117.998 22.8429C118.042 22.8729 118.087 22.9 118.134 22.9239C118.159 22.9369 118.182 22.9529 118.208 22.9639C118.266 22.9882 118.326 23.0079 118.386 23.0229C118.404 23.0229 118.42 23.0349 118.438 23.0389C118.519 23.0561 118.601 23.0649 118.683 23.0649C118.758 23.0645 118.832 23.0571 118.904 23.0429C118.93 23.0429 118.954 23.0299 118.979 23.0229C119.025 23.0117 119.07 22.9976 119.114 22.9809C119.143 22.9699 119.17 22.9559 119.197 22.9419C119.235 22.9239 119.272 22.9038 119.308 22.8819C119.337 22.8639 119.364 22.8439 119.391 22.8239C119.418 22.8039 119.43 22.7989 119.448 22.7839C119.466 22.7689 119.468 22.7619 119.48 22.7509C119.511 22.7221 119.541 22.6918 119.568 22.6599C119.592 22.6329 119.616 22.6049 119.637 22.5759C119.66 22.5437 119.681 22.5103 119.7 22.4759C119.719 22.4429 119.738 22.4109 119.754 22.3759C119.77 22.3409 119.783 22.3049 119.795 22.2689C119.807 22.2329 119.82 22.1959 119.829 22.1589C119.838 22.1219 119.843 22.0869 119.848 22.0499C119.855 22.0088 119.859 21.9674 119.86 21.9259C119.86 21.9099 119.86 21.8959 119.86 21.8799V2.84091C119.861 2.68552 119.83 2.53163 119.771 2.38804C119.711 2.24445 119.624 2.11399 119.514 2.00411C119.404 1.89423 119.274 1.8071 119.13 1.74769C118.987 1.68829 118.833 1.65778 118.677 1.65791" fill="white"/>
<path d="M150.769 1.67095C150.508 1.63134 150.241 1.68041 150.01 1.81036C149.78 1.94031 149.6 2.14365 149.498 2.38795L142.74 18.72L136.326 2.40695C136.229 2.16053 136.052 1.95395 135.823 1.8203C135.594 1.68665 135.327 1.63368 135.065 1.66987C134.802 1.70607 134.559 1.82934 134.375 2.01992C134.191 2.21051 134.076 2.45737 134.049 2.72095L132.119 21.761C132.097 22.068 132.196 22.3715 132.394 22.6071C132.592 22.8427 132.874 22.9919 133.18 23.0228C133.486 23.0538 133.793 22.9642 134.034 22.773C134.275 22.5819 134.432 22.3042 134.472 21.999L135.91 7.81095L141.61 22.311C141.697 22.5303 141.846 22.719 142.041 22.8526C142.235 22.9862 142.465 23.0588 142.7 23.061H142.71C142.944 23.061 143.173 22.9916 143.368 22.8615C143.562 22.7313 143.714 22.5463 143.803 22.33L149.84 7.74695L151.11 21.986C151.145 22.2929 151.298 22.5741 151.538 22.7695C151.777 22.9649 152.083 23.0589 152.391 23.0315C152.699 23.004 152.983 22.8573 153.184 22.6227C153.385 22.3881 153.486 22.0842 153.466 21.776L151.766 2.73595C151.743 2.47229 151.631 2.22416 151.45 2.03126C151.269 1.83836 151.028 1.71185 150.766 1.67195" fill="white"/>
<path d="M164.845 1.65796H158.886C158.731 1.65783 158.577 1.68834 158.433 1.74774C158.29 1.80715 158.159 1.89428 158.049 2.00416C157.939 2.11404 157.852 2.2445 157.793 2.38809C157.734 2.53168 157.703 2.68557 157.703 2.84096V21.881C157.703 22.1947 157.828 22.4956 158.05 22.7175C158.271 22.9393 158.572 23.064 158.886 23.064H164.845C170.268 23.064 175.026 18.064 175.026 12.364C175.026 6.36396 170.554 1.66396 164.845 1.66396M164.845 20.704H160.069V4.02096H164.845C169.737 4.02096 172.66 8.25996 172.66 12.358C172.66 16.721 168.935 20.695 164.845 20.695" fill="white"/>
<path d="M0.961 32.504C0.961 31.058 0.961 30.7919 0.942 30.4879C0.923 30.1649 0.842 30.012 0.533 29.946C0.410533 29.9245 0.286307 29.9148 0.162 29.9169C0.062 29.9169 0 29.8979 0 29.8309C0 29.7639 0.067 29.7459 0.209 29.7459C0.647 29.7459 1.084 29.7739 1.579 29.7739C1.879 29.7739 3.779 29.7739 3.957 29.7639C4.09427 29.7524 4.23081 29.7334 4.366 29.7069C4.41545 29.6898 4.46631 29.6771 4.518 29.6689C4.566 29.6689 4.575 29.7069 4.575 29.7549C4.5392 29.9595 4.51383 30.1658 4.499 30.3729C4.49 30.4729 4.471 30.8869 4.452 31.0009C4.443 31.0489 4.423 31.101 4.352 31.101C4.281 31.101 4.266 31.0439 4.266 30.9299C4.26344 30.8275 4.24419 30.7262 4.209 30.6299C4.143 30.4589 4.047 30.3449 3.572 30.2879C3.41 30.2689 2.411 30.2499 2.221 30.2499C2.174 30.2499 2.155 30.2789 2.155 30.3499V32.756C2.155 32.822 2.164 32.8559 2.221 32.8559C2.43 32.8559 3.521 32.8559 3.743 32.8369C3.90781 32.8477 4.07071 32.7967 4.2 32.6939C4.267 32.6179 4.3 32.5699 4.352 32.5699C4.404 32.5699 4.419 32.589 4.419 32.646C4.419 32.703 4.381 32.855 4.343 33.34C4.333 33.53 4.305 33.9109 4.305 33.9769C4.305 34.0429 4.305 34.1579 4.219 34.1579C4.152 34.1579 4.133 34.058 4.133 34.006C4.12777 33.9131 4.11507 33.8208 4.095 33.7299C4.047 33.5399 3.914 33.3969 3.562 33.3589C3.381 33.3399 2.44 33.3299 2.211 33.3299C2.163 33.3299 2.154 33.3679 2.154 33.4249V34.1759C2.154 34.4989 2.144 35.3759 2.154 35.6499C2.173 36.3059 2.325 36.45 3.295 36.45C3.59752 36.4685 3.90081 36.4298 4.189 36.336C4.436 36.222 4.55 36.0219 4.617 35.6359C4.636 35.5359 4.655 35.493 4.717 35.493C4.779 35.493 4.793 35.5689 4.793 35.6639C4.77687 36.0184 4.73543 36.3713 4.669 36.7199C4.602 36.9669 4.517 36.9669 4.155 36.9669C3.308 36.9669 2.472 36.9099 1.52 36.9099C1.14 36.9099 0.75 36.9389 0.32 36.9389C0.196 36.9389 0.13 36.9099 0.13 36.8389C0.13 36.7919 0.168 36.7629 0.282 36.7629C0.397058 36.763 0.511766 36.7503 0.624 36.7249C0.814 36.6869 0.862 36.478 0.9 36.202C0.948 35.8019 0.948 35.0509 0.948 34.1759L0.961 32.504Z" fill="white"/>
<path d="M8.68263 29.908C8.68263 29.718 8.71163 29.585 8.80663 29.585C8.90163 29.585 8.99663 29.709 9.15863 29.88C9.27263 30.004 10.7186 31.554 12.1066 32.933C12.7536 33.58 14.0846 34.997 14.2466 35.149L14.1466 30.831C14.1366 30.251 14.0466 30.07 13.8236 29.975C13.6612 29.9289 13.4923 29.9097 13.3236 29.918C13.2096 29.918 13.1716 29.889 13.1716 29.832C13.1716 29.756 13.2716 29.746 13.4186 29.746C13.9126 29.746 14.3696 29.775 14.5696 29.775C14.6696 29.775 15.0356 29.746 15.5016 29.746C15.6256 29.746 15.7206 29.756 15.7206 29.832C15.7206 29.889 15.6636 29.918 15.5496 29.918C15.4537 29.9144 15.3578 29.9242 15.2646 29.947C14.9986 30.023 14.9226 30.223 14.9126 30.755C14.8746 32.762 14.8456 34.75 14.8126 36.755C14.8126 36.964 14.7746 37.055 14.6886 37.055C14.5886 37.055 14.4696 36.955 14.3656 36.846C13.7656 36.275 12.5486 35.029 11.5596 34.046C10.5226 33.019 9.43864 31.801 9.26764 31.621L9.36763 35.644C9.38663 36.386 9.51063 36.633 9.70063 36.7C9.86086 36.7492 10.0281 36.7715 10.1956 36.766C10.2956 36.766 10.3576 36.785 10.3576 36.842C10.3576 36.918 10.2716 36.942 10.1386 36.942C9.52063 36.942 9.13863 36.913 8.95963 36.913C8.87363 36.913 8.42663 36.942 7.93263 36.942C7.80863 36.942 7.72363 36.933 7.72363 36.842C7.72363 36.785 7.78063 36.766 7.87563 36.766C8.01972 36.7686 8.16355 36.7528 8.30363 36.719C8.55063 36.643 8.58863 36.367 8.59863 35.54C8.62763 33.524 8.66564 31.175 8.68464 29.91" fill="white"/>
<path d="M19.8389 32.505C19.8389 31.059 19.8389 30.793 19.8199 30.489C19.8009 30.166 19.7199 30.014 19.4109 29.947C19.2885 29.9256 19.1642 29.9159 19.0399 29.918C18.9399 29.918 18.8779 29.899 18.8779 29.832C18.8779 29.765 18.9449 29.746 19.0869 29.746C19.5869 29.746 20.1869 29.774 20.4569 29.774C20.7519 29.774 21.3509 29.746 21.9219 29.746C23.1109 29.746 24.6989 29.746 25.7359 30.83C26.3498 31.4823 26.6815 32.3505 26.6589 33.246C26.6729 34.2321 26.3007 35.1846 25.6219 35.9C25.1929 36.2906 24.6899 36.5912 24.1426 36.7839C23.5954 36.9766 23.015 37.0576 22.4359 37.022C22.0939 37.022 21.7039 36.993 21.3419 36.965C20.9799 36.937 20.6479 36.908 20.4099 36.908C20.3099 36.908 20.0959 36.908 19.8679 36.918C19.6399 36.928 19.4019 36.937 19.2119 36.937C19.0879 36.937 19.0219 36.908 19.0219 36.837C19.0219 36.79 19.0599 36.761 19.1739 36.761C19.289 36.761 19.4037 36.7482 19.5159 36.723C19.7059 36.685 19.7539 36.475 19.7919 36.2C19.8399 35.8 19.8399 35.049 19.8399 34.174L19.8389 32.505ZM21.0279 33.551C21.0279 34.559 21.0379 35.292 21.0469 35.472C21.0374 35.717 21.0712 35.9617 21.1469 36.195C21.2709 36.376 21.6419 36.576 22.3929 36.576C23.1835 36.6402 23.9681 36.3946 24.5809 35.891C24.8767 35.577 25.1012 35.2029 25.2393 34.7943C25.3773 34.3856 25.4257 33.952 25.3809 33.523C25.3977 33.0854 25.3254 32.649 25.1685 32.2403C25.0116 31.8315 24.7732 31.4589 24.4679 31.145C23.728 30.4853 22.758 30.1437 21.7679 30.194C21.56 30.1909 21.3524 30.2134 21.1499 30.261C21.1116 30.2741 21.0791 30.3004 21.0583 30.3352C21.0374 30.3699 21.0295 30.4109 21.0359 30.451C21.0259 30.774 21.0259 31.602 21.0259 32.351L21.0279 33.551Z" fill="white"/>
<path d="M29.8904 33.3419C29.88 32.8323 29.9761 32.3261 30.1725 31.8558C30.3689 31.3854 30.6613 30.9612 31.031 30.6104C31.4007 30.2595 31.8396 29.9896 32.3196 29.818C32.7995 29.6464 33.31 29.5769 33.8184 29.6139C36.1864 29.6139 37.6604 30.9929 37.6604 33.1709C37.6804 33.6916 37.592 34.2107 37.4007 34.6954C37.2094 35.1801 36.9195 35.6197 36.5493 35.9864C36.1791 36.3531 35.7368 36.6389 35.2503 36.8256C34.7638 37.0123 34.2439 37.0958 33.7234 37.0709C33.2213 37.1004 32.7185 37.0251 32.247 36.8496C31.7756 36.6741 31.3459 36.4023 30.9853 36.0516C30.6247 35.7009 30.3411 35.2789 30.1526 34.8126C29.9641 34.3462 29.8748 33.8447 29.8904 33.3419ZM36.3294 33.5239C36.3294 31.3929 35.1024 30.0709 33.5424 30.0709C32.4484 30.0709 31.2024 30.6799 31.2024 33.0479C31.2024 35.0259 32.2964 36.5959 34.1224 36.5959C34.7884 36.5959 36.3294 36.2729 36.3294 33.5239Z" fill="white"/>
<path d="M49.035 35.709C49.121 36.309 49.216 36.584 49.501 36.67C49.6911 36.7343 49.8903 36.768 50.091 36.77C50.177 36.77 50.243 36.779 50.243 36.837C50.243 36.913 50.129 36.937 49.996 36.937C49.758 36.937 48.446 36.908 48.065 36.88C47.846 36.861 47.789 36.833 47.789 36.78C47.789 36.727 47.827 36.704 47.889 36.68C47.951 36.656 47.975 36.537 47.936 36.271L47.356 32.029L45.256 36.404C45.037 36.851 44.99 36.937 44.904 36.937C44.818 36.937 44.723 36.747 44.571 36.461C44.343 36.024 43.591 34.568 43.477 34.302C43.391 34.102 42.792 32.837 42.459 32.124L41.959 35.976C41.9404 36.1243 41.9307 36.2735 41.93 36.423C41.93 36.604 42.054 36.689 42.215 36.723C42.3462 36.7532 42.4803 36.7689 42.615 36.77C42.691 36.77 42.758 36.789 42.758 36.837C42.758 36.923 42.672 36.937 42.53 36.937C42.13 36.937 41.703 36.908 41.53 36.908C41.357 36.908 40.893 36.937 40.588 36.937C40.488 36.937 40.417 36.918 40.417 36.837C40.417 36.789 40.474 36.77 40.569 36.77C40.6648 36.7715 40.7605 36.7618 40.854 36.741C41.12 36.684 41.196 36.313 41.244 35.99L42.185 29.79C42.214 29.628 42.271 29.543 42.347 29.543C42.423 29.543 42.48 29.591 42.604 29.838L45.204 35.202L47.791 29.771C47.867 29.619 47.915 29.543 48 29.543C48.085 29.543 48.143 29.643 48.171 29.838L49.035 35.709Z" fill="white"/>
<path d="M53.6573 32.504C53.6573 31.058 53.6573 30.7919 53.6383 30.4879C53.6193 30.1649 53.5383 30.012 53.2293 29.946C53.1068 29.9245 52.9826 29.9148 52.8583 29.9169C52.7583 29.9169 52.6963 29.8979 52.6963 29.8309C52.6963 29.7639 52.7633 29.7459 52.9053 29.7459C53.3433 29.7459 53.7803 29.7739 54.2753 29.7739C54.5753 29.7739 56.4753 29.7739 56.6533 29.7639C56.7906 29.7524 56.9271 29.7334 57.0623 29.7069C57.1117 29.6898 57.1626 29.6771 57.2143 29.6689C57.2623 29.6689 57.2713 29.7069 57.2713 29.7549C57.2354 29.9595 57.2101 30.1658 57.1953 30.3729C57.1853 30.4729 57.1663 30.8869 57.1473 31.0009C57.1383 31.0489 57.1183 31.101 57.0473 31.101C56.9763 31.101 56.9613 31.0439 56.9613 30.9299C56.9587 30.8275 56.9395 30.7262 56.9043 30.6299C56.8383 30.4589 56.7423 30.3449 56.2673 30.2879C56.1053 30.2689 55.1063 30.2499 54.9163 30.2499C54.8693 30.2499 54.8503 30.2789 54.8503 30.3499V32.756C54.8503 32.822 54.8593 32.8559 54.9163 32.8559C55.1253 32.8559 56.2163 32.8559 56.4383 32.8369C56.6031 32.8477 56.766 32.7967 56.8953 32.6939C56.9623 32.6179 56.9953 32.5699 57.0473 32.5699C57.0993 32.5699 57.1143 32.589 57.1143 32.646C57.1143 32.703 57.0763 32.855 57.0383 33.34C57.0293 33.53 57.0003 33.9109 57.0003 33.9769C57.0003 34.0429 57.0003 34.1579 56.9143 34.1579C56.8473 34.1579 56.8283 34.058 56.8283 34.006C56.8231 33.9131 56.8104 33.8208 56.7903 33.7299C56.7423 33.5399 56.6093 33.3969 56.2573 33.3589C56.0763 33.3399 55.1353 33.3299 54.9063 33.3299C54.8583 33.3299 54.8493 33.3679 54.8493 33.4249V34.1759C54.8493 34.4989 54.8393 35.3759 54.8493 35.6499C54.8683 36.3059 55.0203 36.45 55.9903 36.45C56.2928 36.4685 56.5961 36.4298 56.8843 36.336C57.1313 36.222 57.2453 36.0219 57.3123 35.6359C57.3313 35.5359 57.3503 35.493 57.4123 35.493C57.4743 35.493 57.4883 35.5689 57.4883 35.6639C57.4722 36.0184 57.4307 36.3713 57.3643 36.7199C57.2973 36.9669 57.2123 36.9669 56.8503 36.9669C56.0033 36.9669 55.1673 36.9099 54.2153 36.9099C53.8353 36.9099 53.4453 36.9389 53.0153 36.9389C52.8913 36.9389 52.8253 36.9099 52.8253 36.8389C52.8253 36.7919 52.8633 36.7629 52.9773 36.7629C53.0924 36.763 53.2071 36.7503 53.3193 36.7249C53.5093 36.6869 53.5573 36.478 53.5953 36.202C53.6433 35.8019 53.6433 35.0509 53.6433 34.1759L53.6573 32.504Z" fill="white"/>
<path d="M64.0987 34.1789C64.0987 35.0539 64.0987 35.8059 64.1467 36.2139C64.1747 36.4799 64.2327 36.6899 64.5177 36.7279C64.6785 36.7504 64.8404 36.763 65.0027 36.7659C65.1027 36.7659 65.1547 36.7949 65.1547 36.8419C65.1547 36.9089 65.0787 36.9419 64.9737 36.9419C64.3457 36.9419 63.7467 36.9129 63.4807 36.9129C63.2617 36.9129 62.6627 36.9419 62.2807 36.9419C62.1567 36.9419 62.0907 36.9129 62.0907 36.8419C62.0907 36.7939 62.1287 36.7659 62.2427 36.7659C62.3578 36.7659 62.4724 36.7532 62.5847 36.7279C62.7747 36.6899 62.8317 36.4809 62.8607 36.2049C62.9087 35.8049 62.9087 35.0539 62.9087 34.1789V30.2789C62.5477 30.2879 61.9577 30.3069 61.4917 30.3169C60.9397 30.3359 60.7117 30.3829 60.5687 30.5929C60.4966 30.6942 60.4419 30.8067 60.4067 30.9259C60.3877 31.0019 60.3587 31.0399 60.3067 31.0399C60.2547 31.0399 60.2207 30.9929 60.2207 30.8879C60.2207 30.7359 60.4017 29.8699 60.4207 29.7939C60.4497 29.6709 60.4777 29.6129 60.5347 29.6129C60.6671 29.6639 60.804 29.7021 60.9437 29.7269C61.2197 29.7559 61.5807 29.7739 61.8947 29.7739H65.6617C65.8812 29.774 66.1004 29.7583 66.3177 29.7269C66.4024 29.7061 66.4882 29.69 66.5747 29.6789C66.6417 29.6789 66.6507 29.7359 66.6507 29.8789C66.6507 30.0789 66.6217 30.7349 66.6217 30.9789C66.6127 31.0789 66.5937 31.1309 66.5357 31.1309C66.4597 31.1309 66.4357 31.0829 66.4357 30.9409C66.4357 30.9119 66.4257 30.8649 66.4257 30.8409C66.4067 30.5939 66.1497 30.3269 65.3037 30.3079C65.0567 30.2979 64.6667 30.2889 64.1037 30.2799L64.0987 34.1789Z" fill="white"/>
<path d="M70.4708 32.5049C70.4708 31.0589 70.4708 30.7929 70.4518 30.4889C70.4328 30.1659 70.3518 30.0129 70.0428 29.9469C69.9203 29.9255 69.7961 29.9158 69.6718 29.9179C69.5718 29.9179 69.5098 29.8989 69.5098 29.8319C69.5098 29.7649 69.5767 29.7469 69.7188 29.7469C70.2188 29.7469 70.8188 29.7749 71.0188 29.7749C71.3418 29.7749 72.0647 29.7469 72.3597 29.7469C72.971 29.7038 73.5809 29.8464 74.1097 30.1559C74.3096 30.3089 74.4719 30.5055 74.584 30.7309C74.6962 30.9562 74.7553 31.2042 74.7567 31.4559C74.737 31.8841 74.6132 32.301 74.3961 32.6705C74.179 33.0401 73.8751 33.3512 73.5107 33.5769C74.3577 34.6419 75.0108 35.4979 75.5748 36.0879C75.8438 36.4164 76.2159 36.6444 76.6308 36.7349C76.7184 36.7522 76.8074 36.7615 76.8968 36.7629C76.9728 36.7629 77.0107 36.7919 77.0107 36.8389C77.0107 36.9149 76.9437 36.9389 76.8297 36.9389H75.8978C75.5483 36.972 75.1964 36.9095 74.8798 36.7579C74.3529 36.3877 73.91 35.9107 73.5797 35.3579C73.1997 34.8349 72.7618 34.1879 72.6378 34.0449C72.6166 34.0211 72.59 34.0027 72.5603 33.9912C72.5305 33.9797 72.4985 33.9755 72.4668 33.9789L71.6667 33.9599C71.6187 33.9599 71.5908 33.9789 71.5908 34.0359V34.1689C71.5908 35.0529 71.5908 35.8049 71.6388 36.2039C71.6678 36.4799 71.7248 36.6889 72.0098 36.7269C72.1643 36.7479 72.3199 36.7606 72.4758 36.7649C72.5518 36.7649 72.5898 36.7939 72.5898 36.8409C72.5898 36.9079 72.5227 36.9409 72.3997 36.9409C71.8477 36.9409 71.1448 36.9119 70.9998 36.9119C70.8188 36.9119 70.2198 36.9409 69.8398 36.9409C69.7158 36.9409 69.6497 36.9119 69.6497 36.8409C69.6497 36.7929 69.6878 36.7649 69.8018 36.7649C69.9168 36.765 70.0315 36.7523 70.1438 36.7269C70.3338 36.6889 70.3818 36.4799 70.4198 36.2039C70.4668 35.8039 70.4668 35.0529 70.4668 34.1779L70.4708 32.5049ZM71.5927 33.2559C71.5927 33.3559 71.6117 33.3989 71.6787 33.4269C71.9136 33.4953 72.1572 33.529 72.4018 33.5269C72.6391 33.5598 72.8802 33.502 73.0768 33.3649C73.277 33.1889 73.4324 32.9675 73.53 32.7193C73.6276 32.4711 73.6645 32.2033 73.6378 31.9379C73.6689 31.726 73.6548 31.5099 73.5966 31.3037C73.5384 31.0976 73.4373 30.9061 73.3 30.7417C73.1626 30.5774 72.9921 30.4439 72.7996 30.35C72.607 30.2561 72.3968 30.2039 72.1827 30.1969C72.0152 30.1894 71.8473 30.2022 71.6827 30.2349C71.6157 30.2539 71.5967 30.2919 71.5967 30.3679L71.5927 33.2559Z" fill="white"/>
<path d="M79.5723 32.5049C79.5723 31.0589 79.5723 30.7929 79.5533 30.4889C79.5343 30.1659 79.4393 30.0039 79.2303 29.9559C79.1184 29.9288 79.0035 29.916 78.8883 29.9179C78.7883 29.9179 78.7363 29.8989 78.7363 29.8179C78.7363 29.7609 78.8123 29.7419 78.9643 29.7419C79.3253 29.7419 79.9253 29.7699 80.2013 29.7699C80.4393 29.7699 81.0013 29.7419 81.3613 29.7419C81.4853 29.7419 81.5613 29.7609 81.5613 29.8179C81.5613 29.8939 81.5043 29.9179 81.4093 29.9179C81.3137 29.9191 81.2183 29.9289 81.1243 29.9469C80.8673 29.9949 80.7913 30.1559 80.7723 30.4889C80.7533 30.7889 80.7533 31.0599 80.7533 32.5049V34.1789C80.7533 35.1019 80.7533 35.8529 80.7913 36.2619C80.8193 36.5189 80.8913 36.6899 81.1713 36.7279C81.3321 36.7505 81.494 36.7632 81.6563 36.7659C81.7563 36.7659 81.8083 36.7949 81.8083 36.8419C81.8083 36.9089 81.7323 36.9419 81.6273 36.9419C80.9993 36.9419 80.4003 36.9129 80.1433 36.9129C79.9243 36.9129 79.3253 36.9419 78.9433 36.9419C78.8193 36.9419 78.7533 36.9129 78.7533 36.8419C78.7533 36.7949 78.7913 36.7659 78.9053 36.7659C79.0204 36.766 79.1351 36.7533 79.2473 36.7279C79.4373 36.6899 79.4943 36.5279 79.5233 36.2519C79.5713 35.8519 79.5713 35.1009 79.5713 34.1779L79.5723 32.5049Z" fill="white"/>
<path d="M84.783 33.3419C84.7726 32.8323 84.8687 32.3261 85.0651 31.8558C85.2615 31.3854 85.5539 30.9612 85.9236 30.6104C86.2933 30.2595 86.7322 29.9896 87.2122 29.818C87.6922 29.6464 88.2026 29.5769 88.711 29.6139C91.079 29.6139 92.554 30.9929 92.554 33.1709C92.574 33.6917 92.4856 34.2109 92.2942 34.6957C92.1029 35.1804 91.8129 35.6201 91.4426 35.9868C91.0723 36.3535 90.6298 36.6393 90.1432 36.8259C89.6566 37.0125 89.1365 37.096 88.616 37.0709C88.1138 37.1004 87.611 37.0251 87.1396 36.8496C86.6682 36.6741 86.2385 36.4023 85.8779 36.0516C85.5173 35.7009 85.2337 35.2789 85.0452 34.8126C84.8567 34.3462 84.7674 33.8447 84.783 33.3419ZM91.222 33.5239C91.222 31.3929 89.995 30.0709 88.435 30.0709C87.341 30.0709 86.095 30.6799 86.095 33.0479C86.095 35.0259 87.189 36.5959 89.015 36.5959C89.681 36.5959 91.222 36.2729 91.222 33.5239Z" fill="white"/>
<path d="M95.9671 36.8229C95.8151 36.7559 95.7861 36.7089 95.7861 36.4999C95.7861 35.9769 95.8241 35.4059 95.8341 35.2539C95.8441 35.1019 95.8721 35.0069 95.9481 35.0069C96.0241 35.0069 96.0482 35.0929 96.0482 35.1689C96.0569 35.3335 96.0857 35.4964 96.1342 35.6539C96.2144 35.9468 96.3939 36.2028 96.642 36.3781C96.89 36.5534 97.1912 36.6371 97.4941 36.6149C97.6497 36.6311 97.8069 36.6156 97.9562 36.5693C98.1056 36.523 98.244 36.4469 98.3631 36.3456C98.4822 36.2442 98.5795 36.1198 98.6491 35.9798C98.7187 35.8397 98.7592 35.687 98.7681 35.5309C98.7681 35.0649 98.6251 34.6309 97.8361 34.0089L97.3981 33.6669C96.9965 33.4356 96.658 33.109 96.4124 32.7159C96.1669 32.3228 96.0218 31.8753 95.9901 31.4129C95.9901 30.3669 96.8651 29.6129 98.1901 29.6129C98.4834 29.6133 98.7762 29.6387 99.0651 29.6889C99.2271 29.7179 99.3501 29.7459 99.4551 29.7739C99.5411 29.7929 99.5881 29.8219 99.5881 29.8879C99.5881 30.0119 99.5501 30.2879 99.5501 31.0289C99.5501 31.2379 99.5221 31.3139 99.4501 31.3139C99.3781 31.3139 99.3501 31.2569 99.3501 31.1429C99.3322 30.9136 99.2463 30.6949 99.1031 30.5149C98.982 30.3579 98.824 30.2332 98.6431 30.1519C98.4622 30.0706 98.264 30.0353 98.0661 30.0489C97.9259 30.0302 97.7834 30.0415 97.6478 30.082C97.5123 30.1225 97.3869 30.1913 97.2799 30.2838C97.1729 30.3763 97.0868 30.4905 97.0272 30.6188C96.9676 30.747 96.9359 30.8865 96.9341 31.0279C96.9341 31.4659 97.1531 31.7989 97.9421 32.3979L98.2081 32.5979C99.3591 33.4629 99.7681 34.1199 99.7681 35.0229C99.7738 35.3523 99.6946 35.6777 99.538 35.9675C99.3814 36.2574 99.1528 36.5021 98.8741 36.6779C98.4184 36.9513 97.8932 37.0867 97.3621 37.0679C96.8867 37.0867 96.4129 37.0024 95.9731 36.8209" fill="white"/>
<path d="M103.908 32.5049C103.908 31.0589 103.908 30.7929 103.889 30.4889C103.87 30.1659 103.775 30.0039 103.566 29.9559C103.454 29.9287 103.339 29.9159 103.223 29.9179C103.123 29.9179 103.071 29.8989 103.071 29.8179C103.071 29.7609 103.147 29.7419 103.299 29.7419C103.66 29.7419 104.26 29.7699 104.536 29.7699C104.774 29.7699 105.336 29.7419 105.696 29.7419C105.82 29.7419 105.896 29.7609 105.896 29.8179C105.896 29.8939 105.839 29.9179 105.744 29.9179C105.649 29.9191 105.553 29.9289 105.459 29.9469C105.202 29.9949 105.126 30.1559 105.107 30.4889C105.088 30.7889 105.088 31.0599 105.088 32.5049V34.1789C105.088 35.1019 105.088 35.8529 105.126 36.2619C105.155 36.5189 105.226 36.6899 105.506 36.7279C105.667 36.7505 105.829 36.7631 105.991 36.7659C106.091 36.7659 106.143 36.7949 106.143 36.8419C106.143 36.9089 106.067 36.9419 105.962 36.9419C105.334 36.9419 104.735 36.9129 104.478 36.9129C104.259 36.9129 103.66 36.9419 103.278 36.9419C103.154 36.9419 103.088 36.9129 103.088 36.8419C103.088 36.7949 103.126 36.7659 103.24 36.7659C103.355 36.766 103.47 36.7533 103.582 36.7279C103.772 36.6899 103.829 36.5279 103.858 36.2519C103.906 35.8519 103.906 35.1009 103.906 34.1779L103.908 32.5049Z" fill="white"/>
<path d="M109.405 36.8229C109.253 36.7559 109.224 36.7089 109.224 36.4999C109.224 35.9769 109.262 35.4059 109.272 35.2539C109.282 35.1019 109.31 35.0069 109.386 35.0069C109.462 35.0069 109.486 35.0929 109.486 35.1689C109.494 35.3335 109.523 35.4964 109.572 35.6539C109.652 35.9468 109.831 36.2028 110.079 36.3781C110.327 36.5534 110.629 36.6371 110.932 36.6149C111.087 36.6311 111.244 36.6156 111.394 36.5693C111.543 36.523 111.681 36.4469 111.801 36.3456C111.92 36.2442 112.017 36.1198 112.087 35.9798C112.156 35.8397 112.197 35.687 112.206 35.5309C112.206 35.0649 112.063 34.6309 111.274 34.0089L110.837 33.6669C110.435 33.4356 110.096 33.109 109.851 32.7159C109.605 32.3228 109.46 31.8753 109.429 31.4129C109.429 30.3669 110.304 29.6129 111.629 29.6129C111.922 29.6132 112.215 29.6387 112.504 29.6889C112.666 29.7179 112.789 29.7459 112.894 29.7739C112.98 29.7929 113.027 29.8219 113.027 29.8879C113.027 30.0119 112.989 30.2879 112.989 31.0289C112.989 31.2379 112.961 31.3139 112.889 31.3139C112.817 31.3139 112.789 31.2569 112.789 31.1429C112.771 30.9136 112.685 30.6949 112.542 30.5149C112.421 30.3576 112.263 30.2326 112.082 30.1513C111.901 30.07 111.703 30.0348 111.505 30.0489C111.364 30.0302 111.222 30.0415 111.086 30.082C110.951 30.1225 110.825 30.1913 110.718 30.2838C110.611 30.3763 110.525 30.4905 110.466 30.6188C110.406 30.747 110.374 30.8865 110.373 31.0279C110.373 31.4659 110.592 31.7989 111.381 32.3979L111.647 32.5979C112.798 33.4629 113.207 34.1199 113.207 35.0229C113.212 35.3524 113.133 35.6777 112.977 35.9676C112.82 36.2575 112.591 36.5021 112.313 36.6779C111.857 36.9513 111.332 37.0868 110.801 37.0679C110.325 37.0869 109.851 37.0026 109.412 36.8209" fill="white"/>
<path d="M122.547 36.0339C122.18 35.6872 121.886 35.2702 121.684 34.8077C121.481 34.3452 121.374 33.8468 121.367 33.3419C121.361 32.8371 121.457 32.3361 121.648 31.8689C121.839 31.4016 122.123 30.9776 122.481 30.6219C123.31 29.9014 124.39 29.5389 125.486 29.6139C125.947 29.6134 126.408 29.6468 126.865 29.7139C127.227 29.7619 127.559 29.8469 127.845 29.8759C127.945 29.8849 127.959 29.9329 127.959 29.9899C127.959 30.0659 127.931 30.18 127.912 30.513C127.893 30.827 127.902 31.3499 127.883 31.5399C127.874 31.6829 127.854 31.7679 127.769 31.7679C127.684 31.7679 127.669 31.6819 127.669 31.5489C127.655 31.2222 127.523 30.9115 127.298 30.6739C126.748 30.2474 126.061 30.0374 125.367 30.084C124.717 30.0381 124.074 30.2501 123.579 30.6739C123.161 31.1524 122.879 31.7341 122.762 32.3585C122.645 32.9829 122.698 33.6272 122.914 34.2245C123.131 34.8217 123.503 35.35 123.993 35.7544C124.483 36.1588 125.072 36.4245 125.7 36.5239C126.011 36.574 126.33 36.552 126.632 36.4596C126.934 36.3672 127.21 36.2069 127.44 35.9909C127.593 35.8085 127.704 35.5939 127.763 35.3629C127.792 35.2109 127.81 35.1729 127.887 35.1729C127.964 35.1729 127.973 35.2399 127.973 35.3159C127.933 35.742 127.863 36.1648 127.764 36.5809C127.754 36.6461 127.726 36.707 127.682 36.7561C127.638 36.8051 127.581 36.8402 127.517 36.8569C126.961 37.0196 126.384 37.0935 125.805 37.0759C124.627 37.1472 123.464 36.7776 122.543 36.039" fill="white"/>
<path d="M132.087 32.504C132.087 31.058 132.087 30.7919 132.068 30.4879C132.049 30.1649 131.968 30.012 131.659 29.946C131.537 29.9245 131.412 29.9148 131.288 29.9169C131.188 29.9169 131.126 29.8979 131.126 29.8309C131.126 29.7639 131.193 29.7459 131.335 29.7459C131.773 29.7459 132.21 29.7739 132.705 29.7739C133.005 29.7739 134.905 29.7739 135.083 29.7639C135.22 29.7524 135.357 29.7334 135.492 29.7069C135.541 29.6898 135.592 29.6771 135.644 29.6689C135.692 29.6689 135.701 29.7069 135.701 29.7549C135.665 29.9595 135.64 30.1658 135.625 30.3729C135.616 30.4729 135.596 30.8869 135.578 31.0009C135.568 31.0489 135.55 31.101 135.478 31.101C135.406 31.101 135.392 31.0439 135.392 30.9299C135.389 30.8275 135.37 30.7262 135.335 30.6299C135.268 30.4589 135.174 30.3449 134.698 30.2879C134.537 30.2689 133.538 30.2499 133.348 30.2499C133.3 30.2499 133.281 30.2789 133.281 30.3499V32.756C133.281 32.822 133.29 32.8559 133.348 32.8559C133.557 32.8559 134.648 32.8559 134.87 32.8369C135.035 32.8477 135.198 32.7967 135.327 32.6939C135.394 32.6179 135.427 32.5699 135.479 32.5699C135.531 32.5699 135.546 32.589 135.546 32.646C135.546 32.703 135.508 32.855 135.47 33.34C135.46 33.53 135.432 33.9109 135.432 33.9769C135.432 34.0429 135.432 34.1579 135.346 34.1579C135.279 34.1579 135.26 34.058 135.26 34.006C135.255 33.9131 135.242 33.8208 135.222 33.7299C135.174 33.5399 135.041 33.3969 134.689 33.3589C134.508 33.3399 133.567 33.3299 133.339 33.3299C133.291 33.3299 133.282 33.3679 133.282 33.4249V34.1759C133.282 34.4989 133.272 35.3759 133.282 35.6499C133.301 36.3059 133.453 36.45 134.423 36.45C134.725 36.4685 135.029 36.4298 135.317 36.336C135.564 36.222 135.678 36.0219 135.745 35.6359C135.764 35.5359 135.783 35.493 135.845 35.493C135.907 35.493 135.921 35.5689 135.921 35.6639C135.905 36.0184 135.863 36.3713 135.797 36.7199C135.73 36.9669 135.645 36.9669 135.283 36.9669C134.436 36.9669 133.6 36.9099 132.648 36.9099C132.268 36.9099 131.878 36.9389 131.448 36.9389C131.324 36.9389 131.258 36.9099 131.258 36.8389C131.258 36.7919 131.296 36.7629 131.41 36.7629C131.525 36.763 131.64 36.7503 131.752 36.7249C131.942 36.6869 131.99 36.478 132.028 36.202C132.076 35.8019 132.076 35.0509 132.076 34.1759L132.087 32.504Z" fill="white"/>
<path d="M139.808 29.908C139.808 29.718 139.837 29.585 139.932 29.585C140.027 29.585 140.122 29.709 140.284 29.88C140.398 30.004 141.844 31.554 143.232 32.933C143.879 33.58 145.21 34.997 145.372 35.149L145.272 30.831C145.262 30.251 145.172 30.07 144.949 29.975C144.786 29.9289 144.617 29.9097 144.449 29.918C144.335 29.918 144.297 29.889 144.297 29.832C144.297 29.756 144.397 29.746 144.544 29.746C145.039 29.746 145.495 29.775 145.695 29.775C145.795 29.775 146.161 29.746 146.627 29.746C146.751 29.746 146.846 29.756 146.846 29.832C146.846 29.8893 146.789 29.918 146.675 29.918C146.579 29.9144 146.483 29.9241 146.39 29.947C146.124 30.023 146.047 30.223 146.038 30.755C146 32.762 145.971 34.75 145.938 36.755C145.938 36.964 145.9 37.055 145.815 37.055C145.715 37.055 145.596 36.955 145.492 36.846C144.892 36.275 143.675 35.029 142.686 34.046C141.649 33.019 140.565 31.801 140.394 31.621L140.494 35.644C140.513 36.386 140.637 36.633 140.827 36.7C140.987 36.7492 141.154 36.7715 141.322 36.766C141.422 36.766 141.484 36.785 141.484 36.842C141.484 36.918 141.398 36.942 141.265 36.942C140.647 36.942 140.265 36.913 140.086 36.913C140.001 36.913 139.553 36.942 139.059 36.942C138.935 36.942 138.85 36.933 138.85 36.842C138.85 36.785 138.907 36.766 139.002 36.766C139.146 36.7685 139.289 36.7527 139.43 36.719C139.677 36.643 139.715 36.367 139.725 35.54C139.754 33.524 139.792 31.175 139.811 29.91" fill="white"/>
<path d="M153.465 34.1789C153.465 35.0539 153.465 35.8059 153.513 36.2139C153.542 36.4799 153.599 36.6899 153.884 36.7279C154.045 36.7504 154.207 36.763 154.369 36.7659C154.469 36.7659 154.521 36.7949 154.521 36.8419C154.521 36.9089 154.445 36.9419 154.34 36.9419C153.712 36.9419 153.113 36.9129 152.847 36.9129C152.628 36.9129 152.029 36.9419 151.647 36.9419C151.523 36.9419 151.457 36.9129 151.457 36.8419C151.457 36.7939 151.495 36.7659 151.609 36.7659C151.724 36.7659 151.839 36.7532 151.951 36.7279C152.141 36.6899 152.198 36.4809 152.227 36.2049C152.275 35.8049 152.275 35.0539 152.275 34.1789V30.2789C151.914 30.2879 151.324 30.3069 150.858 30.3169C150.306 30.3359 150.078 30.3829 149.935 30.5929C149.863 30.6942 149.808 30.8067 149.773 30.9259C149.754 31.0019 149.725 31.0399 149.673 31.0399C149.621 31.0399 149.587 30.9929 149.587 30.8879C149.587 30.7359 149.768 29.8699 149.787 29.7939C149.816 29.6709 149.844 29.6129 149.901 29.6129C150.033 29.664 150.17 29.7021 150.31 29.7269C150.586 29.7559 150.947 29.7739 151.261 29.7739H155.028C155.247 29.774 155.467 29.7583 155.684 29.7269C155.769 29.706 155.854 29.69 155.941 29.6789C156.008 29.6789 156.017 29.7359 156.017 29.8789C156.017 30.0789 155.989 30.7349 155.989 30.9789C155.979 31.0789 155.96 31.1309 155.903 31.1309C155.827 31.1309 155.803 31.0829 155.803 30.9409C155.803 30.9119 155.793 30.8649 155.793 30.8409C155.774 30.5939 155.517 30.3269 154.671 30.3079C154.424 30.2979 154.034 30.2889 153.471 30.2799L153.465 34.1789Z" fill="white"/>
<path d="M159.837 32.504C159.837 31.058 159.837 30.7919 159.818 30.4879C159.799 30.1649 159.718 30.012 159.409 29.946C159.287 29.9246 159.162 29.9148 159.038 29.9169C158.938 29.9169 158.877 29.8979 158.877 29.8309C158.877 29.7639 158.944 29.7459 159.086 29.7459C159.524 29.7459 159.961 29.7739 160.456 29.7739C160.756 29.7739 162.656 29.7739 162.834 29.7639C162.971 29.7524 163.108 29.7334 163.243 29.7069C163.292 29.6898 163.343 29.6771 163.395 29.6689C163.443 29.6689 163.452 29.7069 163.452 29.7549C163.416 29.9595 163.391 30.1658 163.376 30.3729C163.367 30.4729 163.348 30.8869 163.329 31.0009C163.319 31.0489 163.3 31.101 163.229 31.101C163.158 31.101 163.143 31.0439 163.143 30.9299C163.14 30.8275 163.121 30.7262 163.086 30.6299C163.019 30.4589 162.924 30.3449 162.449 30.2879C162.288 30.2689 161.289 30.2499 161.098 30.2499C161.051 30.2499 161.032 30.2789 161.032 30.3499V32.756C161.032 32.822 161.041 32.8559 161.098 32.8559C161.307 32.8559 162.398 32.8559 162.62 32.8369C162.785 32.8477 162.948 32.7967 163.077 32.6939C163.144 32.6179 163.177 32.5699 163.229 32.5699C163.281 32.5699 163.295 32.589 163.295 32.646C163.295 32.703 163.257 32.855 163.219 33.34C163.209 33.53 163.181 33.9109 163.181 33.9769C163.181 34.0429 163.181 34.1579 163.095 34.1579C163.028 34.1579 163.009 34.058 163.009 34.006C163.004 33.9131 162.991 33.8208 162.971 33.7299C162.923 33.5399 162.79 33.3969 162.438 33.3589C162.257 33.3399 161.316 33.3299 161.088 33.3299C161.04 33.3299 161.031 33.3679 161.031 33.4249V34.1759C161.031 34.4989 161.021 35.3759 161.031 35.6499C161.05 36.3059 161.202 36.45 162.172 36.45C162.475 36.4685 162.778 36.4298 163.066 36.336C163.313 36.222 163.427 36.0219 163.494 35.6359C163.513 35.5359 163.532 35.493 163.594 35.493C163.656 35.493 163.67 35.5689 163.67 35.6639C163.654 36.0184 163.612 36.3713 163.546 36.7199C163.479 36.9669 163.394 36.9669 163.032 36.9669C162.186 36.9669 161.349 36.9099 160.397 36.9099C160.017 36.9099 159.627 36.9389 159.197 36.9389C159.073 36.9389 159.007 36.9099 159.007 36.8389C159.007 36.7919 159.045 36.7629 159.159 36.7629C159.274 36.763 159.389 36.7503 159.501 36.7249C159.691 36.6869 159.739 36.478 159.777 36.202C159.825 35.8019 159.825 35.0509 159.825 34.1759L159.837 32.504Z" fill="white"/>
<path d="M167.845 32.5049C167.845 31.0589 167.845 30.7929 167.826 30.4889C167.807 30.1659 167.726 30.0129 167.417 29.9469C167.294 29.9255 167.17 29.9158 167.046 29.9179C166.946 29.9179 166.884 29.8989 166.884 29.8319C166.884 29.7649 166.951 29.7469 167.093 29.7469C167.593 29.7469 168.193 29.7749 168.393 29.7749C168.716 29.7749 169.439 29.7469 169.734 29.7469C170.345 29.7038 170.955 29.8464 171.484 30.1559C171.684 30.3089 171.846 30.5055 171.958 30.7309C172.07 30.9562 172.129 31.2042 172.131 31.4559C172.111 31.8841 171.987 32.301 171.77 32.6706C171.553 33.0401 171.249 33.3512 170.885 33.5769C171.732 34.6419 172.385 35.4979 172.949 36.0879C173.218 36.4165 173.59 36.6445 174.005 36.7349C174.092 36.7522 174.181 36.7615 174.271 36.7629C174.347 36.7629 174.385 36.7919 174.385 36.8389C174.385 36.9149 174.319 36.9389 174.204 36.9389H173.272C172.922 36.972 172.57 36.9094 172.254 36.7579C171.727 36.3877 171.284 35.9107 170.954 35.3579C170.573 34.8349 170.136 34.1879 170.012 34.0449C169.991 34.0211 169.964 34.0027 169.934 33.9912C169.905 33.9797 169.872 33.9755 169.841 33.9789L169.041 33.9599C168.993 33.9599 168.965 33.9789 168.965 34.0359V34.1689C168.965 35.0529 168.965 35.8049 169.013 36.2039C169.042 36.4799 169.099 36.6889 169.384 36.7269C169.538 36.748 169.694 36.7606 169.85 36.7649C169.926 36.7649 169.964 36.7939 169.964 36.8409C169.964 36.9079 169.897 36.9409 169.774 36.9409C169.222 36.9409 168.519 36.9119 168.374 36.9119C168.193 36.9119 167.594 36.9409 167.214 36.9409C167.09 36.9409 167.024 36.9119 167.024 36.8409C167.024 36.7929 167.062 36.7649 167.176 36.7649C167.291 36.765 167.406 36.7523 167.518 36.7269C167.708 36.6889 167.756 36.4799 167.794 36.2039C167.841 35.8039 167.841 35.0529 167.841 34.1779L167.845 32.5049ZM168.967 33.2559C168.967 33.3559 168.986 33.3989 169.053 33.4269C169.288 33.4954 169.531 33.5291 169.776 33.5269C170.013 33.5598 170.254 33.502 170.451 33.3649C170.651 33.1889 170.806 32.9675 170.904 32.7194C171.002 32.4712 171.039 32.2033 171.012 31.9379C171.043 31.726 171.029 31.5099 170.971 31.3038C170.912 31.0976 170.811 30.9061 170.674 30.7417C170.537 30.5774 170.366 30.4439 170.174 30.35C169.981 30.2561 169.771 30.204 169.557 30.1969C169.389 30.1895 169.221 30.2022 169.057 30.2349C168.99 30.2539 168.971 30.2919 168.971 30.3679L168.967 33.2559Z" fill="white"/>
</g>
<defs>
<linearGradient id="paint0_linear_1_35" x1="43.794" y1="10.9114" x2="19.6788" y2="12.1994" gradientUnits="userSpaceOnUse">
<stop stop-color="#A52D7C"/>
<stop offset="1" stop-color="#DF1E26"/>
</linearGradient>
</defs>
</svg>
