<svg width="27" height="29" viewBox="0 0 27 29" fill="none" xmlns="http://www.w3.org/2000/svg">
<path d="M5.54689 15.756H7.44689C7.53547 15.756 7.62043 15.7208 7.68307 15.6582C7.7457 15.5955 7.78089 15.5106 7.78089 15.422V13.522C7.78089 13.4334 7.7457 13.3485 7.68307 13.2858C7.62043 13.2232 7.53547 13.188 7.44689 13.188H5.54689C5.45831 13.188 5.37336 13.2232 5.31072 13.2858C5.24809 13.3485 5.21289 13.4334 5.21289 13.522V15.422C5.21289 15.5106 5.24809 15.5955 5.31072 15.6582C5.37336 15.7208 5.45831 15.756 5.54689 15.756Z" fill="black"/>
<path d="M10.0625 15.756H11.9625C12.0511 15.756 12.136 15.7208 12.1987 15.6582C12.2613 15.5955 12.2965 15.5106 12.2965 15.422V13.522C12.2965 13.4334 12.2613 13.3485 12.1987 13.2858C12.136 13.2232 12.0511 13.188 11.9625 13.188H10.0625C9.97393 13.188 9.88898 13.2232 9.82634 13.2858C9.7637 13.3485 9.72852 13.4334 9.72852 13.522V15.422C9.72852 15.5106 9.7637 15.5955 9.82634 15.6582C9.88898 15.7208 9.97393 15.756 10.0625 15.756Z" fill="black"/>
<path d="M14.5781 15.756H16.4781C16.522 15.756 16.5654 15.7473 16.606 15.7306C16.6465 15.7138 16.6833 15.6892 16.7143 15.6582C16.7453 15.6272 16.7699 15.5903 16.7867 15.5498C16.8035 15.5093 16.8121 15.4659 16.8121 15.422V13.522C16.8121 13.4781 16.8035 13.4347 16.7867 13.3942C16.7699 13.3536 16.7453 13.3168 16.7143 13.2858C16.6833 13.2548 16.6465 13.2302 16.606 13.2134C16.5654 13.1966 16.522 13.188 16.4781 13.188H14.5781C14.4895 13.188 14.4046 13.2232 14.3419 13.2858C14.2793 13.3485 14.2441 13.4334 14.2441 13.522V15.422C14.2441 15.5106 14.2793 15.5955 14.3419 15.6582C14.4046 15.7208 14.4895 15.756 14.5781 15.756Z" fill="black"/>
<path d="M19.0938 15.756H20.9937C21.0823 15.756 21.1673 15.7208 21.2299 15.6582C21.2926 15.5955 21.3278 15.5106 21.3278 15.422V13.522C21.3278 13.4334 21.2926 13.3485 21.2299 13.2858C21.1673 13.2232 21.0823 13.188 20.9937 13.188H19.0938C19.0052 13.188 18.9202 13.2232 18.8576 13.2858C18.7949 13.3485 18.7598 13.4334 18.7598 13.522V15.422C18.7598 15.5106 18.7949 15.5955 18.8576 15.6582C18.9202 15.7208 19.0052 15.756 19.0938 15.756Z" fill="black"/>
<path d="M5.54689 20.05H7.44689C7.53547 20.05 7.62043 20.0148 7.68307 19.9522C7.7457 19.8895 7.78089 19.8046 7.78089 19.716V17.816C7.78089 17.7274 7.7457 17.6425 7.68307 17.5798C7.62043 17.5172 7.53547 17.482 7.44689 17.482H5.54689C5.45831 17.482 5.37336 17.5172 5.31072 17.5798C5.24809 17.6425 5.21289 17.7274 5.21289 17.816V19.716C5.21289 19.8046 5.24809 19.8895 5.31072 19.9522C5.37336 20.0148 5.45831 20.05 5.54689 20.05Z" fill="black"/>
<path d="M10.0625 20.05H11.9625C12.0511 20.05 12.136 20.0148 12.1987 19.9522C12.2613 19.8895 12.2965 19.8046 12.2965 19.716V17.816C12.2965 17.7274 12.2613 17.6425 12.1987 17.5798C12.136 17.5172 12.0511 17.482 11.9625 17.482H10.0625C9.97393 17.482 9.88898 17.5172 9.82634 17.5798C9.7637 17.6425 9.72852 17.7274 9.72852 17.816V19.716C9.72852 19.8046 9.7637 19.8895 9.82634 19.9522C9.88898 20.0148 9.97393 20.05 10.0625 20.05Z" fill="black"/>
<path d="M14.5781 20.05H16.4781C16.522 20.05 16.5654 20.0414 16.606 20.0246C16.6465 20.0078 16.6833 19.9832 16.7143 19.9522C16.7453 19.9212 16.7699 19.8843 16.7867 19.8438C16.8035 19.8033 16.8121 19.7599 16.8121 19.716V17.816C16.8121 17.7721 16.8035 17.7287 16.7867 17.6882C16.7699 17.6476 16.7453 17.6108 16.7143 17.5798C16.6833 17.5488 16.6465 17.5242 16.606 17.5074C16.5654 17.4906 16.522 17.482 16.4781 17.482H14.5781C14.4895 17.482 14.4046 17.5172 14.3419 17.5798C14.2793 17.6425 14.2441 17.7274 14.2441 17.816V19.716C14.2441 19.8046 14.2793 19.8895 14.3419 19.9522C14.4046 20.0148 14.4895 20.05 14.5781 20.05Z" fill="black"/>
<path d="M19.0938 20.05H20.9937C21.0823 20.05 21.1673 20.0148 21.2299 19.9522C21.2926 19.8895 21.3278 19.8046 21.3278 19.716V17.816C21.3278 17.7274 21.2926 17.6425 21.2299 17.5798C21.1673 17.5172 21.0823 17.482 20.9937 17.482H19.0938C19.0052 17.482 18.9202 17.5172 18.8576 17.5798C18.7949 17.6425 18.7598 17.7274 18.7598 17.816V19.716C18.7598 19.8046 18.7949 19.8895 18.8576 19.9522C18.9202 20.0148 19.0052 20.05 19.0938 20.05Z" fill="black"/>
<path d="M5.54689 24.493H7.44689C7.53547 24.493 7.62043 24.4578 7.68307 24.3952C7.7457 24.3326 7.78089 24.2476 7.78089 24.159V22.259C7.78089 22.1704 7.7457 22.0855 7.68307 22.0228C7.62043 21.9602 7.53547 21.925 7.44689 21.925H5.54689C5.45831 21.925 5.37336 21.9602 5.31072 22.0228C5.24809 22.0855 5.21289 22.1704 5.21289 22.259V24.159C5.21289 24.2476 5.24809 24.3326 5.31072 24.3952C5.37336 24.4578 5.45831 24.493 5.54689 24.493Z" fill="black"/>
<path d="M10.0625 24.493H11.9625C12.0511 24.493 12.136 24.4578 12.1987 24.3952C12.2613 24.3326 12.2965 24.2476 12.2965 24.159V22.259C12.2965 22.1704 12.2613 22.0855 12.1987 22.0228C12.136 21.9602 12.0511 21.925 11.9625 21.925H10.0625C9.97393 21.925 9.88898 21.9602 9.82634 22.0228C9.7637 22.0855 9.72852 22.1704 9.72852 22.259V24.159C9.72852 24.2476 9.7637 24.3326 9.82634 24.3952C9.88898 24.4578 9.97393 24.493 10.0625 24.493Z" fill="black"/>
<path d="M14.5781 24.493H16.4781C16.522 24.493 16.5654 24.4844 16.606 24.4676C16.6465 24.4508 16.6833 24.4262 16.7143 24.3952C16.7453 24.3642 16.7699 24.3273 16.7867 24.2868C16.8035 24.2463 16.8121 24.2029 16.8121 24.159V22.259C16.8121 22.2151 16.8035 22.1717 16.7867 22.1312C16.7699 22.0906 16.7453 22.0538 16.7143 22.0228C16.6833 21.9918 16.6465 21.9672 16.606 21.9504C16.5654 21.9337 16.522 21.925 16.4781 21.925H14.5781C14.4895 21.925 14.4046 21.9602 14.3419 22.0228C14.2793 22.0855 14.2441 22.1704 14.2441 22.259V24.159C14.2441 24.2476 14.2793 24.3326 14.3419 24.3952C14.4046 24.4578 14.4895 24.493 14.5781 24.493Z" fill="black"/>
<path d="M19.0938 24.493H20.9937C21.0823 24.493 21.1673 24.4578 21.2299 24.3952C21.2926 24.3326 21.3278 24.2476 21.3278 24.159V22.259C21.3278 22.1704 21.2926 22.0855 21.2299 22.0228C21.1673 21.9602 21.0823 21.925 20.9937 21.925H19.0938C19.0052 21.925 18.9202 21.9602 18.8576 22.0228C18.7949 22.0855 18.7598 22.1704 18.7598 22.259V24.159C18.7598 24.2476 18.7949 24.3326 18.8576 24.3952C18.9202 24.4578 19.0052 24.493 19.0938 24.493Z" fill="black"/>
<path d="M21.885 2.54901H20.872V4.35501H21.885C22.5293 4.35554 23.1471 4.61173 23.6027 5.06733C24.0583 5.52293 24.3145 6.1407 24.315 6.78501V9.43101H2.22299V6.78501C2.22352 6.1407 2.47971 5.52293 2.93531 5.06733C3.39091 4.61173 4.00868 4.35554 4.65299 4.35501H5.66599V2.54901H4.65299C3.52986 2.55007 2.45303 2.9967 1.65886 3.79088C0.864683 4.58505 0.418051 5.66188 0.416992 6.78501L0.416992 24.022C0.418051 25.1451 0.864683 26.222 1.65886 27.0161C2.45303 27.8103 3.52986 28.257 4.65299 28.258H21.885C23.0074 28.2559 24.0832 27.8088 24.8765 27.0147C25.6699 26.2207 26.1159 25.1445 26.117 24.022V6.78501C26.1159 5.66188 25.6693 4.58505 24.8751 3.79088C24.081 2.9967 23.0041 2.55007 21.881 2.54901M24.317 24.022C24.3165 24.6663 24.0603 25.2841 23.6047 25.7397C23.1491 26.1953 22.5313 26.4515 21.887 26.452H4.65299C4.00868 26.4515 3.39091 26.1953 2.93531 25.7397C2.47971 25.2841 2.22352 24.6663 2.22299 24.022V11.237H24.317V24.022Z" fill="black"/>
<path d="M18.0124 2.54901H8.52637V4.35501H18.0124V2.54901Z" fill="black"/>
<path d="M7.09558 6.67101C7.3151 6.67074 7.52555 6.58342 7.68077 6.4282C7.83599 6.27298 7.92332 6.06253 7.92358 5.84301V1.06201C7.92358 0.84241 7.83634 0.631804 7.68106 0.476524C7.52578 0.321244 7.31518 0.234009 7.09558 0.234009C6.87598 0.234009 6.66538 0.321244 6.5101 0.476524C6.35482 0.631804 6.26758 0.84241 6.26758 1.06201V5.84301C6.26784 6.06253 6.35517 6.27298 6.51039 6.4282C6.66561 6.58342 6.87606 6.67074 7.09558 6.67101Z" fill="black"/>
<path d="M19.4423 6.67101C19.6618 6.67074 19.8722 6.58342 20.0275 6.4282C20.1827 6.27298 20.27 6.06253 20.2703 5.84301V1.06201C20.2703 0.84241 20.183 0.631804 20.0277 0.476524C19.8725 0.321244 19.6619 0.234009 19.4423 0.234009C19.2227 0.234009 19.0121 0.321244 18.8568 0.476524C18.7015 0.631804 18.6143 0.84241 18.6143 1.06201V5.84301C18.6145 6.06253 18.7019 6.27298 18.8571 6.4282C19.0123 6.58342 19.2227 6.67074 19.4423 6.67101Z" fill="black"/>
</svg>
