<svg width="64" height="51" viewBox="0 0 64 51" fill="none" xmlns="http://www.w3.org/2000/svg">
<mask id="mask0_2_3003" style="mask-type:alpha" maskUnits="userSpaceOnUse" x="0" y="0" width="64" height="51">
<rect x="0.929688" y="0.333252" width="62.14" height="50.4747" fill="white"/>
</mask>
<g mask="url(#mask0_2_3003)">
<path d="M14.6697 2.22564C13.3604 2.22564 12.5664 2.6003 12.2864 3.34697C12.0057 4.09564 11.8664 5.73097 11.8664 8.25497V24.449C15.043 24.3556 17.3917 24.0983 18.911 23.6776C20.429 23.257 21.5164 22.5803 22.171 21.6443C22.825 20.7096 23.2457 19.2376 23.433 17.2276V32.0196C23.2457 30.057 22.825 28.597 22.171 27.6383C21.5164 26.681 20.429 25.991 18.911 25.5703C17.3917 25.1496 15.043 24.9163 11.8664 24.869V43.1663C11.8664 44.5223 11.9817 45.6323 12.2164 46.4963C12.4497 47.3616 12.835 48.0156 13.3724 48.4596C13.9097 48.9043 14.435 49.2076 14.9504 49.3703C15.4644 49.535 16.165 49.6856 17.053 49.8263H0.929688C1.86369 49.6856 2.58835 49.535 3.10235 49.3703C3.61635 49.2076 4.12969 48.9043 4.64569 48.4596C5.15902 48.0156 5.53235 47.3616 5.76702 46.4963C5.99969 45.6323 6.11769 44.5223 6.11769 43.1663V8.32497C6.11769 6.9223 5.99969 5.78964 5.76702 4.92497C5.53235 4.0603 5.15902 3.4063 4.64569 2.96164C4.12969 2.5183 3.61635 2.21497 3.10235 2.0503C2.58835 1.88764 1.86369 1.73497 0.929688 1.59497H30.513L30.583 12.601C30.583 11.9943 30.489 11.3043 30.303 10.533C30.1157 9.7623 29.777 8.87497 29.287 7.86897C28.7957 6.8643 28.1877 5.95364 27.4644 5.13497C26.7384 4.31764 25.711 3.62764 24.379 3.06697C23.047 2.5063 21.5397 2.22564 19.8577 2.22564H14.6697Z" fill="white"/>
<path d="M41.4775 48.9857C45.0295 48.9857 48.1962 47.981 50.9775 45.971C53.7575 43.9623 56.4335 40.503 59.0042 35.5957C56.8535 40.503 54.1315 44.2657 50.8368 46.8823C47.5422 49.5003 44.0248 50.8083 40.2862 50.8083C33.6488 50.8083 29.0922 47.911 26.6162 42.115C24.3728 36.9277 24.1975 30.7123 26.0902 23.4677C27.9828 16.2243 31.3355 10.4283 36.1502 6.08167C40.4022 2.25034 45.0768 0.333008 50.1715 0.333008C51.9468 0.333008 53.5355 0.508341 54.9375 0.859008C56.3402 1.20967 57.5902 1.75967 58.6882 2.50634C59.7862 3.25501 60.5695 3.83834 61.0368 4.25967C61.5035 4.67967 62.1822 5.35767 63.0695 6.29234L56.7602 19.191C58.0682 15.6857 58.5488 12.6017 58.1982 9.93767C57.8475 7.27367 56.9235 5.14767 55.4288 3.55834C53.9322 1.96967 52.1095 1.17434 49.9602 1.17434C45.5195 1.17434 41.4542 4.18901 37.7628 10.2183C34.2568 16.0137 32.1542 22.5563 31.4535 29.847C30.6575 37.465 31.8035 42.9337 34.8882 46.251C36.5702 48.0743 38.7675 48.9857 41.4775 48.9857Z" fill="white"/>
</g>
</svg>
