<svg width="47" height="45" viewBox="0 0 47 45" fill="none" xmlns="http://www.w3.org/2000/svg">
<path d="M38.6181 38.886V5.58101C38.6181 4.30797 38.1124 3.08707 37.2122 2.18689C36.312 1.28672 35.0912 0.781006 33.8181 0.781006L4.85811 0.781006C3.58507 0.781006 2.36418 1.28672 1.464 2.18689C0.56383 3.08707 0.0581055 4.30797 0.0581055 5.58101V9.08701H8.35811V39.535C8.35811 40.808 8.86383 42.0289 9.76401 42.9291C10.6642 43.8293 11.8851 44.335 13.1581 44.335H42.1371C43.4102 44.335 44.631 43.8293 45.5312 42.9291C46.4314 42.0289 46.9371 40.808 46.9371 39.535V38.886H38.6181ZM1.36211 7.78601V5.58101C1.36211 4.65275 1.73086 3.76251 2.38724 3.10613C3.04361 2.44975 3.93385 2.08101 4.86211 2.08101C5.79036 2.08101 6.68061 2.44975 7.33699 3.10613C7.99337 3.76251 8.36211 4.65275 8.36211 5.58101V7.79001L1.36211 7.78601ZM13.1621 43.031C12.2339 43.031 11.3436 42.6623 10.6872 42.0059C10.0309 41.3495 9.66211 40.4593 9.66211 39.531V5.58101C9.66197 4.92406 9.5264 4.27419 9.26384 3.67199C9.00128 3.06978 8.61737 2.52818 8.13611 2.08101H33.8251C34.7534 2.08101 35.6436 2.44975 36.3 3.10613C36.9564 3.76251 37.3251 4.65275 37.3251 5.58101V38.886H16.6571V39.535C16.6571 40.4633 16.2884 41.3535 15.632 42.0099C14.9756 42.6663 14.0854 43.035 13.1571 43.035M42.1361 43.035H16.4361C17.2407 42.2813 17.7609 41.2734 17.9091 40.181H45.5741C45.422 40.982 44.9953 41.705 44.3676 42.2253C43.7399 42.7457 42.9505 43.031 42.1351 43.032" fill="black"/>
<path d="M20.1489 15.471C20.9102 15.9403 21.7622 16.2433 22.6489 16.36V17.046C22.6455 17.1349 22.66 17.2236 22.6917 17.3067C22.7233 17.3899 22.7714 17.4658 22.833 17.5299C22.8947 17.594 22.9687 17.6451 23.0506 17.6799C23.1324 17.7147 23.2205 17.7327 23.3094 17.7327C23.3984 17.7327 23.4865 17.7147 23.5683 17.6799C23.6502 17.6451 23.7242 17.594 23.7858 17.5299C23.8475 17.4658 23.8956 17.3899 23.9272 17.3067C23.9589 17.2236 23.9734 17.1349 23.9699 17.046V16.373C25.5699 16.195 26.6629 15.281 26.6629 13.858C26.6629 12.435 25.837 11.648 23.907 11.128V9.196C24.274 9.29816 24.6278 9.44316 24.9609 9.628C25.0974 9.70274 25.2504 9.74194 25.4059 9.742C25.5977 9.74344 25.7844 9.68045 25.9361 9.56313C26.0878 9.4458 26.1957 9.28094 26.2425 9.09497C26.2893 8.909 26.2723 8.7127 26.1942 8.53754C26.1162 8.36239 25.9815 8.21852 25.812 8.129C25.2407 7.81504 24.6167 7.60862 23.9709 7.52V7.339C23.9744 7.2501 23.9599 7.16142 23.9283 7.07827C23.8966 6.99511 23.8485 6.9192 23.7868 6.85508C23.7252 6.79096 23.6512 6.73995 23.5693 6.7051C23.4874 6.67026 23.3994 6.6523 23.3104 6.6523C23.2215 6.6523 23.1334 6.67026 23.0516 6.7051C22.9697 6.73995 22.8957 6.79096 22.834 6.85508C22.7724 6.9192 22.7243 6.99511 22.6926 7.07827C22.661 7.16142 22.6465 7.2501 22.6499 7.339V7.491C21.0499 7.656 19.9829 8.591 19.9829 9.991C19.9829 11.502 20.8829 12.201 22.7139 12.696V14.716C22.1331 14.581 21.5823 14.3399 21.0889 14.005C20.9418 13.9027 20.7681 13.8454 20.5889 13.84C20.3967 13.8387 20.2093 13.9009 20.0561 14.0171C19.9029 14.1333 19.7924 14.2968 19.7417 14.4823C19.6911 14.6678 19.7032 14.8648 19.7761 15.0427C19.849 15.2206 19.9787 15.3694 20.1449 15.466M23.9039 13.015C24.5899 13.256 24.804 13.535 24.804 13.955C24.804 14.412 24.5039 14.692 23.9039 14.781V13.015ZM21.834 9.878C21.834 9.471 22.0999 9.167 22.7099 9.078V10.793C22.0099 10.539 21.834 10.271 21.834 9.878Z" fill="black"/>
<path d="M33.6143 20.059H13.3853V21.357H33.6143V20.059Z" fill="black"/>
<path d="M33.6143 25.462H13.3853V26.76H33.6143V25.462Z" fill="black"/>
<path d="M33.6143 30.864H13.3853V32.162H33.6143V30.864Z" fill="black"/>
</svg>
