<svg width="76" height="76" viewBox="0 0 76 76" fill="none" xmlns="http://www.w3.org/2000/svg">
<path d="M59.8438 11.6197C59.8231 11.7634 59.831 11.9097 59.8669 12.0504C59.9028 12.191 59.9661 12.3232 60.0531 12.4393C60.1401 12.5555 60.2492 12.6534 60.374 12.7274C60.4989 12.8014 60.6371 12.8501 60.7808 12.8707C62.2515 12.9718 63.6242 13.6444 64.6055 14.7445C65.5868 15.8447 66.0987 17.2851 66.0318 18.7577C66.04 19.0507 66.1642 19.3283 66.3772 19.5296C66.5901 19.731 66.8743 19.8394 67.1673 19.8312C67.4602 19.823 67.7379 19.6987 67.9392 19.4858C68.1405 19.2729 68.249 18.9887 68.2408 18.6957C68.2906 16.7021 67.5795 14.7643 66.252 13.2761C64.9244 11.7879 63.0801 10.861 61.0938 10.6837C60.9501 10.6631 60.8038 10.6709 60.6631 10.7069C60.5225 10.7428 60.3903 10.806 60.2741 10.8931C60.158 10.9801 60.0601 11.0891 59.9861 11.214C59.912 11.3388 59.8633 11.477 59.8428 11.6207" fill="black"/>
<path d="M10.0939 10.3308L33.8269 30.2478L25.0079 39.3288C24.8038 39.5389 24.6916 39.8216 24.6959 40.1145C24.7002 40.4074 24.8207 40.6867 25.0309 40.8908C25.2411 41.0948 25.5237 41.2071 25.8166 41.2028C26.1096 41.1984 26.3888 41.0779 26.5929 40.8678L36.2399 30.9348L41.9399 25.0678L53.2399 13.4358C57.4363 9.09786 63.1556 6.56243 69.1879 6.36575L70.9089 6.30675C71.31 6.29264 71.7093 6.36702 72.0784 6.52459C72.4475 6.68216 72.7774 6.91908 73.0447 7.2185C73.3119 7.51792 73.51 7.87252 73.6248 8.2571C73.7396 8.64168 73.7683 9.04682 73.7089 9.44375L73.4549 11.1438C72.86 15.0984 71.2615 18.8346 68.8119 21.9958C68.723 22.1104 68.6575 22.2414 68.6193 22.3814C68.581 22.5213 68.5707 22.6674 68.5889 22.8113C68.6071 22.9553 68.6534 23.0942 68.7253 23.2202C68.7972 23.3462 68.8932 23.4568 69.0079 23.5458C69.1225 23.6347 69.2536 23.7001 69.3935 23.7384C69.5334 23.7766 69.6796 23.787 69.8235 23.7688C69.9674 23.7506 70.1063 23.7042 70.2324 23.6323C70.3584 23.5604 70.469 23.4644 70.5579 23.3498C73.2364 19.8889 74.9836 15.7996 75.6329 11.4718L75.8869 9.77175C75.9946 9.05413 75.943 8.3216 75.7358 7.62614C75.5287 6.93069 75.171 6.28935 74.6882 5.74763C74.2053 5.20592 73.6092 4.7771 72.9421 4.49162C72.2749 4.20614 71.5531 4.07099 70.8279 4.09575L69.1079 4.15475C62.5028 4.36937 56.2403 7.14554 51.6459 11.8958L48.8459 14.7878L42.9129 11.9228L43.2569 11.6168C43.7482 11.1772 44.0452 10.5608 44.0827 9.9026C44.1202 9.24442 43.8951 8.59825 43.4569 8.10575L41.7159 6.15975C41.2763 5.66843 40.6599 5.37146 40.0017 5.33397C39.3436 5.29648 38.6974 5.52152 38.2049 5.95975L35.5189 8.35975L32.6669 6.98275L33.4399 6.29175C33.9314 5.85253 34.2285 5.23622 34.266 4.57813C34.3035 3.92004 34.0783 3.27396 33.6399 2.78175L31.9059 0.829753C31.4663 0.338431 30.8499 0.0414647 30.1917 0.00397272C29.5336 -0.0335192 28.8874 0.191523 28.3949 0.629753L25.2789 3.40975L20.4299 1.06775C19.3103 0.524643 18.0545 0.326871 16.8223 0.499603C15.59 0.672335 14.437 1.20776 13.5099 2.03775L10.0149 5.15475C9.64833 5.48155 9.3564 5.88342 9.15894 6.33306C8.96148 6.78269 8.86311 7.26956 8.87051 7.76059C8.87791 8.25161 8.9909 8.7353 9.20182 9.17878C9.41275 9.62226 9.71665 10.0151 10.0929 10.3308M39.6759 7.60875C39.7029 7.58456 39.7345 7.56594 39.7687 7.55396C39.803 7.54197 39.8392 7.53685 39.8754 7.53889C39.9117 7.54094 39.9471 7.5501 39.9798 7.56586C40.0125 7.58163 40.0417 7.60368 40.0659 7.63075L41.8019 9.57675C41.8261 9.60379 41.8447 9.63534 41.8567 9.66958C41.8687 9.70382 41.8738 9.74009 41.8717 9.77631C41.8697 9.81254 41.8605 9.848 41.8448 9.88068C41.829 9.91336 41.807 9.94261 41.7799 9.96675L40.7539 10.8828L39.8789 10.4608L37.6739 9.39575L39.6759 7.60875ZM29.8659 2.27975C29.8929 2.25556 29.9245 2.23694 29.9587 2.22496C29.993 2.21297 30.0292 2.20785 30.0654 2.20989C30.1017 2.21194 30.1371 2.2211 30.1698 2.23686C30.2025 2.25263 30.2317 2.27468 30.2559 2.30175L31.9929 4.24875C32.0414 4.30331 32.0664 4.37489 32.0622 4.4478C32.0581 4.52071 32.0253 4.58902 31.9709 4.63775L30.5139 5.93775L27.4339 4.44975L29.8659 2.27975ZM11.4859 6.80475L14.9809 3.68675C15.5821 3.14846 16.33 2.80122 17.1292 2.68921C17.9284 2.5772 18.7428 2.70549 19.4689 3.05775L47.2189 16.4578L35.3709 28.6578L11.5149 8.63775C11.3816 8.526 11.274 8.38688 11.1993 8.22985C11.1246 8.07281 11.0845 7.90154 11.0819 7.72765C11.0792 7.55377 11.114 7.38135 11.1839 7.22211C11.2538 7.06287 11.3561 6.92053 11.4859 6.80475Z" fill="black"/>
<path d="M75.3127 49.4907L73.5767 47.5447C73.1372 47.0534 72.5208 46.7564 71.8626 46.7189C71.2044 46.6814 70.5582 46.9065 70.0657 47.3447L69.1027 48.2047L67.8967 44.7517L70.2967 42.6127C70.788 42.1733 71.0849 41.5571 71.1224 40.8991C71.1599 40.2411 70.9349 39.595 70.4967 39.1027L68.7617 37.1537C68.3224 36.6625 67.7061 36.3655 67.0481 36.328C66.3901 36.2905 65.7441 36.5155 65.2517 36.9537L65.1967 37.0027L62.8617 30.3287L65.9617 27.9397C66.1907 27.7637 66.4187 27.5807 66.6407 27.3977C66.7524 27.3053 66.8447 27.1917 66.9124 27.0636C66.9802 26.9355 67.022 26.7953 67.0356 26.6509C67.0491 26.5066 67.0341 26.3611 66.9915 26.2226C66.9488 26.0841 66.8792 25.9553 66.7867 25.8437C66.6943 25.7321 66.5808 25.6398 66.4526 25.572C66.3245 25.5043 66.1843 25.4624 66.04 25.4489C65.8957 25.4353 65.7501 25.4503 65.6116 25.493C65.4731 25.5357 65.3444 25.6053 65.2327 25.6977C65.0327 25.8657 64.8207 26.0317 64.6117 26.1977L30.7867 52.2687C29.0187 53.6314 27.1887 54.9037 25.2967 56.0857C22.6813 57.7203 19.9585 59.1763 17.1467 60.4437C16.4234 60.7697 15.6944 61.083 14.9597 61.3837C14.6034 61.5295 14.2106 61.5613 13.8355 61.4746C13.4604 61.388 13.1214 61.1872 12.8651 60.8998C12.6088 60.6125 12.4479 60.2528 12.4045 59.8703C12.3611 59.4877 12.4373 59.1011 12.6227 58.7637C13.0294 58.0224 13.4504 57.289 13.8857 56.5637C14.0484 56.2917 14.2131 56.0204 14.3797 55.7497L14.4927 55.5677C14.6577 55.3027 14.8237 55.0387 14.9927 54.7757C15.0277 54.7207 15.0637 54.6657 15.0987 54.6107C15.2721 54.344 15.4471 54.0774 15.6237 53.8107L15.7237 53.6627C15.9037 53.396 16.0861 53.1277 16.2707 52.8577L16.3707 52.7127C16.5547 52.446 16.7404 52.1827 16.9277 51.9227L17.0427 51.7627C17.2247 51.5094 17.4087 51.2567 17.5947 51.0047L17.7327 50.8197C17.9121 50.5797 18.0924 50.341 18.2737 50.1037L18.4357 49.8927C18.6131 49.6634 18.7917 49.4354 18.9717 49.2087C20.2497 47.5967 21.5994 46.0437 23.0207 44.5497C23.2168 44.3365 23.3213 44.0547 23.3117 43.7652C23.3021 43.4757 23.1792 43.2015 22.9694 43.0017C22.7596 42.8019 22.4798 42.6925 22.1902 42.697C21.9005 42.7015 21.6242 42.8195 21.4207 43.0257C20.2007 44.307 19.0311 45.633 17.9117 47.0037L8.19874 41.9237C7.29779 41.4564 6.27633 41.2731 5.2691 41.398C4.26187 41.523 3.31617 41.9504 2.55674 42.6237L0.761744 44.2217C0.537585 44.4219 0.359005 44.6679 0.238071 44.943C0.117136 45.2181 0.0566638 45.516 0.0607401 45.8165C0.0648164 46.117 0.133346 46.4132 0.261699 46.6849C0.390052 46.9566 0.575238 47.1977 0.804744 47.3917L11.4327 56.3767C11.1787 56.8154 10.9291 57.2571 10.6837 57.7017C10.3545 58.3041 10.1824 58.9797 10.1834 59.6661C10.1844 60.3526 10.3585 61.0277 10.6895 61.6291C11.0206 62.2304 11.4979 62.7386 12.0773 63.1067C12.6568 63.4747 13.3197 63.6907 14.0047 63.7347C14.6163 63.7697 15.228 63.6672 15.7947 63.4347C16.2614 63.242 16.7281 63.0444 17.1947 62.8417L24.9127 74.4217C25.0794 74.6717 25.2978 74.883 25.5531 75.0414C25.8084 75.1997 26.0947 75.3015 26.3927 75.3397C26.4417 75.3457 26.4927 75.3507 26.5397 75.3527C26.816 75.3685 27.0927 75.3296 27.3539 75.2381C27.6151 75.1467 27.8557 75.0045 28.0617 74.8197L29.8557 73.2197C30.6106 72.5416 31.1422 71.6507 31.3805 70.6644C31.6188 69.678 31.5527 68.6427 31.1907 67.6947L27.2437 57.4687C28.9211 56.3894 30.5517 55.2394 32.1357 54.0187L45.7357 43.5347L62.9857 69.6217C63.2563 70.0314 63.612 70.378 64.0286 70.6378C64.4452 70.8977 64.9128 71.0648 65.3997 71.1277C65.4817 71.1384 65.5641 71.146 65.6467 71.1507C66.0954 71.1764 66.5448 71.1133 66.9691 70.9653C67.3934 70.8172 67.7844 70.587 68.1197 70.2877L71.6137 67.1697C72.543 66.3431 73.2054 65.2588 73.5166 64.0547C73.8279 62.8506 73.774 61.5811 73.3617 60.4077L71.8057 55.9517L75.1107 53.0027C75.6021 52.5632 75.899 51.9467 75.9365 51.2886C75.974 50.6304 75.749 49.9842 75.3107 49.4917M2.32774 45.7917L4.02774 44.2757C4.4514 43.9006 4.97879 43.6626 5.54039 43.5931C6.102 43.5237 6.67147 43.6261 7.17374 43.8867L16.5127 48.7727L16.4467 48.8607C16.3167 49.0307 16.1877 49.2014 16.0597 49.3727L15.8727 49.6237C15.4361 50.2124 15.0084 50.8074 14.5897 51.4087L14.4327 51.6347C14.3094 51.8147 14.1864 51.9947 14.0637 52.1747L13.8747 52.4557C13.7567 52.6317 13.6387 52.8087 13.5227 52.9857L13.3467 53.2577C13.1541 53.5537 12.9634 53.8517 12.7747 54.1517C12.7107 54.2517 12.6447 54.3567 12.5807 54.4597L2.32774 45.7917ZM29.1277 68.4917C29.3294 69.0204 29.3662 69.5978 29.2332 70.1478C29.1002 70.6978 28.8037 71.1946 28.3827 71.5727L26.6827 73.0887L19.2367 61.9137C19.4161 61.829 19.5944 61.7434 19.7717 61.6567C20.0264 61.534 20.2801 61.4097 20.5327 61.2837L20.8907 61.1037C21.0821 61.0077 21.2724 60.9107 21.4617 60.8127L21.7457 60.6647C22.3997 60.3234 23.0481 59.9717 23.6907 59.6097L23.9427 59.4677C24.1427 59.355 24.3407 59.241 24.5367 59.1257L24.7737 58.9867C24.9607 58.8767 25.1487 58.7677 25.3337 58.6577L29.1277 68.4917ZM66.7177 38.6077C66.7448 38.5835 66.7763 38.5649 66.8106 38.5529C66.8448 38.5409 66.8811 38.5358 66.9173 38.5379C66.9535 38.5399 66.989 38.5491 67.0217 38.5648C67.0543 38.5806 67.0836 38.6026 67.1077 38.6297L68.8447 40.5767C68.8689 40.6038 68.8876 40.6353 68.8995 40.6695C68.9115 40.7038 68.9166 40.7401 68.9146 40.7763C68.9126 40.8125 68.9034 40.848 68.8876 40.8806C68.8719 40.9133 68.8498 40.9426 68.8227 40.9667L67.1077 42.4967L66.2507 40.0417L65.9797 39.2667L66.7177 38.6077ZM70.1407 65.5257L66.6457 68.6437C66.516 68.7595 66.3628 68.846 66.1967 68.8974C66.0305 68.9487 65.8553 68.9637 65.6828 68.9413C65.5103 68.9189 65.3447 68.8597 65.1972 68.7676C65.0496 68.6755 64.9236 68.5528 64.8277 68.4077L47.4897 42.1817L51.6187 38.9977L61.0187 31.7517L71.2787 61.1347C71.5462 61.896 71.5812 62.7198 71.379 63.501C71.1769 64.2822 70.7469 64.9856 70.1437 65.5217M73.6437 51.3517L71.0207 53.6917L69.8927 50.4617L71.5387 48.9927C71.5658 48.9685 71.5973 48.9499 71.6316 48.9379C71.6658 48.9259 71.7021 48.9208 71.7383 48.9229C71.7745 48.9249 71.81 48.9341 71.8427 48.9498C71.8753 48.9656 71.9046 48.9876 71.9287 49.0147L73.6617 50.9617C73.7103 51.0164 73.7353 51.0882 73.7312 51.1612C73.7271 51.2343 73.6942 51.3028 73.6397 51.3517" fill="black"/>
</svg>
