<svg width="84" height="90" viewBox="0 0 84 90" fill="none" xmlns="http://www.w3.org/2000/svg">
<path d="M34.7222 14.1C34.1494 14.1015 33.5852 13.9603 33.0806 13.6892C32.576 13.418 32.1469 13.0254 31.832 12.5469C31.5171 12.0684 31.3264 11.519 31.277 10.9482C31.2276 10.3775 31.3212 9.80351 31.5492 9.27801C32.1447 7.94837 33.0041 6.75354 34.0752 5.76601C36.6052 3.49847 39.9243 2.31489 43.3182 2.47001C45.4928 2.40603 47.6502 2.87354 49.6033 3.83201C51.3231 4.73252 52.7596 6.09221 53.7532 7.76001C54.7649 9.37774 55.3046 11.246 55.3112 13.154C55.3099 14.1871 55.141 15.213 54.8112 16.192C54.4317 17.2811 53.903 18.3122 53.2402 19.256C52.3352 20.3777 51.3271 21.4122 50.2292 22.346C49.187 23.2261 48.2313 24.2039 47.3752 25.266C46.9338 25.9646 46.6067 26.7293 46.4062 27.531C46.1738 28.4523 46.0289 29.3935 45.9732 30.342C45.9506 30.6451 45.8144 30.9284 45.592 31.1355C45.3695 31.3426 45.0771 31.4581 44.7732 31.459H39.9922C39.6781 31.4578 39.3769 31.334 39.1528 31.1139C38.9286 30.8939 38.7993 30.595 38.7922 30.281C38.7622 28.0887 39.1996 25.9151 40.0752 23.905C41.0554 21.8299 42.4765 19.9935 44.2392 18.524C45.4744 17.532 46.5968 16.4073 47.5862 15.17C47.9797 14.5242 48.1796 13.7791 48.1622 13.023C48.1632 12.4737 48.0374 11.9315 47.7946 11.4387C47.5518 10.9459 47.1985 10.5159 46.7623 10.182C45.6879 9.35933 44.3556 8.9463 43.0043 9.01701C41.5522 8.96086 40.1348 9.46986 39.0502 10.437C38.5498 10.8917 38.1528 11.4486 37.8862 12.07C37.6141 12.68 37.1697 13.1971 36.6075 13.5577C36.0454 13.9184 35.3901 14.1069 34.7222 14.1ZM42.4802 38.265C43.0836 38.2541 43.6829 38.3643 44.2429 38.5891C44.8029 38.814 45.312 39.1489 45.7402 39.574C46.1734 39.9789 46.5172 40.4699 46.7495 41.0155C46.9818 41.561 47.0975 42.1491 47.0892 42.742C47.0974 43.3358 46.983 43.9248 46.7531 44.4724C46.5232 45.0199 46.1828 45.5141 45.7532 45.924C44.8978 46.7712 43.7426 47.2465 42.5387 47.2465C41.3348 47.2465 40.1796 46.7712 39.3242 45.924C38.6936 45.2992 38.263 44.5011 38.0869 43.631C37.9109 42.761 37.9974 41.8582 38.3356 41.0374C38.6737 40.2166 39.2481 39.5149 39.9859 39.0212C40.7237 38.5276 41.5915 38.2644 42.4792 38.265H42.4802Z" stroke="black" stroke-width="3" stroke-linecap="round" stroke-linejoin="round"/>
<path d="M36.6141 52.516L28.5511 48.084C28.353 47.974 28.1347 47.9052 27.9093 47.8818C27.6839 47.8584 27.4561 47.8808 27.2396 47.9478C27.0231 48.0148 26.8224 48.125 26.6496 48.2716C26.4768 48.4182 26.3355 48.5983 26.2341 48.801L23.6611 53.948L29.3681 63.936C29.4908 64.1506 29.6594 64.3356 29.8618 64.4775C30.0642 64.6195 30.2955 64.715 30.5391 64.7572C30.7827 64.7994 31.0326 64.7874 31.271 64.7218C31.5094 64.6563 31.7304 64.5388 31.9181 64.378L42.1271 55.627L37.5481 53.083" stroke="black" stroke-width="3" stroke-linecap="round" stroke-linejoin="round"/>
<path d="M58.0214 48.799C57.9201 48.5963 57.7788 48.4162 57.606 48.2696C57.4332 48.123 57.2325 48.0129 57.016 47.9459C56.7995 47.8789 56.5717 47.8564 56.3463 47.8798C56.1208 47.9032 55.9025 47.972 55.7044 48.082L42.1284 55.624L52.3374 64.375C52.5252 64.5358 52.7462 64.6533 52.9846 64.7188C53.2229 64.7844 53.4728 64.7964 53.7164 64.7542C53.96 64.712 54.1913 64.6165 54.3937 64.4746C54.5962 64.3326 54.7647 64.1477 54.8874 63.9331L60.5954 53.945L58.0214 48.799Z" stroke="black" stroke-width="3" stroke-linecap="round" stroke-linejoin="round"/>
<path d="M47.1814 60.594L46.2674 63.335C46.0454 64.0043 45.6182 64.5867 45.0464 64.9996C44.4747 65.4124 43.7876 65.6347 43.0824 65.635H41.2074C40.5022 65.6347 39.815 65.4124 39.2433 64.9996C38.6716 64.5867 38.2444 64.0043 38.0224 63.335L37.1084 60.594" stroke="black" stroke-width="3" stroke-linecap="round" stroke-linejoin="round"/>
<path d="M39.5983 65.531L38.0483 87.552" stroke="black" stroke-width="3" stroke-linecap="round" stroke-linejoin="round"/>
<path d="M44.665 65.293L46.264 87.752" stroke="black" stroke-width="3" stroke-linecap="round" stroke-linejoin="round"/>
<path d="M1.84424 87.591V68.0991C1.84418 65.9453 2.53444 63.8482 3.81371 62.1156C5.09299 60.383 6.89392 59.106 8.95224 58.472L23.6522 53.946" stroke="black" stroke-width="3" stroke-linecap="round" stroke-linejoin="round"/>
<path d="M82.1562 87.518V68.026C82.1565 65.8717 81.4662 63.774 80.1865 62.0409C78.9068 60.3078 77.1052 59.0307 75.0462 58.397L60.3462 53.871" stroke="black" stroke-width="3" stroke-linecap="round" stroke-linejoin="round"/>
</svg>
