<svg width="280" height="51" viewBox="0 0 280 51" fill="none" xmlns="http://www.w3.org/2000/svg">
<path d="M79.2248 9.44446V26.7143H78.031V17.8635H67.4496V26.7143H66.2558V9.44446H67.4496V16.7841H78.031V9.44446H79.2248Z" fill="white"/>
<path d="M83.3488 31.1397H84.4341C85.6279 31.1397 86.0077 30.3842 86.2248 29.7365L87.093 27.5238C87.2015 27.254 87.2558 26.9842 87.2558 26.7143C87.2558 26.4445 87.2558 26.1746 87.093 25.8508L81.8837 14.1397H83.186L88.0697 25.1492L92.7364 14.1397H94.0387L87.2558 30.3842C86.8217 31.4096 86.0077 32.381 84.6511 32.381H83.4031V31.1397H83.3488Z" fill="white"/>
<path d="M96.155 25.1492L96.8062 24.1238C97.2946 24.9333 98.7054 25.9587 100.388 25.9047C102.558 25.9047 103.589 24.8794 103.589 23.6381C103.589 22.3968 101.798 21.4794 100.442 20.9397C98.4884 20.0762 96.1008 19.3206 96.1008 16.7841C96.1008 14.2476 98 13.546 100.062 13.546C102.124 13.546 102.775 14.0317 103.806 15.219L103.101 16.0825C102.395 15.273 101.364 14.7873 100.062 14.7873C98.7597 14.7873 97.2946 15.7587 97.2946 16.7841C97.2946 18.2413 98.4341 18.727 100.713 19.6984C102.558 20.454 104.837 21.3174 104.837 23.6381C104.837 25.9587 103.155 27.146 100.388 27.146C97.6201 27.146 96.8605 26.2286 96.155 25.1492Z" fill="white"/>
<path d="M109.233 23.5841C109.233 25.0953 109.992 25.6889 111.186 25.6889C112.38 25.6889 112.597 25.4191 112.922 25.2032V26.4445C112.543 26.6603 111.946 26.8762 111.186 26.8762C109.504 26.8762 108.039 25.9048 108.039 23.5841V15.273H105.977V14.1397H107.333C107.767 14.1397 108.039 13.8699 108.039 13.3841V10.4159H109.233V14.1397H112.922V15.273H109.233V23.5841Z" fill="white"/>
<path d="M127.031 20.4H116.287C116.287 23.4762 118.24 26.0667 121.442 26.0667C124.643 26.0667 124.481 25.473 125.403 24.0698L126.217 24.8254C125.349 26.2286 123.45 27.2 121.388 27.2C117.481 27.2 115.093 24.1238 115.093 20.346C115.093 16.5683 117.535 13.4921 121.062 13.4921C124.589 13.4921 126.977 16.5683 126.977 20.2921L127.031 20.4ZM116.395 19.2667H125.729C125.349 16.6762 123.558 14.6794 121.062 14.6794C118.566 14.6794 116.775 16.6762 116.395 19.2667Z" fill="white"/>
<path d="M135.767 13.7619V14.8953C135.55 14.8953 135.062 14.7334 134.736 14.7334C131.698 14.7334 130.558 17.2159 130.558 19.3207V26.7683H129.364V14.1937H130.558V16.2445C131.155 14.8413 132.403 13.654 134.736 13.654C137.07 13.654 135.605 13.7619 135.822 13.8159L135.767 13.7619Z" fill="white"/>
<path d="M148.953 20.4H138.209C138.209 23.4762 140.163 26.0667 143.364 26.0667C146.566 26.0667 146.403 25.473 147.326 24.0698L148.14 24.8254C147.271 26.2286 145.372 27.2 143.31 27.2C139.403 27.2 137.015 24.1238 137.015 20.346C137.015 16.5683 139.457 13.4921 142.984 13.4921C146.512 13.4921 148.899 16.5683 148.899 20.2921L148.953 20.4ZM138.372 19.2667H147.705C147.326 16.6762 145.535 14.6794 143.039 14.6794C140.543 14.6794 138.752 16.6762 138.372 19.2667Z" fill="white"/>
<path d="M150.961 20.4C150.961 16.6222 153.837 13.546 157.419 13.546C161 13.546 161.271 14.5714 162.411 16.1365L161.543 16.946C160.62 15.5968 159.101 14.6794 157.419 14.6794C154.543 14.6794 152.209 17.2698 152.209 20.346C152.209 23.4222 154.543 26.0127 157.419 26.0127C160.295 26.0127 160.62 25.0952 161.597 23.746L162.519 24.5016C161.326 26.1746 159.481 27.2 157.419 27.2C153.837 27.2 150.961 24.1238 150.961 20.346V20.4Z" fill="white"/>
<path d="M167.077 23.5841C167.077 25.0953 167.837 25.6889 169.031 25.6889C170.225 25.6889 170.442 25.4191 170.767 25.2032V26.4445C170.388 26.6603 169.791 26.8762 169.031 26.8762C167.349 26.8762 165.884 25.9048 165.884 23.5841V15.273H163.822V14.1397H165.178C165.612 14.1397 165.884 13.8699 165.884 13.3841V10.4159H167.077V14.1397H170.767V15.273H167.077V23.5841Z" fill="white"/>
<path d="M172.992 20.4C172.992 16.6222 175.868 13.546 179.45 13.546C183.031 13.546 185.853 16.6222 185.853 20.4C185.853 24.1778 182.977 27.254 179.45 27.254C175.922 27.254 172.992 24.1778 172.992 20.4ZM184.605 20.4C184.605 17.3238 182.271 14.7333 179.395 14.7333C176.519 14.7333 174.186 17.3238 174.186 20.4C174.186 23.4762 176.519 26.0667 179.395 26.0667C182.271 26.0667 184.605 23.4762 184.605 20.4Z" fill="white"/>
<path d="M204.736 18.5111V26.7683H203.543V18.5651C203.543 16.1365 202.403 14.8413 200.504 14.8413C198.605 14.8413 197.14 16.4603 197.14 18.8349V26.7683H195.946V18.5651C195.946 16.1365 194.86 14.8413 192.907 14.8413C190.953 14.8413 189.543 16.4603 189.543 18.8349V26.7683H188.349V14.1937H189.543V15.8127C190.248 14.3556 191.659 13.7079 193.015 13.7079C194.372 13.7079 196.163 14.5175 196.76 16.2445C197.411 14.5175 199.039 13.7079 200.558 13.7079C203.054 13.7079 204.682 15.273 204.682 18.5651L204.736 18.5111Z" fill="white"/>
<path d="M207.667 31.1397H208.752C209.946 31.1397 210.326 30.3842 210.543 29.7365L211.411 27.5238C211.519 27.254 211.574 26.9842 211.574 26.7143C211.574 26.4445 211.574 26.1746 211.411 25.8508L206.256 14.1397H207.558L212.442 25.1492L217.109 14.1397H218.411L211.628 30.3842C211.194 31.4096 210.38 32.381 209.023 32.381H207.775V31.1397H207.667Z" fill="white"/>
<path d="M219.659 25.6889C219.659 24.8794 220.31 24.2318 221.07 24.2318C221.829 24.2318 222.481 24.9333 222.481 25.6889C222.481 26.4444 221.829 27.146 221.07 27.146C220.31 27.146 219.659 26.4984 219.659 25.6889Z" fill="url(#paint0_linear_5_46)"/>
<path d="M224.868 20.4C224.868 16.6222 227.744 13.546 231.326 13.546C234.907 13.546 235.558 14.7333 236.752 16.7301L234.961 18.2952C234.256 16.8381 232.574 15.9746 231.326 15.9746C228.992 15.9746 227.202 17.9174 227.202 20.4C227.202 22.8825 228.992 24.8254 231.326 24.8254C233.659 24.8254 234.256 23.854 235.015 22.4508L236.806 23.854C235.612 25.9048 233.496 27.2 231.271 27.2C227.69 27.2 224.814 24.1238 224.814 20.346L224.868 20.4Z" fill="url(#paint1_linear_5_46)"/>
<path d="M238.814 20.4C238.814 16.6222 241.69 13.546 245.271 13.546C248.853 13.546 251.674 16.6222 251.674 20.4C251.674 24.1778 248.798 27.254 245.271 27.254C241.744 27.254 238.814 24.1778 238.814 20.4ZM249.341 20.4C249.341 17.8635 247.55 15.9746 245.217 15.9746C242.884 15.9746 241.093 17.9174 241.093 20.4C241.093 22.8825 242.884 24.8254 245.217 24.8254C247.55 24.8254 249.341 22.8825 249.341 20.4Z" fill="url(#paint2_linear_5_46)"/>
<path d="M271.752 18.5111V26.7683H269.419V19.0508C269.419 16.8381 268.171 16.0286 266.76 16.0286C265.349 16.0286 264.209 17.1619 264.209 19.3206V26.7683H261.876V19.3206C261.876 17 260.628 16.0825 259.217 16.0825C257.806 16.0825 256.721 17.1619 256.667 19.5365V26.7683H254.333V14.1937H256.667V15.8667H256.775C257.264 14.4635 258.729 13.7079 259.977 13.7079C261.767 13.7079 263.124 14.4095 263.775 15.9746C264.481 14.3556 266.217 13.7079 267.519 13.7079C270.124 13.7079 271.806 15.273 271.806 18.5651L271.752 18.5111Z" fill="url(#paint3_linear_5_46)"/>
<path d="M66.907 35.7809H65.3333V35.1873H69.1861V35.7809H67.6124V40.4222H66.907V35.7809Z" fill="#A8ADB0"/>
<path d="M69.6744 34.9174H70.3798V37.2381C70.4884 37.0222 70.6512 36.8603 70.8682 36.7523C71.0853 36.6444 71.3023 36.5904 71.5736 36.5904C72.062 36.5904 72.876 36.9142 72.876 38.1555V40.3682H72.1705V38.2095C72.1705 37.6158 71.9535 37.1301 71.3023 37.1301C70.6512 37.1301 70.5426 37.4539 70.3798 37.7777C70.3798 37.8857 70.3798 37.9936 70.3798 38.1015V40.3682H69.6744V34.9174Z" fill="#A8ADB0"/>
<path d="M74.3411 38.6413C74.3411 39.5587 74.938 39.9365 75.6434 39.9365C76.3489 39.9365 76.4574 39.8286 76.6744 39.7206L76.783 40.2063C76.5659 40.3143 76.1318 40.4222 75.5349 40.4222C74.3954 40.4222 73.6899 39.6667 73.6899 38.5333C73.6899 37.4 74.3411 36.5365 75.4264 36.5365C76.5116 36.5365 77 37.6159 77 38.2635C77 38.9111 77 38.4794 77 38.5873H74.3954L74.3411 38.6413ZM76.3489 38.1555C76.3489 37.7238 76.1861 37.0762 75.4264 37.0762C74.6667 37.0762 74.4496 37.7238 74.3954 38.1555H76.4031H76.3489Z" fill="#A8ADB0"/>
<path d="M79.4961 35.1873H82.3178V35.727H80.2016V37.4539H82.155V37.9936H80.2016V40.3143H79.4961V35.1333V35.1873Z" fill="#A8ADB0"/>
<path d="M83.7829 35.619C83.7829 35.8349 83.6202 36.0508 83.3488 36.0508C83.0775 36.0508 82.9147 35.8888 82.9147 35.619C82.9147 35.3492 83.0775 35.1873 83.3488 35.1873C83.6202 35.1873 83.7829 35.3492 83.7829 35.619ZM83.0233 40.3682V36.6444H83.7287V40.3682H83.0233Z" fill="#A8ADB0"/>
<path d="M84.814 37.6698C84.814 37.2921 84.814 36.9682 84.814 36.6444H85.4109V37.2381C85.5737 36.9143 86.0078 36.5365 86.6589 36.5365C87.3101 36.5365 87.9613 36.8603 87.9613 38.1016V40.3143H87.2558V38.1555C87.2558 37.5619 87.0388 37.0762 86.3876 37.0762C85.7364 37.0762 85.5737 37.4 85.4651 37.7778C85.4651 37.8857 85.4651 37.9936 85.4651 38.1016V40.3143H84.7597V37.6159L84.814 37.6698Z" fill="#A8ADB0"/>
<path d="M91.7597 39.4508C91.7597 39.7746 91.7597 40.0984 91.814 40.3682H91.2171V39.8825H91.1628C90.9457 40.1524 90.5659 40.4222 90.0233 40.4222C89.2636 40.4222 88.8837 39.8825 88.8837 39.3429C88.8837 38.4254 89.6977 37.9397 91.1085 37.9397C91.1085 37.5619 91 37.0222 90.2403 37.0222C89.8605 37.0222 89.5349 37.1302 89.2636 37.2921L89.1008 36.8603C89.4264 36.6444 89.8605 36.5365 90.3488 36.5365C91.4884 36.5365 91.7597 37.2921 91.7597 38.0476V39.4508ZM91.1085 38.4794C90.3488 38.4794 89.5349 38.5873 89.5349 39.3429C89.5349 40.0984 89.8062 39.9905 90.1861 39.9905C90.6744 39.9905 91 39.6667 91.1085 39.3429C91.1085 39.2889 91.1085 39.1809 91.1085 39.127V38.4794Z" fill="#A8ADB0"/>
<path d="M92.845 34.9174H93.5504V40.3682H92.845V34.9174Z" fill="#A8ADB0"/>
<path d="M96.9148 40.3682L95.6124 35.1873H96.3179L96.9148 37.8317C97.0775 38.4793 97.1861 39.1269 97.2946 39.6127C97.4031 39.073 97.5659 38.4793 97.7287 37.8317L98.4341 35.2412H99.1396L99.7907 37.8857C99.9535 38.4793 100.062 39.1269 100.171 39.6666C100.279 39.073 100.442 38.5333 100.605 37.8857L101.31 35.2952H102.016L100.55 40.4761H99.845L99.1938 37.7777C99.031 37.1301 98.9225 36.5904 98.8682 36.1047C98.7597 36.6444 98.6512 37.1301 98.4884 37.7777L97.7287 40.4761H97.0233L96.9148 40.3682Z" fill="#A8ADB0"/>
<path d="M105.705 38.4793C105.705 39.8825 104.729 40.4762 103.86 40.4762C102.992 40.4762 102.07 39.7206 102.07 38.5873C102.07 37.4539 102.884 36.6444 103.915 36.6444C104.946 36.6444 105.705 37.4 105.705 38.5333V38.4793ZM102.775 38.5333C102.775 39.3428 103.264 39.9904 103.915 39.9904C104.566 39.9904 105.054 39.3968 105.054 38.5333C105.054 37.6698 104.729 37.1301 103.915 37.1301C103.101 37.1301 102.775 37.8857 102.775 38.5873V38.5333Z" fill="#A8ADB0"/>
<path d="M106.574 37.8317C106.574 37.4 106.574 37.0222 106.574 36.6444H107.171V37.4C107.333 36.9143 107.767 36.5905 108.202 36.5905C108.636 36.5905 108.31 36.5905 108.364 36.5905V37.2381C108.31 37.2381 108.202 37.2381 108.147 37.2381C107.659 37.2381 107.333 37.6158 107.225 38.1016C107.225 38.2095 107.225 38.3174 107.225 38.4254V40.4222H106.519V37.8857L106.574 37.8317Z" fill="#A8ADB0"/>
<path d="M112.271 34.9174V39.3968C112.271 39.7206 112.271 40.0984 112.271 40.3682H111.674V39.7206C111.457 40.1523 111.023 40.4762 110.426 40.4762C109.504 40.4762 108.798 39.7206 108.798 38.5873C108.798 37.346 109.558 36.5904 110.481 36.5904C111.403 36.5904 111.457 36.8603 111.62 37.1301V34.9174H112.271ZM111.566 38.1555C111.566 38.0476 111.566 37.9396 111.566 37.8857C111.457 37.4539 111.078 37.1301 110.589 37.1301C110.101 37.1301 109.45 37.7238 109.45 38.5873C109.45 39.4508 109.829 39.9904 110.535 39.9904C111.24 39.9904 111.403 39.6666 111.512 39.1809C111.512 39.073 111.512 39.019 111.512 38.9111V38.2635L111.566 38.1555Z" fill="#A8ADB0"/>
<path d="M115.093 40.3682V37.1841H114.55V36.6444H115.093V36.4825C115.093 35.9428 115.202 35.4571 115.527 35.1873C115.798 34.9174 116.124 34.8635 116.45 34.8635C116.775 34.8635 116.884 34.8635 117.047 34.9714L116.938 35.5111C116.829 35.5111 116.721 35.4031 116.504 35.4031C115.907 35.4031 115.798 35.8889 115.798 36.4825V36.6984H116.721V37.2381H115.798V40.4222H115.147L115.093 40.3682Z" fill="#A8ADB0"/>
<path d="M117.264 37.8317C117.264 37.4 117.264 37.0222 117.264 36.6444H117.86V37.4C118.023 36.9143 118.457 36.5905 118.891 36.5905C119.326 36.5905 119 36.5905 119.054 36.5905V37.2381C119 37.2381 118.891 37.2381 118.837 37.2381C118.349 37.2381 118.023 37.6158 117.915 38.1016C117.915 38.2095 117.915 38.3174 117.915 38.4254V40.4222H117.209V37.8857L117.264 37.8317Z" fill="#A8ADB0"/>
<path d="M123.124 38.4793C123.124 39.8825 122.147 40.4762 121.279 40.4762C120.411 40.4762 119.488 39.7206 119.488 38.5873C119.488 37.4539 120.302 36.6444 121.333 36.6444C122.364 36.6444 123.124 37.4 123.124 38.5333V38.4793ZM120.14 38.5333C120.14 39.3428 120.628 39.9904 121.279 39.9904C121.93 39.9904 122.419 39.3968 122.419 38.5333C122.419 37.6698 122.093 37.1301 121.279 37.1301C120.465 37.1301 120.14 37.8857 120.14 38.5873V38.5333Z" fill="#A8ADB0"/>
<path d="M123.992 37.6698C123.992 37.2921 123.992 36.9682 123.992 36.6444H124.589V37.2381C124.806 36.8603 125.132 36.5365 125.783 36.5365C126.434 36.5365 126.651 36.8603 126.814 37.2921C126.922 37.0762 127.085 36.9143 127.248 36.8063C127.465 36.6444 127.736 36.5365 128.062 36.5365C128.55 36.5365 129.31 36.8603 129.31 38.1555V40.3143H128.659V38.2095C128.659 37.5079 128.388 37.0762 127.845 37.0762C127.302 37.0762 127.14 37.346 127.031 37.6698C127.031 37.7778 127.031 37.8857 127.031 37.9936V40.3143H126.38V38.1016C126.38 37.5079 126.109 37.0762 125.62 37.0762C125.132 37.0762 124.86 37.4 124.752 37.7778C124.752 37.8857 124.698 37.9936 124.698 38.1016V40.3143H124.047V37.6159L123.992 37.6698Z" fill="#A8ADB0"/>
<path d="M132.891 35.7809V36.6984H133.868V37.2381H132.891V39.2349C132.891 39.7206 133 39.9365 133.38 39.9365C133.76 39.9365 133.651 39.9365 133.76 39.9365V40.4762C133.651 40.4762 133.434 40.5841 133.163 40.5841C132.891 40.5841 132.566 40.4762 132.403 40.3143C132.24 40.0984 132.132 39.7746 132.132 39.3428V37.2921H131.535V36.7524H132.132V36.0508L132.783 35.8349L132.891 35.7809Z" fill="#A8ADB0"/>
<path d="M134.628 34.9174H135.333V37.2381C135.442 37.0222 135.605 36.8603 135.822 36.7523C136.039 36.6444 136.256 36.5904 136.527 36.5904C137.016 36.5904 137.829 36.9142 137.829 38.1555V40.3682H137.124V38.2095C137.124 37.6158 136.907 37.1301 136.256 37.1301C135.605 37.1301 135.496 37.4539 135.333 37.7777C135.333 37.8857 135.333 37.9936 135.333 38.1015V40.3682H134.628V34.9174Z" fill="#A8ADB0"/>
<path d="M139.295 38.6413C139.295 39.5587 139.891 39.9365 140.597 39.9365C141.302 39.9365 141.411 39.8286 141.628 39.7206L141.736 40.2063C141.519 40.3143 141.085 40.4222 140.488 40.4222C139.349 40.4222 138.643 39.6667 138.643 38.5333C138.643 37.4 139.295 36.5365 140.38 36.5365C141.465 36.5365 141.954 37.6159 141.954 38.2635C141.954 38.9111 141.954 38.4794 141.954 38.5873H139.349L139.295 38.6413ZM141.302 38.1555C141.302 37.7238 141.14 37.0762 140.38 37.0762C139.62 37.0762 139.403 37.7238 139.349 38.1555H141.357H141.302Z" fill="#A8ADB0"/>
<path d="M144.992 40.3682L143.69 35.1873H144.395L144.992 37.8317C145.155 38.4793 145.264 39.1269 145.372 39.6127C145.481 39.073 145.643 38.4793 145.806 37.8317L146.512 35.2412H147.217L147.868 37.8857C148.031 38.4793 148.14 39.1269 148.248 39.6666C148.357 39.073 148.519 38.5333 148.682 37.8857L149.388 35.2952H150.093L148.628 40.4761H147.923L147.271 37.7777C147.109 37.1301 147 36.5904 146.946 36.1047C146.837 36.6444 146.729 37.1301 146.566 37.7777L145.806 40.4761H145.101L144.992 40.3682Z" fill="#A8ADB0"/>
<path d="M153.837 38.4793C153.837 39.8825 152.86 40.4762 151.992 40.4762C151.124 40.4762 150.202 39.7206 150.202 38.5873C150.202 37.4539 151.016 36.6444 152.047 36.6444C153.078 36.6444 153.837 37.4 153.837 38.5333V38.4793ZM150.853 38.5333C150.853 39.3428 151.341 39.9904 151.992 39.9904C152.643 39.9904 153.132 39.3968 153.132 38.5333C153.132 37.6698 152.806 37.1301 151.992 37.1301C151.178 37.1301 150.853 37.8857 150.853 38.5873V38.5333Z" fill="#A8ADB0"/>
<path d="M154.651 37.8317C154.651 37.4 154.651 37.0222 154.651 36.6444H155.248V37.4C155.411 36.9143 155.845 36.5905 156.279 36.5905C156.713 36.5905 156.388 36.5905 156.442 36.5905V37.2381C156.388 37.2381 156.279 37.2381 156.225 37.2381C155.736 37.2381 155.411 37.6158 155.302 38.1016C155.302 38.2095 155.302 38.3174 155.302 38.4254V40.4222H154.597V37.8857L154.651 37.8317Z" fill="#A8ADB0"/>
<path d="M157.256 34.9174H157.961V40.3682H157.256V34.9174Z" fill="#A8ADB0"/>
<path d="M162.302 34.9174V39.3968C162.302 39.7206 162.302 40.0984 162.302 40.3682H161.705V39.7206C161.488 40.1523 161.054 40.4762 160.457 40.4762C159.535 40.4762 158.829 39.7206 158.829 38.5873C158.829 37.346 159.589 36.5904 160.512 36.5904C161.434 36.5904 161.488 36.8603 161.651 37.1301V34.9174H162.302ZM161.597 38.1555C161.597 38.0476 161.597 37.9396 161.597 37.8857C161.488 37.4539 161.109 37.1301 160.62 37.1301C160.132 37.1301 159.481 37.7238 159.481 38.5873C159.481 39.4508 159.86 39.9904 160.566 39.9904C161.271 39.9904 161.434 39.6666 161.543 39.1809C161.543 39.073 161.543 39.019 161.543 38.9111V38.2635L161.597 38.1555Z" fill="#A8ADB0"/>
<path d="M163.93 35.0254L163.822 36.8603H163.388L163.279 35.0254H163.93Z" fill="#A8ADB0"/>
<path d="M164.798 39.6667C165.016 39.7746 165.341 39.9365 165.721 39.9365C166.209 39.9365 166.426 39.7206 166.426 39.3968C166.426 39.073 166.209 38.9111 165.721 38.6952C165.016 38.4254 164.744 38.1016 164.744 37.6159C164.744 37.1301 165.233 36.5365 166.047 36.5365C166.86 36.5365 166.752 36.6444 166.969 36.7524L166.806 37.2381C166.643 37.1302 166.372 37.0222 166.047 37.0222C165.721 37.0222 165.45 37.2381 165.45 37.5079C165.45 37.7778 165.667 37.9397 166.155 38.1555C166.806 38.3714 167.132 38.6952 167.132 39.2889C167.132 39.8825 166.589 40.4222 165.721 40.4222C164.853 40.4222 164.907 40.3143 164.69 40.1524L164.853 39.6667H164.798Z" fill="#A8ADB0"/>
<path d="M169.574 35.1873H170.279V39.8285H172.504V40.3682H169.574V35.1873Z" fill="#A8ADB0"/>
<path d="M173.481 38.6413C173.481 39.5587 174.078 39.9365 174.783 39.9365C175.488 39.9365 175.597 39.8286 175.814 39.7206L175.922 40.2063C175.705 40.3143 175.271 40.4222 174.674 40.4222C173.535 40.4222 172.829 39.6667 172.829 38.5333C172.829 37.4 173.481 36.5365 174.566 36.5365C175.651 36.5365 176.14 37.6159 176.14 38.2635C176.14 38.9111 176.14 38.4794 176.14 38.5873H173.535L173.481 38.6413ZM175.488 38.1555C175.488 37.7238 175.326 37.0762 174.566 37.0762C173.806 37.0762 173.589 37.7238 173.535 38.1555H175.543H175.488Z" fill="#A8ADB0"/>
<path d="M179.612 39.4508C179.612 39.7746 179.612 40.0984 179.612 40.3682H179.016V39.8825H178.961C178.744 40.1524 178.364 40.4222 177.822 40.4222C177.062 40.4222 176.682 39.8825 176.682 39.3429C176.682 38.4254 177.496 37.9397 178.907 37.9397C178.907 37.5619 178.798 37.0222 178.039 37.0222C177.659 37.0222 177.333 37.1302 177.062 37.2921L176.899 36.8603C177.225 36.6444 177.659 36.5365 178.147 36.5365C179.287 36.5365 179.558 37.2921 179.558 38.0476V39.4508H179.612ZM178.961 38.4794C178.202 38.4794 177.388 38.5873 177.388 39.3429C177.388 40.0984 177.659 39.9905 178.039 39.9905C178.527 39.9905 178.853 39.6667 178.961 39.3429C178.961 39.2889 178.961 39.1809 178.961 39.127V38.4794Z" fill="#A8ADB0"/>
<path d="M183.954 34.9174V39.3968C183.954 39.7206 183.954 40.0984 183.954 40.3682H183.357V39.7206C183.14 40.1523 182.705 40.4762 182.109 40.4762C181.186 40.4762 180.481 39.7206 180.481 38.5873C180.481 37.346 181.24 36.5904 182.163 36.5904C183.085 36.5904 183.14 36.8603 183.302 37.1301V34.9174H183.954ZM183.248 38.1555C183.248 38.0476 183.248 37.9396 183.248 37.8857C183.14 37.4539 182.76 37.1301 182.271 37.1301C181.783 37.1301 181.132 37.7238 181.132 38.5873C181.132 39.4508 181.512 39.9904 182.217 39.9904C182.923 39.9904 183.085 39.6666 183.194 39.1809C183.194 39.073 183.194 39.019 183.194 38.9111V38.2635L183.248 38.1555Z" fill="#A8ADB0"/>
<path d="M185.853 35.619C185.853 35.8349 185.69 36.0508 185.419 36.0508C185.147 36.0508 184.984 35.8888 184.984 35.619C184.984 35.3492 185.147 35.1873 185.419 35.1873C185.69 35.1873 185.853 35.3492 185.853 35.619ZM185.093 40.3682V36.6444H185.798V40.3682H185.093Z" fill="#A8ADB0"/>
<path d="M186.884 37.6698C186.884 37.2921 186.884 36.9682 186.884 36.6444H187.481V37.2381C187.643 36.9143 188.078 36.5365 188.729 36.5365C189.38 36.5365 190.031 36.8603 190.031 38.1016V40.3143H189.326V38.1555C189.326 37.5619 189.109 37.0762 188.457 37.0762C187.806 37.0762 187.643 37.4 187.535 37.7778C187.535 37.8857 187.535 37.9936 187.535 38.1016V40.3143H186.829V37.6159L186.884 37.6698Z" fill="#A8ADB0"/>
<path d="M194.372 39.8285C194.372 40.692 194.209 41.2317 193.829 41.5555C193.45 41.8793 192.907 41.9873 192.473 41.9873C192.039 41.9873 191.55 41.8793 191.225 41.6635L191.388 41.1238C191.659 41.2857 192.039 41.4476 192.473 41.4476C193.178 41.4476 193.667 41.0698 193.667 40.1524V39.7206C193.45 40.0444 193.07 40.3682 192.473 40.3682C191.55 40.3682 190.899 39.5587 190.899 38.5333C190.899 37.5079 191.713 36.5905 192.581 36.5905C193.45 36.5905 193.558 36.9143 193.775 37.2381V36.6984H194.426C194.426 36.9682 194.426 37.292 194.426 37.7238V39.8825L194.372 39.8285ZM193.667 38.1016C193.667 37.9936 193.667 37.8857 193.667 37.7778C193.558 37.4 193.233 37.0762 192.69 37.0762C192.147 37.0762 191.55 37.6159 191.55 38.4793C191.55 39.3428 191.93 39.8285 192.636 39.8285C193.341 39.8285 193.45 39.5587 193.558 39.127C193.558 39.019 193.558 38.8571 193.558 38.7492V38.1016H193.667Z" fill="#A8ADB0"/>
<path d="M197.14 35.1873H197.845V39.8285H200.07V40.3682H197.14V35.1873Z" fill="#A8ADB0"/>
<path d="M203.434 39.4508C203.434 39.7746 203.434 40.0984 203.434 40.3682H202.837V39.8825H202.783C202.566 40.1524 202.186 40.4222 201.643 40.4222C200.884 40.4222 200.504 39.8825 200.504 39.3429C200.504 38.4254 201.318 37.9397 202.729 37.9397C202.729 37.5619 202.62 37.0222 201.86 37.0222C201.481 37.0222 201.155 37.1302 200.884 37.2921L200.721 36.8603C201.047 36.6444 201.481 36.5365 201.969 36.5365C203.109 36.5365 203.38 37.2921 203.38 38.0476V39.4508H203.434ZM202.729 38.4794C201.969 38.4794 201.155 38.5873 201.155 39.3429C201.155 40.0984 201.426 39.9905 201.806 39.9905C202.295 39.9905 202.62 39.6667 202.729 39.3429C202.729 39.2889 202.729 39.1809 202.729 39.127V38.4794Z" fill="#A8ADB0"/>
<path d="M204.519 37.8857C204.519 37.4 204.519 37.0222 204.519 36.6444H205.116V37.292C205.388 36.8603 205.822 36.5905 206.473 36.5905C207.395 36.5905 208.047 37.346 208.047 38.4793C208.047 39.6127 207.233 40.4762 206.364 40.4762C205.496 40.4762 205.442 40.2603 205.225 39.8825V41.8793H204.574V37.8317L204.519 37.8857ZM205.171 38.8571C205.171 38.9651 205.171 39.073 205.171 39.127C205.279 39.6127 205.713 39.9365 206.202 39.9365C206.907 39.9365 207.341 39.3428 207.341 38.4793C207.341 37.6159 206.961 37.0762 206.202 37.0762C205.442 37.0762 205.279 37.4 205.171 37.8857C205.171 37.9936 205.171 38.0476 205.171 38.1555V38.8032V38.8571Z" fill="#A8ADB0"/>
<path d="M211.519 39.4508C211.519 39.7746 211.519 40.0984 211.519 40.3682H210.923V39.8825H210.868C210.651 40.1524 210.271 40.4222 209.729 40.4222C208.969 40.4222 208.589 39.8825 208.589 39.3429C208.589 38.4254 209.403 37.9397 210.814 37.9397C210.814 37.5619 210.705 37.0222 209.946 37.0222C209.566 37.0222 209.24 37.1302 208.969 37.2921L208.806 36.8603C209.132 36.6444 209.566 36.5365 210.054 36.5365C211.194 36.5365 211.465 37.2921 211.465 38.0476V39.4508H211.519ZM210.868 38.4794C210.109 38.4794 209.295 38.5873 209.295 39.3429C209.295 40.0984 209.566 39.9905 209.946 39.9905C210.434 39.9905 210.76 39.6667 210.868 39.3429C210.868 39.2889 210.868 39.1809 210.868 39.127V38.4794Z" fill="#A8ADB0"/>
<path d="M212.659 37.8317C212.659 37.4 212.659 37.0222 212.659 36.6444H213.256V37.4C213.419 36.9143 213.853 36.5905 214.287 36.5905C214.721 36.5905 214.395 36.5905 214.45 36.5905V37.2381C214.395 37.2381 214.287 37.2381 214.233 37.2381C213.744 37.2381 213.419 37.6158 213.31 38.1016C213.31 38.2095 213.31 38.3174 213.31 38.4254V40.4222H212.605V37.8857L212.659 37.8317Z" fill="#A8ADB0"/>
<path d="M218.465 38.4793C218.465 39.8825 217.488 40.4762 216.62 40.4762C215.752 40.4762 214.829 39.7206 214.829 38.5873C214.829 37.4539 215.643 36.6444 216.674 36.6444C217.705 36.6444 218.465 37.4 218.465 38.5333V38.4793ZM215.535 38.5333C215.535 39.3428 216.023 39.9904 216.674 39.9904C217.326 39.9904 217.814 39.3968 217.814 38.5333C217.814 37.6698 217.488 37.1301 216.674 37.1301C215.86 37.1301 215.535 37.8857 215.535 38.5873V38.5333Z" fill="#A8ADB0"/>
<path d="M219.225 39.6667C219.442 39.7746 219.767 39.9365 220.147 39.9365C220.636 39.9365 220.853 39.7206 220.853 39.3968C220.853 39.073 220.636 38.9111 220.147 38.6952C219.442 38.4254 219.171 38.1016 219.171 37.6159C219.171 37.1301 219.659 36.5365 220.473 36.5365C221.287 36.5365 221.178 36.6444 221.395 36.7524L221.233 37.2381C221.07 37.1302 220.798 37.0222 220.473 37.0222C220.147 37.0222 219.876 37.2381 219.876 37.5079C219.876 37.7778 220.093 37.9397 220.581 38.1555C221.233 38.3714 221.558 38.6952 221.558 39.2889C221.558 39.8825 221.016 40.4222 220.147 40.4222C219.279 40.4222 219.333 40.3143 219.116 40.1524L219.279 39.6667H219.225Z" fill="#A8ADB0"/>
<path d="M225.031 40.2603C224.868 40.3682 224.434 40.4762 223.946 40.4762C222.806 40.4762 222.101 39.7206 222.101 38.5873C222.101 37.4539 222.915 36.5905 224.109 36.5905C225.302 36.5905 224.868 36.6984 225.031 36.8063L224.868 37.346C224.705 37.2381 224.434 37.1841 224.054 37.1841C223.186 37.1841 222.752 37.8317 222.752 38.5873C222.752 39.3428 223.295 39.9905 224.054 39.9905C224.814 39.9905 224.705 39.8825 224.868 39.8285L224.977 40.3143L225.031 40.2603Z" fill="#A8ADB0"/>
<path d="M229.209 38.4793C229.209 39.8825 228.233 40.4762 227.364 40.4762C226.496 40.4762 225.574 39.7206 225.574 38.5873C225.574 37.4539 226.388 36.6444 227.419 36.6444C228.45 36.6444 229.209 37.4 229.209 38.5333V38.4793ZM226.225 38.5333C226.225 39.3428 226.713 39.9904 227.364 39.9904C228.016 39.9904 228.504 39.3968 228.504 38.5333C228.504 37.6698 228.178 37.1301 227.364 37.1301C226.55 37.1301 226.225 37.8857 226.225 38.5873V38.5333Z" fill="#A8ADB0"/>
<path d="M230.078 37.8857C230.078 37.4 230.078 37.0222 230.078 36.6444H230.674V37.292C230.946 36.8603 231.38 36.5905 232.031 36.5905C232.953 36.5905 233.605 37.346 233.605 38.4793C233.605 39.6127 232.791 40.4762 231.922 40.4762C231.054 40.4762 231 40.2603 230.783 39.8825V41.8793H230.132V37.8317L230.078 37.8857ZM230.729 38.8571C230.729 38.9651 230.729 39.073 230.729 39.127C230.837 39.6127 231.271 39.9365 231.76 39.9365C232.465 39.9365 232.899 39.3428 232.899 38.4793C232.899 37.6159 232.519 37.0762 231.76 37.0762C231 37.0762 230.837 37.4 230.729 37.8857C230.729 37.9936 230.729 38.0476 230.729 38.1555V38.8032V38.8571Z" fill="#A8ADB0"/>
<path d="M235.233 35.619C235.233 35.8349 235.07 36.0508 234.798 36.0508C234.527 36.0508 234.364 35.8888 234.364 35.619C234.364 35.3492 234.527 35.1873 234.798 35.1873C235.07 35.1873 235.233 35.3492 235.233 35.619ZM234.473 40.3682V36.6444H235.178V40.3682H234.473Z" fill="#A8ADB0"/>
<path d="M238.922 40.2603C238.76 40.3682 238.326 40.4762 237.837 40.4762C236.698 40.4762 235.992 39.7206 235.992 38.5873C235.992 37.4539 236.806 36.5905 238 36.5905C239.194 36.5905 238.76 36.6984 238.922 36.8063L238.76 37.346C238.597 37.2381 238.326 37.1841 237.946 37.1841C237.078 37.1841 236.643 37.8317 236.643 38.5873C236.643 39.3428 237.186 39.9905 237.946 39.9905C238.705 39.9905 238.597 39.8825 238.76 39.8285L238.868 40.3143L238.922 40.2603Z" fill="#A8ADB0"/>
<path d="M241.31 39.5587C241.636 39.7746 242.07 39.8825 242.504 39.8825C243.209 39.8825 243.589 39.5047 243.589 39.019C243.589 38.5333 243.318 38.2635 242.612 37.9936C241.744 37.6698 241.256 37.2381 241.256 36.5365C241.256 35.8349 241.907 35.1333 242.938 35.1333C243.969 35.1333 243.86 35.2412 244.078 35.4031L243.915 35.9428C243.752 35.8349 243.426 35.673 242.938 35.673C242.233 35.673 241.961 36.1047 241.961 36.4285C241.961 36.7523 242.287 37.1301 242.992 37.4539C243.86 37.7777 244.295 38.2095 244.295 38.965C244.295 39.7206 243.698 40.4762 242.504 40.4762C241.31 40.4762 241.473 40.3143 241.147 40.1523L241.31 39.6127V39.5587Z" fill="#A8ADB0"/>
<path d="M248.31 39.3428C248.31 39.7206 248.31 40.0984 248.31 40.3682H247.713V39.7746C247.55 40.0984 247.116 40.4761 246.465 40.4761C245.814 40.4761 245.163 40.1523 245.163 38.8571V36.6984H245.868V38.7492C245.868 39.4507 246.085 39.9365 246.682 39.9365C247.279 39.9365 247.442 39.6127 247.605 39.2888C247.605 39.1809 247.659 39.073 247.659 38.965V36.6984H248.364V39.3968L248.31 39.3428Z" fill="#A8ADB0"/>
<path d="M249.45 37.8317C249.45 37.4 249.45 37.0222 249.45 36.6444H250.047V37.4C250.209 36.9143 250.643 36.5905 251.078 36.5905C251.512 36.5905 251.186 36.5905 251.24 36.5905V37.2381C251.186 37.2381 251.078 37.2381 251.023 37.2381C250.535 37.2381 250.209 37.6158 250.101 38.1016C250.101 38.2095 250.101 38.3174 250.101 38.4254V40.4222H249.395V37.8857L249.45 37.8317Z" fill="#A8ADB0"/>
<path d="M255.093 39.8285C255.093 40.692 254.93 41.2317 254.55 41.5555C254.171 41.8793 253.628 41.9873 253.194 41.9873C252.76 41.9873 252.271 41.8793 251.946 41.6635L252.109 41.1238C252.38 41.2857 252.76 41.4476 253.194 41.4476C253.899 41.4476 254.388 41.0698 254.388 40.1524V39.7206C254.171 40.0444 253.791 40.3682 253.194 40.3682C252.271 40.3682 251.62 39.5587 251.62 38.5333C251.62 37.5079 252.434 36.5905 253.302 36.5905C254.171 36.5905 254.279 36.9143 254.496 37.2381V36.6984H255.147C255.147 36.9682 255.147 37.292 255.147 37.7238V39.8825L255.093 39.8285ZM254.442 38.1016C254.442 37.9936 254.442 37.8857 254.442 37.7778C254.333 37.4 254.008 37.0762 253.465 37.0762C252.923 37.0762 252.326 37.6159 252.326 38.4793C252.326 39.3428 252.705 39.8285 253.411 39.8285C254.116 39.8285 254.225 39.5587 254.333 39.127C254.333 39.019 254.333 38.8571 254.333 38.7492V38.1016H254.442Z" fill="#A8ADB0"/>
<path d="M256.612 38.6413C256.612 39.5587 257.209 39.9365 257.915 39.9365C258.62 39.9365 258.729 39.8286 258.946 39.7206L259.054 40.2063C258.837 40.3143 258.403 40.4222 257.806 40.4222C256.667 40.4222 255.961 39.6667 255.961 38.5333C255.961 37.4 256.612 36.5365 257.698 36.5365C258.783 36.5365 259.271 37.6159 259.271 38.2635C259.271 38.9111 259.271 38.4794 259.271 38.5873H256.667L256.612 38.6413ZM258.62 38.1555C258.62 37.7238 258.457 37.0762 257.698 37.0762C256.938 37.0762 256.721 37.7238 256.667 38.1555H258.674H258.62Z" fill="#A8ADB0"/>
<path d="M263.504 38.4793C263.504 39.8825 262.527 40.4762 261.659 40.4762C260.791 40.4762 259.868 39.7206 259.868 38.5873C259.868 37.4539 260.682 36.6444 261.713 36.6444C262.744 36.6444 263.504 37.4 263.504 38.5333V38.4793ZM260.519 38.5333C260.519 39.3428 261.008 39.9904 261.659 39.9904C262.31 39.9904 262.798 39.3968 262.798 38.5333C262.798 37.6698 262.473 37.1301 261.659 37.1301C260.845 37.1301 260.519 37.8857 260.519 38.5873V38.5333Z" fill="#A8ADB0"/>
<path d="M264.318 37.6698C264.318 37.2921 264.318 36.9682 264.318 36.6444H264.915V37.2381C265.078 36.9143 265.512 36.5365 266.163 36.5365C266.814 36.5365 267.465 36.8603 267.465 38.1016V40.3143H266.76V38.1555C266.76 37.5619 266.543 37.0762 265.891 37.0762C265.24 37.0762 265.077 37.4 264.969 37.7778C264.969 37.8857 264.969 37.9936 264.969 38.1016V40.3143H264.264V37.6159L264.318 37.6698Z" fill="#A8ADB0"/>
<path d="M34.2946 45.2254C34.2946 45.2254 32.1783 25.3651 38.7984 15.7588C38.7984 15.7588 42.4341 9.22859 48.7287 8.31113C55.0233 7.33971 57.6279 12.6826 56.9767 15.9207C56.9767 15.9207 55.8372 21.2095 50.7364 21.2095C50.7364 21.2095 47.9147 21.3175 47.4264 18.4572C46.938 15.5968 47.4264 17.9175 47.6977 17.7556C48.3488 17.1619 49.9767 15.7048 50.3023 15.273C50.6279 14.8413 50.845 14.1397 49.3256 14.0857C47.8062 14.0318 44.0078 14.5175 41.5659 17.4857C41.5659 17.4857 34.2403 25.0953 34.2946 45.3334V45.2254Z" fill="url(#paint4_linear_5_46)"/>
<path d="M29.845 45.2252C29.845 45.2252 31.9612 25.3649 25.3411 15.7585C25.3411 15.7585 21.7054 9.22835 15.4109 8.31089C9.11628 7.39343 6.51163 12.6823 7.1628 15.9204C7.1628 15.9204 8.30233 21.2093 13.4031 21.2093C13.4031 21.2093 16.2248 21.3172 16.7132 18.4569C17.2016 15.5966 16.7132 17.9172 16.4419 17.7553C15.7907 17.1617 14.1628 15.7045 13.8372 15.2728C13.5116 14.8411 13.2946 14.1395 14.814 14.0855C16.2791 14.0315 20.1318 14.5172 22.5736 17.4855C22.5736 17.4855 29.8992 25.095 29.845 45.3331V45.2252Z" fill="url(#paint5_linear_5_46)"/>
<path d="M21.2171 9.55239C21.2171 9.55239 27.4574 11.2794 33.4806 11.2794C39.5039 11.2794 43.6822 8.47302 43.6822 8.47302C43.6822 8.47302 41.5659 13.6 33.4806 13.6C33.4806 13.6 26.3721 13.7619 21.2171 9.55239Z" fill="url(#paint6_linear_5_46)"/>
<path d="M27.186 16.6762H37.2248C37.2248 16.6762 33.8605 22.6667 33.2636 25.9048C32.6667 29.1429 33.8062 20.5619 35.0543 18.0794H28.8139C28.8139 18.0794 31.093 24.1778 31.2558 28.8191C31.2558 28.8191 29.2481 20.4 27.1318 16.6762H27.186Z" fill="url(#paint7_linear_5_46)"/>
<defs>
<linearGradient id="paint0_linear_5_46" x1="219.659" y1="25.6889" x2="222.481" y2="25.6889" gradientUnits="userSpaceOnUse">
<stop stop-color="#AC2A73"/>
<stop offset="1" stop-color="#DC1F2A"/>
</linearGradient>
<linearGradient id="paint1_linear_5_46" x1="224.814" y1="20.373" x2="236.806" y2="20.373" gradientUnits="userSpaceOnUse">
<stop stop-color="#AC2A73"/>
<stop offset="1" stop-color="#DC1F2A"/>
</linearGradient>
<linearGradient id="paint2_linear_5_46" x1="238.814" y1="20.4" x2="251.674" y2="20.4" gradientUnits="userSpaceOnUse">
<stop stop-color="#AC2A73"/>
<stop offset="1" stop-color="#DC1F2A"/>
</linearGradient>
<linearGradient id="paint3_linear_5_46" x1="254.333" y1="20.2381" x2="271.806" y2="20.2381" gradientUnits="userSpaceOnUse">
<stop stop-color="#AC2A73"/>
<stop offset="1" stop-color="#DC1F2A"/>
</linearGradient>
<linearGradient id="paint4_linear_5_46" x1="33.9727" y1="26.7641" x2="57.074" y2="26.7641" gradientUnits="userSpaceOnUse">
<stop stop-color="#AC2A73"/>
<stop offset="1" stop-color="#DC1F2A"/>
</linearGradient>
<linearGradient id="paint5_linear_5_46" x1="7.06555" y1="26.7693" x2="30.1669" y2="26.7693" gradientUnits="userSpaceOnUse">
<stop stop-color="#AC2A73"/>
<stop offset="1" stop-color="#DC1F2A"/>
</linearGradient>
<linearGradient id="paint6_linear_5_46" x1="21.2171" y1="11.0369" x2="43.6822" y2="11.0369" gradientUnits="userSpaceOnUse">
<stop stop-color="#AC2A73"/>
<stop offset="1" stop-color="#DC1F2A"/>
</linearGradient>
<linearGradient id="paint7_linear_5_46" x1="27.1318" y1="22.7476" x2="37.2248" y2="22.7476" gradientUnits="userSpaceOnUse">
<stop stop-color="#AC2A73"/>
<stop offset="1" stop-color="#DC1F2A"/>
</linearGradient>
</defs>
</svg>
