<svg width="40" height="71" viewBox="0 0 40 71" fill="none" xmlns="http://www.w3.org/2000/svg">
<path d="M11.1621 7.60809H29.4751C31.0811 7.60809 32.4381 8.53609 32.4381 9.63609C32.3951 10.6587 32.7584 11.6567 33.4486 12.4124C34.1388 13.1682 35.0998 13.6203 36.1221 13.6701C38.1881 13.6701 39.8071 11.4871 39.8071 8.70109V5.00709C39.8055 3.68989 39.2816 2.42707 38.3503 1.49558C37.419 0.564083 36.1563 0.0399383 34.8391 0.0380859H5.79907C4.4817 0.0396738 3.21874 0.563702 2.28722 1.49523C1.35569 2.42675 0.831666 3.68971 0.830078 5.00709V65.7931C0.831666 67.1104 1.35572 68.3732 2.28728 69.3046C3.21883 70.236 4.48179 70.7598 5.79907 70.7611H34.8391C36.1562 70.7595 37.4189 70.2356 38.3502 69.3042C39.2816 68.3729 39.8055 67.1102 39.8071 65.7931V28.8651C39.8071 26.0791 38.1881 23.8971 36.1221 23.8971H11.1621C10.3767 23.896 9.62373 23.5835 9.06845 23.028C8.51317 22.4725 8.20087 21.7195 8.20007 20.9341V10.5711C8.20087 9.78567 8.51317 9.03263 9.06845 8.47716C9.62373 7.92169 10.3767 7.60914 11.1621 7.60809ZM34.8391 68.7561H5.79907C5.01348 68.7553 4.2603 68.4429 3.7048 67.8874C3.14931 67.3319 2.83687 66.5787 2.83607 65.7931V57.0661H37.8011V65.7941C37.8003 66.5797 37.4879 67.3329 36.9324 67.8884C36.3769 68.4439 35.6237 68.7563 34.8381 68.7571M7.07806 46.3071H33.5601V49.1811H7.07806V46.3071ZM11.1621 25.9071H36.1221C36.9151 25.9071 37.8021 27.1741 37.8021 28.8691V39.5481H2.83607V5.00709C2.83687 4.22149 3.14931 3.4683 3.7048 2.91281C4.2603 2.35731 5.01348 2.04488 5.79907 2.04409H34.8391C35.6247 2.04488 36.3778 2.35731 36.9333 2.91281C37.4888 3.4683 37.8013 4.22149 37.8021 5.00709V8.70109C37.8021 10.4011 36.9151 11.6641 36.1221 11.6641C35.6346 11.6081 35.1878 11.3657 34.875 10.9877C34.5622 10.6097 34.4078 10.1254 34.4441 9.63609C34.4441 7.41209 32.2141 5.60209 29.4751 5.60209H11.1621C9.84497 5.60367 8.58228 6.1276 7.65094 7.05893C6.7196 7.99027 6.19568 9.25298 6.19409 10.5701V20.9341C6.19568 22.2512 6.7196 23.5139 7.65094 24.4452C8.58228 25.3766 9.84497 25.9005 11.1621 25.9021" fill="black"/>
</svg>
