<svg width="56" height="56" viewBox="0 0 56 56" fill="none" xmlns="http://www.w3.org/2000/svg">
<mask id="mask0_1_3418" style="mask-type:luminance" maskUnits="userSpaceOnUse" x="0" y="0" width="56" height="56">
<path d="M55.1214 0H0.879395V55.668H55.1214V0Z" fill="white"/>
</mask>
<g mask="url(#mask0_1_3418)">
<path d="M33.8482 55.667H22.3542C22.1823 55.676 22.0106 55.6445 21.8531 55.575C21.6956 55.5055 21.5565 55.4 21.4472 55.267L18.5232 52.34C11.4652 45.182 7.9362 41.653 6.1232 36.209C4.4082 30.967 4.4082 24.111 4.4082 10.6V5.76102C4.41729 5.56756 4.46642 5.37808 4.55248 5.20458C4.63854 5.03108 4.75967 4.87732 4.9082 4.75302C5.21019 4.56217 5.559 4.45835 5.9162 4.45302C9.59913 5.19399 13.3921 5.20115 17.0778 4.4741C20.7635 3.74705 24.2695 2.30007 27.3952 0.216022C27.6212 0.0581467 27.8942 -0.0179814 28.1693 0.000198325C28.4443 0.018378 28.705 0.129779 28.9082 0.316022C33.8482 4.45002 40.8082 5.76002 50.2822 4.45002C50.462 4.4214 50.6459 4.43349 50.8203 4.48541C50.9948 4.53733 51.1554 4.62776 51.2902 4.75002C51.4237 4.85914 51.5295 4.99827 51.5991 5.15607C51.6686 5.31387 51.6998 5.48586 51.6902 5.65802V12.211C51.6902 24.811 51.7902 31.165 50.0772 36.111C48.3632 41.151 45.1372 44.479 38.6852 51.132C37.4742 52.342 36.1642 53.753 34.7522 55.266C34.65 55.4071 34.5122 55.5184 34.3528 55.5887C34.1934 55.659 34.0183 55.6857 33.8452 55.666M22.9592 53.147H33.3442C34.6542 51.835 35.8642 50.525 36.9742 49.416C43.2252 42.964 46.3502 39.839 47.7612 35.302C49.2792 30.765 49.2792 24.514 49.2792 12.214V7.07202C45.4588 7.56936 41.586 7.50198 37.7852 6.87202C34.2863 6.24861 30.9759 4.8347 28.1062 2.73802C23.2509 5.8212 17.6207 7.46378 11.8692 7.47502C10.2512 7.47619 8.63469 7.37599 7.0292 7.17502V10.6C7.0292 23.909 7.0292 30.563 8.6432 35.5C10.2562 40.339 13.6842 43.768 20.4432 50.623L22.9642 53.144" fill="black"/>
<path d="M32.3356 48.106C32.0101 48.0986 31.6943 47.9942 31.4286 47.806C31.3088 47.6872 31.2137 47.5458 31.1488 47.3901C31.0838 47.2343 31.0504 47.0672 31.0504 46.8985C31.0504 46.7297 31.0838 46.5627 31.1488 46.4069C31.2137 46.2512 31.3088 46.1098 31.4286 45.991C32.2346 45.084 33.0416 44.277 33.7476 43.572C38.2846 38.833 40.6036 36.514 41.6116 33.388C42.7206 30.164 42.7206 25.928 42.6196 17.46V13.424C36.3686 14.124 31.5286 13.124 27.8996 10.399C23.0742 13.349 17.3091 14.358 11.7686 13.222C11.5995 13.193 11.4379 13.1304 11.2934 13.038C11.1488 12.9456 11.0242 12.8251 10.927 12.6838C10.8298 12.5424 10.7618 12.383 10.7272 12.215C10.6925 12.0469 10.6919 11.8737 10.7253 11.7054C10.7586 11.5371 10.8254 11.3772 10.9216 11.2351C11.0178 11.093 11.1414 10.9717 11.2853 10.8781C11.4291 10.7846 11.5902 10.7208 11.7591 10.6906C11.928 10.6603 12.1012 10.6642 12.2686 10.702C17.4669 11.7454 22.8669 10.6946 27.2946 7.77799C27.5203 7.61984 27.7932 7.54353 28.0682 7.56172C28.3432 7.57991 28.6037 7.69149 28.8066 7.87799C32.2346 10.702 37.0746 11.709 43.7286 10.702C43.9083 10.6734 44.0922 10.6855 44.2667 10.7374C44.4412 10.7893 44.6017 10.8797 44.7366 11.002C44.8697 11.1114 44.9753 11.2506 45.0448 11.4083C45.1143 11.566 45.1457 11.7379 45.1366 11.91V17.354C45.2366 34.998 45.1366 35.3 35.4576 45.281C34.7516 45.981 33.9446 46.792 33.1386 47.701C33.0386 48.001 32.7386 48.101 32.3316 48.101" fill="black"/>
<path d="M53.8104 55.668H2.18942C1.84172 55.668 1.50826 55.5299 1.2624 55.284C1.01654 55.0382 0.878418 54.7047 0.878418 54.357C0.878418 54.0093 1.01654 53.6759 1.2624 53.43C1.50826 53.1841 1.84172 53.046 2.18942 53.046H53.8104C54.1581 53.046 54.4916 53.1841 54.7374 53.43C54.9833 53.6759 55.1214 54.0093 55.1214 54.357C55.1214 54.7047 54.9833 55.0382 54.7374 55.284C54.4916 55.5299 54.1581 55.668 53.8104 55.668Z" fill="black"/>
<path d="M47.5595 50.627H38.6875C38.3398 50.627 38.0063 50.4889 37.7604 50.243C37.5146 49.9972 37.3765 49.6637 37.3765 49.316C37.3765 48.9683 37.5146 48.6348 37.7604 48.389C38.0063 48.1431 38.3398 48.005 38.6875 48.005H47.5595C47.9052 48.0112 48.2351 48.1513 48.4797 48.3958C48.7242 48.6403 48.8643 48.9702 48.8705 49.316C48.8305 49.6498 48.6795 49.9606 48.4418 50.1983C48.204 50.4361 47.8933 50.587 47.5595 50.627Z" fill="black"/>
<path d="M17.3134 50.627H8.44137C8.09367 50.627 7.76021 50.4889 7.51435 50.243C7.26849 49.9972 7.13037 49.6637 7.13037 49.316C7.13037 48.9683 7.26849 48.6348 7.51435 48.389C7.76021 48.1431 8.09367 48.005 8.44137 48.005H17.3134C17.6591 48.0112 17.989 48.1513 18.2336 48.3958C18.4781 48.6403 18.6182 48.9702 18.6244 49.316C18.5844 49.6498 18.4334 49.9606 18.1957 50.1983C17.9579 50.4361 17.6472 50.587 17.3134 50.627Z" fill="black"/>
<path d="M38.6876 24.715C38.4414 24.6952 38.2015 24.6273 37.9816 24.515C35.1456 22.6319 31.8075 21.6481 28.4036 21.692C25.0402 21.7113 21.7523 22.6907 18.9266 24.515C18.6466 24.6748 18.3155 24.7197 18.0031 24.6404C17.6906 24.5611 17.4211 24.3636 17.2513 24.0896C17.0814 23.8156 17.0245 23.4864 17.0924 23.1713C17.1604 22.8561 17.3479 22.5796 17.6156 22.4C20.847 20.2609 24.6294 19.1049 28.5046 19.072C32.3891 19.0421 36.1895 20.2036 39.3936 22.4C39.6615 22.5845 39.8509 22.8623 39.9249 23.1791C39.9989 23.4959 39.952 23.8289 39.7936 24.113C39.6691 24.2933 39.5037 24.4416 39.311 24.5458C39.1183 24.6501 38.9036 24.7074 38.6846 24.713" fill="black"/>
<path d="M21.1443 28.647C20.9254 28.6407 20.711 28.5831 20.5184 28.4789C20.3258 28.3747 20.1603 28.2268 20.0353 28.047C19.9396 27.911 19.8737 27.7564 19.842 27.5931C19.8103 27.4299 19.8134 27.2618 19.8512 27.0999C19.8889 26.938 19.9605 26.7859 20.0612 26.6535C20.1618 26.5212 20.2893 26.4116 20.4353 26.332C22.8158 24.8174 25.5788 24.013 28.4003 24.013C31.2218 24.013 33.9848 24.8174 36.3653 26.332C36.5087 26.4159 36.6338 26.5277 36.7333 26.6607C36.8328 26.7937 36.9047 26.9453 36.9447 27.1066C36.9848 27.2678 36.9921 27.4354 36.9664 27.5996C36.9406 27.7637 36.8822 27.921 36.7947 28.0622C36.7072 28.2034 36.5924 28.3257 36.4569 28.4219C36.3214 28.518 36.168 28.5861 36.0058 28.622C35.8437 28.658 35.6759 28.6611 35.5125 28.6312C35.3491 28.6013 35.1933 28.539 35.0543 28.448C33.0688 27.1783 30.757 26.5133 28.4003 26.534C26.0823 26.5623 23.8161 27.2242 21.8473 28.448C21.6328 28.5737 21.3898 28.6426 21.1413 28.648" fill="black"/>
<path d="M32.7385 32.781C32.5261 32.7599 32.3211 32.6916 32.1385 32.581C31.0428 31.9215 29.788 31.5729 28.509 31.5729C27.2301 31.5729 25.9753 31.9215 24.8795 32.581C24.7339 32.6605 24.574 32.7104 24.4091 32.7281C24.2441 32.7458 24.0773 32.7308 23.9181 32.684C23.759 32.6372 23.6106 32.5595 23.4815 32.4553C23.3523 32.3512 23.245 32.2226 23.1655 32.077C23.0861 31.9314 23.0361 31.7715 23.0184 31.6066C23.0007 31.4416 23.0157 31.2748 23.0625 31.1156C23.1093 30.9565 23.187 30.8081 23.2912 30.6789C23.3953 30.5498 23.5239 30.4425 23.6695 30.363C25.1356 29.4988 26.8077 29.0462 28.5095 29.053C30.243 29.0456 31.9475 29.4976 33.4495 30.363C33.7373 30.5296 33.9497 30.8007 34.0429 31.1199C34.136 31.439 34.1025 31.7818 33.9495 32.077C33.8256 32.2888 33.6491 32.465 33.4371 32.5887C33.2252 32.7124 32.9849 32.7793 32.7395 32.783" fill="black"/>
<path d="M28.4037 39.234C27.8295 39.2146 27.2737 39.0265 26.8057 38.6933C26.3377 38.3601 25.9781 37.8965 25.7718 37.3604C25.5655 36.8242 25.5216 36.2391 25.6456 35.6782C25.7696 35.1172 26.056 34.6051 26.4691 34.2059C26.8822 33.8066 27.4036 33.5377 27.9685 33.4328C28.5333 33.328 29.1166 33.3917 29.6454 33.6161C30.1743 33.8404 30.6254 34.2156 30.9426 34.6946C31.2597 35.1737 31.4287 35.7355 31.4287 36.31C31.4286 36.7025 31.3496 37.0911 31.1963 37.4525C31.043 37.8138 30.8185 38.1407 30.5362 38.4135C30.254 38.6863 29.9197 38.8996 29.5534 39.0405C29.187 39.1815 28.796 39.2473 28.4037 39.234ZM28.4037 35.806C28.2966 35.806 28.194 35.8485 28.1183 35.9242C28.0427 35.9998 28.0002 36.1025 28.0002 36.2095C28.0002 36.3165 28.0427 36.4191 28.1183 36.4948C28.194 36.5705 28.2966 36.613 28.4037 36.613C28.4643 36.6269 28.5273 36.627 28.588 36.6132C28.6487 36.5994 28.7055 36.5721 28.7542 36.5333C28.8029 36.4946 28.8422 36.4453 28.8693 36.3892C28.8963 36.3332 28.9103 36.2717 28.9103 36.2095C28.9103 36.1473 28.8963 36.0858 28.8693 36.0297C28.8422 35.9737 28.8029 35.9244 28.7542 35.8856C28.7055 35.8469 28.6487 35.8196 28.588 35.8058C28.5273 35.792 28.4643 35.7921 28.4037 35.806Z" fill="black"/>
</g>
</svg>
