<svg width="79" height="75" viewBox="0 0 79 75" fill="none" xmlns="http://www.w3.org/2000/svg">
<path d="M77.8153 67.4629C74.8223 64.3349 71.8263 61.2099 68.7903 58.0409C69.0973 57.7989 69.3563 57.5819 69.6273 57.3819C71.0343 56.3459 72.4393 55.3079 73.8573 54.2819C74.5243 53.8009 75.1483 53.3219 74.9763 52.3559C74.8123 51.4349 74.0383 51.2509 73.3423 50.9649C73.311 50.9458 73.2774 50.9307 73.2423 50.9199C72.2803 50.8139 72.3073 50.3499 72.5753 49.5429C75.7723 40.5206 75.2855 30.6018 71.2203 21.9359C67.4821 13.759 60.9163 7.20752 52.7312 3.48727C44.5461 -0.23298 35.2928 -0.871586 26.6742 1.68898C18.0557 4.24956 10.6521 9.83698 5.82606 17.4228C1.00004 25.0087 -0.923557 34.0824 0.409314 42.9739C1.52167 51.1439 5.42867 58.6766 11.4663 64.2919C20.4733 72.7739 31.1893 76.0229 43.4263 74.2009C47.5963 73.5527 51.6175 72.1667 55.3013 70.1079C55.5633 69.9649 55.8143 69.5559 56.2703 70.0149C57.4703 71.2149 58.1933 71.1149 59.1453 69.7059C60.0603 68.3539 60.9453 66.9829 61.8773 65.6409C62.7093 64.4409 62.7913 64.4489 63.7693 65.4719C66.4486 68.2719 69.131 71.0719 71.8163 73.8719C72.9093 75.0059 73.6603 74.9869 74.7683 73.8379C75.797 72.7713 76.821 71.6996 77.8403 70.6229C79.0593 69.3339 79.0543 68.7579 77.8173 67.4649M34.9173 35.9299C30.5453 35.8899 26.1733 35.8989 21.8023 35.9219C21.1503 35.9219 20.8613 35.8309 20.9023 35.0629C21.1088 30.17 21.8359 25.3129 23.0713 20.5739C23.2523 19.9239 23.3863 19.6459 24.1893 19.8099C27.7642 20.5308 31.397 20.9268 35.0433 20.9929C35.6823 21.0059 35.7803 21.2399 35.7743 21.7929C35.7493 24.0349 35.7643 26.2779 35.7633 28.5199C35.7633 30.6859 35.7393 32.8529 35.7773 35.0199C35.7893 35.6839 35.6643 35.9329 34.9193 35.9269M31.5323 5.43893C32.5507 4.58265 33.7215 3.92617 34.9833 3.50393C35.5623 3.30393 35.7833 3.43293 35.7773 4.10393C35.7413 6.30393 35.7633 8.50393 35.7633 10.7039C35.7633 12.8669 35.7433 15.0309 35.7763 17.1939C35.7863 17.8179 35.6383 18.0599 34.9643 18.0179C31.5933 17.8658 28.2362 17.4893 24.9153 16.8909C24.5443 16.8179 24.2703 16.8229 24.4853 16.2769C26.0943 12.1769 28.0903 8.33693 31.5333 5.43693M28.1013 4.42193C26.1704 6.52011 24.5585 8.8908 23.3173 11.4579C22.7013 12.7579 22.1413 14.0839 21.5993 15.4159C21.4113 15.8779 21.1993 16.1029 20.6823 15.9459C18.0889 15.2388 15.5644 14.2997 13.1393 13.1399C17.3033 9.00785 22.4533 6.00712 28.1013 4.42193ZM3.08731 35.0279C3.58515 28.0962 6.16985 21.4776 10.5013 16.0429C10.8363 15.6179 11.1013 15.4969 11.6153 15.7589C14.1544 17.0386 16.8269 18.0343 19.5843 18.7279C20.2223 18.8919 20.3743 19.1279 20.1843 19.8019C18.8045 24.7776 18.0533 29.9065 17.9483 35.0689C17.9273 35.8079 17.6903 35.9329 17.0323 35.9219C14.8323 35.8849 12.6243 35.9079 10.4193 35.9079C8.25331 35.9079 6.08531 35.8759 3.91931 35.9269C3.18831 35.9439 3.03031 35.7269 3.08631 35.0269M10.5083 58.8269C6.21219 53.4191 3.62758 46.8522 3.08531 39.9669C3.00531 39.0359 3.32731 38.9189 4.12831 38.9389C6.25431 38.9899 8.38231 38.9559 10.5093 38.9559C12.7093 38.9559 14.9163 38.9819 17.1183 38.9389C17.7793 38.9259 17.9183 39.1389 17.9383 39.7649C18.056 44.9242 18.8063 50.0494 20.1723 55.0259C20.3513 55.6589 20.2943 55.9499 19.6063 56.1259C16.8488 56.8145 14.1759 57.8059 11.6363 59.0819C11.5485 59.1479 11.4474 59.194 11.34 59.2172C11.2326 59.2403 11.1214 59.2399 11.0142 59.2159C10.907 59.192 10.8063 59.1451 10.7189 59.0784C10.6316 59.0118 10.5597 58.927 10.5083 58.8299M13.1393 61.7219C15.6178 60.5069 18.217 59.5557 20.8943 58.8839C21.4473 58.7349 21.4823 59.2139 21.6123 59.5529C23.0257 63.4602 25.1253 67.0837 27.8123 70.2529C22.2606 68.738 17.2014 65.7982 13.1363 61.7249M35.7743 57.7859C35.7343 59.9109 35.7603 62.0369 35.7593 64.1629C35.7593 66.3269 35.7323 68.4909 35.7733 70.6539C35.7883 71.4309 35.5633 71.5539 34.8583 71.3079C32.4012 70.3549 30.2813 68.6954 28.7663 66.5389C27.0044 64.1639 25.5836 61.5539 24.5453 58.7849C24.3083 58.1919 24.4063 58.0499 25.0303 57.9319C28.282 57.3744 31.5637 57.0091 34.8583 56.8379C35.6583 56.7819 35.7873 57.0839 35.7733 57.7869M35.7733 53.0129C35.7733 53.6279 35.6483 53.8519 34.9733 53.8669C31.3667 53.94 27.7735 54.3301 24.2353 55.0329C23.5223 55.1749 23.2753 55.0699 23.0743 54.3329C21.8496 49.595 21.1236 44.7419 20.9083 39.8529C20.8603 39.0339 21.1813 38.9339 21.8713 38.9459C24.0363 38.9829 26.2033 38.9589 28.3713 38.9589C30.5393 38.9589 32.7033 38.9819 34.8713 38.9449C35.5233 38.9339 35.7913 39.0359 35.7853 39.7899C35.7453 44.1959 35.7553 48.6029 35.7783 53.0099M71.5313 39.8819C71.2638 42.9412 70.6306 45.9574 69.6453 48.8659C69.4803 49.3419 69.3203 49.5169 68.7763 49.3129C64.843 47.8463 60.9003 46.3989 56.9483 44.9709C56.4693 44.7969 56.3483 44.5899 56.4003 44.0619C56.5493 42.6289 56.6353 41.1859 56.6643 39.7449C56.6773 39.0939 56.8873 38.9309 57.5153 38.9449C59.7153 38.9819 61.9213 38.9589 64.1243 38.9589C66.2893 38.9589 68.4553 38.9899 70.6193 38.9419C71.3663 38.9249 71.6043 39.1239 71.5323 39.8849M64.1903 16.1409C68.3874 21.4855 70.9329 27.9392 71.5143 34.7099C71.5993 35.5979 71.4823 35.9849 70.4363 35.9399C68.3123 35.8469 66.1803 35.9119 64.0513 35.9119C61.8853 35.9119 59.7173 35.8799 57.5513 35.9299C56.8373 35.9469 56.6893 35.7299 56.6643 35.0439C56.5475 29.919 55.7995 24.8279 54.4373 19.8859C54.2233 19.1449 54.3953 18.8859 55.1483 18.6949C57.7955 18.028 60.363 17.0775 62.8063 15.8599C63.4003 15.5599 63.7293 15.5529 64.1893 16.1419M61.4013 13.1739C58.9788 14.3385 56.4515 15.2713 53.8533 15.9599C53.3933 16.0939 53.1973 15.8839 53.0343 15.4429C52.3039 13.4508 51.4077 11.5234 50.3553 9.68094C49.3177 7.84213 48.0653 6.13315 46.6243 4.58993C50.6923 5.13393 58.3723 9.61793 61.4003 13.1739M47.5823 44.4169C48.7743 47.9289 49.9543 51.4449 51.2063 55.1589C47.3134 54.3869 43.3618 53.948 39.3943 53.8469C38.9493 53.8389 38.8003 53.6919 38.8013 53.2519C38.812 48.6893 38.812 44.1266 38.8013 39.5639C38.8013 39.0289 39.0393 38.9479 39.4923 38.9479C43.9803 38.9579 48.468 38.9579 52.9553 38.9479C53.4753 38.9479 53.7263 39.0659 53.6773 39.6479C53.5863 40.7479 53.5323 41.8479 53.4963 42.9479C53.4773 43.5479 53.2833 43.6479 52.7293 43.4209C51.7493 43.0209 50.7373 42.6929 49.7433 42.3209C49.4541 42.1712 49.1268 42.1112 48.8032 42.1486C48.4797 42.186 48.1747 42.3191 47.9273 42.5309C47.6768 42.7676 47.5084 43.0781 47.4465 43.4171C47.3846 43.7561 47.4326 44.106 47.5833 44.4159M39.8933 3.60793C42.3015 4.58032 44.3758 6.23074 45.8643 8.35893C47.6 10.709 49.0045 13.2864 50.0383 16.0189C50.3143 16.6989 50.0953 16.8189 49.4683 16.9419C46.2525 17.4951 43.0063 17.8538 39.7473 18.0159C39.0143 18.0649 38.7683 17.8879 38.7883 17.1159C38.8433 14.9519 38.8073 12.7859 38.8073 10.6209C38.8073 8.53193 38.8523 6.44193 38.7883 4.35393C38.7583 3.35993 39.0523 3.30694 39.8883 3.61194M38.7883 21.8549C38.7883 21.2499 38.8993 21.0089 39.5813 20.9969C43.227 20.9243 46.8592 20.5295 50.4353 19.8169C51.1353 19.6799 51.3243 19.8509 51.5053 20.5039C52.7701 25.2742 53.494 30.1717 53.6633 35.1039C53.6943 35.7819 53.4563 35.9319 52.8293 35.9229C50.6293 35.8919 48.4203 35.9109 46.2153 35.9099C44.0483 35.9099 41.8813 35.8909 39.7153 35.9209C39.0823 35.9299 38.7703 35.8559 38.7773 35.0789C38.8183 30.6709 38.8093 26.2629 38.7883 21.8549ZM43.2653 69.2549C42.2028 70.178 40.9719 70.887 39.6403 71.3429C38.9913 71.5679 38.7693 71.4109 38.7813 70.6969C38.8183 68.4969 38.7953 66.2909 38.7963 64.0879C38.7963 61.9609 38.8263 59.8329 38.7813 57.7069C38.7663 57.0069 38.9493 56.7899 39.6693 56.8379C42.9667 56.9914 46.2506 57.3589 49.5003 57.9379C49.9133 58.0199 50.3703 57.9799 50.1003 58.6579C48.5003 62.6309 46.5713 66.3879 43.2673 69.2579M54.8253 66.8749C52.2147 68.4438 49.4006 69.646 46.4623 70.4479C49.217 67.396 51.3716 63.8521 52.8133 60.0019C53.5793 62.2769 54.2713 64.3409 54.9723 66.4019C54.9953 66.4422 55.0097 66.4868 55.0147 66.5329C55.0197 66.579 55.0152 66.6256 55.0014 66.6699C54.9876 66.7142 54.9649 66.7551 54.9346 66.7902C54.9043 66.8253 54.8671 66.8538 54.8253 66.8739M74.3253 69.9279C73.939 70.2652 73.5805 70.6331 73.2533 71.0279C70.2013 67.8359 67.1773 64.6859 64.1693 61.5199C62.7213 59.9959 61.9643 60.0429 60.7943 61.7899C59.9503 63.0506 59.1046 64.3103 58.2573 65.5689C58.2203 65.6229 58.1353 65.6449 57.9573 65.7479L51.3713 46.1699L70.3323 53.1079L65.9503 56.3179C64.6773 57.2499 64.6023 58.0609 65.7083 59.2179C68.5713 62.2119 71.4153 65.2249 74.3273 68.1689C75.0223 68.8689 75.1483 69.3119 74.3203 69.9269" fill="black"/>
</svg>
