<svg width="26" height="33" viewBox="0 0 26 33" fill="none" xmlns="http://www.w3.org/2000/svg">
<path d="M17.362 1.69898C16.5268 1.86934 15.7407 2.22547 15.062 2.74097L15.506 12.141C16.2973 12.633 17.1973 12.9235 18.127 12.987C17.7806 14.9698 17.0397 16.8629 15.9481 18.5541C14.8564 20.2452 13.4363 21.6999 11.772 22.832C11.3385 22.0251 10.7169 21.3346 9.95996 20.819L1.20696 24.133C1.11431 24.4951 1.05803 24.8656 1.03896 25.239C0.994054 26.1026 1.14571 26.9651 1.48249 27.7615C1.81928 28.558 2.33242 29.2677 2.98326 29.8371C3.63409 30.4064 4.40566 30.8207 5.23983 31.0487C6.07399 31.2766 6.94901 31.3123 7.79896 31.153C7.92796 31.126 8.18596 31.067 8.18796 31.066C13.5696 29.8075 18.2466 26.4962 21.2216 21.8384C24.1966 17.1807 25.2341 11.5449 24.113 6.13298C23.9609 5.39854 23.6656 4.70126 23.244 4.08096C22.8224 3.46065 22.2827 2.92946 21.6558 2.51772C21.0289 2.10598 20.3271 1.82175 19.5903 1.68127C18.8536 1.54079 18.0964 1.54681 17.362 1.69898Z" stroke="black" stroke-width="2" stroke-linecap="round" stroke-linejoin="round"/>
</svg>
