<svg width="30" height="44" viewBox="0 0 30 44" fill="none" xmlns="http://www.w3.org/2000/svg">
<path d="M4.28303 35.383C6.33051 36.9614 8.71821 38.04 11.256 38.533V40.647C11.2574 41.2855 11.512 41.8975 11.964 42.3486C12.416 42.7996 13.0285 43.053 13.667 43.053H16.649C17.2874 43.0527 17.8997 42.7992 18.3515 42.3482C18.8033 41.8972 19.0577 41.2854 19.059 40.647V38.537C21.1518 38.1814 23.152 37.4095 24.941 36.267C26.3526 35.4047 27.5189 34.1943 28.3283 32.7518C29.1376 31.3093 29.5628 29.683 29.563 28.029C29.6599 25.9782 28.9965 23.9638 27.7 22.372C25.8 20.108 22.9 18.636 19.059 17.988V14.398C19.32 14.5796 19.5711 14.7753 19.811 14.984C20.3397 15.4294 21.0097 15.6719 21.701 15.668C22.1721 15.646 22.6325 15.52 23.049 15.299C23.0837 15.2842 23.1171 15.2668 23.149 15.247L26.493 13.147C26.8074 12.9729 27.0709 12.7196 27.2572 12.4123C27.4434 12.1049 27.5461 11.7542 27.555 11.395C27.5579 11.1126 27.5008 10.8328 27.3873 10.5742C27.2739 10.3156 27.1068 10.0841 26.897 9.89495C24.8481 7.57507 22.0959 5.98997 19.061 5.38195V2.86095C19.0605 2.22185 18.8065 1.60906 18.3546 1.15705C17.9028 0.705048 17.2901 0.450746 16.651 0.449951H13.669C13.0298 0.450481 12.4168 0.704666 11.9648 1.1567C11.5128 1.60874 11.2586 2.22168 11.258 2.86095V5.27195C9.97415 5.48925 8.7231 5.86897 7.53503 6.40195C3.23503 8.36095 1.09004 11.361 1.16404 15.319C1.17521 17.1953 1.79373 19.0175 2.92704 20.513C4.68504 22.87 7.48604 24.413 11.258 25.113V30.28C9.9703 29.6026 8.81381 28.7008 7.84303 27.617C7.6177 27.325 7.32713 27.0899 6.99458 26.9305C6.66203 26.7711 6.29675 26.6918 5.92803 26.699C5.51012 26.7352 5.10187 26.8449 4.72204 27.023C4.70404 27.03 4.68703 27.039 4.67103 27.047L4.63104 27.069L1.59303 28.851C1.30684 28.9905 1.05695 29.1945 0.862985 29.447C0.66902 29.6995 0.536276 29.9936 0.475214 30.3061C0.414151 30.6186 0.426425 30.941 0.511072 31.2479C0.595718 31.5548 0.750435 31.8379 0.963037 32.075C1.90156 33.3347 3.02058 34.4494 4.28404 35.383M2.38403 30.201L5.38403 28.44C5.55945 28.3627 5.74199 28.3028 5.92904 28.261C6.06483 28.2531 6.20036 28.2801 6.32284 28.3392C6.44532 28.3984 6.55071 28.4878 6.62904 28.599C6.64304 28.617 6.65804 28.635 6.67404 28.652C8.06118 30.2336 9.81459 31.4514 11.781 32.199C11.8989 32.2408 12.0251 32.2536 12.149 32.2365C12.2729 32.2194 12.3909 32.1727 12.493 32.1005C12.5951 32.0283 12.6784 31.9326 12.7358 31.8214C12.7933 31.7103 12.8232 31.587 12.823 31.462V24.452C12.8233 24.2652 12.7567 24.0846 12.6352 23.9428C12.5138 23.801 12.3456 23.7074 12.161 23.679C8.47204 23.11 5.78803 21.73 4.17803 19.572C3.2385 18.3418 2.72937 16.8369 2.72903 15.289C2.66703 11.965 4.45103 9.52295 8.18603 7.82295C9.4462 7.26268 10.7812 6.88877 12.149 6.71295C12.336 6.68688 12.5072 6.59406 12.6311 6.45161C12.755 6.30917 12.8232 6.12673 12.823 5.93795V2.86095C12.823 2.63622 12.9122 2.42068 13.0711 2.26168C13.2299 2.10268 13.4453 2.01322 13.67 2.01295H16.652C16.8768 2.01322 17.0922 2.10268 17.251 2.26168C17.4098 2.42068 17.499 2.63622 17.499 2.86095V6.02295C17.4991 6.20704 17.5642 6.38519 17.6827 6.52604C17.8013 6.66689 17.9657 6.76141 18.147 6.79295C21.0882 7.25014 23.7768 8.7218 25.747 10.953C25.766 10.9746 25.7864 10.9949 25.808 11.014C25.8643 11.0546 25.9102 11.1079 25.942 11.1695C25.9738 11.2312 25.9906 11.2996 25.991 11.369C25.991 11.449 25.991 11.618 25.659 11.825L22.353 13.9C22.1511 14.0013 21.9339 14.0689 21.71 14.1C21.3865 14.1046 21.072 13.9936 20.823 13.787C20.1554 13.2038 19.4108 12.7152 18.61 12.335C18.4909 12.2787 18.3594 12.2534 18.2278 12.2615C18.0962 12.2697 17.9689 12.3109 17.8575 12.3814C17.7462 12.452 17.6545 12.5495 17.5909 12.665C17.5274 12.7805 17.494 12.9101 17.494 13.042V18.658C17.4941 18.8464 17.5623 19.0285 17.6859 19.1707C17.8096 19.3129 17.9804 19.4057 18.167 19.432C21.946 19.961 24.75 21.287 26.497 23.372C27.5561 24.6727 28.0911 26.3222 27.997 27.997C28.0044 29.398 27.6469 30.7769 26.9597 31.9979C26.2726 33.219 25.2795 34.2401 24.078 34.961C22.2833 36.0954 20.2632 36.8259 18.158 37.102C17.9727 37.1295 17.8034 37.2227 17.681 37.3646C17.5586 37.5065 17.4912 37.6876 17.491 37.875V40.648C17.4908 40.7589 17.4687 40.8687 17.4259 40.9712C17.3832 41.0736 17.3208 41.1666 17.2421 41.2449C17.1635 41.3232 17.0702 41.3852 16.9676 41.4274C16.8649 41.4696 16.755 41.4912 16.644 41.491H13.662C13.438 41.4912 13.223 41.4026 13.0642 41.2446C12.9054 41.0865 12.8158 40.872 12.815 40.648V37.879C12.815 37.6929 12.7486 37.513 12.6278 37.3715C12.507 37.23 12.3397 37.1362 12.156 37.107C9.6334 36.7188 7.25006 35.6984 5.22804 34.141C4.07681 33.2937 3.058 32.28 2.20504 31.133C2.18837 31.1103 2.1707 31.0883 2.15203 31.067C2.05552 30.9731 1.99922 30.8455 1.99503 30.711C1.99503 30.611 1.99504 30.425 2.37504 30.203" fill="black"/>
<path d="M12.8191 12.889C12.8189 12.7619 12.7878 12.6368 12.7284 12.5245C12.6691 12.4122 12.5832 12.3161 12.4784 12.2444C12.3735 12.1727 12.2527 12.1276 12.1265 12.1131C12.0003 12.0985 11.8725 12.115 11.7541 12.161L11.5251 12.251C11.5061 12.258 11.4891 12.265 11.4711 12.274C10.8394 12.4996 10.2919 12.913 9.90192 13.4587C9.51191 14.0044 9.29808 14.6563 9.28906 15.327C9.28923 16.066 9.53021 16.7849 9.97554 17.3748C10.4209 17.9647 11.0463 18.3934 11.757 18.596C11.8757 18.6414 12.0036 18.6573 12.1297 18.6424C12.2558 18.6274 12.3764 18.5819 12.4811 18.51C12.5857 18.438 12.6712 18.3417 12.7303 18.2294C12.7893 18.117 12.8201 17.9919 12.8201 17.865L12.8191 12.889ZM11.2561 16.462C10.9821 16.145 10.8391 15.7356 10.8561 15.317C10.8505 15.1284 10.883 14.9407 10.9517 14.7651C11.0205 14.5895 11.124 14.4296 11.2561 14.295V16.462Z" fill="black"/>
<path d="M17.8551 32.014C17.9654 32.0847 18.0917 32.1266 18.2223 32.1358C18.353 32.1451 18.4839 32.1214 18.6031 32.067C18.8565 31.9546 19.1023 31.826 19.3391 31.682C19.9879 31.3198 20.5279 30.7906 20.9032 30.1493C21.2784 29.508 21.4752 28.778 21.4731 28.035C21.4821 26.835 20.9731 25.235 18.5131 24.458C18.3959 24.421 18.2717 24.4122 18.1506 24.4323C18.0294 24.4523 17.9146 24.5006 17.8156 24.5733C17.7165 24.6459 17.636 24.7409 17.5805 24.8504C17.525 24.96 17.4961 25.0811 17.4961 25.204V31.356C17.4962 31.487 17.5292 31.616 17.5921 31.7309C17.655 31.8459 17.7448 31.9432 17.8551 32.014ZM19.0561 26.414C19.3314 26.579 19.5562 26.8163 19.706 27.1002C19.8559 27.384 19.9251 27.7035 19.9061 28.024C19.9159 28.3888 19.8447 28.7512 19.6978 29.0853C19.5508 29.4193 19.3317 29.7167 19.0561 29.956V26.414Z" fill="black"/>
</svg>
