<svg width="44" height="44" viewBox="0 0 44 44" fill="none" xmlns="http://www.w3.org/2000/svg">
<circle cx="21.7253" cy="22" r="14.5" stroke="#E84444" stroke-width="2"/>
<mask id="path-2-inside-1_11_5" fill="white">
<path d="M9.40435 12.5956C7.27945 15.3795 6.15996 18.801 6.22831 22.3025C6.29665 25.804 7.5488 29.1792 9.78072 31.878C12.0126 34.5769 15.0928 36.4404 18.5192 37.1648C21.9457 37.8892 25.5164 37.4319 28.6497 35.8673C31.783 34.3028 34.2941 31.7232 35.7739 28.549C37.2536 25.3748 37.6147 21.793 36.7985 18.3873C35.9822 14.9815 34.0366 11.9526 31.2787 9.79409C28.5208 7.63554 25.1132 6.47459 21.6111 6.50042L21.7254 22L9.40435 12.5956Z"/>
</mask>
<path d="M9.40435 12.5956C7.27945 15.3795 6.15996 18.801 6.22831 22.3025C6.29665 25.804 7.5488 29.1792 9.78072 31.878C12.0126 34.5769 15.0928 36.4404 18.5192 37.1648C21.9457 37.8892 25.5164 37.4319 28.6497 35.8673C31.783 34.3028 34.2941 31.7232 35.7739 28.549C37.2536 25.3748 37.6147 21.793 36.7985 18.3873C35.9822 14.9815 34.0366 11.9526 31.2787 9.79409C28.5208 7.63554 25.1132 6.47459 21.6111 6.50042L21.7254 22L9.40435 12.5956Z" fill="#E84444" stroke="#E84444" stroke-width="2" mask="url(#path-2-inside-1_11_5)"/>
</svg>
