<svg width="42" height="56" viewBox="0 0 42 56" fill="none" xmlns="http://www.w3.org/2000/svg">
<mask id="mask0_1_3457" style="mask-type:luminance" maskUnits="userSpaceOnUse" x="0" y="0" width="42" height="56">
<path d="M41.7623 0.159912H0.237305V55.5909H41.7623V0.159912Z" fill="white"/>
</mask>
<g mask="url(#mask0_1_3457)">
<path d="M34.7143 55.5909H7.28531C6.35971 55.591 5.44316 55.4088 4.588 55.0547C3.73283 54.7005 2.95582 54.1814 2.30132 53.5269C1.64683 52.8724 1.12768 52.0954 0.773535 51.2402C0.419386 50.385 0.237174 49.4685 0.237305 48.5429V9.60289C0.237042 8.67721 0.419158 7.76055 0.773247 6.90527C1.12734 6.05 1.64646 5.27286 2.30097 4.61826C2.95548 3.96366 3.73254 3.44443 4.58777 3.09022C5.44299 2.73601 6.35963 2.55376 7.28531 2.55389H11.5233C11.7677 2.56511 11.9984 2.6701 12.1674 2.84703C12.3364 3.02396 12.4307 3.25922 12.4307 3.50389C12.4307 3.74856 12.3364 3.98382 12.1674 4.16075C11.9984 4.33768 11.7677 4.44268 11.5233 4.4539H7.28531C5.9203 4.45496 4.6115 4.99767 3.64629 5.96288C2.68108 6.92808 2.13836 8.23688 2.1373 9.60189V48.5419C2.13916 49.9057 2.68188 51.2131 3.64641 52.1772C4.61094 53.1414 5.91852 53.6836 7.28231 53.6849H34.7143C36.0778 53.6833 37.385 53.141 38.3492 52.1768C39.3134 51.2126 39.8557 49.9054 39.8573 48.5419V9.60189C39.8557 8.23837 39.3134 6.93115 38.3492 5.967C37.385 5.00284 36.0778 4.46048 34.7143 4.45889H30.4763C30.2319 4.44768 30.0012 4.34269 29.8322 4.16576C29.6632 3.98883 29.5689 3.75357 29.5689 3.5089C29.5689 3.26422 29.6632 3.02896 29.8322 2.85203C30.0012 2.6751 30.2319 2.57011 30.4763 2.55889H34.7143C35.6399 2.55876 36.5564 2.74097 37.4116 3.09512C38.2668 3.44927 39.0438 3.96842 39.6983 4.62291C40.3528 5.2774 40.8719 6.05442 41.2261 6.90958C41.5802 7.76475 41.7624 8.6813 41.7623 9.6069V48.5469C41.7627 49.4725 41.5807 50.389 41.2266 51.2442C40.8725 52.0994 40.3533 52.8764 39.6988 53.5308C39.0442 54.1851 38.267 54.7041 37.4118 55.0579C36.5565 55.4118 35.6399 55.5935 34.7143 55.5929" fill="black"/>
<path d="M34.7143 51.6559H7.28534C6.43273 51.6549 5.61534 51.3157 5.01245 50.7128C4.40956 50.1099 4.07039 49.2925 4.06934 48.4399V9.7049C4.07039 8.85228 4.40956 8.03489 5.01245 7.43201C5.61534 6.82912 6.43273 6.48995 7.28534 6.48889H11.5233C11.7678 6.50011 11.9984 6.60511 12.1674 6.78204C12.3364 6.95897 12.4307 7.19423 12.4307 7.4389C12.4307 7.68358 12.3364 7.91883 12.1674 8.09576C11.9984 8.2727 11.7678 8.3777 11.5233 8.38892H7.28534C6.93727 8.38944 6.60362 8.52793 6.3575 8.77405C6.11138 9.02017 5.97286 9.35384 5.97234 9.7019V48.4369C5.97286 48.785 6.11138 49.1186 6.3575 49.3647C6.60362 49.6109 6.93727 49.7494 7.28534 49.7499H34.7143C35.0624 49.7494 35.3961 49.6109 35.6422 49.3647C35.8883 49.1186 36.0268 48.785 36.0273 48.4369V9.7049C36.0268 9.35683 35.8883 9.02319 35.6422 8.77707C35.3961 8.53095 35.0624 8.39244 34.7143 8.39191H30.4763C30.3479 8.3978 30.2196 8.3776 30.0992 8.33252C29.9788 8.28744 29.8688 8.2184 29.7759 8.12961C29.6829 8.04081 29.6089 7.93409 29.5584 7.81589C29.5078 7.69769 29.4817 7.57045 29.4817 7.44189C29.4817 7.31334 29.5078 7.18613 29.5584 7.06793C29.6089 6.94973 29.6829 6.84301 29.7759 6.75421C29.8688 6.66542 29.9788 6.59638 30.0992 6.5513C30.2196 6.50622 30.3479 6.48602 30.4763 6.49191H34.7143C35.567 6.49297 36.3843 6.83214 36.9872 7.43503C37.5901 8.03792 37.9293 8.8553 37.9303 9.70792V48.4429C37.9293 49.2955 37.5901 50.1129 36.9872 50.7158C36.3843 51.3187 35.567 51.6578 34.7143 51.6589" fill="black"/>
<path d="M29.5443 10.7859H12.4543C11.9545 10.7851 11.4753 10.5861 11.1219 10.2326C10.7686 9.87903 10.5699 9.39977 10.5693 8.89991V2.04591C10.5699 1.54605 10.7686 1.0668 11.1219 0.713246C11.4753 0.359696 11.9545 0.160706 12.4543 0.159912L29.5433 0.159912C30.0432 0.160706 30.5223 0.359696 30.8757 0.713246C31.2291 1.0668 31.4278 1.54605 31.4283 2.04591V8.90291C31.427 9.40226 31.2279 9.88074 30.8747 10.2336C30.5214 10.5865 30.0427 10.7851 29.5433 10.7859M12.4733 8.88591H29.5233V2.05991H12.4693L12.4733 8.88591Z" fill="black"/>
<path d="M22.9251 26.7159H18.2121C18.0872 26.7159 17.9635 26.6913 17.8481 26.6436C17.7328 26.5958 17.6279 26.5257 17.5396 26.4374C17.4513 26.3491 17.3813 26.2442 17.3335 26.1288C17.2857 26.0135 17.2611 25.8898 17.2611 25.7649V23.4079H14.9041C14.6519 23.4079 14.41 23.3077 14.2316 23.1294C14.0533 22.951 13.9531 22.7091 13.9531 22.4569V17.7429C13.9531 17.618 13.9777 17.4943 14.0255 17.379C14.0733 17.2636 14.1433 17.1587 14.2316 17.0704C14.3199 16.9821 14.4248 16.9121 14.5402 16.8643C14.6555 16.8165 14.7792 16.7919 14.9041 16.7919H17.2611V14.4349C17.2611 14.31 17.2857 14.1864 17.3335 14.071C17.3813 13.9556 17.4513 13.8508 17.5396 13.7625C17.6279 13.6741 17.7328 13.6041 17.8481 13.5563C17.9635 13.5085 18.0872 13.4839 18.2121 13.4839H22.9251C23.1773 13.4839 23.4192 13.5841 23.5975 13.7625C23.7759 13.9408 23.8761 14.1827 23.8761 14.4349V16.7919H26.2331C26.358 16.7919 26.4817 16.8165 26.597 16.8643C26.7124 16.9121 26.8173 16.9821 26.9056 17.0704C26.9939 17.1587 27.0639 17.2636 27.1117 17.379C27.1595 17.4943 27.1841 17.618 27.1841 17.7429V22.4559C27.1841 22.7082 27.0839 22.95 26.9056 23.1284C26.7272 23.3067 26.4853 23.4069 26.2331 23.4069H23.8761V25.7639C23.8761 26.0161 23.7759 26.2581 23.5975 26.4364C23.4192 26.6147 23.1773 26.7149 22.9251 26.7149M19.1641 24.8149H21.9741V22.4579C21.9741 22.2057 22.0743 21.9638 22.2526 21.7855C22.431 21.6071 22.6729 21.5069 22.9251 21.5069H25.2831V18.6969H22.9251C22.6729 18.6969 22.431 18.5967 22.2526 18.4184C22.0743 18.24 21.9741 17.9981 21.9741 17.7459V15.3829H19.1641V17.7399C19.1641 17.9922 19.0639 18.234 18.8856 18.4124C18.7072 18.5907 18.4653 18.6909 18.2131 18.6909H15.8521V21.5009H18.2091C18.4613 21.5009 18.7032 21.6011 18.8815 21.7795C19.0599 21.9578 19.1601 22.1997 19.1601 22.4519L19.1641 24.8149Z" fill="black"/>
<path d="M32.2214 31.7999H9.77243C9.64401 31.8058 9.51575 31.7856 9.39536 31.7405C9.27496 31.6954 9.16496 31.6264 9.07199 31.5376C8.97903 31.4488 8.90502 31.3421 8.85446 31.2239C8.80391 31.1057 8.77783 30.9786 8.77783 30.85C8.77783 30.7214 8.80391 30.5942 8.85446 30.476C8.90502 30.3578 8.97903 30.251 9.07199 30.1623C9.16496 30.0735 9.27496 30.0045 9.39536 29.9594C9.51575 29.9143 9.64401 29.894 9.77243 29.8999H32.2214C32.3499 29.894 32.4781 29.9143 32.5985 29.9594C32.7189 30.0045 32.8289 30.0735 32.9219 30.1623C33.0149 30.251 33.0889 30.3578 33.1394 30.476C33.19 30.5942 33.216 30.7214 33.216 30.85C33.216 30.9786 33.19 31.1057 33.1394 31.2239C33.0889 31.3421 33.0149 31.4488 32.9219 31.5376C32.8289 31.6264 32.7189 31.6954 32.5985 31.7405C32.4781 31.7856 32.3499 31.8058 32.2214 31.7999Z" fill="black"/>
<path d="M32.2211 36.8849H9.77213C9.52771 36.8737 9.29702 36.7687 9.12802 36.5917C8.95902 36.4148 8.86475 36.1795 8.86475 35.9349C8.86475 35.6902 8.95902 35.4549 9.12802 35.278C9.29702 35.1011 9.52771 34.9961 9.77213 34.9849H32.2211C32.4655 34.9961 32.6962 35.1011 32.8652 35.278C33.0342 35.4549 33.1285 35.6902 33.1285 35.9349C33.1285 36.1795 33.0342 36.4148 32.8652 36.5917C32.6962 36.7687 32.4655 36.8737 32.2211 36.8849Z" fill="black"/>
<path d="M32.2211 41.9689H9.77213C9.52771 41.9577 9.29702 41.8527 9.12802 41.6757C8.95902 41.4988 8.86475 41.2635 8.86475 41.0189C8.86475 40.7742 8.95902 40.5389 9.12802 40.362C9.29702 40.1851 9.52771 40.0801 9.77213 40.0689H32.2211C32.4655 40.0801 32.6962 40.1851 32.8652 40.362C33.0342 40.5389 33.1285 40.7742 33.1285 41.0189C33.1285 41.2635 33.0342 41.4988 32.8652 41.6757C32.6962 41.8527 32.4655 41.9577 32.2211 41.9689Z" fill="black"/>
<path d="M32.2214 47.0529H9.77243C9.64401 47.0588 9.51575 47.0386 9.39536 46.9936C9.27496 46.9485 9.16496 46.8795 9.07199 46.7907C8.97903 46.7019 8.90502 46.5952 8.85446 46.477C8.80391 46.3588 8.77783 46.2315 8.77783 46.1029C8.77783 45.9744 8.80391 45.8471 8.85446 45.7289C8.90502 45.6107 8.97903 45.504 9.07199 45.4152C9.16496 45.3264 9.27496 45.2574 9.39536 45.2123C9.51575 45.1672 9.64401 45.1471 9.77243 45.153H32.2214C32.3499 45.1471 32.4781 45.1672 32.5985 45.2123C32.7189 45.2574 32.8289 45.3264 32.9219 45.4152C33.0149 45.504 33.0889 45.6107 33.1394 45.7289C33.19 45.8471 33.216 45.9744 33.216 46.1029C33.216 46.2315 33.19 46.3588 33.1394 46.477C33.0889 46.5952 33.0149 46.7019 32.9219 46.7907C32.8289 46.8795 32.7189 46.9485 32.5985 46.9936C32.4781 47.0386 32.3499 47.0588 32.2214 47.0529Z" fill="black"/>
</g>
</svg>
