<svg width="250" height="46" viewBox="0 0 250 46" fill="none" xmlns="http://www.w3.org/2000/svg">
<path d="M70.7364 8.51849V24.0952H69.6706V16.1121H60.2229V24.0952H59.157V8.51849H60.2229V15.1386H69.6706V8.51849H70.7364Z" fill="white"/>
<path d="M74.4186 28.0868H75.3876C76.4535 28.0868 76.7926 27.4053 76.9864 26.8211L77.7616 24.8254C77.8585 24.582 77.907 24.3386 77.907 24.0952C77.907 23.8518 77.907 23.6084 77.7616 23.3164L73.1105 12.7534H74.2733L78.6337 22.6836L82.8004 12.7534H83.9632L77.907 27.4053C77.5194 28.3301 76.7926 29.2063 75.5814 29.2063H74.4671V28.0868H74.4186Z" fill="white"/>
<path d="M85.8527 22.6836L86.4341 21.7587C86.8701 22.4889 88.1298 23.4137 89.6318 23.365C91.5698 23.365 92.4903 22.4402 92.4903 21.3206C92.4903 20.201 90.8915 19.3735 89.6802 18.8867C87.936 18.1079 85.8043 17.4264 85.8043 15.1386C85.8043 12.8508 87.5 12.218 89.3411 12.218C91.1822 12.218 91.7636 12.6561 92.6841 13.727L92.0543 14.5058C91.4244 13.7756 90.5039 13.3375 89.3411 13.3375C88.1783 13.3375 86.8702 14.2137 86.8702 15.1386C86.8702 16.4529 87.8876 16.891 89.9225 17.7672C91.5698 18.4486 93.6046 19.2275 93.6046 21.3206C93.6046 23.4137 92.1027 24.4846 89.6318 24.4846C87.1608 24.4846 86.4826 23.6571 85.8527 22.6836Z" fill="white"/>
<path d="M97.5291 21.2719C97.5291 22.6349 98.2074 23.1703 99.2733 23.1703C100.339 23.1703 100.533 22.9269 100.824 22.7322V23.8518C100.485 24.0465 99.9516 24.2412 99.2733 24.2412C97.7713 24.2412 96.4632 23.365 96.4632 21.2719V13.7756H94.6221V12.7534H95.8333C96.2209 12.7534 96.4632 12.51 96.4632 12.0719V9.39465H97.5291V12.7534H100.824V13.7756H97.5291V21.2719Z" fill="white"/>
<path d="M113.421 18.4H103.828C103.828 21.1746 105.572 23.5111 108.43 23.5111C111.289 23.5111 111.143 22.9757 111.967 21.7101L112.694 22.3915C111.919 23.6571 110.223 24.5333 108.382 24.5333C104.893 24.5333 102.762 21.7587 102.762 18.3513C102.762 14.9439 104.942 12.1693 108.091 12.1693C111.24 12.1693 113.372 14.9439 113.372 18.3026L113.421 18.4ZM103.924 17.3778H112.258C111.919 15.0413 110.32 13.2402 108.091 13.2402C105.862 13.2402 104.264 15.0413 103.924 17.3778Z" fill="white"/>
<path d="M121.221 12.4127V13.4349C121.027 13.4349 120.591 13.2889 120.3 13.2889C117.587 13.2889 116.57 15.528 116.57 17.4264V24.1439H115.504V12.8021H116.57V14.6518C117.103 13.3862 118.217 12.3153 120.3 12.3153C122.384 12.3153 121.076 12.4127 121.269 12.4613L121.221 12.4127Z" fill="white"/>
<path d="M132.994 18.4H123.401C123.401 21.1746 125.145 23.5111 128.004 23.5111C130.862 23.5111 130.717 22.9757 131.541 21.7101L132.267 22.3915C131.492 23.6571 129.797 24.5333 127.955 24.5333C124.467 24.5333 122.335 21.7587 122.335 18.3513C122.335 14.9439 124.515 12.1693 127.665 12.1693C130.814 12.1693 132.946 14.9439 132.946 18.3026L132.994 18.4ZM123.547 17.3778H131.88C131.541 15.0413 129.942 13.2402 127.713 13.2402C125.484 13.2402 123.886 15.0413 123.547 17.3778Z" fill="white"/>
<path d="M134.787 18.4C134.787 14.9926 137.355 12.218 140.552 12.218C143.75 12.218 143.992 13.1428 145.01 14.5545L144.235 15.2846C143.411 14.0677 142.054 13.2402 140.552 13.2402C137.985 13.2402 135.901 15.5767 135.901 18.3513C135.901 21.1259 137.985 23.4624 140.552 23.4624C143.12 23.4624 143.411 22.6349 144.283 21.418L145.107 22.0994C144.041 23.6084 142.393 24.5333 140.552 24.5333C137.355 24.5333 134.787 21.7587 134.787 18.3513V18.4Z" fill="white"/>
<path d="M149.176 21.2719C149.176 22.6349 149.855 23.1703 150.921 23.1703C151.986 23.1703 152.18 22.9269 152.471 22.7322V23.8518C152.132 24.0465 151.599 24.2412 150.921 24.2412C149.419 24.2412 148.11 23.365 148.11 21.2719V13.7756H146.269V12.7534H147.481C147.868 12.7534 148.11 12.51 148.11 12.0719V9.39465H149.176V12.7534H152.471V13.7756H149.176V21.2719Z" fill="white"/>
<path d="M154.457 18.4C154.457 14.9926 157.025 12.218 160.223 12.218C163.421 12.218 165.94 14.9926 165.94 18.4C165.94 21.8074 163.372 24.582 160.223 24.582C157.074 24.582 154.457 21.8074 154.457 18.4ZM164.826 18.4C164.826 15.6254 162.742 13.2889 160.174 13.2889C157.607 13.2889 155.523 15.6254 155.523 18.4C155.523 21.1746 157.607 23.5111 160.174 23.5111C162.742 23.5111 164.826 21.1746 164.826 18.4Z" fill="white"/>
<path d="M182.8 16.6963V24.1439H181.735V16.745C181.735 14.5545 180.717 13.3862 179.021 13.3862C177.326 13.3862 176.017 14.8466 176.017 16.9884V24.1439H174.952V16.745C174.952 14.5545 173.983 13.3862 172.238 13.3862C170.494 13.3862 169.234 14.8466 169.234 16.9884V24.1439H168.169V12.8021H169.234V14.2624C169.864 12.9481 171.124 12.364 172.335 12.364C173.547 12.364 175.145 13.0942 175.678 14.6518C176.26 13.0942 177.713 12.364 179.07 12.364C181.298 12.364 182.752 13.7757 182.752 16.745L182.8 16.6963Z" fill="white"/>
<path d="M185.417 28.0868H186.386C187.452 28.0868 187.791 27.4053 187.984 26.8211L188.76 24.8254C188.857 24.582 188.905 24.3386 188.905 24.0952C188.905 23.8518 188.905 23.6084 188.76 23.3164L184.157 12.7534H185.32L189.68 22.6836L193.847 12.7534H195.01L188.953 27.4053C188.566 28.3301 187.839 29.2063 186.628 29.2063H185.514V28.0868H185.417Z" fill="white"/>
<path d="M196.124 23.1704C196.124 22.4402 196.705 21.8561 197.384 21.8561C198.062 21.8561 198.643 22.4889 198.643 23.1704C198.643 23.8518 198.062 24.4846 197.384 24.4846C196.705 24.4846 196.124 23.9005 196.124 23.1704Z" fill="#DA1C47"/>
<path d="M200.775 18.4C200.775 14.9926 203.343 12.218 206.541 12.218C209.738 12.218 210.32 13.2889 211.386 15.0899L209.787 16.5016C209.157 15.1873 207.655 14.4084 206.541 14.4084C204.457 14.4084 202.859 16.1608 202.859 18.4C202.859 20.6391 204.457 22.3915 206.541 22.3915C208.624 22.3915 209.157 21.5153 209.835 20.2497L211.434 21.5153C210.368 23.365 208.479 24.5333 206.492 24.5333C203.295 24.5333 200.727 21.7587 200.727 18.3513L200.775 18.4Z" fill="#DA1C47"/>
<path d="M213.227 18.4C213.227 14.9926 215.795 12.218 218.992 12.218C222.19 12.218 224.709 14.9926 224.709 18.4C224.709 21.8074 222.141 24.582 218.992 24.582C215.843 24.582 213.227 21.8074 213.227 18.4ZM222.626 18.4C222.626 16.1121 221.027 14.4084 218.944 14.4084C216.86 14.4084 215.262 16.1608 215.262 18.4C215.262 20.6391 216.86 22.3915 218.944 22.3915C221.027 22.3915 222.626 20.6391 222.626 18.4Z" fill="#DA1C47"/>
<path d="M242.636 16.6963V24.1439H240.552V17.1831C240.552 15.1873 239.438 14.4571 238.178 14.4571C236.919 14.4571 235.901 15.4794 235.901 17.4264V24.1439H233.818V17.4264C233.818 15.3333 232.704 14.5058 231.444 14.5058C230.184 14.5058 229.215 15.4794 229.167 17.6212V24.1439H227.083V12.8021H229.167V14.3111H229.264C229.7 13.0455 231.008 12.364 232.122 12.364C233.721 12.364 234.932 12.9968 235.514 14.4085C236.143 12.9481 237.694 12.364 238.857 12.364C241.182 12.364 242.684 13.7757 242.684 16.745L242.636 16.6963Z" fill="#DA1C47"/>
<path d="M59.7384 32.273H58.3333V31.7375H61.7733V32.273H60.3682V36.4592H59.7384V32.273Z" fill="#A8ADB0"/>
<path d="M62.2093 31.4942H62.8392V33.5873C62.9361 33.3926 63.0814 33.2466 63.2752 33.1492C63.469 33.0519 63.6628 33.0032 63.9051 33.0032C64.3411 33.0032 65.0679 33.2953 65.0679 34.4148V36.4106H64.438V34.4635C64.438 33.9281 64.2442 33.49 63.6628 33.49C63.0814 33.49 62.9845 33.782 62.8392 34.0741C62.8392 34.1715 62.8392 34.2688 62.8392 34.3662V36.4106H62.2093V31.4942Z" fill="#A8ADB0"/>
<path d="M66.376 34.8529C66.376 35.6804 66.9089 36.0211 67.5388 36.0211C68.1686 36.0211 68.2655 35.9238 68.4593 35.8264L68.5562 36.2645C68.3624 36.3619 67.9748 36.4592 67.4419 36.4592C66.4244 36.4592 65.7946 35.7778 65.7946 34.7555C65.7946 33.7333 66.376 32.9545 67.345 32.9545C68.314 32.9545 68.75 33.928 68.75 34.5121C68.75 35.0963 68.75 34.7069 68.75 34.8042H66.4244L66.376 34.8529ZM68.1686 34.4148C68.1686 34.0254 68.0233 33.4412 67.345 33.4412C66.6667 33.4412 66.4729 34.0254 66.4244 34.4148H68.2171H68.1686Z" fill="#A8ADB0"/>
<path d="M70.9787 31.7376H73.4981V32.2244H71.6085V33.782H73.3527V34.2688H71.6085V36.3619H70.9787V31.6889V31.7376Z" fill="#A8ADB0"/>
<path d="M74.8062 32.127C74.8062 32.3217 74.6609 32.5164 74.4186 32.5164C74.1764 32.5164 74.031 32.3704 74.031 32.127C74.031 31.8836 74.1764 31.7375 74.4186 31.7375C74.6609 31.7375 74.8062 31.8836 74.8062 32.127ZM74.1279 36.4106V33.0518H74.7578V36.4106H74.1279Z" fill="#A8ADB0"/>
<path d="M75.7268 33.9767C75.7268 33.636 75.7268 33.3439 75.7268 33.0518H76.2597V33.5873C76.4051 33.2952 76.7927 32.9545 77.3741 32.9545C77.9554 32.9545 78.5368 33.2465 78.5368 34.3661V36.3619H77.907V34.4148C77.907 33.8793 77.7132 33.4412 77.1318 33.4412C76.5504 33.4412 76.4051 33.7333 76.3082 34.074C76.3082 34.1714 76.3082 34.2688 76.3082 34.3661V36.3619H75.6783V33.928L75.7268 33.9767Z" fill="#A8ADB0"/>
<path d="M81.9283 35.583C81.9283 35.8751 81.9283 36.1672 81.9767 36.4106H81.4438V35.9725H81.3954C81.2016 36.2158 80.8624 36.4592 80.3779 36.4592C79.6996 36.4592 79.3605 35.9725 79.3605 35.4857C79.3605 34.6582 80.0872 34.2201 81.3469 34.2201C81.3469 33.8793 81.25 33.3926 80.5717 33.3926C80.2326 33.3926 79.9419 33.4899 79.6996 33.6359L79.5543 33.2465C79.845 33.0518 80.2326 32.9545 80.6686 32.9545C81.6861 32.9545 81.9283 33.636 81.9283 34.3174V35.583ZM81.3469 34.7069C80.6686 34.7069 79.9419 34.8042 79.9419 35.4857C79.9419 36.1672 80.1841 36.0698 80.5233 36.0698C80.9593 36.0698 81.25 35.7778 81.3469 35.4857C81.3469 35.437 81.3469 35.3397 81.3469 35.291V34.7069Z" fill="#A8ADB0"/>
<path d="M82.8973 31.4942H83.5271V36.4106H82.8973V31.4942Z" fill="#A8ADB0"/>
<path d="M86.531 36.4106L85.3682 31.7375H85.9981L86.531 34.1227C86.6764 34.7069 86.7733 35.291 86.8702 35.7291C86.9671 35.2423 87.1124 34.7069 87.2578 34.1227L87.8876 31.7862H88.5174L89.0988 34.1714C89.2442 34.7069 89.3411 35.291 89.438 35.7778C89.5349 35.2423 89.6802 34.7555 89.8256 34.1714L90.4554 31.8349H91.0853L89.7771 36.5079H89.1473L88.5659 34.0741C88.4206 33.4899 88.3237 33.0032 88.2752 32.5651C88.1783 33.0518 88.0814 33.4899 87.9361 34.0741L87.2578 36.5079H86.6279L86.531 36.4106Z" fill="#A8ADB0"/>
<path d="M94.3799 34.7068C94.3799 35.9725 93.5078 36.5079 92.7326 36.5079C91.9574 36.5079 91.1337 35.8264 91.1337 34.8042C91.1337 33.782 91.8605 33.0518 92.781 33.0518C93.7016 33.0518 94.3799 33.7333 94.3799 34.7555V34.7068ZM91.7636 34.7555C91.7636 35.4857 92.1996 36.0698 92.781 36.0698C93.3624 36.0698 93.7985 35.5344 93.7985 34.7555C93.7985 33.9767 93.5078 33.4899 92.781 33.4899C92.0543 33.4899 91.7636 34.1714 91.7636 34.8042V34.7555Z" fill="#A8ADB0"/>
<path d="M95.155 34.1227C95.155 33.7333 95.155 33.3926 95.155 33.0519H95.688V33.7333C95.8333 33.2952 96.2209 33.0032 96.6085 33.0032C96.9961 33.0032 96.7054 33.0032 96.7539 33.0032V33.5873C96.7054 33.5873 96.6085 33.5873 96.5601 33.5873C96.124 33.5873 95.8333 33.928 95.7364 34.3661C95.7364 34.4635 95.7364 34.5608 95.7364 34.6582V36.4593H95.1066V34.1714L95.155 34.1227Z" fill="#A8ADB0"/>
<path d="M100.242 31.4942V35.5344C100.242 35.8265 100.242 36.1672 100.242 36.4106H99.7093V35.8265C99.5155 36.2159 99.1279 36.508 98.595 36.508C97.7713 36.508 97.1415 35.8265 97.1415 34.8043C97.1415 33.6847 97.8198 33.0032 98.6434 33.0032C99.4671 33.0032 99.5155 33.2466 99.6609 33.49V31.4942H100.242ZM99.6124 34.4148C99.6124 34.3175 99.6124 34.2201 99.6124 34.1715C99.5155 33.782 99.1764 33.49 98.7403 33.49C98.3043 33.49 97.7229 34.0254 97.7229 34.8043C97.7229 35.5831 98.062 36.0699 98.6919 36.0699C99.3217 36.0699 99.4671 35.7778 99.564 35.3397C99.564 35.2424 99.564 35.1937 99.564 35.0963V34.5122L99.6124 34.4148Z" fill="#A8ADB0"/>
<path d="M102.762 36.4106V33.5386H102.277V33.0518H102.762V32.9058C102.762 32.419 102.859 31.9809 103.149 31.7376C103.391 31.4942 103.682 31.4455 103.973 31.4455C104.264 31.4455 104.36 31.4455 104.506 31.5429L104.409 32.0296C104.312 32.0296 104.215 31.9323 104.021 31.9323C103.488 31.9323 103.391 32.3704 103.391 32.9058V33.1005H104.215V33.5873H103.391V36.4593H102.81L102.762 36.4106Z" fill="#A8ADB0"/>
<path d="M104.7 34.1227C104.7 33.7333 104.7 33.3926 104.7 33.0519H105.233V33.7333C105.378 33.2952 105.766 33.0032 106.153 33.0032C106.541 33.0032 106.25 33.0032 106.298 33.0032V33.5873C106.25 33.5873 106.153 33.5873 106.105 33.5873C105.669 33.5873 105.378 33.928 105.281 34.3661C105.281 34.4635 105.281 34.5608 105.281 34.6582V36.4593H104.651V34.1714L104.7 34.1227Z" fill="#A8ADB0"/>
<path d="M109.932 34.7068C109.932 35.9725 109.06 36.5079 108.285 36.5079C107.51 36.5079 106.686 35.8264 106.686 34.8042C106.686 33.782 107.413 33.0518 108.333 33.0518C109.254 33.0518 109.932 33.7333 109.932 34.7555V34.7068ZM107.267 34.7555C107.267 35.4857 107.704 36.0698 108.285 36.0698C108.866 36.0698 109.302 35.5344 109.302 34.7555C109.302 33.9767 109.012 33.4899 108.285 33.4899C107.558 33.4899 107.267 34.1714 107.267 34.8042V34.7555Z" fill="#A8ADB0"/>
<path d="M110.707 33.9767C110.707 33.636 110.707 33.3439 110.707 33.0518H111.24V33.5873C111.434 33.2465 111.725 32.9545 112.306 32.9545C112.888 32.9545 113.081 33.2465 113.227 33.6359C113.324 33.4412 113.469 33.2952 113.614 33.1979C113.808 33.0518 114.05 32.9545 114.341 32.9545C114.777 32.9545 115.455 33.2465 115.455 34.4148V36.3619H114.874V34.4635C114.874 33.8307 114.632 33.4412 114.147 33.4412C113.663 33.4412 113.517 33.6846 113.421 33.9767C113.421 34.074 113.421 34.1714 113.421 34.2688V36.3619H112.839V34.3661C112.839 33.8307 112.597 33.4412 112.161 33.4412C111.725 33.4412 111.483 33.7333 111.386 34.074C111.386 34.1714 111.337 34.2688 111.337 34.3661V36.3619H110.756V33.928L110.707 33.9767Z" fill="#A8ADB0"/>
<path d="M118.653 32.273V33.1005H119.525V33.5873H118.653V35.3884C118.653 35.8264 118.75 36.0212 119.089 36.0212C119.428 36.0212 119.331 36.0212 119.428 36.0212V36.5079C119.331 36.5079 119.138 36.6053 118.895 36.6053C118.653 36.6053 118.362 36.5079 118.217 36.3619C118.072 36.1672 117.975 35.8751 117.975 35.4857V33.636H117.442V33.1492H117.975V32.5164L118.556 32.3217L118.653 32.273Z" fill="#A8ADB0"/>
<path d="M120.203 31.4942H120.833V33.5873C120.93 33.3926 121.076 33.2466 121.269 33.1492C121.463 33.0519 121.657 33.0032 121.899 33.0032C122.335 33.0032 123.062 33.2953 123.062 34.4148V36.4106H122.432V34.4635C122.432 33.9281 122.238 33.49 121.657 33.49C121.076 33.49 120.979 33.782 120.833 34.0741C120.833 34.1715 120.833 34.2688 120.833 34.3662V36.4106H120.203V31.4942Z" fill="#A8ADB0"/>
<path d="M124.37 34.8529C124.37 35.6804 124.903 36.0211 125.533 36.0211C126.163 36.0211 126.26 35.9238 126.453 35.8264L126.55 36.2645C126.357 36.3619 125.969 36.4592 125.436 36.4592C124.419 36.4592 123.789 35.7778 123.789 34.7555C123.789 33.7333 124.37 32.9545 125.339 32.9545C126.308 32.9545 126.744 33.928 126.744 34.5121C126.744 35.0963 126.744 34.7069 126.744 34.8042H124.419L124.37 34.8529ZM126.163 34.4148C126.163 34.0254 126.017 33.4412 125.339 33.4412C124.661 33.4412 124.467 34.0254 124.419 34.4148H126.211H126.163Z" fill="#A8ADB0"/>
<path d="M129.457 36.4106L128.295 31.7375H128.924L129.457 34.1227C129.603 34.7069 129.7 35.291 129.797 35.7291C129.893 35.2423 130.039 34.7069 130.184 34.1227L130.814 31.7862H131.444L132.025 34.1714C132.171 34.7069 132.267 35.291 132.364 35.7778C132.461 35.2423 132.607 34.7555 132.752 34.1714L133.382 31.8349H134.012L132.704 36.5079H132.074L131.492 34.0741C131.347 33.4899 131.25 33.0032 131.202 32.5651C131.105 33.0518 131.008 33.4899 130.862 34.0741L130.184 36.5079H129.554L129.457 36.4106Z" fill="#A8ADB0"/>
<path d="M137.355 34.7068C137.355 35.9725 136.483 36.5079 135.707 36.5079C134.932 36.5079 134.109 35.8264 134.109 34.8042C134.109 33.782 134.835 33.0518 135.756 33.0518C136.676 33.0518 137.355 33.7333 137.355 34.7555V34.7068ZM134.69 34.7555C134.69 35.4857 135.126 36.0698 135.707 36.0698C136.289 36.0698 136.725 35.5344 136.725 34.7555C136.725 33.9767 136.434 33.4899 135.707 33.4899C134.981 33.4899 134.69 34.1714 134.69 34.8042V34.7555Z" fill="#A8ADB0"/>
<path d="M138.081 34.1227C138.081 33.7333 138.081 33.3926 138.081 33.0519H138.614V33.7333C138.76 33.2952 139.147 33.0032 139.535 33.0032C139.922 33.0032 139.632 33.0032 139.68 33.0032V33.5873C139.632 33.5873 139.535 33.5873 139.486 33.5873C139.05 33.5873 138.76 33.928 138.663 34.3661C138.663 34.4635 138.663 34.5608 138.663 34.6582V36.4593H138.033V34.1714L138.081 34.1227Z" fill="#A8ADB0"/>
<path d="M140.407 31.4942H141.037V36.4106H140.407V31.4942Z" fill="#A8ADB0"/>
<path d="M144.913 31.4942V35.5344C144.913 35.8265 144.913 36.1672 144.913 36.4106H144.38V35.8265C144.186 36.2159 143.798 36.508 143.266 36.508C142.442 36.508 141.812 35.8265 141.812 34.8043C141.812 33.6847 142.49 33.0032 143.314 33.0032C144.138 33.0032 144.186 33.2466 144.331 33.49V31.4942H144.913ZM144.283 34.4148C144.283 34.3175 144.283 34.2201 144.283 34.1715C144.186 33.782 143.847 33.49 143.411 33.49C142.975 33.49 142.393 34.0254 142.393 34.8043C142.393 35.5831 142.733 36.0699 143.362 36.0699C143.992 36.0699 144.138 35.7778 144.234 35.3397C144.234 35.2424 144.234 35.1937 144.234 35.0963V34.5122L144.283 34.4148Z" fill="#A8ADB0"/>
<path d="M146.366 31.5916L146.269 33.2466H145.882L145.785 31.5916H146.366Z" fill="#A8ADB0"/>
<path d="M147.141 35.7777C147.335 35.8751 147.626 36.0211 147.965 36.0211C148.401 36.0211 148.595 35.8264 148.595 35.5344C148.595 35.2423 148.401 35.0963 147.965 34.9016C147.335 34.6582 147.093 34.3661 147.093 33.928C147.093 33.4899 147.529 32.9545 148.256 32.9545C148.983 32.9545 148.886 33.0518 149.079 33.1492L148.934 33.5873C148.789 33.4899 148.547 33.3926 148.256 33.3926C147.965 33.3926 147.723 33.5873 147.723 33.8307C147.723 34.074 147.917 34.2201 148.353 34.4148C148.934 34.6095 149.225 34.9016 149.225 35.437C149.225 35.9725 148.74 36.4592 147.965 36.4592C147.19 36.4592 147.238 36.3619 147.045 36.2158L147.19 35.7777H147.141Z" fill="#A8ADB0"/>
<path d="M151.405 31.7375H152.035V35.9238H154.021V36.4106H151.405V31.7375Z" fill="#A8ADB0"/>
<path d="M154.893 34.8529C154.893 35.6804 155.426 36.0211 156.056 36.0211C156.686 36.0211 156.783 35.9238 156.977 35.8264L157.074 36.2645C156.88 36.3619 156.492 36.4592 155.959 36.4592C154.942 36.4592 154.312 35.7778 154.312 34.7555C154.312 33.7333 154.893 32.9545 155.862 32.9545C156.831 32.9545 157.267 33.928 157.267 34.5121C157.267 35.0963 157.267 34.7069 157.267 34.8042H154.942L154.893 34.8529ZM156.686 34.4148C156.686 34.0254 156.541 33.4412 155.862 33.4412C155.184 33.4412 154.99 34.0254 154.942 34.4148H156.734H156.686Z" fill="#A8ADB0"/>
<path d="M160.368 35.583C160.368 35.8751 160.368 36.1672 160.368 36.4106H159.835V35.9725H159.787C159.593 36.2158 159.254 36.4592 158.769 36.4592C158.091 36.4592 157.752 35.9725 157.752 35.4857C157.752 34.6582 158.479 34.2201 159.738 34.2201C159.738 33.8793 159.641 33.3926 158.963 33.3926C158.624 33.3926 158.333 33.4899 158.091 33.6359L157.946 33.2465C158.236 33.0518 158.624 32.9545 159.06 32.9545C160.078 32.9545 160.32 33.636 160.32 34.3174V35.583H160.368ZM159.787 34.7069C159.109 34.7069 158.382 34.8042 158.382 35.4857C158.382 36.1672 158.624 36.0698 158.963 36.0698C159.399 36.0698 159.69 35.7778 159.787 35.4857C159.787 35.437 159.787 35.3397 159.787 35.291V34.7069Z" fill="#A8ADB0"/>
<path d="M164.244 31.4942V35.5344C164.244 35.8265 164.244 36.1672 164.244 36.4106H163.711V35.8265C163.517 36.2159 163.13 36.508 162.597 36.508C161.773 36.508 161.143 35.8265 161.143 34.8043C161.143 33.6847 161.822 33.0032 162.645 33.0032C163.469 33.0032 163.517 33.2466 163.663 33.49V31.4942H164.244ZM163.614 34.4148C163.614 34.3175 163.614 34.2201 163.614 34.1715C163.517 33.782 163.178 33.49 162.742 33.49C162.306 33.49 161.725 34.0254 161.725 34.8043C161.725 35.5831 162.064 36.0699 162.694 36.0699C163.324 36.0699 163.469 35.7778 163.566 35.3397C163.566 35.2424 163.566 35.1937 163.566 35.0963V34.5122L163.614 34.4148Z" fill="#A8ADB0"/>
<path d="M165.94 32.127C165.94 32.3217 165.795 32.5164 165.552 32.5164C165.31 32.5164 165.165 32.3704 165.165 32.127C165.165 31.8836 165.31 31.7375 165.552 31.7375C165.795 31.7375 165.94 31.8836 165.94 32.127ZM165.262 36.4106V33.0518H165.891V36.4106H165.262Z" fill="#A8ADB0"/>
<path d="M166.86 33.9767C166.86 33.636 166.86 33.3439 166.86 33.0518H167.393V33.5873C167.539 33.2952 167.926 32.9545 168.508 32.9545C169.089 32.9545 169.671 33.2465 169.671 34.3661V36.3619H169.041V34.4148C169.041 33.8793 168.847 33.4412 168.266 33.4412C167.684 33.4412 167.539 33.7333 167.442 34.074C167.442 34.1714 167.442 34.2688 167.442 34.3661V36.3619H166.812V33.928L166.86 33.9767Z" fill="#A8ADB0"/>
<path d="M173.547 35.9238C173.547 36.7026 173.401 37.1894 173.062 37.4815C172.723 37.7735 172.238 37.8709 171.851 37.8709C171.463 37.8709 171.027 37.7735 170.736 37.5788L170.882 37.0921C171.124 37.2381 171.463 37.3841 171.851 37.3841C172.481 37.3841 172.917 37.0434 172.917 36.2159V35.8265C172.723 36.1185 172.384 36.4106 171.851 36.4106C171.027 36.4106 170.446 35.6804 170.446 34.7556C170.446 33.8307 171.172 33.0032 171.948 33.0032C172.723 33.0032 172.82 33.2952 173.014 33.5873V33.1005H173.595C173.595 33.3439 173.595 33.636 173.595 34.0254V35.9725L173.547 35.9238ZM172.917 34.3661C172.917 34.2688 172.917 34.1714 172.917 34.0741C172.82 33.7333 172.529 33.4413 172.045 33.4413C171.56 33.4413 171.027 33.928 171.027 34.7069C171.027 35.4857 171.366 35.9238 171.996 35.9238C172.626 35.9238 172.723 35.6804 172.82 35.291C172.82 35.1936 172.82 35.0476 172.82 34.9503V34.3661H172.917Z" fill="#A8ADB0"/>
<path d="M176.017 31.7375H176.647V35.9238H178.634V36.4106H176.017V31.7375Z" fill="#A8ADB0"/>
<path d="M181.638 35.583C181.638 35.8751 181.638 36.1672 181.638 36.4106H181.105V35.9725H181.056C180.862 36.2158 180.523 36.4592 180.039 36.4592C179.36 36.4592 179.021 35.9725 179.021 35.4857C179.021 34.6582 179.748 34.2201 181.008 34.2201C181.008 33.8793 180.911 33.3926 180.233 33.3926C179.893 33.3926 179.603 33.4899 179.36 33.6359L179.215 33.2465C179.506 33.0518 179.893 32.9545 180.329 32.9545C181.347 32.9545 181.589 33.636 181.589 34.3174V35.583H181.638ZM181.008 34.7069C180.329 34.7069 179.603 34.8042 179.603 35.4857C179.603 36.1672 179.845 36.0698 180.184 36.0698C180.62 36.0698 180.911 35.7778 181.008 35.4857C181.008 35.437 181.008 35.3397 181.008 35.291V34.7069Z" fill="#A8ADB0"/>
<path d="M182.607 34.1714C182.607 33.7333 182.607 33.3926 182.607 33.0519H183.14V33.636C183.382 33.2466 183.769 33.0032 184.351 33.0032C185.174 33.0032 185.756 33.6847 185.756 34.7069C185.756 35.7291 185.029 36.5079 184.254 36.5079C183.479 36.5079 183.43 36.3132 183.236 35.9725V37.7735H182.655V34.1227L182.607 34.1714ZM183.188 35.0476C183.188 35.145 183.188 35.2423 183.188 35.291C183.285 35.7291 183.672 36.0212 184.109 36.0212C184.738 36.0212 185.126 35.4857 185.126 34.7069C185.126 33.928 184.787 33.4413 184.109 33.4413C183.43 33.4413 183.285 33.7333 183.188 34.1714C183.188 34.2688 183.188 34.3175 183.188 34.4148V34.9989V35.0476Z" fill="#A8ADB0"/>
<path d="M188.857 35.583C188.857 35.8751 188.857 36.1672 188.857 36.4106H188.324V35.9725H188.275C188.081 36.2158 187.742 36.4592 187.258 36.4592C186.579 36.4592 186.24 35.9725 186.24 35.4857C186.24 34.6582 186.967 34.2201 188.227 34.2201C188.227 33.8793 188.13 33.3926 187.452 33.3926C187.112 33.3926 186.822 33.4899 186.579 33.6359L186.434 33.2465C186.725 33.0518 187.112 32.9545 187.548 32.9545C188.566 32.9545 188.808 33.636 188.808 34.3174V35.583H188.857ZM188.275 34.7069C187.597 34.7069 186.87 34.8042 186.87 35.4857C186.87 36.1672 187.112 36.0698 187.452 36.0698C187.888 36.0698 188.178 35.7778 188.275 35.4857C188.275 35.437 188.275 35.3397 188.275 35.291V34.7069Z" fill="#A8ADB0"/>
<path d="M189.874 34.1227C189.874 33.7333 189.874 33.3926 189.874 33.0519H190.407V33.7333C190.552 33.2952 190.94 33.0032 191.328 33.0032C191.715 33.0032 191.424 33.0032 191.473 33.0032V33.5873C191.424 33.5873 191.328 33.5873 191.279 33.5873C190.843 33.5873 190.552 33.928 190.455 34.3661C190.455 34.4635 190.455 34.5608 190.455 34.6582V36.4593H189.826V34.1714L189.874 34.1227Z" fill="#A8ADB0"/>
<path d="M195.058 34.7068C195.058 35.9725 194.186 36.5079 193.411 36.5079C192.636 36.5079 191.812 35.8264 191.812 34.8042C191.812 33.782 192.539 33.0518 193.459 33.0518C194.38 33.0518 195.058 33.7333 195.058 34.7555V34.7068ZM192.442 34.7555C192.442 35.4857 192.878 36.0698 193.459 36.0698C194.041 36.0698 194.477 35.5344 194.477 34.7555C194.477 33.9767 194.186 33.4899 193.459 33.4899C192.733 33.4899 192.442 34.1714 192.442 34.8042V34.7555Z" fill="#A8ADB0"/>
<path d="M195.736 35.7777C195.93 35.8751 196.221 36.0211 196.56 36.0211C196.996 36.0211 197.19 35.8264 197.19 35.5344C197.19 35.2423 196.996 35.0963 196.56 34.9016C195.93 34.6582 195.688 34.3661 195.688 33.928C195.688 33.4899 196.124 32.9545 196.851 32.9545C197.578 32.9545 197.481 33.0518 197.674 33.1492L197.529 33.5873C197.384 33.4899 197.141 33.3926 196.851 33.3926C196.56 33.3926 196.318 33.5873 196.318 33.8307C196.318 34.074 196.512 34.2201 196.948 34.4148C197.529 34.6095 197.82 34.9016 197.82 35.437C197.82 35.9725 197.335 36.4592 196.56 36.4592C195.785 36.4592 195.833 36.3619 195.64 36.2158L195.785 35.7777H195.736Z" fill="#A8ADB0"/>
<path d="M200.921 36.3132C200.775 36.4106 200.388 36.5079 199.952 36.5079C198.934 36.5079 198.304 35.8265 198.304 34.8042C198.304 33.782 199.031 33.0032 200.097 33.0032C201.163 33.0032 200.775 33.1005 200.921 33.1979L200.775 33.6847C200.63 33.5873 200.388 33.5386 200.048 33.5386C199.273 33.5386 198.886 34.1227 198.886 34.8042C198.886 35.4857 199.37 36.0698 200.048 36.0698C200.727 36.0698 200.63 35.9725 200.775 35.9238L200.872 36.3619L200.921 36.3132Z" fill="#A8ADB0"/>
<path d="M204.651 34.7068C204.651 35.9725 203.779 36.5079 203.004 36.5079C202.229 36.5079 201.405 35.8264 201.405 34.8042C201.405 33.782 202.132 33.0518 203.052 33.0518C203.973 33.0518 204.651 33.7333 204.651 34.7555V34.7068ZM201.986 34.7555C201.986 35.4857 202.422 36.0698 203.004 36.0698C203.585 36.0698 204.021 35.5344 204.021 34.7555C204.021 33.9767 203.731 33.4899 203.004 33.4899C202.277 33.4899 201.986 34.1714 201.986 34.8042V34.7555Z" fill="#A8ADB0"/>
<path d="M205.426 34.1714C205.426 33.7333 205.426 33.3926 205.426 33.0519H205.959V33.636C206.202 33.2466 206.589 33.0032 207.171 33.0032C207.994 33.0032 208.576 33.6847 208.576 34.7069C208.576 35.7291 207.849 36.5079 207.074 36.5079C206.298 36.5079 206.25 36.3132 206.056 35.9725V37.7735H205.475V34.1227L205.426 34.1714ZM206.008 35.0476C206.008 35.145 206.008 35.2423 206.008 35.291C206.105 35.7291 206.492 36.0212 206.928 36.0212C207.558 36.0212 207.946 35.4857 207.946 34.7069C207.946 33.928 207.607 33.4413 206.928 33.4413C206.25 33.4413 206.105 33.7333 206.008 34.1714C206.008 34.2688 206.008 34.3175 206.008 34.4148V34.9989V35.0476Z" fill="#A8ADB0"/>
<path d="M210.029 32.127C210.029 32.3217 209.884 32.5164 209.642 32.5164C209.399 32.5164 209.254 32.3704 209.254 32.127C209.254 31.8836 209.399 31.7375 209.642 31.7375C209.884 31.7375 210.029 31.8836 210.029 32.127ZM209.351 36.4106V33.0518H209.981V36.4106H209.351Z" fill="#A8ADB0"/>
<path d="M213.324 36.3132C213.178 36.4106 212.791 36.5079 212.355 36.5079C211.337 36.5079 210.707 35.8265 210.707 34.8042C210.707 33.782 211.434 33.0032 212.5 33.0032C213.566 33.0032 213.178 33.1005 213.324 33.1979L213.178 33.6847C213.033 33.5873 212.791 33.5386 212.452 33.5386C211.676 33.5386 211.289 34.1227 211.289 34.8042C211.289 35.4857 211.773 36.0698 212.452 36.0698C213.13 36.0698 213.033 35.9725 213.178 35.9238L213.275 36.3619L213.324 36.3132Z" fill="#A8ADB0"/>
<path d="M215.455 35.6804C215.746 35.8751 216.134 35.9725 216.521 35.9725C217.151 35.9725 217.49 35.6318 217.49 35.1937C217.49 34.7556 217.248 34.5122 216.618 34.2688C215.843 33.9767 215.407 33.5873 215.407 32.9545C215.407 32.3217 215.988 31.6889 216.909 31.6889C217.829 31.6889 217.733 31.7863 217.926 31.9323L217.781 32.4191C217.636 32.3217 217.345 32.1757 216.909 32.1757C216.279 32.1757 216.037 32.5651 216.037 32.8572C216.037 33.1492 216.328 33.49 216.957 33.782C217.733 34.0741 218.12 34.4635 218.12 35.145C218.12 35.8265 217.587 36.508 216.521 36.508C215.455 36.508 215.601 36.3619 215.31 36.2159L215.455 35.7291V35.6804Z" fill="#A8ADB0"/>
<path d="M221.705 35.4857C221.705 35.8265 221.705 36.1672 221.705 36.4106H221.172V35.8751C221.027 36.1672 220.64 36.5079 220.058 36.5079C219.477 36.5079 218.895 36.2159 218.895 35.0476V33.1005H219.525V34.9503C219.525 35.5831 219.719 36.0212 220.252 36.0212C220.785 36.0212 220.93 35.7291 221.076 35.437C221.076 35.3397 221.124 35.2423 221.124 35.145V33.1005H221.754V35.5344L221.705 35.4857Z" fill="#A8ADB0"/>
<path d="M222.723 34.1227C222.723 33.7333 222.723 33.3926 222.723 33.0519H223.256V33.7333C223.401 33.2952 223.789 33.0032 224.176 33.0032C224.564 33.0032 224.273 33.0032 224.322 33.0032V33.5873C224.273 33.5873 224.176 33.5873 224.128 33.5873C223.692 33.5873 223.401 33.928 223.304 34.3661C223.304 34.4635 223.304 34.5608 223.304 34.6582V36.4593H222.674V34.1714L222.723 34.1227Z" fill="#A8ADB0"/>
<path d="M227.762 35.9238C227.762 36.7026 227.616 37.1894 227.277 37.4815C226.938 37.7735 226.454 37.8709 226.066 37.8709C225.678 37.8709 225.242 37.7735 224.952 37.5788L225.097 37.0921C225.339 37.2381 225.678 37.3841 226.066 37.3841C226.696 37.3841 227.132 37.0434 227.132 36.2159V35.8265C226.938 36.1185 226.599 36.4106 226.066 36.4106C225.242 36.4106 224.661 35.6804 224.661 34.7556C224.661 33.8307 225.388 33.0032 226.163 33.0032C226.938 33.0032 227.035 33.2952 227.229 33.5873V33.1005H227.81C227.81 33.3439 227.81 33.636 227.81 34.0254V35.9725L227.762 35.9238ZM227.18 34.3661C227.18 34.2688 227.18 34.1714 227.18 34.0741C227.083 33.7333 226.793 33.4413 226.308 33.4413C225.824 33.4413 225.291 33.928 225.291 34.7069C225.291 35.4857 225.63 35.9238 226.26 35.9238C226.89 35.9238 226.986 35.6804 227.083 35.291C227.083 35.1936 227.083 35.0476 227.083 34.9503V34.3661H227.18Z" fill="#A8ADB0"/>
<path d="M229.118 34.8529C229.118 35.6804 229.651 36.0211 230.281 36.0211C230.911 36.0211 231.008 35.9238 231.202 35.8264L231.298 36.2645C231.105 36.3619 230.717 36.4592 230.184 36.4592C229.167 36.4592 228.537 35.7778 228.537 34.7555C228.537 33.7333 229.118 32.9545 230.087 32.9545C231.056 32.9545 231.492 33.928 231.492 34.5121C231.492 35.0963 231.492 34.7069 231.492 34.8042H229.167L229.118 34.8529ZM230.911 34.4148C230.911 34.0254 230.766 33.4412 230.087 33.4412C229.409 33.4412 229.215 34.0254 229.167 34.4148H230.959H230.911Z" fill="#A8ADB0"/>
<path d="M235.271 34.7068C235.271 35.9725 234.399 36.5079 233.624 36.5079C232.849 36.5079 232.025 35.8264 232.025 34.8042C232.025 33.782 232.752 33.0518 233.672 33.0518C234.593 33.0518 235.271 33.7333 235.271 34.7555V34.7068ZM232.607 34.7555C232.607 35.4857 233.043 36.0698 233.624 36.0698C234.205 36.0698 234.641 35.5344 234.641 34.7555C234.641 33.9767 234.351 33.4899 233.624 33.4899C232.897 33.4899 232.607 34.1714 232.607 34.8042V34.7555Z" fill="#A8ADB0"/>
<path d="M235.998 33.9767C235.998 33.636 235.998 33.3439 235.998 33.0518H236.531V33.5873C236.676 33.2952 237.064 32.9545 237.645 32.9545C238.227 32.9545 238.808 33.2465 238.808 34.3661V36.3619H238.178V34.4148C238.178 33.8793 237.984 33.4412 237.403 33.4412C236.822 33.4412 236.676 33.7333 236.579 34.074C236.579 34.1714 236.579 34.2688 236.579 34.3661V36.3619H235.95V33.928L235.998 33.9767Z" fill="#A8ADB0"/>
<path d="M30.6202 40.7915C30.6202 40.7915 28.7306 22.8783 34.6415 14.2137C34.6415 14.2137 37.8876 8.32378 43.5078 7.49627C49.1279 6.62008 51.4535 11.4391 50.8721 14.3598C50.8721 14.3598 49.8547 19.1301 45.3004 19.1301C45.3004 19.1301 42.781 19.2275 42.345 16.6476C41.9089 14.0677 42.345 16.1608 42.5872 16.0148C43.1686 15.4793 44.6221 14.1651 44.9128 13.7756C45.2035 13.3862 45.3973 12.7534 44.0407 12.7047C42.6841 12.6561 39.2926 13.0942 37.1124 15.7714C37.1124 15.7714 30.5717 22.6349 30.6202 40.8889V40.7915Z" fill="#DA1C47"/>
<path d="M26.6473 40.7913C26.6473 40.7913 28.5368 22.8781 22.626 14.2135C22.626 14.2135 19.3799 8.32358 13.7597 7.49606C8.13954 6.66855 5.81396 11.4389 6.39536 14.3596C6.39536 14.3596 7.4128 19.1299 11.9671 19.1299C11.9671 19.1299 14.4864 19.2273 14.9225 16.6474C15.3585 14.0675 14.9225 16.1606 14.6802 16.0146C14.0988 15.4791 12.6454 14.1648 12.3547 13.7754C12.064 13.386 11.8702 12.7532 13.2268 12.7045C14.5349 12.6559 17.9748 13.0939 20.155 15.7712C20.155 15.7712 26.6957 22.6347 26.6473 40.8887V40.7913Z" fill="#DA1C47"/>
<path d="M18.9438 8.61582C18.9438 8.61582 24.5155 10.1735 29.8934 10.1735C35.2713 10.1735 39.002 7.64227 39.002 7.64227C39.002 7.64227 37.1124 12.2666 29.8934 12.2666C29.8934 12.2666 23.5465 12.4126 18.9438 8.61582Z" fill="#DA1C47"/>
<path d="M24.2733 15.0413H33.2365C33.2365 15.0413 30.2326 20.4444 29.6996 23.3651C29.1667 26.2857 30.1841 18.546 31.2985 16.3069H25.7268C25.7268 16.3069 27.7616 21.8074 27.907 25.9936C27.907 25.9936 26.1144 18.4 24.2248 15.0413H24.2733Z" fill="#DA1C47"/>
</svg>
