<svg width="60" height="57" viewBox="0 0 60 57" fill="none" xmlns="http://www.w3.org/2000/svg">
<mask id="mask0_1_3435" style="mask-type:luminance" maskUnits="userSpaceOnUse" x="0" y="0" width="60" height="57">
<path d="M59.1762 0.85791H0.824219V56.3499H59.1762V0.85791Z" fill="white"/>
</mask>
<g mask="url(#mask0_1_3435)">
<path d="M55.3513 34.0449C53.5768 32.4708 51.4869 31.2933 49.2213 30.5909C48.4693 30.3389 47.6712 30.1479 46.9482 29.8319C51.0642 26.6569 52.7382 21.0129 53.1582 16.2919C53.5142 12.2919 52.7242 8.22491 49.7762 5.09191C47.3879 2.61434 44.162 1.11552 40.7282 0.887908C39.9998 0.84547 39.2696 0.84547 38.5412 0.887908C34.719 1.0933 31.1187 2.74754 28.4732 5.51391C27.7337 6.35928 27.0895 7.28351 26.5522 8.26991C27.1173 8.44258 27.6685 8.65752 28.2012 8.91291C29.0544 7.43989 30.1952 6.15352 31.5556 5.13032C32.916 4.10711 34.4684 3.36799 36.1202 2.95691C39.2557 2.13692 42.5827 2.49003 45.4763 3.94991C45.5576 3.99324 45.6382 4.03791 45.7182 4.08391C45.7982 4.12991 45.8776 4.17591 45.9562 4.22191C46.0349 4.26924 46.1132 4.31724 46.1912 4.36591C46.2692 4.41457 46.3462 4.46424 46.4222 4.51491C46.4982 4.56557 46.5739 4.61691 46.6492 4.66891C46.7242 4.72091 46.7983 4.77391 46.8723 4.82791C46.9463 4.88191 47.0182 4.93691 47.0902 4.99191C47.1622 5.04691 47.2342 5.10291 47.3042 5.16091C47.3742 5.21891 47.4442 5.27591 47.5132 5.33391C47.5822 5.39191 47.6503 5.45191 47.7133 5.51191C47.7763 5.57191 47.8472 5.63291 47.9132 5.69391C47.9792 5.75491 48.0432 5.81791 48.1072 5.88091C48.1712 5.94391 48.2342 6.00791 48.2972 6.07191C48.3602 6.13591 48.4212 6.20091 48.4822 6.27191C48.5432 6.34291 48.6023 6.40391 48.6613 6.47191C48.7203 6.53991 48.7782 6.60691 48.8352 6.67191C48.8922 6.73691 48.9482 6.80891 49.0032 6.87891C49.0582 6.94891 49.1132 7.01891 49.1662 7.08991C49.2192 7.16091 49.2722 7.23191 49.3232 7.30391C49.3742 7.37591 49.4232 7.44791 49.4742 7.52191C49.5252 7.59591 49.5742 7.66891 49.6192 7.74291C49.6642 7.81691 49.7132 7.89191 49.7582 7.96691C49.8032 8.04191 49.8472 8.11791 49.8912 8.19391C49.9352 8.26991 49.9772 8.34691 50.0182 8.42391C50.0592 8.50091 50.1002 8.57891 50.1382 8.65691C50.1762 8.73491 50.2162 8.81391 50.2532 8.89191C50.2902 8.96991 50.3262 9.04991 50.3612 9.12991C50.3962 9.20991 50.4302 9.28991 50.4612 9.36991C50.4922 9.44991 50.5252 9.53091 50.5562 9.61291C50.5872 9.69491 50.6162 9.77591 50.6452 9.85691C50.6742 9.93791 50.7012 10.0209 50.7272 10.1029C50.7532 10.1849 50.7792 10.2679 50.8032 10.3509C51.3235 12.1526 51.4906 14.0378 51.2952 15.9029C50.9812 14.7639 50.6652 13.2549 49.7152 12.3959C45.9972 14.6469 41.4523 15.0959 37.0883 14.7959C36.1623 14.7574 35.2394 14.6649 34.3242 14.5189C34.2602 14.5069 34.1962 14.4949 34.1332 14.4809C34.3932 15.0622 34.6626 15.6396 34.9412 16.2129C39.7097 16.9955 44.6006 16.4929 49.1102 14.7569C49.6102 17.6179 50.7762 19.9379 49.8242 22.8419C49.3523 24.1668 48.6487 25.3973 47.7462 26.4759C46.1045 28.51 43.7551 29.8491 41.1682 30.2249C38.7021 30.5066 36.2147 29.923 34.1312 28.5739C33.9262 29.1019 33.7122 29.6319 33.4682 30.1469C35.2523 31.2604 37.2986 31.8837 39.4005 31.9539C41.5024 32.0241 43.5858 31.5388 45.4402 30.5469C45.897 31.0726 46.3163 31.6296 46.6953 32.2139C45.5431 33.9193 44.2948 35.5576 42.9562 37.1209C42.0722 38.2269 41.2563 39.3829 40.3203 40.4509C37.6054 37.7149 35.0352 34.839 32.6202 31.8349C32.0392 32.4929 30.6352 34.0049 30.7552 34.8519C30.7671 34.9567 30.8021 35.0576 30.8576 35.1474C30.9131 35.2371 30.9877 35.3134 31.0762 35.3709C31.385 35.5492 31.7432 35.6225 32.0972 35.5799C32.3849 35.4948 32.6377 35.3195 32.8182 35.0799C34.5993 36.4138 36.2984 37.8537 37.9062 39.3919C38.967 40.3532 39.909 41.4379 40.7122 42.6229C42.3822 40.6419 43.9592 38.6019 45.5642 36.5769C46.5332 35.3539 47.4852 34.1199 48.5482 32.9619C49.9722 34.3619 49.7273 36.4119 49.6483 38.1919C49.6393 38.3919 49.6252 38.5799 49.6002 38.7739C48.6805 38.8873 47.8324 39.3282 47.2112 40.0159C46.8758 40.3859 46.6228 40.8229 46.4691 41.298C46.3153 41.7732 46.2642 42.2756 46.3192 42.7719C46.3279 42.8386 46.3386 42.9052 46.3513 42.9719C46.3633 43.0379 46.3772 43.1029 46.3932 43.1719C46.4093 43.2409 46.4262 43.3009 46.4462 43.3649C46.4662 43.4289 46.4862 43.4929 46.5092 43.5559C46.5322 43.6189 46.5562 43.6819 46.5822 43.7439C46.6082 43.8059 46.6362 43.8679 46.6652 43.9289C46.6942 43.9899 46.7252 44.0499 46.7582 44.1099C46.7912 44.1699 46.8252 44.2279 46.8582 44.2859C46.8912 44.3439 46.9312 44.4009 46.9702 44.4579C47.0092 44.5149 47.0492 44.5699 47.0902 44.6239C47.1312 44.6779 47.1752 44.7319 47.2192 44.7849C47.2632 44.8379 47.3092 44.8849 47.3562 44.9399C47.4032 44.9949 47.4563 45.0399 47.5023 45.0889C47.5483 45.1379 47.6022 45.1889 47.6562 45.2309C47.7103 45.2729 47.7622 45.3219 47.8172 45.3659C47.8722 45.4099 47.9282 45.4519 47.9852 45.4939C48.8115 46.0622 49.822 46.2972 50.8142 46.1519C51.8623 46.0492 52.8317 45.5503 53.5242 44.7569C53.8667 44.3471 54.1183 43.8694 54.2624 43.3551C54.4065 42.8409 54.4399 42.302 54.3602 41.7739C54.2352 41.2556 54.0056 40.7683 53.6856 40.3419C53.3656 39.9154 52.9619 39.5588 52.4992 39.2939C52.1585 39.0769 51.7851 38.9161 51.3932 38.8179C51.4222 36.8629 51.7762 34.6629 50.6932 32.8949C51.2619 33.1446 51.8007 33.4576 52.2993 33.8279C54.1921 35.0498 55.6994 36.7836 56.6462 38.8279C56.7182 38.9959 56.7849 39.1662 56.8463 39.3389C56.9076 39.5116 56.9602 39.6856 57.0042 39.8609C57.0509 40.0362 57.0906 40.2129 57.1232 40.3909C57.1559 40.5689 57.1822 40.7476 57.2022 40.9269C57.3056 42.3214 57.3273 43.7208 57.2672 45.1179C57.2672 45.9939 57.3552 46.9049 57.2982 47.7759C57.2842 48.0765 57.2122 48.3716 57.0862 48.6449C56.9837 48.8567 56.8378 49.0447 56.6582 49.1968C56.4786 49.3489 56.2691 49.4617 56.0432 49.5279C54.7572 49.9169 50.8092 49.6989 49.1992 49.7009C46.9612 49.7009 44.7202 49.7369 42.4822 49.7219L42.5152 51.3539H51.2532C52.8576 51.4422 54.4664 51.4061 56.0652 51.2459C56.7901 51.1144 57.4645 50.7853 58.0142 50.2949C58.4253 49.8906 58.7389 49.398 58.9314 48.8545C59.1239 48.311 59.1902 47.7308 59.1252 47.1579C59.1312 41.9899 59.8082 38.1089 55.3402 34.0579M51.2842 40.5819C51.3196 40.5986 51.3529 40.6159 51.3842 40.6339L51.4843 40.6909C51.5173 40.7109 51.5492 40.7309 51.5842 40.7519C51.6192 40.7729 51.6472 40.7949 51.6782 40.8179C51.7092 40.8409 51.7392 40.8639 51.7692 40.8879C51.7992 40.9119 51.8272 40.9369 51.8552 40.9619C51.8832 40.9869 51.9112 41.0129 51.9382 41.0399C51.9652 41.0669 51.9902 41.0939 52.0162 41.1219C52.0422 41.1499 52.0662 41.1779 52.0892 41.2069C52.1122 41.2359 52.1352 41.2649 52.1572 41.2949C52.1792 41.3249 52.2002 41.3549 52.2202 41.3859C52.2402 41.4169 52.2602 41.4479 52.2792 41.4799C52.2982 41.5119 52.3152 41.5439 52.3322 41.5799C52.3492 41.6159 52.3642 41.6459 52.3802 41.6799C52.3962 41.7139 52.4092 41.7469 52.4222 41.7799C52.4352 41.8129 52.4482 41.8479 52.4592 41.8799C52.4702 41.9119 52.4802 41.9489 52.4902 41.9799C52.5002 42.0109 52.5082 42.0499 52.5152 42.0859C52.5222 42.1219 52.5292 42.1569 52.5342 42.1929C52.5392 42.2289 52.5442 42.2649 52.5472 42.2999C52.5502 42.3349 52.5532 42.3719 52.5542 42.4079C52.5552 42.4439 52.5542 42.4799 52.5542 42.5159C52.5542 42.5519 52.5543 42.5879 52.5493 42.6239C52.5443 42.6599 52.5422 42.6959 52.5382 42.7319C52.5342 42.7679 52.5282 42.8029 52.5212 42.8389C52.5142 42.8749 52.5062 42.9099 52.4982 42.9449C52.4902 42.9799 52.4802 43.0149 52.4692 43.0449C52.4582 43.0749 52.4462 43.1139 52.4342 43.1449C52.4222 43.1759 52.4082 43.2129 52.3932 43.2449C52.3783 43.2769 52.3633 43.3119 52.3463 43.3449C52.3293 43.3779 52.3132 43.4099 52.2943 43.4449C52.2753 43.4799 52.2562 43.5089 52.2362 43.5399C52.0553 43.8067 51.8226 44.0344 51.5518 44.2093C51.281 44.3842 50.9778 44.5028 50.6602 44.5579C50.2027 44.6082 49.7398 44.5468 49.3112 44.3789C49.0392 44.2665 48.7931 44.0994 48.5883 43.888C48.3834 43.6766 48.2241 43.4254 48.1202 43.1499C48.0147 42.8856 47.9689 42.6013 47.9862 42.3172C48.0035 42.0331 48.0834 41.7564 48.2202 41.5069C48.3988 41.2181 48.6339 40.9683 48.9114 40.7726C49.189 40.5768 49.5032 40.4392 49.8352 40.3679C50.328 40.2999 50.8299 40.3713 51.2842 40.5739" fill="black"/>
<path d="M36.7091 39.9859C34.7645 38.1659 32.3774 36.8865 29.7851 36.2749C29.4111 35.6299 29.0521 34.9749 28.6361 34.3509C30.9854 32.4223 32.6555 29.7923 33.4021 26.8459C33.6373 25.4508 33.7809 24.0418 33.8321 22.6279C34.0831 18.7829 33.8691 15.5279 30.9321 12.5069C30.8608 12.4349 30.7888 12.3639 30.7161 12.2939C30.6434 12.2239 30.5694 12.1543 30.4941 12.0849C30.4188 12.0183 30.3428 11.9516 30.2661 11.8849C30.1894 11.8183 30.1118 11.7516 30.0331 11.6849C29.9544 11.6183 29.8751 11.5539 29.7951 11.4919C29.7151 11.4299 29.6341 11.3673 29.5521 11.3039C29.4701 11.2419 29.3874 11.1813 29.3041 11.1219C29.2208 11.0626 29.1364 11.0036 29.0511 10.9449C28.9661 10.8869 28.8801 10.8299 28.7931 10.7739C28.7061 10.7179 28.6191 10.6629 28.5311 10.6089C28.4431 10.5549 28.3541 10.5019 28.2651 10.4489C28.1761 10.3959 28.0851 10.3489 27.9951 10.2949C27.9051 10.2409 27.8131 10.1949 27.7201 10.1469C27.6271 10.0989 27.5351 10.0469 27.4421 10.0049C27.3491 9.96295 27.2541 9.91394 27.1601 9.86994C27.0661 9.82594 26.9701 9.78294 26.8741 9.74094C26.7781 9.69894 26.6821 9.65793 26.5851 9.61793C26.4881 9.57793 26.3901 9.53993 26.2921 9.50193C26.1941 9.46393 26.0921 9.42794 25.9921 9.39194C25.8921 9.35594 25.7921 9.32194 25.6921 9.29194C25.5921 9.26194 25.4921 9.22593 25.3921 9.19193C25.2921 9.15793 25.1921 9.13093 25.0921 9.10193C24.9921 9.07293 24.8921 9.04493 24.7861 9.01893C24.6801 8.99293 24.5811 8.96694 24.4781 8.94294C24.3751 8.91894 24.2721 8.89594 24.1681 8.87394C24.0641 8.85194 23.9611 8.83095 23.8561 8.81095C23.7511 8.79095 23.6471 8.77293 23.5431 8.75593C23.4391 8.73893 23.3341 8.72294 23.2291 8.70694C23.1241 8.69094 23.0181 8.67792 22.9131 8.66492C22.8081 8.65192 22.7021 8.64093 22.5961 8.63093C22.4901 8.62093 22.3841 8.61094 22.2781 8.60294C22.1721 8.59494 22.0661 8.58792 21.9601 8.58292C21.4841 8.55892 21.0071 8.56293 20.5311 8.56693C17.0523 8.67432 13.7434 10.0961 11.2711 12.5459C8.68309 15.1729 7.98409 18.6229 8.21509 22.0529C8.46409 25.7579 9.21509 29.4029 11.7071 32.4529C12.2391 33.1029 12.8671 33.6409 13.4531 34.2439C13.2261 34.6439 12.9771 35.0509 12.7841 35.4679C11.6991 35.9229 10.5591 36.2519 9.47509 36.7109C6.19909 38.0989 2.87509 40.3999 1.60609 43.5869C1.52076 43.8049 1.44209 44.0246 1.37009 44.2459C1.29809 44.4673 1.23376 44.6909 1.17709 44.9169C1.11976 45.1423 1.06976 45.3689 1.02709 45.5969C0.984427 45.8249 0.94876 46.0536 0.920093 46.2829C0.825514 47.4972 0.803141 48.716 0.853093 49.9329C0.805003 50.9605 0.818026 51.9899 0.892093 53.0159C0.941658 53.4773 1.0734 53.926 1.28109 54.3409C1.30776 54.3909 1.33543 54.4406 1.36409 54.4899C1.39276 54.5393 1.42309 54.5876 1.45509 54.6349C1.48709 54.6829 1.52009 54.7349 1.55509 54.7769C1.59009 54.8189 1.62509 54.8689 1.66109 54.9139C1.69709 54.9589 1.73609 55.0029 1.77509 55.0459C1.81409 55.0889 1.85409 55.1309 1.89509 55.1719C1.93609 55.2129 1.97909 55.2539 2.02309 55.2929C2.06709 55.3319 2.11109 55.3709 2.15709 55.4079C2.20309 55.4449 2.24909 55.4819 2.29709 55.5179C2.34509 55.5539 2.39709 55.5869 2.44209 55.6179C2.48709 55.6489 2.54209 55.6839 2.59309 55.7179C2.64409 55.7519 2.69309 55.7789 2.74909 55.8069C2.80509 55.8349 2.85509 55.8629 2.90909 55.8899C2.96309 55.9169 3.01809 55.9409 3.07409 55.9649C3.13009 55.9889 3.18509 56.0119 3.24209 56.0329C3.29909 56.0539 3.35609 56.0749 3.41409 56.0929C3.79802 56.208 4.19469 56.2752 4.59509 56.2929C6.51809 56.4129 8.52709 56.3099 10.4601 56.3049L21.2791 56.2959L32.7791 56.3049C34.6197 56.3894 36.464 56.3487 38.2991 56.1829C38.932 56.0368 39.514 55.7232 39.9841 55.2749C40.4379 54.8389 40.7856 54.3045 41.0006 53.713C41.2156 53.1215 41.292 52.4886 41.2241 51.8629C41.2001 46.8309 40.8761 43.7239 36.7141 39.9849M12.4061 30.4979C11.5447 29.2674 10.9387 27.8767 10.6241 26.4079C10.3761 24.8969 11.2421 20.9239 11.6931 19.3509C17.7975 21.6484 24.5146 21.7302 30.6731 19.5819C30.9224 20.4579 31.1338 21.3419 31.3071 22.2339C31.4804 23.1259 31.6138 24.0219 31.7071 24.9219C31.9631 27.3279 30.3241 30.1579 28.6801 31.9669C27.7917 32.8908 26.7618 33.6672 25.6291 34.2669C25.5624 34.3009 25.4981 34.3343 25.4361 34.3669L25.2411 34.4669L25.0411 34.5589L24.8411 34.6459C24.7741 34.6739 24.7071 34.7019 24.6411 34.7289C24.5751 34.7559 24.5051 34.7819 24.4411 34.8069L24.2351 34.8799L24.0261 34.9489C23.9594 34.9716 23.8891 34.9929 23.8151 35.0129C23.7451 35.0339 23.6741 35.0539 23.6031 35.0729L23.3891 35.1279L23.1741 35.1779L22.9581 35.2229L22.7411 35.2639L22.5221 35.2999C22.4494 35.3113 22.3764 35.3216 22.3031 35.3309C22.2301 35.3409 22.1571 35.3489 22.0831 35.3569L21.8631 35.3779C21.7891 35.3839 21.7151 35.3893 21.6411 35.3939L21.4191 35.4049L21.1971 35.4109H20.9751H20.7531L20.5311 35.4019C20.4571 35.4019 20.3831 35.3939 20.3101 35.3879L20.0891 35.3699L19.8681 35.3469C19.7948 35.3383 19.7214 35.3289 19.6481 35.3189L19.4291 35.2859L19.2111 35.2479L18.9941 35.2049L18.7791 35.1569C16.1289 34.4932 13.8413 32.8236 12.4011 30.5019M28.2241 37.3739C27.1051 39.1499 25.7601 40.8039 24.4801 42.4849C23.5035 43.9736 22.4292 45.3957 21.2641 46.7419C19.8111 45.0609 18.4781 43.3119 17.1041 41.5779C15.9286 40.1858 14.827 38.7328 13.8041 37.2249C14.1408 36.6016 14.4741 35.9766 14.8041 35.3499C15.2112 35.4999 15.6052 35.6832 15.9821 35.8979C16.8527 36.3396 17.7791 36.6612 18.7361 36.8539C18.8261 36.8709 18.9171 36.8859 19.0071 36.8999C19.0971 36.9139 19.1881 36.9279 19.2801 36.9409C19.3721 36.9539 19.4621 36.9649 19.5531 36.9749C19.6441 36.9849 19.7361 36.9949 19.8271 37.0039C19.9181 37.0129 20.0101 37.0199 20.1021 37.0259C20.1941 37.0319 20.2851 37.0379 20.3771 37.0419L20.6531 37.0519H20.9291C21.0211 37.0519 21.1131 37.0519 21.2051 37.0519C21.2971 37.0519 21.3891 37.0493 21.4811 37.0439L21.7561 37.0289C21.8481 37.0229 21.9391 37.0159 22.0311 37.0079C22.1231 36.9999 22.2141 36.9909 22.3051 36.9809C22.3961 36.9709 22.4881 36.9599 22.5791 36.9479C22.6701 36.9359 22.7611 36.9229 22.8521 36.9089C22.9431 36.8949 23.0331 36.8799 23.1231 36.8639C23.2131 36.8479 23.3041 36.8309 23.3941 36.8129C23.4841 36.7949 23.5731 36.7759 23.6621 36.7549C23.7511 36.7339 23.8401 36.7139 23.9291 36.6919L24.1941 36.6229C24.2821 36.5989 24.3698 36.5739 24.4571 36.5479C24.5444 36.5219 24.6314 36.4949 24.7181 36.4669C24.8048 36.4389 24.8908 36.41 24.9761 36.3799C25.0614 36.3499 25.1468 36.3189 25.2321 36.2869C25.3174 36.2549 25.4021 36.2216 25.4861 36.1869C25.5701 36.1523 25.6538 36.1189 25.7371 36.087C25.8204 36.0516 25.9031 36.0149 25.9851 35.9769C26.0671 35.9399 26.1491 35.9009 26.2301 35.8619L26.4721 35.7409C26.5521 35.6996 26.6314 35.6576 26.7101 35.6149C26.7888 35.5723 26.8671 35.5286 26.9451 35.4839C27.0231 35.4393 27.1001 35.3939 27.1761 35.3479C27.3821 35.6726 27.5728 36.0059 27.7481 36.3479C27.9234 36.6899 28.0831 37.0349 28.2271 37.3829M10.2011 45.6629C10.6221 45.6349 11.0448 45.6446 11.4641 45.6919C11.8501 46.0919 11.4591 46.8509 11.7041 47.3459C12.0041 47.5999 13.1981 47.4759 13.6181 47.4709V48.8879L11.6291 48.9269C11.6251 49.4816 11.6161 50.0366 11.6021 50.5919C11.1571 50.6219 10.7021 50.6089 10.2521 50.6129C10.2011 50.0611 10.1784 49.5071 10.1841 48.9529C9.55884 48.9014 8.93122 48.8843 8.30409 48.9019C8.29409 48.4219 8.30409 47.9439 8.31509 47.4639C8.86641 47.5321 9.42587 47.4851 9.95809 47.3259C10.2811 46.9679 10.1581 46.1259 10.1971 45.6629M39.4091 52.8979C39.3293 53.2828 39.1488 53.6396 38.8861 53.9319C38.6876 54.1433 38.4488 54.3128 38.1838 54.4304C37.9188 54.548 37.633 54.6115 37.3431 54.6169C34.7491 54.7119 32.1061 54.6169 29.5081 54.6169H14.1001L7.48509 54.6219C6.38765 54.6895 5.28646 54.6651 4.19309 54.5489C3.93064 54.4825 3.68401 54.3646 3.46754 54.202C3.25106 54.0394 3.06905 53.8355 2.93209 53.6019C2.80122 53.3812 2.72223 53.1337 2.70109 52.8779C2.63685 51.9205 2.62983 50.9602 2.68009 50.0019C2.68509 48.7809 2.62609 47.5249 2.73609 46.3089C2.75846 46.0679 2.79351 45.8283 2.84109 45.5909C2.88942 45.3547 2.94984 45.121 3.02209 44.8909C4.01009 41.6769 6.48509 40.1119 9.52209 38.5699C9.01522 40.459 8.95327 42.4399 9.34109 44.3569C9.0312 44.4878 8.73051 44.6395 8.44109 44.8109L8.35109 44.8679L8.26309 44.9269L8.17609 44.9879L8.09109 45.0509L8.00809 45.1159L7.92609 45.1829L7.84709 45.2519L7.76909 45.3219L7.69309 45.3939L7.61909 45.4679L7.54709 45.5439L7.47709 45.6209L7.41009 45.6999C7.38709 45.7259 7.36509 45.7529 7.34409 45.7799L7.28109 45.8619C7.26009 45.8889 7.24009 45.9169 7.22009 45.9449L7.16109 46.0289L7.10409 46.1149C7.08509 46.1439 7.06809 46.1729 7.05009 46.2019L6.99809 46.2899L6.94909 46.3789C6.93309 46.4089 6.91709 46.4389 6.90209 46.4699C6.88709 46.5009 6.87209 46.5309 6.85809 46.5609C6.84409 46.5909 6.82909 46.6219 6.81609 46.6529C6.80309 46.6839 6.78909 46.7149 6.77609 46.7459C6.76309 46.7769 6.75109 46.8089 6.74009 46.8399C6.72909 46.8709 6.71709 46.9029 6.70609 46.9349C6.69509 46.9669 6.68409 46.9989 6.67409 47.0349L6.64509 47.1349C6.63576 47.1676 6.62709 47.2009 6.61909 47.2349C6.61109 47.2669 6.60309 47.2999 6.59609 47.3349C6.58909 47.3699 6.58109 47.3999 6.57509 47.4349C6.46105 47.9663 6.46462 48.5161 6.58554 49.0459C6.70646 49.5757 6.94181 50.0727 7.27509 50.5019C7.98927 51.4437 9.04116 52.0715 10.2091 52.2529C11.4296 52.3921 12.6589 52.0818 13.6671 51.3799C14.1176 51.0735 14.5008 50.6783 14.7932 50.2184C15.0855 49.7586 15.2808 49.2439 15.3671 48.7059C15.4461 48.1503 15.4018 47.5841 15.2375 47.0475C15.0731 46.5109 14.7927 46.017 14.4161 45.6009C13.5606 44.7137 12.4041 44.1786 11.1741 44.1009C11.0099 43.3909 10.8963 42.6701 10.8341 41.9439C10.7208 41.2495 10.7666 40.5384 10.968 39.8642C11.1695 39.19 11.5213 38.5704 11.9971 38.0519C12.7151 38.4759 20.0611 48.3209 21.1971 49.7769C22.5531 48.2369 23.6431 46.4769 24.8701 44.8539L27.6141 41.1919C28.3481 40.2269 29.1331 39.2789 29.7701 38.2569C30.0273 38.4339 30.2653 38.6373 30.4801 38.8639C30.9229 39.3616 31.2325 39.9633 31.3801 40.6129C31.6051 42.7233 31.6355 44.85 31.4711 46.9659C30.9361 47.4319 30.3041 47.7909 29.7621 48.2459C29.6303 48.3328 29.52 48.4483 29.4393 48.584C29.3586 48.7196 29.3096 48.8717 29.2961 49.0289C29.3253 49.2456 29.4375 49.4425 29.6091 49.5779C29.783 49.7487 30.0173 49.844 30.2611 49.8429C30.9711 49.8229 31.7141 48.9789 32.1911 48.5519C32.7551 48.9259 33.5381 49.8409 34.2521 49.8519C34.3954 49.8535 34.5376 49.8267 34.6704 49.773C34.8033 49.7192 34.9242 49.6397 35.0261 49.5389L35.0561 49.5079L35.0841 49.4759L35.1101 49.4419L35.1341 49.4069L35.1561 49.3709L35.1761 49.3339C35.1821 49.3209 35.1881 49.3089 35.1931 49.2959C35.1981 49.2829 35.2041 49.2699 35.2091 49.2569C35.2141 49.2439 35.2181 49.2309 35.2221 49.2179C35.2261 49.2049 35.2301 49.1909 35.2331 49.1779C35.2361 49.1649 35.2391 49.1509 35.2421 49.1369C35.2451 49.1229 35.2421 49.1099 35.2481 49.0959C35.2541 49.0819 35.2481 49.0689 35.2481 49.0549C35.2481 49.0409 35.2481 49.0279 35.2481 49.0139C35.2481 48.9999 35.2481 48.9869 35.2481 48.9729C35.2481 48.9589 35.2481 48.9459 35.2481 48.9319C35.1711 48.2769 33.8961 47.5489 33.3481 47.1429C33.3991 46.2919 33.3331 45.4219 33.3301 44.5689C33.3221 42.7929 33.5161 40.9939 32.8721 39.2859C33.3036 39.5244 33.7228 39.7844 34.1281 40.0649C34.2168 40.1263 34.3044 40.1886 34.3911 40.2519C34.4778 40.3153 34.5638 40.3796 34.6491 40.4449C34.7344 40.5116 34.8188 40.5783 34.9021 40.6449C34.9854 40.7116 35.0678 40.7783 35.1491 40.8449C35.2304 40.9116 35.3108 40.9816 35.3901 41.0549C35.4694 41.1283 35.5481 41.1999 35.6261 41.2699C35.7034 41.3426 35.7798 41.4163 35.8551 41.4909C35.9304 41.5656 36.0051 41.6406 36.0791 41.7159C36.1531 41.7919 36.2258 41.8689 36.2971 41.9469C36.3684 42.0249 36.4388 42.1033 36.5081 42.1819C36.5748 42.2613 36.6431 42.3413 36.7131 42.4219C36.7831 42.5026 36.8498 42.5843 36.9131 42.6669C36.9798 42.7489 37.0434 42.8319 37.1041 42.9159C37.1648 42.9999 37.2264 43.0843 37.2891 43.1689C37.3498 43.2543 37.4091 43.3399 37.4671 43.4259C37.5251 43.5119 37.5821 43.5989 37.6381 43.6869C37.6934 43.7743 37.7478 43.8626 37.8011 43.9519C37.8541 44.0409 37.9061 44.1299 37.9571 44.2199C38.0081 44.3099 38.0571 44.4009 38.1061 44.4919C38.1551 44.5829 38.2061 44.6749 38.2481 44.7669C38.2901 44.8589 38.3381 44.9519 38.3821 45.0449C38.4261 45.1379 38.4671 45.2319 38.5081 45.3259C38.5491 45.4199 38.5881 45.5149 38.6261 45.6099C38.6641 45.7049 38.7011 45.8009 38.7371 45.8969C38.7731 45.9929 38.8071 46.0889 38.8371 46.1859C38.8671 46.2829 38.9011 46.3799 38.9311 46.4769C38.9611 46.5739 38.9911 46.6769 39.0191 46.7699C39.0471 46.8629 39.0731 46.9699 39.0981 47.0699C39.1231 47.1699 39.1471 47.2699 39.1691 47.3699C39.1911 47.4699 39.2131 47.5699 39.2321 47.6699C39.2511 47.7699 39.2701 47.8699 39.2871 47.9699C39.3041 48.0699 39.3191 48.1699 39.3331 48.2699C39.5441 49.8156 39.571 51.3809 39.4131 52.9329" fill="black"/>
</g>
</svg>
