<svg width="62" height="85" viewBox="0 0 62 85" fill="none" xmlns="http://www.w3.org/2000/svg">
<mask id="mask0_1_3301" style="mask-type:luminance" maskUnits="userSpaceOnUse" x="13" y="33" width="36" height="15">
<path d="M24.5535 34.389L20.7535 40.972H14.5385C14.175 40.972 13.8264 41.1164 13.5694 41.3734C13.3124 41.6304 13.168 41.979 13.168 42.3425C13.168 42.7059 13.3124 43.0545 13.5694 43.3116C13.8264 43.5686 14.175 43.713 14.5385 43.713H21.5385C21.779 43.7131 22.0154 43.6498 22.2238 43.5296C22.4321 43.4093 22.6052 43.2363 22.7255 43.028L25.2685 38.628L27.3375 46.352C27.4083 46.6131 27.5548 46.8474 27.7585 47.0254C27.9623 47.2033 28.2142 47.317 28.4825 47.352C28.5422 47.3597 28.6023 47.3637 28.6625 47.364C28.9029 47.364 29.1391 47.3007 29.3473 47.1805C29.5555 47.0602 29.7283 46.8873 29.8485 46.679L33.0965 41.056L34.1245 42.842C34.2449 43.0504 34.4181 43.2234 34.6267 43.3437C34.8352 43.4639 35.0717 43.5271 35.3125 43.527H47.4385C47.8019 43.527 48.1505 43.3826 48.4075 43.1256C48.6646 42.8686 48.809 42.52 48.809 42.1565C48.809 41.793 48.6646 41.4444 48.4075 41.1874C48.1505 40.9304 47.8019 40.786 47.4385 40.786H36.1085L34.2895 37.629C34.1692 37.4205 33.9961 37.2473 33.7876 37.1269C33.5792 37.0065 33.3427 36.9432 33.102 36.9432C32.8612 36.9432 32.6248 37.0065 32.4163 37.1269C32.2078 37.2473 32.0348 37.4205 31.9145 37.629L29.1325 42.445L27.0625 34.721C26.9923 34.4592 26.8461 34.2241 26.6424 34.0455C26.4386 33.8668 26.1864 33.7526 25.9177 33.7173C25.6491 33.6819 25.3759 33.7271 25.1329 33.847C24.8899 33.9669 24.6879 34.1563 24.5525 34.391" fill="white"/>
</mask>
<g mask="url(#mask0_1_3301)">
<path d="M48.8084 33.704H13.1704V47.364H48.8084V33.704Z" fill="url(#paint0_radial_1_3301)"/>
</g>
<mask id="mask1_1_3301" style="mask-type:luminance" maskUnits="userSpaceOnUse" x="32" y="53" width="14" height="4">
<path d="M33.8754 53.419C33.5119 53.419 33.1633 53.5634 32.9063 53.8204C32.6493 54.0775 32.5049 54.426 32.5049 54.7895C32.5049 55.153 32.6493 55.5016 32.9063 55.7586C33.1633 56.0156 33.5119 56.16 33.8754 56.16H44.5154C44.8789 56.16 45.2274 56.0156 45.4845 55.7586C45.7415 55.5016 45.8859 55.153 45.8859 54.7895C45.8859 54.426 45.7415 54.0775 45.4845 53.8204C45.2274 53.5634 44.8789 53.419 44.5154 53.419H33.8754Z" fill="white"/>
</mask>
<g mask="url(#mask1_1_3301)">
<path d="M45.8834 53.419H32.5034V56.16H45.8834V53.419Z" fill="url(#paint1_radial_1_3301)"/>
</g>
<mask id="mask2_1_3301" style="mask-type:luminance" maskUnits="userSpaceOnUse" x="16" y="53" width="14" height="4">
<path d="M17.4862 53.419C17.1228 53.419 16.7742 53.5634 16.5171 53.8204C16.2601 54.0775 16.1157 54.426 16.1157 54.7895C16.1157 55.153 16.2601 55.5016 16.5171 55.7586C16.7742 56.0156 17.1228 56.16 17.4862 56.16H28.1272C28.4907 56.16 28.8393 56.0156 29.0963 55.7586C29.3533 55.5016 29.4977 55.153 29.4977 54.7895C29.4977 54.426 29.3533 54.0775 29.0963 53.8204C28.8393 53.5634 28.4907 53.419 28.1272 53.419H17.4862Z" fill="white"/>
</mask>
<g mask="url(#mask2_1_3301)">
<path d="M29.4972 53.419H16.1172V56.16H29.4972V53.419Z" fill="url(#paint2_radial_1_3301)"/>
</g>
<mask id="mask3_1_3301" style="mask-type:luminance" maskUnits="userSpaceOnUse" x="16" y="62" width="17" height="4">
<path d="M17.4862 62.997C17.1229 62.997 16.7744 63.1414 16.5175 63.3983C16.2605 63.6552 16.1162 64.0037 16.1162 64.367C16.1162 64.7304 16.2605 65.0788 16.5175 65.3358C16.7744 65.5927 17.1229 65.737 17.4862 65.737H31.3062C31.6696 65.737 32.018 65.5927 32.2749 65.3358C32.5319 65.0788 32.6762 64.7304 32.6762 64.367C32.6762 64.0037 32.5319 63.6552 32.2749 63.3983C32.018 63.1414 31.6696 62.997 31.3062 62.997H17.4862Z" fill="white"/>
</mask>
<g mask="url(#mask3_1_3301)">
<path d="M32.6762 62.997H16.1172V65.737H32.6762V62.997Z" fill="url(#paint3_radial_1_3301)"/>
</g>
<mask id="mask4_1_3301" style="mask-type:luminance" maskUnits="userSpaceOnUse" x="35" y="62" width="11" height="4">
<path d="M36.7323 62.997C36.369 62.997 36.0205 63.1414 35.7635 63.3983C35.5066 63.6552 35.3623 64.0037 35.3623 64.367C35.3623 64.7304 35.5066 65.0788 35.7635 65.3358C36.0205 65.5927 36.369 65.737 36.7323 65.737H44.5133C44.8767 65.737 45.2251 65.5927 45.482 65.3358C45.7389 65.0788 45.8833 64.7304 45.8833 64.367C45.8833 64.0037 45.7389 63.6552 45.482 63.3983C45.2251 63.1414 44.8767 62.997 44.5133 62.997H36.7323Z" fill="white"/>
</mask>
<g mask="url(#mask4_1_3301)">
<path d="M45.8833 62.997H35.3623V65.737H45.8833V62.997Z" fill="url(#paint4_radial_1_3301)"/>
</g>
<mask id="mask5_1_3301" style="mask-type:luminance" maskUnits="userSpaceOnUse" x="0" y="8" width="16" height="18">
<path d="M2.35926 8.84497C2.17922 8.8451 2.00096 8.88069 1.83468 8.94971C1.66839 9.01873 1.51732 9.11983 1.39011 9.24723C1.26289 9.37463 1.16201 9.52584 1.09324 9.69223C1.02446 9.85862 0.989127 10.0369 0.989258 10.217V24.076C0.989258 24.4393 1.1336 24.7878 1.39052 25.0447C1.64745 25.3016 1.99591 25.446 2.35926 25.446C2.7226 25.446 3.07107 25.3016 3.32799 25.0447C3.58492 24.7878 3.72926 24.4393 3.72926 24.076V11.587H14.5483C14.9119 11.587 15.2606 11.4425 15.5177 11.1854C15.7748 10.9283 15.9193 10.5796 15.9193 10.216C15.9193 9.85235 15.7748 9.50363 15.5177 9.24652C15.2606 8.98941 14.9119 8.84497 14.5483 8.84497H2.35926Z" fill="white"/>
</mask>
<g mask="url(#mask5_1_3301)">
<path d="M15.9183 8.84497H0.989258V25.445H15.9183V8.84497Z" fill="url(#paint5_radial_1_3301)"/>
</g>
<mask id="mask6_1_3301" style="mask-type:luminance" maskUnits="userSpaceOnUse" x="0" y="8" width="62" height="77">
<path d="M47.4523 8.84497C47.0886 8.84497 46.7399 8.98941 46.4828 9.24652C46.2257 9.50363 46.0813 9.85235 46.0813 10.216C46.0813 10.5796 46.2257 10.9283 46.4828 11.1854C46.7399 11.4425 47.0886 11.587 47.4523 11.587H58.2713V81.968H3.72926V24.076C3.72926 23.7126 3.58492 23.3642 3.32799 23.1072C3.07107 22.8503 2.7226 22.706 2.35926 22.706C1.99591 22.706 1.64745 22.8503 1.39052 23.1072C1.1336 23.3642 0.989258 23.7126 0.989258 24.076V83.335C0.989127 83.515 1.02446 83.6933 1.09324 83.8597C1.16201 84.0261 1.26289 84.1773 1.39011 84.3047C1.51732 84.4321 1.66839 84.5332 1.83468 84.6022C2.00096 84.6712 2.17922 84.7068 2.35926 84.707H59.6413C60.005 84.7067 60.3537 84.562 60.6108 84.3048C60.8678 84.0475 61.0123 83.6987 61.0123 83.335V10.217C61.0123 9.85326 60.8678 9.50444 60.6108 9.24717C60.3537 8.9899 60.005 8.84524 59.6413 8.84497H47.4523Z" fill="white"/>
</mask>
<g mask="url(#mask6_1_3301)">
<path d="M61.0123 8.84497H0.989258V84.71H61.0123V8.84497Z" fill="url(#paint6_radial_1_3301)"/>
</g>
<mask id="mask7_1_3301" style="mask-type:luminance" maskUnits="userSpaceOnUse" x="7" y="14" width="48" height="65">
<path d="M47.4535 14.943C47.0899 14.943 46.7411 15.0874 46.484 15.3445C46.2269 15.6017 46.0825 15.9504 46.0825 16.314C46.0825 16.6776 46.2269 17.0263 46.484 17.2834C46.7411 17.5405 47.0899 17.685 47.4535 17.685H52.1745V75.878H9.82047V17.685H14.5475C14.9111 17.685 15.2598 17.5405 15.5169 17.2834C15.774 17.0263 15.9185 16.6776 15.9185 16.314C15.9185 15.9504 15.774 15.6017 15.5169 15.3445C15.2598 15.0874 14.9111 14.943 14.5475 14.943H8.45347C8.0902 14.9435 7.742 15.0882 7.48532 15.3453C7.22864 15.6023 7.08447 15.9507 7.08447 16.314V77.248C7.08447 77.6112 7.22867 77.9595 7.48538 78.2164C7.74209 78.4733 8.0903 78.6177 8.45347 78.618H53.5465C53.7265 78.6181 53.9047 78.5828 54.0711 78.514C54.2374 78.4452 54.3885 78.3443 54.5159 78.2171C54.6432 78.0899 54.7442 77.9388 54.8131 77.7725C54.882 77.6062 54.9175 77.428 54.9175 77.248V16.314C54.9175 15.9504 54.773 15.6017 54.5159 15.3445C54.2588 15.0874 53.9101 14.943 53.5465 14.943H47.4535Z" fill="white"/>
</mask>
<g mask="url(#mask7_1_3301)">
<path d="M54.9136 14.943H7.08057V78.617H54.9136V14.943Z" fill="url(#paint7_radial_1_3301)"/>
</g>
<mask id="mask8_1_3301" style="mask-type:luminance" maskUnits="userSpaceOnUse" x="13" y="0" width="36" height="24">
<path d="M15.9191 10.9149H22.6811C23.0324 10.9149 23.3703 10.78 23.625 10.5381C23.8798 10.2962 24.0319 9.96577 24.0501 9.61494C24.1408 7.83286 24.9127 6.15372 26.2061 4.92446C27.4995 3.6952 29.2157 3.00975 31.0001 3.00975C32.7845 3.00975 34.5007 3.6952 35.7942 4.92446C37.0876 6.15372 37.8594 7.83286 37.9501 9.61494C37.9683 9.96577 38.1205 10.2962 38.3752 10.5381C38.63 10.78 38.9678 10.9149 39.3191 10.9149H46.0811V20.9749H15.9191V10.9149ZM31.0001 0.257944C28.7354 0.255017 26.5411 1.04571 24.7988 2.49262C23.0565 3.93952 21.8762 5.95117 21.4631 8.17794H14.5521C14.3722 8.17781 14.194 8.21316 14.0277 8.28196C13.8614 8.35076 13.7103 8.45167 13.5831 8.57891C13.4559 8.70616 13.355 8.85724 13.2861 9.02351C13.2173 9.18979 13.182 9.368 13.1821 9.54794V22.3479C13.182 22.5279 13.2173 22.7061 13.2861 22.8724C13.355 23.0387 13.4559 23.1897 13.5831 23.317C13.7103 23.4442 13.8614 23.5451 14.0277 23.6139C14.194 23.6827 14.3722 23.7181 14.5521 23.7179H47.4521C47.6321 23.7181 47.8103 23.6827 47.9766 23.6139C48.1428 23.5451 48.2939 23.4442 48.4212 23.317C48.5484 23.1897 48.6493 23.0387 48.7181 22.8724C48.7869 22.7061 48.8223 22.5279 48.8221 22.3479V9.54394C48.8223 9.364 48.7869 9.18579 48.7181 9.01951C48.6493 8.85324 48.5484 8.70216 48.4212 8.57491C48.2939 8.44767 48.1428 8.34676 47.9766 8.27796C47.8103 8.20916 47.6321 8.17381 47.4521 8.17394H40.5381C40.124 5.94782 38.9431 3.93709 37.2007 2.49099C35.4583 1.0449 33.2645 0.254804 31.0001 0.257944Z" fill="white"/>
</mask>
<g mask="url(#mask8_1_3301)">
<path d="M48.8222 0.253967H13.1782V23.715H48.8222V0.253967Z" fill="url(#paint8_radial_1_3301)"/>
</g>
<mask id="mask9_1_3301" style="mask-type:luminance" maskUnits="userSpaceOnUse" x="25" y="8" width="12" height="12">
<path d="M28.1013 14.219C28.0998 13.6451 28.2685 13.0836 28.5862 12.6057C28.9039 12.1277 29.3563 11.7548 29.886 11.5341C30.4158 11.3133 30.9991 11.2548 31.5622 11.3658C32.1253 11.4768 32.6427 11.7523 33.0491 12.1576C33.4555 12.5628 33.7325 13.0795 33.845 13.6423C33.9576 14.2051 33.9006 14.7886 33.6814 15.3189C33.4621 15.8493 33.0904 16.3027 32.6133 16.6217C32.1363 16.9407 31.5752 17.111 31.0013 17.111C30.2336 17.111 29.4972 16.8066 28.9536 16.2645C28.4099 15.7223 28.1035 14.9868 28.1013 14.219ZM25.3604 14.219C25.3609 15.3334 25.6919 16.4226 26.3114 17.349C26.9308 18.2753 27.811 18.9972 28.8407 19.4235C29.8704 19.8497 31.0033 19.9611 32.0963 19.7436C33.1892 19.5262 34.1932 18.9895 34.9812 18.2016C35.7693 17.4137 36.3061 16.4098 36.5238 15.3169C36.7414 14.224 36.6302 13.091 36.2042 12.0613C35.7781 11.0315 35.0564 10.1512 34.1301 9.53159C33.2039 8.91195 32.1147 8.58081 31.0003 8.58002C29.5049 8.58081 28.071 9.17514 27.0135 10.2325C25.956 11.2898 25.3614 12.7236 25.3604 14.219Z" fill="white"/>
</mask>
<g mask="url(#mask9_1_3301)">
<path d="M36.6334 8.58002H25.3604V19.853H36.6334V8.58002Z" fill="url(#paint9_radial_1_3301)"/>
</g>
<defs>
<radialGradient id="paint0_radial_1_3301" cx="0" cy="0" r="1" gradientUnits="userSpaceOnUse" gradientTransform="translate(19.7841 34.342) scale(13.4856 13.4961)">
<stop stop-color="#130C0E"/>
<stop offset="0.574" stop-color="#130C0E"/>
<stop offset="0.798" stop-color="#130C0E"/>
<stop offset="1" stop-color="#130C0E"/>
</radialGradient>
<radialGradient id="paint1_radial_1_3301" cx="0" cy="0" r="1" gradientUnits="userSpaceOnUse" gradientTransform="translate(32.0019 74.8805) scale(4.83299 4.82964)">
<stop stop-color="#130C0E"/>
<stop offset="0.574" stop-color="#130C0E"/>
<stop offset="0.798" stop-color="#130C0E"/>
<stop offset="1" stop-color="#130C0E"/>
</radialGradient>
<radialGradient id="paint2_radial_1_3301" cx="0" cy="0" r="1" gradientUnits="userSpaceOnUse" gradientTransform="translate(16.5896 74.8805) scale(4.83299 4.82964)">
<stop stop-color="#130C0E"/>
<stop offset="0.574" stop-color="#130C0E"/>
<stop offset="0.798" stop-color="#130C0E"/>
<stop offset="1" stop-color="#130C0E"/>
</radialGradient>
<radialGradient id="paint3_radial_1_3301" cx="0" cy="0" r="1" gradientUnits="userSpaceOnUse" gradientTransform="translate(16.7213 77.476) scale(5.91802 5.93484)">
<stop stop-color="#130C0E"/>
<stop offset="0.574" stop-color="#130C0E"/>
<stop offset="0.798" stop-color="#130C0E"/>
<stop offset="1" stop-color="#130C0E"/>
</radialGradient>
<radialGradient id="paint4_radial_1_3301" cx="0" cy="0" r="1" gradientUnits="userSpaceOnUse" gradientTransform="translate(34.314 77.476) scale(3.83785 3.84422)">
<stop stop-color="#130C0E"/>
<stop offset="0.574" stop-color="#130C0E"/>
<stop offset="0.798" stop-color="#130C0E"/>
<stop offset="1" stop-color="#130C0E"/>
</radialGradient>
<radialGradient id="paint5_radial_1_3301" cx="0" cy="0" r="1" gradientUnits="userSpaceOnUse" gradientTransform="translate(9.28978 9.68497) scale(7.9021 7.9016)">
<stop stop-color="#130C0E"/>
<stop offset="0.574" stop-color="#130C0E"/>
<stop offset="0.798" stop-color="#130C0E"/>
<stop offset="1" stop-color="#130C0E"/>
</radialGradient>
<radialGradient id="paint6_radial_1_3301" cx="0" cy="0" r="1" gradientUnits="userSpaceOnUse" gradientTransform="translate(38.9238 -27.0875) scale(34.217 34.2151)">
<stop stop-color="#130C0E"/>
<stop offset="0.574" stop-color="#130C0E"/>
<stop offset="0.798" stop-color="#130C0E"/>
<stop offset="1" stop-color="#130C0E"/>
</radialGradient>
<radialGradient id="paint7_radial_1_3301" cx="0" cy="0" r="1" gradientUnits="userSpaceOnUse" gradientTransform="translate(38.9554 -14.703) scale(28.1402 28.1439)">
<stop stop-color="#130C0E"/>
<stop offset="0.574" stop-color="#130C0E"/>
<stop offset="0.798" stop-color="#130C0E"/>
<stop offset="1" stop-color="#130C0E"/>
</radialGradient>
<radialGradient id="paint8_radial_1_3301" cx="0" cy="0" r="1" gradientUnits="userSpaceOnUse" gradientTransform="translate(24.7881 -4.27653) scale(15.0808 15.0854)">
<stop stop-color="#130C0E"/>
<stop offset="0.574" stop-color="#130C0E"/>
<stop offset="0.798" stop-color="#130C0E"/>
<stop offset="1" stop-color="#130C0E"/>
</radialGradient>
<radialGradient id="paint9_radial_1_3301" cx="0" cy="0" r="1" gradientUnits="userSpaceOnUse" gradientTransform="translate(30.9969 16.4505) scale(5.6365)">
<stop stop-color="#130C0E"/>
<stop offset="0.574" stop-color="#130C0E"/>
<stop offset="0.798" stop-color="#130C0E"/>
<stop offset="1" stop-color="#130C0E"/>
</radialGradient>
</defs>
</svg>
