<svg width="45" height="45" viewBox="0 0 45 45" fill="none" xmlns="http://www.w3.org/2000/svg">
<g clip-path="url(#clip0_8_99)">
<path d="M0 45L3.10342 33.75C1.08624 30.2586 0 26.3793 0 22.3448C0 10.0862 10.0862 0 22.4224 0C34.7585 0 45 10.0862 45 22.3448C45 34.6033 34.7586 45 22.4224 45C18.5431 45 14.819 43.7586 11.4827 41.8966L0 45Z" fill="white"/>
<path d="M12.1034 37.8621L12.8017 38.25C15.6724 40.0345 19.0086 41.1207 22.5 41.1207C32.6637 41.1207 41.1207 32.6638 41.1207 22.3448C41.1207 12.0258 32.6637 3.87933 22.4224 3.87933C12.181 3.87933 3.8793 12.1034 3.8793 22.3448C3.8793 25.9138 4.88794 29.4051 6.74999 32.3534L7.21554 33.0517L5.4311 39.569L12.1034 37.8621Z" fill="#55CD6C"/>
<path d="M16.4483 11.9483L14.9742 11.8707C14.5087 11.8707 14.0432 12.0259 13.7328 12.3362C13.0345 12.9569 11.8708 14.1207 11.5604 15.6725C11.0174 18.0001 11.8708 20.7931 13.8881 23.5862C15.9053 26.3793 19.7846 30.8793 26.6122 32.819C28.7845 33.4396 30.4915 33.0517 31.8881 32.1983C32.9743 31.5 33.6725 30.4138 33.9053 29.25L34.1381 28.1637C34.2157 27.8534 34.0604 27.4654 33.7501 27.3103L28.8622 25.0603C28.5518 24.9051 28.1639 24.9827 27.9311 25.2931L25.9915 27.7758C25.8363 27.931 25.6035 28.0085 25.3708 27.931C24.0518 27.4655 19.6294 25.6034 17.2242 20.9483C17.1466 20.7155 17.1466 20.4827 17.3018 20.3276L19.1639 18.2328C19.3191 18.0001 19.3966 17.6897 19.3191 17.4569L17.0691 12.4138C16.9914 12.181 16.7587 11.9483 16.4483 11.9483Z" fill="#FEFEFE"/>
</g>
<defs>
<clipPath id="clip0_8_99">
<rect width="45" height="45" fill="white"/>
</clipPath>
</defs>
</svg>
