<svg width="68" height="64" viewBox="0 0 68 64" fill="none" xmlns="http://www.w3.org/2000/svg">
<mask id="mask0_1_3445" style="mask-type:luminance" maskUnits="userSpaceOnUse" x="0" y="0" width="68" height="64">
<path d="M67.3883 0.980957H0.611328V63.762H67.3883V0.980957Z" fill="white"/>
</mask>
<g mask="url(#mask0_1_3445)">
<path d="M65.8564 33.377C66.9147 31.3491 67.4403 29.0856 67.384 26.7989C67.3277 24.5122 66.6912 22.2773 65.5344 20.304C64.4129 18.3542 62.8132 16.7223 60.8862 15.5621C58.9592 14.4019 56.7684 13.7518 54.5205 13.673C54.3965 13.6683 54.2718 13.6653 54.1465 13.664C50.4135 13.6216 46.8081 15.0214 44.0818 17.5715C41.3554 20.1217 39.7183 23.6256 39.5115 27.353C39.4965 27.593 39.4905 29.514 39.4895 30.142L36.8794 36.979C36.8054 37.1731 36.7797 37.3823 36.8047 37.5886C36.8296 37.7948 36.9043 37.9919 37.0224 38.1628C37.1406 38.3337 37.2985 38.4733 37.4826 38.5695C37.6668 38.6657 37.8716 38.7156 38.0793 38.715H41.4914V41.627H41.2986C40.6326 41.6436 39.9998 41.9209 39.5361 42.3992C39.0725 42.8775 38.815 43.5186 38.8191 44.1847C38.8231 44.8508 39.0884 45.4887 39.5578 45.9613C40.0273 46.4339 40.6632 46.7035 41.3293 46.712H41.3584L46.9045 46.627C47.016 46.6251 47.1251 46.5952 47.2219 46.54C47.3187 46.4848 47.4001 46.406 47.4585 46.311L49.3645 46.303H49.3694C49.6638 46.3026 49.9498 46.4009 50.1819 46.5822C50.4139 46.7634 50.5785 47.0172 50.6494 47.303L51.8064 51.903C51.843 52.0461 51.9264 52.173 52.0432 52.2636C52.16 52.3541 52.3036 52.4031 52.4514 52.403H65.3244C65.4264 52.403 65.5269 52.3797 65.6184 52.3347C65.7098 52.2897 65.7899 52.2242 65.852 52.1434C65.9142 52.0626 65.9568 51.9686 65.9768 51.8687C65.9968 51.7687 65.9937 51.6655 65.9675 51.567C65.9465 51.486 63.8154 43.411 64.2864 38.353C64.6477 36.6457 65.1723 34.9771 65.8525 33.37L65.8564 33.377ZM55.2033 36.807H55.1704C54.2505 36.8039 53.3686 36.4401 52.7141 35.7937C52.0596 35.1472 51.6848 34.2698 51.6704 33.35L51.6635 32.829C51.6567 32.3674 51.741 31.9089 51.9121 31.4801C52.0831 31.0512 52.3374 30.6605 52.6601 30.3303C52.9829 30.0002 53.3676 29.7371 53.7925 29.5564C54.2173 29.3756 54.6738 29.2806 55.1355 29.277H55.1684C56.0883 29.28 56.9702 29.6439 57.6247 30.2903C58.2792 30.9367 58.654 31.8142 58.6684 32.734L58.6755 33.255C58.6824 33.7166 58.5978 34.1751 58.4267 34.6039C58.2557 35.0327 58.0014 35.4235 57.6787 35.7536C57.356 36.0838 56.9712 36.3468 56.5464 36.5276C56.1215 36.7084 55.665 36.8033 55.2033 36.807ZM41.3344 45.386H41.3244C41.0858 45.3862 40.8524 45.316 40.6535 45.1841C40.4547 45.0522 40.2992 44.8647 40.2065 44.6448C40.1138 44.4249 40.0881 44.1826 40.1325 43.9481C40.177 43.7137 40.2898 43.4977 40.4565 43.327C40.5666 43.2131 40.6979 43.1222 40.8432 43.0593C40.9886 42.9965 41.1451 42.9631 41.3034 42.961H46.1823L46.2165 45.311L41.3344 45.386ZM42.8154 41.631V38.053C42.8154 37.8766 42.7453 37.7075 42.6206 37.5828C42.4959 37.4581 42.3267 37.388 42.1504 37.388H38.1504L40.7773 30.506C40.8062 30.4307 40.8213 30.3507 40.8215 30.27C40.8215 29.27 40.8315 27.61 40.8425 27.432C41.019 24.0682 42.4816 20.901 44.928 18.5855C47.3743 16.2701 50.617 14.9835 53.9853 14.992H54.1355C54.2455 14.992 54.3544 14.992 54.4634 15V28C53.3041 28.1702 52.2462 28.7558 51.4863 29.6478C50.7264 30.5397 50.3164 31.6773 50.3325 32.849L50.3393 33.37C50.3572 34.4996 50.7691 35.5874 51.5039 36.4456C52.2386 37.3037 53.2502 37.8783 54.3635 38.07L54.3755 39.38C54.3853 40.4341 53.9761 41.4491 53.2378 42.2016C52.4995 42.9542 51.4926 43.3827 50.4385 43.393L47.5195 43.411L47.5024 42.289C47.5001 42.1142 47.4289 41.9473 47.3044 41.8245C47.18 41.7018 47.0122 41.633 46.8374 41.633H42.8183L42.8154 41.631ZM63.6404 47.103C63.9404 48.803 64.2703 50.229 64.4753 51.079H52.9643L51.9333 46.979C51.7894 46.4067 51.4583 45.899 50.9927 45.5366C50.527 45.1742 49.9536 44.9779 49.3635 44.979H49.3525L47.5385 44.987V44.741L50.4494 44.723C51.8568 44.7098 53.2014 44.1381 54.1872 43.1337C55.1731 42.1293 55.7196 40.7743 55.7065 39.367L55.6946 38.112C56.8911 37.9822 57.9962 37.4109 58.7939 36.5098C59.5917 35.6086 60.0247 34.4424 60.0085 33.239L60.0014 32.718C59.9843 31.5559 59.5499 30.4388 58.7773 29.5706C58.0048 28.7024 56.9456 28.141 55.7934 27.989V15.124C57.5744 15.3869 59.2727 16.0498 60.761 17.0628C62.2492 18.0757 63.4886 19.4126 64.3864 20.973C65.4328 22.7571 66.0072 24.7783 66.0559 26.846C66.1045 28.9137 65.6258 30.9597 64.6645 32.791C64.6545 32.81 64.6454 32.83 64.6374 32.849C63.9089 34.587 63.3501 36.3914 62.9685 38.237C62.811 41.2097 63.0379 44.1904 63.6435 47.105L63.6404 47.103Z" fill="black"/>
<path d="M25.3793 45.281C25.7399 44.9337 26.0264 44.5168 26.2215 44.0557C26.4166 43.5945 26.5162 43.0987 26.5143 42.598V38.724H29.9263C30.1341 38.7246 30.3388 38.6747 30.523 38.5785C30.7071 38.4823 30.8651 38.3427 30.9832 38.1718C31.1013 38.0009 31.1761 37.8038 31.201 37.5976C31.226 37.3913 31.2003 37.1821 31.1263 36.988L28.5163 30.151C28.5163 29.523 28.5083 27.602 28.4943 27.367C28.2917 23.6658 26.6786 20.183 23.9868 17.6347C21.295 15.0865 17.729 13.6666 14.0223 13.667H13.8583C13.7336 13.667 13.609 13.67 13.4843 13.676C11.2364 13.7547 9.04555 14.4049 7.11852 15.5651C5.1915 16.7252 3.59179 18.3572 2.4703 20.307C1.3127 22.2801 0.675477 24.515 0.618453 26.8019C0.56143 29.0888 1.08647 31.3526 2.1443 33.381C2.82474 34.9867 3.34948 36.654 3.7113 38.36C4.1823 43.419 2.0523 51.493 2.0303 51.574C2.00408 51.6725 2.00087 51.7757 2.0209 51.8757C2.04093 51.9756 2.08367 52.0696 2.14582 52.1504C2.20796 52.2312 2.28785 52.2967 2.37931 52.3417C2.47077 52.3867 2.57136 52.41 2.6733 52.41H15.5543C15.7021 52.4101 15.8457 52.3611 15.9625 52.2706C16.0793 52.18 16.1626 52.0531 16.1993 51.91L17.3573 47.31C17.4281 47.0244 17.5926 46.7707 17.8244 46.5895C18.0562 46.4082 18.342 46.3098 18.6363 46.31H18.6423C21.0013 46.32 22.5053 46.328 22.6663 46.333C23.1661 46.3496 23.664 46.265 24.1303 46.0842C24.5965 45.9034 25.0214 45.6302 25.3793 45.281ZM18.6363 44.981C18.0464 44.9801 17.4731 45.1765 17.0076 45.5389C16.5421 45.9013 16.2111 46.4088 16.0673 46.981L15.0363 51.081H3.5243C3.7293 50.231 4.0543 48.801 4.3593 47.105C4.96485 44.1903 5.19172 41.2097 5.0343 38.237C4.65228 36.3915 4.09302 34.5871 3.3643 32.849C3.3563 32.829 3.3473 32.81 3.3373 32.791C2.37591 30.9597 1.89695 28.9137 1.94559 26.8459C1.99423 24.7782 2.56887 22.757 3.6153 20.973C4.62433 19.2179 6.06387 17.7487 7.79809 16.7042C9.53232 15.6597 11.5041 15.0742 13.5273 15.003C13.64 14.999 13.7533 14.9963 13.8673 14.995H14.0173C17.386 14.9868 20.629 16.2737 23.0755 18.5895C25.522 20.9053 26.9848 24.0729 27.1613 27.437C27.1713 27.61 27.1793 29.267 27.1813 30.27C27.1815 30.3506 27.1964 30.4306 27.2253 30.506L29.8523 37.388H25.8523C25.6759 37.388 25.5068 37.4581 25.3821 37.5828C25.2574 37.7075 25.1873 37.8766 25.1873 38.053V42.592C25.1873 42.9141 25.1227 43.233 24.9972 43.5297C24.8718 43.8264 24.6881 44.0948 24.4571 44.3193C24.226 44.5437 23.9523 44.7195 23.6521 44.8362C23.3519 44.953 23.0313 45.0083 22.7093 44.999C22.4703 44.992 20.0633 44.981 18.6503 44.975H18.6393L18.6363 44.981Z" fill="black"/>
<path d="M33.4982 2.66695C36.0842 2.12164 38.7635 2.20727 41.3093 2.91659C43.8552 3.6259 46.1927 4.93803 48.1242 6.74195C48.2531 6.86236 48.4246 6.92663 48.6008 6.92063C48.7771 6.91463 48.9438 6.83885 49.0642 6.70995C49.1846 6.58106 49.2489 6.40961 49.2429 6.23333C49.2369 6.05704 49.1611 5.89036 49.0322 5.76995C47.2419 4.09557 45.1243 2.80997 42.8128 1.9941C40.5012 1.17823 38.0459 0.849755 35.6012 1.02936C33.1565 1.20897 30.7755 1.89276 28.608 3.03769C26.4406 4.18263 24.5336 5.7639 23.0072 7.68195L19.7832 5.58195C19.6726 5.50939 19.5429 5.47146 19.4107 5.47303C19.2784 5.47459 19.1495 5.51556 19.0407 5.59072C18.9318 5.66587 18.8478 5.77178 18.7995 5.89492C18.7511 6.01805 18.7405 6.1528 18.7692 6.28195L20.0692 12.402C20.1009 12.5511 20.1828 12.6849 20.3013 12.7808C20.4198 12.8768 20.5677 12.9291 20.7202 12.929C20.7666 12.9291 20.8128 12.9244 20.8582 12.915L26.9782 11.615C27.1068 11.5877 27.2246 11.5229 27.3164 11.4288C27.4083 11.3347 27.4702 11.2154 27.4943 11.0861C27.5184 10.9568 27.5036 10.8233 27.4518 10.7024C27.4 10.5815 27.3135 10.4787 27.2033 10.407L24.1322 8.40695C26.5027 5.4725 29.8122 3.44492 33.5032 2.66595L33.4982 2.66695ZM21.2282 11.467L20.4032 7.56695L22.7603 9.10095L22.7822 9.11495L25.1232 10.638L21.2282 11.467Z" fill="black"/>
<path d="M47.9345 52.3469C47.898 52.1744 47.7944 52.0234 47.6466 51.9272C47.4989 51.831 47.319 51.7975 47.1465 51.8339L41.0265 53.134C40.8978 53.1612 40.7801 53.2259 40.6883 53.32C40.5964 53.4142 40.5345 53.5335 40.5104 53.6628C40.4863 53.7921 40.5011 53.9257 40.5529 54.0466C40.6047 54.1675 40.6912 54.2703 40.8014 54.342L43.8725 56.342C42.4531 58.0973 40.6872 59.5412 38.685 60.5837C36.6827 61.6262 34.4872 62.245 32.2352 62.4013C29.9833 62.5577 27.7233 62.2483 25.5962 61.4924C23.4692 60.7365 21.5208 59.5504 19.8725 58.008C19.7436 57.8876 19.5721 57.8233 19.3958 57.8293C19.2195 57.8353 19.0529 57.9111 18.9325 58.04C18.8121 58.1689 18.7478 58.3403 18.7538 58.5166C18.7598 58.6928 18.8356 58.8595 18.9645 58.9799C20.7547 60.6544 22.872 61.9403 25.1835 62.7563C27.4949 63.5723 29.9504 63.9008 32.395 63.7214C34.8397 63.542 37.2208 62.8586 39.3883 61.7138C41.5559 60.5691 43.4629 58.9879 44.9894 57.07L48.2134 59.1699C48.324 59.2424 48.4538 59.2803 48.5861 59.2788C48.7184 59.2772 48.8472 59.2362 48.9561 59.1611C49.0649 59.0859 49.1488 58.98 49.1972 58.8569C49.2455 58.7338 49.2561 58.5991 49.2274 58.4699L47.9275 52.3501L47.9345 52.3469ZM45.2344 55.6379L45.2224 55.6311L42.8705 54.101L46.7704 53.2758L47.5955 57.176L45.2384 55.6421L45.2344 55.6379Z" fill="black"/>
</g>
</svg>
