<svg width="89" height="73" viewBox="0 0 89 73" fill="none" xmlns="http://www.w3.org/2000/svg">
<mask id="mask0_1_1653" style="mask-type:luminance" maskUnits="userSpaceOnUse" x="0" y="0" width="89" height="74">
<path d="M88.052 0.955078H0.947998V73.0011H88.052V0.955078Z" fill="white"/>
</mask>
<g mask="url(#mask0_1_1653)">
<path d="M50.2189 27.7172L63.0189 29.5562L53.7689 38.5992L55.9749 51.3422L44.5169 45.3422L33.0829 51.3772L35.2479 38.6262L25.9739 29.6122L38.7689 27.7342L44.4769 16.1272L50.2189 27.7172Z" fill="#C46600"/>
<path d="M50.219 27.7172L44.479 16.1272L38.771 27.7342L44.487 35.6342L50.268 27.7222L50.219 27.7172Z" fill="#FFB948"/>
<path d="M44.4861 35.636L53.7861 38.652L53.7761 38.599L63.0261 29.556L50.2481 27.719L44.4861 35.636Z" fill="#EA8000"/>
<path d="M55.9789 51.342L53.7839 38.655L44.4839 35.637V45.361L44.5189 45.343L55.9789 51.342Z" fill="#EA8000"/>
<path d="M33.084 51.377L44.484 45.36V35.636L35.247 38.636L33.084 51.377Z" fill="#EA8000"/>
<path d="M44.4861 35.6361L38.7571 27.7361L25.9761 29.6121L35.2481 38.6251V38.6391L44.4861 35.6361Z" fill="#FFB948"/>
<path d="M44.4861 35.636L50.2481 27.719L63.0231 29.555L44.4861 35.636Z" fill="#C46600"/>
<path d="M44.486 35.636L50.267 27.723L50.219 27.717L44.479 16.126L44.486 35.636Z" fill="#EA8000"/>
<path d="M25.9761 29.6121L38.7571 27.7361L44.4861 35.6361L25.9761 29.6121Z" fill="#EA8000"/>
<path d="M33.084 51.3771L35.248 38.6401L44.485 35.6401L33.084 51.3771Z" fill="#C46600"/>
<path d="M55.9791 51.342L44.5211 45.342L44.4861 45.36V35.636L55.9791 51.342Z" fill="#FFB948"/>
<mask id="mask1_1_1653" style="mask-type:luminance" maskUnits="userSpaceOnUse" x="0" y="0" width="89" height="74">
<path d="M88.051 0.956055H0.947998V73.0011H88.051V0.956055Z" fill="white"/>
</mask>
<g mask="url(#mask1_1_1653)">
<path d="M27.3 3.00714C26.1308 4.0109 25.222 5.28268 24.651 6.7139C24.08 8.14512 23.8638 9.69326 24.021 11.2261C25.4966 11.6683 27.0572 11.7473 28.57 11.4564C30.0827 11.1654 31.5027 10.5132 32.709 9.55514C33.8775 8.55112 34.786 7.27944 35.3569 5.84851C35.9279 4.41758 36.1444 2.86982 35.988 1.33714C34.5125 0.894207 32.9518 0.814746 31.439 1.10554C29.9261 1.39634 28.5061 2.04876 27.3 3.00714Z" fill="#FFB948"/>
<path d="M35.988 1.33716L24.021 11.2272C25.4967 11.6691 27.0574 11.7479 28.5701 11.4568C30.0828 11.1657 31.5027 10.5133 32.709 9.55516C33.8772 8.55086 34.7854 7.27915 35.3563 5.84829C35.9272 4.41743 36.144 2.8698 35.988 1.33716Z" fill="#EA8000"/>
<path d="M16.0379 10.8781C16.0679 12.0452 16.368 13.1894 16.9147 14.2209C17.4614 15.2525 18.2399 16.1432 19.1889 16.8231C20.1118 16.1078 20.8561 15.1881 21.3635 14.1364C21.8709 13.0847 22.1274 11.9297 22.1129 10.7621C22.0825 9.59515 21.7822 8.45106 21.2355 7.4196C20.6888 6.38815 19.9106 5.49737 18.9619 4.81714C18.0395 5.53297 17.2955 6.45273 16.7882 7.5043C16.2809 8.55588 16.0241 9.71067 16.0379 10.8781Z" fill="#FFB948"/>
<path d="M18.9619 4.81714L19.1909 16.8241C20.1138 16.1088 20.8582 15.1891 21.3655 14.1374C21.8729 13.0857 22.1294 11.9307 22.1149 10.7631C22.0846 9.59615 21.7843 8.45206 21.2376 7.4206C20.6909 6.38915 19.9126 5.49837 18.9639 4.81814" fill="#EA8000"/>
<path d="M25.058 13.583C23.892 13.6283 22.7525 13.9433 21.7288 14.5032C20.7051 15.0631 19.8251 15.8527 19.158 16.81C19.8795 17.7296 20.8074 18.4665 21.8665 18.9611C22.9257 19.4556 24.0863 19.694 25.2547 19.6568C26.423 19.6196 27.5662 19.3079 28.5917 18.747C29.6173 18.1861 30.4964 17.3916 31.158 16.428C30.4302 15.5146 29.5006 14.7824 28.4422 14.2888C27.3838 13.7952 26.2254 13.5536 25.058 13.583Z" fill="#FFB948"/>
<path d="M31.155 16.428L19.155 16.811C19.8768 17.7303 20.8048 18.4668 21.8639 18.9611C22.923 19.4554 24.0835 19.6936 25.2517 19.6564C26.4199 19.6192 27.5629 19.3077 28.5884 18.747C29.614 18.1864 30.4932 17.3923 31.155 16.429" fill="#EA8000"/>
<path d="M11.5789 18.3552C11.7823 19.5047 12.2494 20.5914 12.9434 21.53C13.6374 22.4687 14.5395 23.2337 15.5789 23.7652C16.3905 22.9247 16.9932 21.9053 17.3383 20.7891C17.6833 19.6728 17.7612 18.4911 17.5654 17.3393C17.3697 16.1874 16.9059 15.0977 16.2115 14.1581C15.5171 13.2185 14.6116 12.4554 13.5679 11.9302C12.7628 12.7749 12.1643 13.7945 11.8192 14.9092C11.4741 16.0239 11.3919 17.2034 11.5789 18.3552Z" fill="#FFB948"/>
<path d="M13.5681 11.9292L15.5821 23.7682C16.3944 22.9276 16.9976 21.9077 17.343 20.7908C17.6883 19.674 17.7661 18.4916 17.57 17.3392C17.374 16.1868 16.9096 15.0966 16.2144 14.1568C15.5192 13.217 14.6127 12.4539 13.5681 11.9292Z" fill="#EA8000"/>
<path d="M20.9011 19.6891C19.755 19.9081 18.6753 20.3897 17.7466 21.096C16.8178 21.8023 16.0653 22.7142 15.5481 23.7601C16.3986 24.5611 17.4257 25.1509 18.5463 25.4816C19.6669 25.8124 20.8496 25.875 21.9988 25.6642C23.148 25.4535 24.2316 24.9754 25.1619 24.2685C26.0922 23.5616 26.8431 22.6458 27.3541 21.5951C26.4988 20.8005 25.471 20.2149 24.3514 19.8842C23.2318 19.5535 22.0508 19.4867 20.9011 19.6891Z" fill="#EA8000"/>
<path d="M27.354 21.5951L15.542 23.7551C16.3926 24.5568 17.42 25.147 18.541 25.4782C19.662 25.8093 20.8452 25.872 21.9949 25.6612C23.1446 25.4505 24.2286 24.9721 25.1592 24.2649C26.0899 23.5577 26.841 22.6414 27.352 21.5901" fill="#C46600"/>
<path d="M8.08712 26.727C8.49794 27.9123 9.17769 28.9863 10.0731 29.8649C10.9685 30.7435 12.0553 31.4027 13.2481 31.791C13.9688 30.7624 14.4371 29.5787 14.6153 28.3355C14.7935 27.0923 14.6765 25.8247 14.2738 24.6351C13.871 23.4456 13.1939 22.3676 12.2972 21.4883C11.4005 20.609 10.3094 19.9532 9.11212 19.574C8.40068 20.6062 7.93791 21.7892 7.76008 23.0302C7.58226 24.2712 7.69419 25.5365 8.08712 26.727Z" fill="#FFB948"/>
<path d="M9.11206 19.574L13.2481 31.791C13.9687 30.7624 14.4371 29.5787 14.6152 28.3355C14.7934 27.0923 14.6764 25.8247 14.2737 24.6351C13.871 23.4456 13.1939 22.3676 12.2972 21.4883C11.4004 20.609 10.3093 19.9532 9.11206 19.574Z" fill="#EA8000"/>
<path d="M18.1569 26.5282C17.0582 26.924 16.0663 27.5691 15.259 28.4129C14.4516 29.2567 13.8509 30.2761 13.5039 31.3912C14.4703 32.0496 15.5781 32.4713 16.7377 32.6224C17.8973 32.7735 19.0762 32.6496 20.179 32.2608C21.2819 31.872 22.2778 31.2291 23.0862 30.3842C23.8947 29.5393 24.4931 28.5161 24.8329 27.3972C23.8631 26.7461 22.7554 26.3287 21.5971 26.1779C20.4387 26.0272 19.2611 26.147 18.1569 26.5282Z" fill="#FFB948"/>
<path d="M24.8329 27.397L13.5039 31.391C14.4703 32.0494 15.5781 32.4711 16.7377 32.6222C17.8973 32.7733 19.0762 32.6494 20.179 32.2606C21.2819 31.8718 22.2778 31.2289 23.0862 30.384C23.8947 29.5391 24.4931 28.5159 24.8329 27.397Z" fill="#EA8000"/>
<path d="M6.04298 36.266C6.9894 37.2218 8.14845 37.9401 9.42549 38.3624C10.7025 38.7848 12.0613 38.8991 13.391 38.696C13.6394 37.3741 13.5719 36.0121 13.1939 34.7213C12.8159 33.4304 12.1382 32.2472 11.216 31.268C10.2688 30.313 9.10957 29.5951 7.83252 29.1728C6.55547 28.7506 5.19675 28.6358 3.86698 28.838C3.6178 30.16 3.68506 31.5222 4.06326 32.8132C4.44146 34.1042 5.11986 35.2874 6.04298 36.266Z" fill="#EA8000"/>
<path d="M3.86694 28.838L13.3919 38.694C13.6406 37.3723 13.5733 36.0106 13.1955 34.7198C12.8177 33.4291 12.1401 32.246 11.2179 31.267C10.2708 30.312 9.11153 29.5941 7.83448 29.1719C6.55743 28.7496 5.19871 28.6349 3.86894 28.837" fill="#C46600"/>
<path d="M18.1481 33.466C17.0549 33.8793 16.0724 34.5404 15.2777 35.3974C14.4831 36.2543 13.8979 37.2838 13.5681 38.405C14.5454 39.0485 15.6605 39.4529 16.823 39.5857C17.9856 39.7184 19.1631 39.5756 20.2603 39.169C21.3575 38.7623 22.3436 38.1032 23.1389 37.2448C23.9341 36.3865 24.5162 35.353 24.8381 34.228C23.8576 33.5925 22.7431 33.193 21.5822 33.0608C20.4212 32.9285 19.2454 33.0673 18.1471 33.466" fill="#EA8000"/>
<path d="M24.8391 34.228L13.5681 38.406C14.5456 39.0493 15.6608 39.4535 16.8234 39.586C17.9861 39.7185 19.1636 39.5757 20.2608 39.1689C21.358 38.7622 22.3441 38.1031 23.1395 37.2447C23.9348 36.3864 24.517 35.353 24.8391 34.228Z" fill="#C46600"/>
<path d="M6.959 46.1861C8.32652 46.5173 9.75296 46.5207 11.122 46.1959C12.4911 45.8711 13.764 45.2273 14.837 44.3171C14.332 43.004 13.5242 41.8287 12.4791 40.8868C11.434 39.945 10.1813 39.2633 8.823 38.8971C7.45593 38.5664 6.03006 38.5633 4.66157 38.8881C3.29307 39.2128 2.02066 39.8563 0.947998 40.7661C1.45217 42.0791 2.25945 43.2545 3.30403 44.1964C4.34861 45.1382 5.60095 45.82 6.959 46.1861Z" fill="#FFB948"/>
<path d="M0.947998 40.766L14.837 44.316C14.332 43.0029 13.5242 41.8276 12.4791 40.8857C11.434 39.9439 10.1813 39.2621 8.823 38.896C7.45585 38.5653 6.02992 38.5623 4.66141 38.8873C3.2929 39.2123 2.02053 39.856 0.947998 40.766Z" fill="#EA8000"/>
<path d="M11.087 54.2772C12.3535 54.0025 13.5372 53.4323 14.5413 52.6131C15.5455 51.7938 16.3417 50.7488 16.865 49.5632C15.9197 48.6769 14.7782 48.0266 13.5337 47.6655C12.2892 47.3044 10.977 47.2426 9.70403 47.4852C8.43749 47.7594 7.25378 48.3294 6.24959 49.1485C5.24539 49.9676 4.44919 51.0126 3.92603 52.1982C4.87145 53.0844 6.01291 53.7346 7.25736 54.0959C8.50181 54.4572 9.81402 54.5193 11.087 54.2772Z" fill="#FFB948"/>
<path d="M3.92505 52.1982L16.866 49.5642C15.9206 48.6773 14.7788 48.0267 13.534 47.6653C12.2891 47.304 10.9764 47.2423 9.70305 47.4852C8.43642 47.7592 7.2526 48.329 6.24838 49.1482C5.24415 49.9673 4.44802 51.0124 3.92505 52.1982Z" fill="#EA8000"/>
<path d="M15.86 60.1851C16.9019 59.5831 17.7868 58.7434 18.4425 57.7344C19.0982 56.7254 19.5061 55.5757 19.633 54.3791C18.5461 53.863 17.3526 53.6114 16.15 53.6448C14.9473 53.6781 13.7695 53.9956 12.713 54.5711C11.6704 55.1723 10.7848 56.0116 10.1287 57.0205C9.47263 58.0294 9.0646 59.1793 8.93799 60.3761C10.0252 60.8918 11.219 61.1433 12.4219 61.1101C13.6248 61.0769 14.8028 60.76 15.86 60.1851Z" fill="#FFB948"/>
<path d="M8.93799 60.3761L19.631 54.3761C18.544 53.8601 17.3504 53.6084 16.1476 53.6416C14.9448 53.6748 13.7669 53.9919 12.71 54.5671C11.6676 55.1691 10.7824 56.0093 10.1269 57.0189C9.4713 58.0285 9.06391 59.1789 8.93799 60.3761Z" fill="#EA8000"/>
<path d="M20.519 65.2031C21.4451 64.5563 22.2052 63.6997 22.7371 62.7032C23.2691 61.7067 23.5579 60.5985 23.58 59.4691C22.5243 59.0598 21.385 58.913 20.26 59.0414C19.1351 59.1698 18.0582 59.5696 17.1218 60.2062C16.1855 60.8429 15.4179 61.6975 14.8849 62.6964C14.3519 63.6954 14.0695 64.8089 14.062 65.9411C15.1203 66.3356 16.2569 66.4744 17.379 66.3462C18.5011 66.2179 19.577 65.8262 20.519 65.2031Z" fill="#FFB948"/>
<path d="M14.062 65.9411L23.579 59.4681C22.5233 59.0588 21.384 58.9121 20.2591 59.0405C19.1341 59.1689 18.0572 59.5686 17.1209 60.2052C16.1846 60.8419 15.4169 61.6965 14.8839 62.6954C14.3509 63.6944 14.0685 64.8079 14.061 65.9401" fill="#EA8000"/>
<path d="M26.2541 68.113C26.9953 67.4763 27.5756 66.6733 27.9475 65.7696C28.3194 64.8659 28.4724 63.8871 28.3941 62.913C27.4506 62.6522 26.4579 62.6242 25.5013 62.8316C24.5446 63.0389 23.6526 63.4754 22.9018 64.1034C22.151 64.7315 21.5639 65.5324 21.1908 66.4374C20.8178 67.3423 20.67 68.3243 20.7601 69.299C21.7047 69.5477 22.6948 69.5696 23.6495 69.3629C24.6043 69.1563 25.4967 68.727 26.2541 68.11" fill="#EA8000"/>
<path d="M20.76 69.3012L28.395 62.9152C27.4516 62.6545 26.459 62.6267 25.5025 62.8342C24.546 63.0416 23.6541 63.4781 22.9035 64.1061C22.1528 64.7341 21.5658 65.535 21.1928 66.4398C20.8198 67.3447 20.6719 68.3266 20.762 69.3012" fill="#C46600"/>
<path d="M17.7479 39.502C16.8945 40.0464 16.1789 40.7812 15.6573 41.6487C15.1358 42.5163 14.8224 43.493 14.7419 44.502C15.6841 44.8735 16.7005 45.0181 17.7089 44.9241C18.7172 44.8301 19.6894 44.5002 20.5466 43.961C21.4039 43.4217 22.1223 42.6884 22.6437 41.8201C23.1651 40.9519 23.4748 39.9731 23.5479 38.963C22.6045 38.598 21.5893 38.4567 20.5821 38.5502C19.5749 38.6438 18.603 38.9696 17.7429 39.502" fill="#EA8000"/>
<path d="M23.5481 38.9632L14.7371 44.4992C15.6793 44.8714 16.6959 45.0167 17.7047 44.9232C18.7134 44.8297 19.686 44.5 20.5438 43.961C21.4015 43.4219 22.1204 42.6885 22.6421 41.82C23.1638 40.9516 23.4739 39.9726 23.5471 38.9622" fill="#C46600"/>
<path d="M19.7701 44.609C18.9025 45.1299 18.1676 45.845 17.6233 46.698C17.0789 47.551 16.74 48.5188 16.6331 49.525C17.5651 49.9221 18.5775 50.0943 19.5885 50.0277C20.5994 49.9611 21.5805 49.6575 22.4523 49.1415C23.3242 48.6256 24.0625 47.9117 24.6074 47.0576C25.1523 46.2035 25.4886 45.2331 25.5891 44.225C24.6554 43.8351 23.6441 43.6668 22.6344 43.7335C21.6248 43.8001 20.6444 44.0998 19.7701 44.609Z" fill="#FFB948"/>
<path d="M25.59 44.2251L16.634 49.5251C17.5661 49.9224 18.5785 50.0948 19.5896 50.0283C20.6006 49.9618 21.5817 49.6582 22.4537 49.1422C23.3256 48.6262 24.0639 47.9122 24.6087 47.058C25.1536 46.2038 25.4898 45.2333 25.59 44.2251Z" fill="#EA8000"/>
<path d="M22.2479 49.3481C21.4403 49.958 20.7852 50.7469 20.334 51.6528C19.8829 52.5588 19.648 53.557 19.6479 54.5691C20.617 54.8648 21.642 54.9284 22.6402 54.7547C23.6384 54.5811 24.5817 54.1749 25.3939 53.5692C26.2061 52.9635 26.8644 52.1752 27.3155 51.268C27.7667 50.3608 27.9981 49.3602 27.9909 48.3471C27.0212 48.0584 25.9977 47.9984 25.0009 48.1719C24.0041 48.3454 23.0611 48.7477 22.2459 49.3471" fill="#FFB948"/>
<path d="M27.9949 48.3472L19.6479 54.5702C20.617 54.8659 21.642 54.9295 22.6402 54.7558C23.6384 54.5821 24.5817 54.176 25.3939 53.5703C26.2061 52.9646 26.8644 52.1763 27.3155 51.2691C27.7667 50.3619 27.9981 49.3613 27.9909 48.3482" fill="#EA8000"/>
<path d="M24.648 53.4201C24.0778 54.2557 23.7088 55.2121 23.57 56.2142C23.4312 57.2163 23.5264 58.2369 23.848 59.1961C24.8608 59.1683 25.8528 58.9024 26.7438 58.42C27.6348 57.9376 28.3997 57.2523 28.9767 56.4195C29.5537 55.5866 29.9265 54.6296 30.065 53.6259C30.2035 52.6223 30.1038 51.6001 29.774 50.6421C28.7629 50.677 27.7737 50.9461 26.8842 51.4282C25.9948 51.9102 25.2293 52.5921 24.648 53.4201Z" fill="#EA8000"/>
<path d="M29.7779 50.6421L23.8479 59.1991C24.8607 59.1713 25.8527 58.9054 26.7437 58.423C27.6347 57.9406 28.3997 57.2553 28.9766 56.4225C29.5536 55.5896 29.9264 54.6326 30.0649 53.6289C30.2034 52.6253 30.1037 51.6031 29.7739 50.6451" fill="#C46600"/>
<path d="M28.3091 57.916C27.961 58.7349 27.8075 59.6233 27.8606 60.5115C27.9137 61.3996 28.1719 62.2634 28.6151 63.035C29.4838 62.8363 30.2935 62.4358 30.9786 61.866C31.6638 61.2962 32.2052 60.573 32.5589 59.7551C32.9127 58.9372 33.0689 58.0474 33.0149 57.1579C32.9609 56.2684 32.6982 55.4041 32.2481 54.635C31.3829 54.8401 30.577 55.2427 29.8936 55.8115C29.2102 56.3802 28.6678 57.0995 28.3091 57.913" fill="#FFB948"/>
<path d="M32.248 54.6382L28.613 63.0382C29.482 62.8398 30.292 62.4396 30.9774 61.8698C31.6628 61.3001 32.2044 60.5769 32.5582 59.7588C32.912 58.9408 33.0681 58.0509 33.0139 57.1612C32.9596 56.2716 32.6966 55.4072 32.246 54.6382" fill="#EA8000"/>
<path d="M34.0789 70.8481C34.609 70.1366 34.9632 69.3098 35.1125 68.4352C35.2618 67.5606 35.2019 66.6631 34.9379 65.8161C34.0499 65.7736 33.1648 65.9472 32.3586 66.322C31.5524 66.6968 30.8492 67.2616 30.3093 67.968C29.7695 68.6743 29.409 69.5011 29.259 70.3774C29.109 71.2537 29.1738 72.1534 29.4479 72.9991C30.3349 73.0302 31.2167 72.8517 32.0218 72.4779C32.8268 72.1042 33.5323 71.5458 34.0809 70.8481" fill="#EA8000"/>
<path d="M29.4479 73L34.9369 65.816C34.0492 65.7748 33.1648 65.9493 32.3592 66.3246C31.5537 66.6998 30.8511 67.2647 30.3116 67.9709C29.772 68.677 29.4116 69.5034 29.2612 70.3792C29.1108 71.2551 29.1749 72.1543 29.4479 73Z" fill="#C46600"/>
<path d="M33.863 61.404C33.7192 62.1993 33.7617 63.0171 33.9873 63.7932C34.2128 64.5694 34.6153 65.2826 35.163 65.877C35.8928 65.5274 36.5301 65.0109 37.0233 64.3694C37.5165 63.7278 37.8517 62.9792 38.002 62.1841C38.1522 61.3889 38.1132 60.5696 37.888 59.7923C37.6629 59.0151 37.2579 58.3017 36.706 57.71C35.9793 58.0642 35.3448 58.5822 34.8521 59.2232C34.3595 59.8641 34.0223 60.6106 33.867 61.404" fill="#FFB948"/>
<path d="M36.702 57.709L35.158 65.876C35.8878 65.5264 36.5251 65.01 37.0183 64.3684C37.5115 63.7269 37.8467 62.9783 37.997 62.1831C38.1472 61.388 38.1082 60.5686 37.883 59.7913C37.6579 59.0141 37.2529 58.3007 36.701 57.709" fill="#EA8000"/>
<path d="M41.7771 66.086C40.5556 65.917 39.3449 65.6776 38.1511 65.369C24.0631 61.712 14.1311 50.009 14.1311 35.437C14.1311 22.613 21.4221 10.742 33.4911 6.18498L33.4481 5.72998C27.4091 7.99281 22.2105 12.0552 18.5549 17.3681C14.8994 22.681 12.9632 28.9881 13.0081 35.437C12.9949 43.4699 15.9082 51.2326 21.203 57.2736C26.4978 63.3145 33.8117 67.2201 41.7771 68.26V66.086Z" fill="#EA8000"/>
<path d="M61.701 3.00704C62.8696 4.01116 63.7781 5.28303 64.3489 6.71417C64.9196 8.14531 65.1358 9.69327 64.979 11.226C63.5032 11.6682 61.9424 11.7472 60.4295 11.4563C58.9167 11.1653 57.4965 10.5131 56.29 9.55504C55.1218 8.5508 54.2136 7.27907 53.6428 5.84817C53.0721 4.41727 52.8557 2.86961 53.012 1.33704C54.4876 0.894185 56.0485 0.814767 57.5615 1.10556C59.0744 1.39635 60.4946 2.04872 61.701 3.00704Z" fill="#FFB948"/>
<path d="M53.011 1.33716L64.978 11.2272C63.5022 11.6691 61.9413 11.7479 60.4285 11.4568C58.9156 11.1657 57.4955 10.5133 56.289 9.55516C55.1211 8.55065 54.2132 7.27888 53.6425 5.84805C53.0717 4.41722 52.8551 2.8697 53.011 1.33716Z" fill="#EA8000"/>
<path d="M72.962 10.8781C72.9321 12.0452 72.6319 13.1894 72.0852 14.2209C71.5385 15.2525 70.76 16.1432 69.811 16.8231C68.8883 16.1076 68.1441 15.1879 67.6367 14.1363C67.1294 13.0846 66.8728 11.9297 66.887 10.7621C66.9178 9.59523 67.2182 8.45127 67.7649 7.41988C68.3116 6.38848 69.0896 5.49764 70.038 4.81714C70.9604 5.53297 71.7044 6.45273 72.2117 7.5043C72.719 8.55588 72.9758 9.71067 72.962 10.8781Z" fill="#FFB948"/>
<path d="M70.0381 4.81714L69.8091 16.8241C68.8864 16.1086 68.1421 15.1889 67.6348 14.1373C67.1274 13.0856 66.8708 11.9307 66.8851 10.7631C66.9159 9.59589 67.2166 8.45163 67.7636 7.42003C68.3107 6.38844 69.0891 5.49753 70.0381 4.81714Z" fill="#EA8000"/>
<path d="M63.9411 13.5832C65.1069 13.6291 66.2462 13.9443 67.2699 14.5041C68.2935 15.064 69.1735 15.8533 69.8411 16.8102C69.1193 17.7295 68.1913 18.466 67.1322 18.9603C66.0731 19.4546 64.9126 19.6928 63.7444 19.6556C62.5762 19.6184 61.4332 19.3069 60.4077 18.7463C59.3821 18.1856 58.5029 17.3915 57.8411 16.4282C58.5689 15.5149 59.4985 14.7828 60.5569 14.2892C61.6153 13.7955 62.7736 13.5539 63.9411 13.5832Z" fill="#FFB948"/>
<path d="M57.8479 16.428L69.8479 16.811C69.1259 17.7299 68.1978 18.4661 67.1388 18.9601C66.0797 19.4542 64.9193 19.6922 63.7513 19.655C62.5832 19.6179 61.4403 19.3065 60.4148 18.7461C59.3893 18.1857 58.51 17.3919 57.8479 16.429" fill="#EA8000"/>
<path d="M77.4221 18.355C77.2182 19.5043 76.751 20.5909 76.057 21.5294C75.3631 22.468 74.4612 23.2332 73.4221 23.765C72.6098 22.9245 72.0066 21.9046 71.6612 20.7879C71.3159 19.6711 71.2381 18.4888 71.4342 17.3365C71.6302 16.1841 72.0946 15.094 72.7898 14.1543C73.485 13.2146 74.3915 12.4516 75.4361 11.927C76.2407 12.7725 76.8387 13.7928 77.1832 14.908C77.5278 16.0232 77.6095 17.203 77.4221 18.355Z" fill="#FFB948"/>
<path d="M75.4319 11.9292L73.4189 23.7682C72.6066 22.9277 72.0034 21.9078 71.6581 20.7911C71.3127 19.6743 71.235 18.492 71.431 17.3397C71.6271 16.1873 72.0914 15.0972 72.7866 14.1575C73.4818 13.2178 74.3884 12.4548 75.4329 11.9302" fill="#EA8000"/>
<path d="M68.097 19.6891C69.2438 19.9074 70.3244 20.3886 71.2539 21.095C72.1834 21.8014 72.9364 22.7136 73.4539 23.7601C72.6034 24.5611 71.5763 25.1509 70.4557 25.4816C69.3352 25.8124 68.1525 25.875 67.0032 25.6642C65.854 25.4535 64.7705 24.9754 63.8402 24.2685C62.9099 23.5616 62.1589 22.6458 61.6479 21.5951C62.5031 20.8005 63.5306 20.2149 64.6501 19.8842C65.7695 19.5536 66.9504 19.4867 68.0999 19.6891" fill="#EA8000"/>
<path d="M61.6479 21.595L73.458 23.755C72.6076 24.5568 71.5806 25.1473 70.4599 25.4789C69.3391 25.8104 68.1561 25.8735 67.0064 25.6633C65.8567 25.453 64.7726 24.9752 63.8418 24.2684C62.9109 23.5617 62.1594 22.6459 61.6479 21.595Z" fill="#C46600"/>
<path d="M80.912 26.727C80.5018 27.9116 79.8229 28.9852 78.9286 29.8638C78.0343 30.7423 76.9488 31.4019 75.757 31.791C75.0363 30.7629 74.5676 29.5796 74.389 28.3368C74.2104 27.094 74.3268 25.8267 74.7288 24.6372C75.1308 23.4478 75.8071 22.3696 76.703 21.49C77.599 20.6104 78.6894 19.954 79.886 19.574C80.598 20.6059 81.0612 21.7889 81.2392 23.03C81.4173 24.271 81.3052 25.5365 80.912 26.727Z" fill="#FFB948"/>
<path d="M79.886 19.574L75.756 31.791C75.0355 30.7629 74.5671 29.5796 74.3886 28.3369C74.2102 27.0942 74.3267 25.8269 74.7288 24.6376C75.1309 23.4482 75.8072 22.3702 76.7031 21.4907C77.5991 20.6112 78.6894 19.955 79.886 19.575" fill="#EA8000"/>
<path d="M70.842 26.5282C71.9409 26.9238 72.9331 27.5688 73.7406 28.4126C74.5481 29.2564 75.149 30.276 75.496 31.3912C74.5296 32.0498 73.4218 32.4717 72.2622 32.6229C71.1025 32.7741 69.9236 32.6502 68.8206 32.2614C67.7177 31.8726 66.7218 31.2297 65.9133 30.3846C65.1049 29.5396 64.5067 28.5162 64.167 27.3972C65.1367 26.7461 66.2441 26.3287 67.4023 26.178C68.5605 26.0272 69.7379 26.147 70.842 26.5282Z" fill="#FFB948"/>
<path d="M64.167 27.397L75.496 31.391C74.5296 32.0496 73.4218 32.4715 72.2622 32.6227C71.1025 32.7739 69.9236 32.6501 68.8206 32.2612C67.7177 31.8724 66.7218 31.2295 65.9133 30.3844C65.1049 29.5394 64.5067 28.516 64.167 27.397Z" fill="#EA8000"/>
<path d="M82.956 36.266C82.0098 37.2218 80.851 37.9402 79.5741 38.3625C78.2972 38.7849 76.9385 38.8991 75.609 38.696C75.343 37.3742 75.4019 36.0076 75.7807 34.7136C76.1595 33.4196 76.8468 32.237 77.7837 31.2673C78.7205 30.2977 79.8787 29.57 81.1589 29.1468C82.4391 28.7237 83.8028 28.6177 85.133 28.838C85.382 30.1601 85.3145 31.5223 84.9361 32.8133C84.5578 34.1043 83.8792 35.2875 82.956 36.266Z" fill="#EA8000"/>
<path d="M85.1331 28.838L75.6081 38.694C75.3422 37.3723 75.4013 36.0058 75.7802 34.7119C76.1591 33.4181 76.8464 32.2356 77.7832 31.266C78.72 30.2965 79.8782 29.5689 81.1583 29.1458C82.4383 28.7227 83.802 28.6167 85.1321 28.837" fill="#C46600"/>
<path d="M70.848 33.4661C71.9409 33.8793 72.9231 34.5403 73.7173 35.3974C74.5115 36.2544 75.0961 37.284 75.425 38.4051C74.4478 39.0486 73.3329 39.4531 72.1705 39.5858C71.008 39.7185 69.8306 39.5758 68.7336 39.1691C67.6365 38.7624 66.6506 38.1033 65.8555 37.2449C65.0605 36.3865 64.4786 35.3531 64.157 34.2281C65.1375 33.5926 66.252 33.193 67.4129 33.0607C68.5739 32.9285 69.7497 33.0673 70.848 33.4661Z" fill="#EA8000"/>
<path d="M64.1609 34.228L75.4309 38.406C74.4536 39.0493 73.3387 39.4535 72.1762 39.5861C71.0138 39.7186 69.8364 39.5757 68.7394 39.169C67.6424 38.7622 66.6565 38.103 65.8615 37.2447C65.0664 36.3863 64.4846 35.3529 64.1629 34.228" fill="#C46600"/>
<path d="M82.041 46.186C80.6739 46.5175 79.2477 46.521 77.8789 46.1962C76.5101 45.8713 75.2375 45.2274 74.165 44.317C74.6537 42.9951 75.4558 41.8116 76.5026 40.868C77.5495 39.9244 78.8097 39.249 80.175 38.8998C81.5404 38.5505 82.9701 38.5379 84.3415 38.863C85.7128 39.1881 86.9847 39.8411 88.048 40.766C87.5439 42.0791 86.7366 43.2545 85.692 44.1963C84.6474 45.1382 83.3951 45.82 82.037 46.186" fill="#FFB948"/>
<path d="M88.0479 40.7662L74.1599 44.3162C74.6486 42.9937 75.451 41.8095 76.4983 40.8655C77.5455 39.9216 78.8063 39.246 80.1723 38.8968C81.5384 38.5476 82.9687 38.5353 84.3405 38.8609C85.7123 39.1866 86.9846 39.8404 88.0479 40.7662Z" fill="#EA8000"/>
<path d="M77.914 54.277C76.6472 54.0028 75.4632 53.4328 74.4588 52.6135C73.4544 51.7942 72.6582 50.7489 72.135 49.563C73.0714 48.663 74.2123 48.0038 75.4597 47.6419C76.7071 47.2801 78.0236 47.2264 79.2963 47.4856C80.569 47.7447 81.7598 48.309 82.7663 49.1298C83.7729 49.9506 84.5651 51.0035 85.075 52.198C84.1295 53.0841 82.988 53.7343 81.7436 54.0955C80.4992 54.4568 79.187 54.519 77.914 54.277Z" fill="#FFB948"/>
<path d="M85.075 52.198L72.135 49.564C73.0714 48.664 74.2123 48.0048 75.4597 47.6429C76.7071 47.281 78.0236 47.2274 79.2963 47.4866C80.569 47.7457 81.7598 48.3099 82.7663 49.1308C83.7729 49.9516 84.5651 51.0035 85.075 52.198Z" fill="#EA8000"/>
<path d="M73.138 60.1851C72.0962 59.5831 71.2114 58.7433 70.5559 57.7343C69.9004 56.7253 69.4927 55.5756 69.366 54.3791C70.4492 53.8485 71.6451 53.5889 72.8509 53.6225C74.0566 53.6562 75.2362 53.9821 76.2881 54.5723C77.3401 55.1624 78.2331 55.9992 78.8902 57.0107C79.5474 58.0222 79.9492 59.1781 80.061 60.3791C78.9735 60.8948 77.7796 61.1463 76.5766 61.1131C75.3735 61.0799 74.1953 60.763 73.138 60.1881" fill="#FFB948"/>
<path d="M80.061 60.376L69.366 54.376C70.4492 53.8451 71.6451 53.5853 72.851 53.6188C74.0568 53.6524 75.2364 53.9783 76.2885 54.5685C77.3405 55.1587 78.2335 55.9956 78.8906 57.0072C79.5478 58.0188 79.9494 59.1748 80.061 60.376Z" fill="#EA8000"/>
<path d="M68.479 65.203C67.553 64.5561 66.793 63.6994 66.2611 62.7029C65.7291 61.7065 65.4402 60.5983 65.418 59.469C66.4738 59.06 67.6131 58.9135 68.7381 59.042C69.863 59.1706 70.9399 59.5703 71.8763 60.2069C72.8126 60.8434 73.5805 61.6978 74.1138 62.6966C74.6471 63.6954 74.9299 64.8088 74.938 65.941C73.8793 66.3355 72.7425 66.4743 71.62 66.3461C70.4976 66.2178 69.4213 65.8262 68.479 65.203Z" fill="#FFB948"/>
<path d="M74.9379 65.941L65.4189 59.468C66.4748 59.059 67.6141 58.9125 68.739 59.0411C69.864 59.1696 70.9409 59.5693 71.8773 60.2059C72.8136 60.8424 73.5814 61.6968 74.1147 62.6956C74.648 63.6944 74.9309 64.8078 74.9389 65.94" fill="#EA8000"/>
<path d="M62.748 68.113C62.0066 67.4763 61.4262 66.6734 61.0541 65.7697C60.682 64.866 60.5288 63.8872 60.607 62.913C61.5506 62.652 62.5434 62.6239 63.5002 62.8312C64.457 63.0385 65.3493 63.4749 66.1002 64.1029C66.8512 64.731 67.4386 65.5319 67.8118 66.437C68.185 67.342 68.333 68.3242 68.243 69.299C67.2985 69.5482 66.3083 69.5707 65.3534 69.3646C64.3985 69.1585 63.5058 68.7296 62.748 68.113Z" fill="#EA8000"/>
<path d="M68.241 69.3011L60.604 62.9151C61.5476 62.6544 62.5403 62.6265 63.497 62.8338C64.4537 63.0412 65.3458 63.4776 66.0967 64.1056C66.8476 64.7336 67.435 65.5344 67.8083 66.4394C68.1816 67.3443 68.3307 68.3263 68.241 69.3011Z" fill="#C46600"/>
<path d="M71.254 39.502C72.1073 40.0466 72.8228 40.7814 73.3443 41.6489C73.8659 42.5165 74.1793 43.493 74.26 44.502C73.3175 44.8741 72.3007 45.0191 71.2917 44.9254C70.2828 44.8316 69.3101 44.5018 68.4522 43.9626C67.5944 43.4234 66.8754 42.6898 66.3535 41.8213C65.8316 40.9528 65.5214 39.9736 65.448 38.963C66.3918 38.598 67.4073 38.4567 68.4148 38.5502C69.4224 38.6438 70.3935 38.9696 71.254 39.502Z" fill="#EA8000"/>
<path d="M65.448 38.9631L74.26 44.4991C73.3177 44.8711 72.3011 45.0162 71.2924 44.9226C70.2837 44.8291 69.3112 44.4995 68.4534 43.9606C67.5956 43.4217 66.8766 42.6886 66.3545 41.8204C65.8324 40.9523 65.5219 39.9735 65.448 38.9631Z" fill="#C46600"/>
<path d="M69.2299 44.6091C70.0971 45.1304 70.8318 45.8455 71.3761 46.6985C71.9204 47.5515 72.2595 48.519 72.3669 49.5251C71.4348 49.9222 70.4224 50.0944 69.4115 50.0278C68.4006 49.9612 67.4195 49.6576 66.5476 49.1417C65.6757 48.6257 64.9375 47.9118 64.3926 47.0577C63.8476 46.2036 63.5114 45.2333 63.4109 44.2251C64.3446 43.8353 65.3559 43.6671 66.3655 43.7337C67.3751 43.8003 68.3555 44.1 69.2299 44.6091Z" fill="#FFB948"/>
<path d="M63.4109 44.2251L72.3679 49.5251C71.4358 49.9224 70.4234 50.0948 69.4124 50.0283C68.4014 49.9618 67.4202 49.6582 66.5482 49.1422C65.6763 48.6262 64.938 47.9122 64.3932 47.058C63.8483 46.2038 63.5112 45.2333 63.4109 44.2251Z" fill="#EA8000"/>
<path d="M66.7481 49.3481C67.5555 49.9581 68.2105 50.7471 68.6617 51.653C69.1128 52.5589 69.3478 53.5571 69.3481 54.5691C68.379 54.8651 67.3539 54.9288 66.3556 54.7552C65.3573 54.5816 64.4139 54.1755 63.6017 53.5698C62.7894 52.964 62.1312 52.1756 61.6801 51.2683C61.229 50.361 60.9977 49.3603 61.0051 48.3471C61.9748 48.0584 62.9983 47.9984 63.9951 48.1719C64.9919 48.3454 65.9349 48.7477 66.7501 49.3471" fill="#FFB948"/>
<path d="M61.005 48.3472L69.348 54.5702C68.379 54.8659 67.354 54.9295 66.3558 54.7558C65.3576 54.5821 64.4143 54.176 63.6021 53.5703C62.7899 52.9646 62.1316 52.1763 61.6805 51.2691C61.2293 50.3619 60.9979 49.3613 61.005 48.3482" fill="#EA8000"/>
<path d="M64.348 53.4201C64.9189 54.2554 65.2883 55.2118 65.4271 56.214C65.5659 57.2163 65.4704 58.237 65.148 59.1961C64.1353 59.1681 63.1434 58.9021 62.2525 58.4197C61.3616 57.9373 60.5968 57.2519 60.02 56.4191C59.4431 55.5862 59.0704 54.6293 58.9319 53.6257C58.7934 52.6221 58.8932 51.6 59.223 50.6421C60.234 50.6769 61.2231 50.9459 62.1124 51.428C63.0017 51.91 63.767 52.592 64.348 53.4201Z" fill="#EA8000"/>
<path d="M59.221 50.6421L65.148 59.1991C64.1353 59.1711 63.1434 58.9051 62.2525 58.4227C61.3616 57.9402 60.5968 57.2549 60.02 56.4221C59.4431 55.5892 59.0704 54.6323 58.9319 53.6287C58.7934 52.6251 58.8932 51.603 59.223 50.6451" fill="#C46600"/>
<path d="M60.6899 57.916C61.0376 58.735 61.1908 59.6234 61.1375 60.5116C61.0843 61.3997 60.826 62.2634 60.3829 63.035C59.5142 62.8363 58.7045 62.4358 58.0193 61.866C57.3342 61.2962 56.7928 60.573 56.439 59.7551C56.0853 58.9372 55.9291 58.0474 55.9831 57.1579C56.0371 56.2684 56.2998 55.4041 56.7499 54.635C57.6154 54.8396 58.4216 55.2421 59.1052 55.8109C59.7888 56.3797 60.3313 57.0992 60.6899 57.913" fill="#FFB948"/>
<path d="M56.7481 54.6382L60.3841 63.0382C59.5152 62.8398 58.7052 62.4395 58.0198 61.8698C57.3344 61.3 56.7928 60.5769 56.4389 59.7589C56.085 58.9409 55.9288 58.051 55.9829 57.1614C56.0369 56.2717 56.2998 55.4073 56.7501 54.6382" fill="#EA8000"/>
<path d="M54.921 70.848C54.3912 70.1364 54.0371 69.3096 53.8878 68.435C53.7385 67.5605 53.7982 66.663 54.062 65.816C54.9498 65.7739 55.8345 65.9478 56.6403 66.3229C57.4461 66.6979 58.1488 67.2628 58.6883 67.9691C59.2278 68.6755 59.5878 69.5021 59.7375 70.3782C59.8873 71.2543 59.8222 72.1536 59.548 72.999C58.6611 73.0302 57.7794 72.8517 56.9746 72.4779C56.1697 72.1041 55.4644 71.5457 54.916 70.848" fill="#EA8000"/>
<path d="M59.5481 73.0002L54.0581 65.8162C54.9463 65.7734 55.8317 65.9468 56.6381 66.3216C57.4445 66.6964 58.1479 67.2613 58.6878 67.9679C59.2278 68.6744 59.5882 69.5015 59.738 70.378C59.8878 71.2546 59.8227 72.1544 59.5481 73.0002Z" fill="#C46600"/>
<path d="M55.1361 61.404C55.2797 62.1993 55.237 63.0171 55.0115 63.7931C54.7859 64.5692 54.3836 65.2825 53.8361 65.877C53.1063 65.5274 52.469 65.0109 51.9758 64.3694C51.4826 63.7278 51.1473 62.9792 50.9971 62.1841C50.8469 61.3889 50.8859 60.5696 51.1111 59.7923C51.3362 59.0151 51.7411 58.3017 52.2931 57.71C53.0198 58.0642 53.6543 58.5822 54.1469 59.2232C54.6396 59.8641 54.9768 60.6106 55.1321 61.404" fill="#FFB948"/>
<path d="M52.2981 57.709L53.8481 65.876C53.1183 65.5264 52.481 65.01 51.9878 64.3684C51.4946 63.7269 51.1593 62.9783 51.0091 62.1831C50.8588 61.388 50.8979 60.5686 51.123 59.7913C51.3482 59.0141 51.7531 58.3007 52.3051 57.709" fill="#EA8000"/>
<path d="M55.5549 5.729L55.5069 6.184C67.5769 10.742 74.8679 22.613 74.8679 35.436C74.8679 50.008 64.9349 61.711 50.8479 65.369C49.6538 65.6775 48.4428 65.9166 47.2209 66.085V68.26C55.1865 67.2201 62.5005 63.3144 67.7954 57.2732C73.0902 51.2321 76.0033 43.4691 75.9899 35.436C76.0352 28.9877 74.0997 22.681 70.4451 17.3682C66.7905 12.0554 61.593 7.99265 55.5549 5.729Z" fill="#EA8000"/>
<g style="mix-blend-mode:soft-light">
<mask id="mask2_1_1653" style="mask-type:luminance" maskUnits="userSpaceOnUse" x="64" y="27" width="22" height="28">
<path d="M85.0751 27.3811H64.1611V54.3901H85.0751V27.3811Z" fill="white"/>
</mask>
<g mask="url(#mask2_1_1653)">
<path d="M79.2951 47.485C77.5005 47.1308 75.6386 47.4082 74.0251 48.27L80.1481 54.391C81.9852 54.2151 83.7149 53.4452 85.0751 52.198C84.5514 51.0124 83.7548 49.9674 82.7503 49.1483C81.7458 48.3293 80.5619 47.7593 79.2951 47.485Z" fill="#FFD0CA"/>
<path d="M75.2721 42.314C75.5009 41.2114 75.6738 40.098 75.7901 38.978L70.0261 33.216C69.0307 32.9823 67.9983 32.9514 66.9907 33.1253C65.983 33.2992 65.0207 33.6742 64.1611 34.228C64.7 36.0237 65.8792 37.5592 67.4751 38.543C66.7819 38.5802 66.0982 38.7218 65.4471 38.963C65.4769 39.2559 65.524 39.5467 65.5881 39.834L70.5481 44.794C71.5012 44.9877 72.485 44.9713 73.4311 44.746C73.1991 45.475 72.9311 46.186 72.6441 46.889L73.5731 47.818C73.9921 46.7938 74.3593 45.7492 74.6731 44.688C75.7157 45.4645 76.9168 46.0015 78.1907 46.2608C79.4646 46.5201 80.7799 46.4952 82.0431 46.188C82.2901 46.124 82.5271 46.037 82.7641 45.953L77.1721 40.363C76.4438 40.9143 75.8032 41.5728 75.2721 42.316M73.9381 42.967C73.4963 41.6013 72.6089 40.4235 71.4181 39.622C72.5507 39.5985 73.6642 39.3253 74.6791 38.822C74.5284 40.2178 74.2808 41.6015 73.9381 42.963" fill="#FFD0CA"/>
<path d="M68.8202 32.26C68.9382 32.301 69.0572 32.33 69.1762 32.36L64.1932 27.376C64.1842 27.3804 64.1756 27.3854 64.1672 27.391C64.5146 28.5059 65.1155 29.5253 65.9228 30.3692C66.7301 31.213 67.7218 31.8585 68.8202 32.255" fill="#FFD0CA"/>
</g>
</g>
<g style="mix-blend-mode:soft-light">
<mask id="mask3_1_1653" style="mask-type:luminance" maskUnits="userSpaceOnUse" x="54" y="7" width="34" height="37">
<path d="M87.929 7.74609H54.647V43.8231H87.929V7.74609Z" fill="white"/>
</mask>
<g mask="url(#mask3_1_1653)">
<path d="M83.0529 36.1552L77.9859 31.0872C77.9179 31.1502 77.8469 31.2042 77.7859 31.2712C77.0658 32.0256 76.5002 32.9136 76.1208 33.8852L80.3119 38.0762C81.3066 37.6582 82.2066 37.0436 82.9579 36.2692C82.9939 36.2332 83.0219 36.1922 83.0579 36.1552" fill="#FFD0CA"/>
<path d="M68.007 25.771C69.3285 25.8243 70.6403 25.524 71.807 24.901L66.488 19.583C65.2222 19.6377 63.9906 20.0105 62.907 20.667L68.007 25.771Z" fill="#FFD0CA"/>
<path d="M74.2279 28.9911C73.5393 28.0871 72.6491 27.3564 71.6283 26.8571C70.6075 26.3578 69.4842 26.1037 68.3479 26.1151L74.2679 32.0341C74.3969 31.9781 74.5269 31.9271 74.6549 31.8641C74.6759 32.0641 74.6869 32.2701 74.7059 32.4731L75.9119 33.6731C75.8779 33.0391 75.8319 32.4071 75.7619 31.7811C76.4518 31.5429 77.1084 31.2176 77.7159 30.8131L73.7159 26.8131C73.9079 27.5301 74.0819 28.2541 74.2259 28.9871" fill="#FFD0CA"/>
<path d="M54.6479 7.74609C55.1088 8.42224 55.6615 9.03106 56.2899 9.55509C56.4899 9.71609 56.6899 9.85509 56.8999 9.99909L54.6479 7.74609Z" fill="#FFD0CA"/>
<path d="M87.929 41.028L86.829 39.928C85.0765 38.8656 83.0084 38.4476 80.981 38.746L86.059 43.823C86.8432 43.01 87.4764 42.0629 87.929 41.028Z" fill="#FFD0CA"/>
<path d="M63.7479 19.655C64.5818 19.6808 65.414 19.5627 66.2079 19.306L61.0079 14.106C59.9566 14.5268 59.0101 15.1726 58.2349 15.998L61.4229 19.187C62.1671 19.4689 62.9525 19.6269 63.7479 19.655Z" fill="#FFD0CA"/>
</g>
</g>
<g style="mix-blend-mode:soft-light">
<mask id="mask4_1_1653" style="mask-type:luminance" maskUnits="userSpaceOnUse" x="3" y="24" width="39" height="45">
<path d="M41.7779 24.3831H3.73486V68.2601H41.7779V24.3831Z" fill="white"/>
</mask>
<g mask="url(#mask4_1_1653)">
<path d="M22.2479 49.3481C21.3307 50.0334 20.616 50.9543 20.1799 52.0131L22.8559 54.6911C23.3021 54.6038 23.7379 54.4697 24.1559 54.2911C23.9645 54.6954 23.817 55.1192 23.7159 55.5551L26.6209 58.4551C27.5634 57.9822 28.3739 57.283 28.9799 56.4201C29.5507 55.5844 29.9199 54.6279 30.0587 53.6256C30.1975 52.6232 30.1021 51.6023 29.7799 50.6431C28.9338 50.6834 28.1026 50.8811 27.3289 51.2261C27.7588 50.3269 27.9867 49.3446 27.9969 48.3481C27.0272 48.0593 26.0037 47.9994 25.0069 48.1729C24.0101 48.3464 23.0671 48.7486 22.2519 49.3481" fill="#FFD0CA"/>
<path d="M36.5238 64.9012C37.2844 64.1698 37.7994 63.2205 37.9978 62.1842C38.1421 61.3892 38.1002 60.5717 37.8755 59.7956C37.6508 59.0196 37.2495 58.3061 36.7028 57.7112C35.9761 58.0653 35.3415 58.5832 34.8488 59.2242C34.3562 59.8652 34.019 60.6118 33.8638 61.4052C33.7003 62.2867 33.7727 63.1957 34.0738 64.0402C32.8829 63.5678 31.7197 63.0283 30.5898 62.4242L35.1478 66.9802C35.1388 66.8802 35.1318 66.7802 35.1188 66.6742C35.9855 66.9782 36.8715 67.2485 37.7768 67.4852C39.0929 67.8257 40.4288 68.0845 41.7768 68.2602V66.0862C40.5554 65.9172 39.3447 65.6778 38.1508 65.3692C37.6008 65.2272 37.0598 65.0692 36.5238 64.9012Z" fill="#FFD0CA"/>
<path d="M20.5479 43.9621C21.9532 43.0685 22.9589 41.6666 23.3549 40.0491L21.8969 38.5921C21.7729 38.5781 21.6499 38.5511 21.5249 38.5431C21.5909 38.5021 21.6529 38.4551 21.7179 38.4121L17.2079 33.9011C15.9162 34.6061 14.8606 35.6759 14.1729 36.9771C14.1469 36.4671 14.1309 35.9541 14.1309 35.4361C14.1378 34.2425 14.2082 33.0501 14.3419 31.8641C14.7742 32.0778 15.225 32.2515 15.6889 32.3831L7.68894 24.3831C7.7028 25.1801 7.83767 25.9705 8.08894 26.7271C8.49893 27.91 9.17682 28.9821 10.0697 29.8596C10.9625 30.7372 12.0462 31.3965 13.2359 31.7861C13.1439 32.6201 13.0829 33.4617 13.0529 34.3111C12.675 33.173 12.0482 32.1334 11.2179 31.2681C10.271 30.3131 9.11185 29.5953 7.83497 29.173C6.5581 28.7507 5.19955 28.636 3.86994 28.8381C3.62129 30.1594 3.68872 31.5207 4.06673 32.811C4.44474 34.1013 5.1226 35.2838 6.04494 36.2621C6.96558 37.1914 8.0883 37.8957 9.32568 38.3201C10.5631 38.7445 11.8817 38.8776 13.1789 38.7091C13.2965 39.9183 13.4808 41.1201 13.7309 42.3091C12.5539 40.6256 10.8174 39.4147 8.83094 38.8921C8.17105 38.7254 7.49352 38.6388 6.81294 38.6341L13.4329 45.2541C13.7429 45.08 14.0434 44.8894 14.3329 44.6831C14.5489 45.4271 14.7949 46.1601 15.0599 46.8831L18.0889 49.9121C19.5908 50.1821 21.1397 49.9073 22.4569 49.1371C23.3241 48.6154 24.0586 47.9 24.6028 47.0469C25.1471 46.1938 25.4863 45.2262 25.5939 44.2201C24.6603 43.8301 23.649 43.6619 22.6393 43.7285C21.6297 43.7951 20.6493 44.0948 19.7749 44.6041C18.4137 45.4163 17.3997 46.702 16.9269 48.2151C16.4037 47.0864 15.9515 45.9261 15.5729 44.7411C16.4132 44.9494 17.2866 44.9874 18.1418 44.8527C18.9969 44.7181 19.8164 44.4135 20.5519 43.9571M15.0659 42.9571C14.7229 41.5953 14.4753 40.2113 14.3249 38.8151C15.3391 39.3184 16.452 39.5916 17.5839 39.6151C16.3945 40.4179 15.5081 41.5959 15.0659 42.9611" fill="#FFD0CA"/>
<path d="M32.557 59.755C32.9045 58.936 33.0575 58.0478 33.004 57.1598C32.9506 56.2718 32.6922 55.4083 32.249 54.637C31.384 54.8419 30.5781 55.2445 29.8949 55.8133C29.2116 56.382 28.6695 57.1014 28.311 57.915C28.0679 58.4865 27.9235 59.0951 27.884 59.715L30.416 62.249C31.3636 61.6511 32.1096 60.7822 32.557 59.755Z" fill="#FFD0CA"/>
</g>
</g>
<g style="mix-blend-mode:soft-light">
<mask id="mask5_1_1653" style="mask-type:luminance" maskUnits="userSpaceOnUse" x="11" y="12" width="14" height="18">
<path d="M24.8319 12.7141H11.4849V29.9691H24.8319V12.7141Z" fill="white"/>
</mask>
<g mask="url(#mask5_1_1653)">
<path d="M17.1359 21.6221C17.6292 20.5745 18.181 19.5556 18.7889 18.5701L18.1979 17.9781C18.0179 18.2491 17.8259 18.5101 17.6559 18.7871C17.6749 18.3064 17.6461 17.8251 17.5699 17.3501L12.9319 12.7141C11.7954 14.2652 11.2998 16.1943 11.5479 18.1011L19.0389 25.5911C20.0119 25.821 21.0221 25.8458 22.0052 25.6638C22.9883 25.4818 23.9227 25.0971 24.7489 24.5341L20.1129 19.8961C18.9979 20.229 17.9773 20.8204 17.1339 21.6221" fill="#FFD0CA"/>
<path d="M19.6328 26.1842L23.4178 29.9692C24.0458 29.2074 24.5254 28.3347 24.8318 27.3962C23.3001 26.3813 21.4554 25.9511 19.6328 26.1842Z" fill="#FFD0CA"/>
</g>
</g>
<g style="mix-blend-mode:soft-light">
<mask id="mask6_1_1653" style="mask-type:luminance" maskUnits="userSpaceOnUse" x="25" y="29" width="22" height="18">
<path d="M46.7441 29.116H25.9761V46.505H46.7441V29.116Z" fill="white"/>
</mask>
<g mask="url(#mask6_1_1653)">
<path d="M29.3541 29.116L25.9761 29.616L35.2481 38.625V38.639L35.1911 38.976L42.5801 46.365L44.5201 45.341L46.7481 46.505L29.3541 29.116Z" fill="#FFD0CA"/>
</g>
</g>
<g style="mix-blend-mode:soft-light">
<mask id="mask7_1_1653" style="mask-type:luminance" maskUnits="userSpaceOnUse" x="39" y="21" width="18" height="20">
<path d="M56.6939 21.0891H39.6099V40.5281H56.6939V21.0891Z" fill="white"/>
</mask>
<g mask="url(#mask7_1_1653)">
<path d="M42.0389 21.0891L39.6099 26.0301L54.1099 40.5301L53.7839 38.6551L53.7739 38.6021L56.6949 35.7461L42.0389 21.0891Z" fill="#FFD0CA"/>
</g>
</g>
</g>
</g>
</svg>
