<svg width="74" height="93" viewBox="0 0 74 93" fill="none" xmlns="http://www.w3.org/2000/svg">
<path d="M42.3801 54.6579C43.523 54.3755 44.5402 53.7229 45.2733 52.8019C46.0065 51.8808 46.4143 50.743 46.4331 49.566L46.3201 44.6159C46.3152 44.3631 46.2605 44.1137 46.1591 43.8821C46.0577 43.6504 45.9116 43.4411 45.7291 43.2659C45.3208 42.8973 44.7882 42.6965 44.2381 42.7039L43.197 42.732C43.0065 42.7323 42.8179 42.7706 42.6422 42.8446C42.4666 42.9186 42.3075 43.0269 42.1742 43.1631C42.0409 43.2993 41.936 43.4607 41.8657 43.6378C41.7955 43.815 41.7612 44.0044 41.7649 44.1949C41.7686 44.3855 41.8102 44.5734 41.8874 44.7477C41.9645 44.922 42.0756 45.0792 42.2141 45.2101C42.3527 45.3409 42.5159 45.4429 42.6942 45.51C42.8726 45.5771 43.0626 45.608 43.2531 45.6009H43.4781L43.562 49.6509C43.5019 50.2919 43.2105 50.8891 42.7421 51.3308C42.2737 51.7725 41.6605 52.0285 41.0171 52.0509C40.8821 52.0298 40.7446 52.0278 40.609 52.0449C40.572 52.0499 40.5391 52.0629 40.5041 52.0709C39.8206 52.1196 39.1439 51.9104 38.6071 51.4846C38.0703 51.0589 37.7124 50.4475 37.6041 49.7709L37.52 45.7209H37.801C37.9898 45.7188 38.1762 45.679 38.3495 45.6041C38.5228 45.5292 38.6795 45.4205 38.8103 45.2844C38.9412 45.1483 39.0436 44.9876 39.1117 44.8116C39.1798 44.6355 39.2122 44.4476 39.2071 44.2589C39.1979 43.8792 39.0392 43.5184 38.7654 43.2551C38.4916 42.9918 38.1249 42.8473 37.7451 42.8529L36.645 42.8809C36.3718 42.8787 36.1011 42.9325 35.8495 43.039C35.5979 43.1454 35.3708 43.3023 35.1821 43.4999C34.8443 43.8802 34.6547 44.3694 34.6481 44.8779L34.76 49.8559C34.8418 51.1181 35.3626 52.3119 36.2322 53.2304C37.1017 54.1489 38.2653 54.7342 39.5211 54.885C39.6555 57.1732 39.2444 59.4606 38.3218 61.5589C37.3992 63.6572 35.9913 65.5063 34.2143 66.9541C32.4372 68.4018 30.3416 69.4068 28.1001 69.8862C25.8586 70.3657 23.5354 70.3059 21.3216 69.7117C19.1077 69.1176 17.0666 68.0061 15.3664 66.4688C13.6661 64.9315 12.3553 63.0124 11.5419 60.8694C10.7285 58.7264 10.4357 56.4209 10.6876 54.1426C10.9396 51.8643 11.7291 49.6784 12.9911 47.7649C13.075 48.0665 13.2551 48.3323 13.5041 48.5221C13.753 48.7118 14.0572 48.815 14.3701 48.816H14.4831C14.6735 48.8035 14.8595 48.7536 15.0305 48.669C15.2016 48.5844 15.3542 48.4669 15.4796 48.3231C15.6051 48.1793 15.701 48.0122 15.7616 47.8313C15.8223 47.6504 15.8466 47.4593 15.8332 47.2689L15.6081 43.8939C15.5956 43.7035 15.5457 43.5175 15.4611 43.3465C15.3765 43.1754 15.259 43.0228 15.1153 42.8973C14.9715 42.7719 14.8043 42.6761 14.6234 42.6154C14.4425 42.5548 14.2514 42.5305 14.0611 42.5439C14.0056 42.5502 13.9506 42.5595 13.8961 42.5719L10.5211 42.9379C10.155 42.979 9.81848 43.159 9.58108 43.4408C9.34367 43.7226 9.22335 44.0848 9.24502 44.4526C9.26668 44.8204 9.42868 45.1659 9.69753 45.4179C9.96638 45.6699 10.3216 45.8091 10.6901 45.8069C10.7376 45.8004 10.7847 45.7911 10.8311 45.7789L10.89 45.7729C9.06483 48.3737 7.98815 51.4253 7.77712 54.5955C7.56609 57.7658 8.22886 60.9332 9.69326 63.7529C11.1577 66.5726 13.3676 68.9365 16.0824 70.5872C18.7972 72.2379 21.9128 73.1123 25.0901 73.1149C25.2221 73.1231 25.3545 73.1137 25.484 73.0869C27.8161 73.0272 30.1123 72.4984 32.2356 71.5323C34.359 70.5661 36.2659 69.1823 37.843 67.4634C39.4201 65.7444 40.635 63.7255 41.4152 61.5271C42.1953 59.3286 42.5248 56.9955 42.3841 54.6669" fill="black"/>
<path d="M19.6307 57.807H23.6808V61.829C23.6824 62.2088 23.834 62.5726 24.1025 62.8412C24.3711 63.1098 24.7349 63.2614 25.1147 63.263C25.3035 63.2646 25.4907 63.2286 25.6654 63.1571C25.8401 63.0856 25.9988 62.98 26.1323 62.8465C26.2658 62.713 26.3714 62.5543 26.4429 62.3796C26.5144 62.2049 26.5503 62.0177 26.5487 61.829V57.807H30.5708C30.7596 57.8086 30.9468 57.7726 31.1215 57.7011C31.2962 57.6296 31.4548 57.524 31.5883 57.3905C31.7217 57.257 31.8273 57.0983 31.8988 56.9236C31.9703 56.7489 32.0064 56.5617 32.0048 56.373C32.0032 55.9931 31.8516 55.6293 31.583 55.3607C31.3144 55.0921 30.9506 54.9405 30.5708 54.939H26.5527V50.889C26.5527 50.5085 26.4016 50.1436 26.1326 49.8746C25.8635 49.6056 25.4987 49.4545 25.1183 49.4545C24.7378 49.4545 24.3729 49.6056 24.1039 49.8746C23.8349 50.1436 23.6837 50.5085 23.6837 50.889V54.939H19.6338C19.2533 54.939 18.8884 55.0901 18.6194 55.3591C18.3504 55.6281 18.1992 55.993 18.1992 56.3735C18.1992 56.7539 18.3504 57.1188 18.6194 57.3878C18.8884 57.6568 19.2533 57.808 19.6338 57.808" fill="black"/>
<path d="M12.0942 35.9029C13.2018 35.9029 14.2845 35.5745 15.2054 34.9592C16.1263 34.3438 16.844 33.4692 17.2679 32.446C17.6917 31.4227 17.8027 30.2967 17.5866 29.2104C17.3705 28.1241 16.8372 27.1263 16.054 26.3431C15.2708 25.56 14.273 25.0266 13.1867 24.8105C12.1004 24.5945 10.9744 24.7054 9.95117 25.1292C8.9279 25.5531 8.05332 26.2708 7.43798 27.1917C6.82265 28.1127 6.4942 29.1954 6.4942 30.3029C6.49089 31.0393 6.6335 31.769 6.91375 32.4499C7.19401 33.1308 7.60634 33.7495 8.12701 34.2701C8.64768 34.7908 9.26634 35.2032 9.94726 35.4834C10.6282 35.7637 11.3579 35.9063 12.0942 35.9029ZM12.0942 27.5779C12.6338 27.5779 13.1612 27.7379 13.6098 28.0377C14.0584 28.3375 14.4081 28.7635 14.6146 29.262C14.821 29.7605 14.8751 30.309 14.7698 30.8382C14.6646 31.3673 14.4048 31.8534 14.0232 32.2349C13.6417 32.6164 13.1556 32.8763 12.6264 32.9815C12.0972 33.0868 11.5487 33.0328 11.0502 32.8263C10.5518 32.6198 10.1257 32.2702 9.82598 31.8215C9.52623 31.3729 9.36621 30.8455 9.36621 30.3059C9.367 29.5827 9.65464 28.8893 10.1661 28.3778C10.6775 27.8664 11.371 27.5787 12.0942 27.5779Z" fill="black"/>
<path d="M25.8461 27.574H44.6051C44.9856 27.574 45.3505 27.4228 45.6195 27.1538C45.8885 26.8848 46.0397 26.5199 46.0397 26.1395C46.0397 25.759 45.8885 25.3941 45.6195 25.1251C45.3505 24.8561 44.9856 24.705 44.6051 24.705H25.8461C25.4656 24.705 25.1008 24.8561 24.8318 25.1251C24.5628 25.3941 24.4116 25.759 24.4116 26.1395C24.4116 26.5199 24.5628 26.8848 24.8318 27.1538C25.1008 27.4228 25.4656 27.574 25.8461 27.574Z" fill="black"/>
<path d="M32.0048 31.678C31.6243 31.678 31.2595 31.8291 30.9905 32.0981C30.7215 32.3672 30.5703 32.732 30.5703 33.1125C30.5703 33.4929 30.7215 33.8578 30.9905 34.1268C31.2595 34.3958 31.6243 34.547 32.0048 34.547H43.7888C44.1693 34.547 44.5341 34.3958 44.8031 34.1268C45.0721 33.8578 45.2233 33.4929 45.2233 33.1125C45.2233 32.732 45.0721 32.3672 44.8031 32.0981C44.5341 31.8291 44.1693 31.678 43.7888 31.678H32.0048Z" fill="black"/>
<path d="M57.541 60.367C56.4159 60.368 55.2942 60.487 54.194 60.722V15.422C54.1909 14.304 53.7453 13.2327 52.9548 12.4422C52.1642 11.6517 51.093 11.2061 49.975 11.203H37.0099V8.25298C37.0114 7.77981 36.9194 7.31103 36.739 6.8736C36.5586 6.43618 36.2934 6.03874 35.9588 5.70415C35.6242 5.36957 35.2268 5.10446 34.7894 4.92405C34.3519 4.74365 33.8831 4.65153 33.41 4.65298H28.545V1.92498C28.545 1.54453 28.3938 1.17965 28.1248 0.910633C27.8558 0.641612 27.4909 0.490479 27.1105 0.490479C26.73 0.490479 26.3652 0.641612 26.0961 0.910633C25.8271 1.17965 25.676 1.54453 25.676 1.92498V4.65298H20.811C20.3378 4.65153 19.8691 4.74365 19.4316 4.92405C18.9942 5.10446 18.5967 5.36957 18.2621 5.70415C17.9276 6.03874 17.6625 6.43618 17.4821 6.8736C17.3017 7.31103 17.2095 7.77981 17.211 8.25298V11.178H4.21899C3.10102 11.1811 2.02973 11.6267 1.2392 12.4172C0.448666 13.2077 0.00316634 14.279 0 15.397V75.807C0.00343005 76.9248 0.449061 77.9958 1.23956 78.7861C2.03007 79.5764 3.10119 80.0218 4.21899 80.025H41.829C42.3815 82.4419 43.4757 84.7017 45.029 86.634C47.3092 89.4649 50.4819 91.439 54.029 92.234C55.1831 92.4915 56.3616 92.6236 57.544 92.628C58.9212 92.6341 60.2929 92.4545 61.622 92.094C65.4126 91.1003 68.7116 88.7603 70.9025 85.5113C73.0934 82.2624 74.0263 78.3267 73.5267 74.44C73.027 70.5533 71.1291 66.9816 68.1877 64.3923C65.2463 61.8031 61.4627 60.3736 57.544 60.371M20.056 8.25298C20.0593 8.06015 20.1374 7.87615 20.2738 7.73978C20.4102 7.60341 20.5942 7.52532 20.787 7.52198H33.387C33.5799 7.52532 33.7638 7.60341 33.9002 7.73978C34.0366 7.87615 34.1146 8.06015 34.118 8.25298V15.2C34.1144 15.3927 34.0363 15.5766 33.9 15.7129C33.7636 15.8492 33.5798 15.9274 33.387 15.931H20.787C20.5942 15.9274 20.4104 15.8492 20.274 15.7129C20.1377 15.5766 20.0596 15.3927 20.056 15.2V8.25298ZM4.21899 77.128C4.04531 77.1282 3.87328 77.0942 3.71277 77.0279C3.55226 76.9615 3.40644 76.8642 3.28363 76.7414C3.16082 76.6186 3.06341 76.4727 2.99707 76.3122C2.93073 76.1517 2.89671 75.9797 2.89697 75.806V15.368C2.89684 15.1943 2.93099 15.0224 2.99738 14.8619C3.06377 14.7015 3.16115 14.5557 3.28394 14.4329C3.40672 14.3101 3.5525 14.2127 3.71295 14.1463C3.8734 14.08 4.04535 14.0458 4.21899 14.046H17.212V15.199C17.2105 15.6721 17.3027 16.1409 17.4831 16.5784C17.6635 17.0158 17.9286 17.4132 18.2632 17.7478C18.5978 18.0824 18.9952 18.3475 19.4326 18.5279C19.87 18.7083 20.3388 18.8004 20.812 18.799H33.412C34.3648 18.7924 35.2767 18.411 35.9504 17.7373C36.6241 17.0636 37.0055 16.1517 37.012 15.199V14.075H49.977C50.1507 14.0747 50.3227 14.1087 50.4832 14.1751C50.6437 14.2414 50.7896 14.3388 50.9124 14.4616C51.0352 14.5844 51.1326 14.7302 51.1989 14.8908C51.2653 15.0513 51.2993 15.2233 51.299 15.397V61.631C49.6173 62.3416 48.0676 63.3308 46.715 64.557L46.687 64.585C46.4869 64.753 46.2651 64.979 46.0681 65.175C44.5896 66.6622 43.4187 68.4262 42.6224 70.3661C41.826 72.3061 41.4198 74.384 41.4269 76.481C41.4269 76.697 41.432 76.913 41.441 77.128H4.21899ZM60.919 89.334C58.9593 89.8472 56.908 89.9038 54.9229 89.4996C52.9379 89.0953 51.0721 88.2408 49.4692 87.0021C47.8663 85.7633 46.5691 84.1731 45.6774 82.3541C44.7858 80.5351 44.3234 78.5358 44.326 76.51C44.3223 73.0369 45.6877 69.7023 48.126 67.229C48.326 67.06 48.492 66.891 48.66 66.722L48.688 66.694C50.1766 65.3474 51.9518 64.3567 53.8795 63.7968C55.8071 63.2369 57.8367 63.1224 59.8151 63.462C61.7935 63.8016 63.6688 64.5863 65.2994 65.757C66.93 66.9277 68.2732 68.4537 69.2275 70.2196C70.1818 71.9856 70.7222 73.9453 70.808 75.9508C70.8938 77.9563 70.5227 79.955 69.7227 81.7961C68.9227 83.6371 67.7149 85.2722 66.1902 86.5779C64.6656 87.8835 62.8641 88.8256 60.9219 89.333" fill="black"/>
<path d="M60.9981 76.228H58.7242L58.2981 71.166C58.2854 70.9761 58.2352 70.7905 58.1503 70.6202C58.0654 70.4498 57.9475 70.2979 57.8035 70.1734C57.6595 70.0489 57.4922 69.9542 57.3113 69.8948C57.1305 69.8354 56.9396 69.8125 56.7498 69.8274C56.56 69.8423 56.3751 69.8947 56.2057 69.9815C56.0363 70.0684 55.8858 70.188 55.763 70.3334C55.6402 70.4789 55.5475 70.6472 55.4902 70.8288C55.4329 71.0103 55.4121 71.2014 55.4291 71.391L55.9351 77.409C55.9516 77.6182 56.0152 77.8209 56.1211 78.002C56.1977 78.3131 56.376 78.5897 56.6276 78.7881C56.8792 78.9864 57.1898 79.0952 57.5102 79.097H60.9971C61.3776 79.097 61.7425 78.9459 62.0115 78.6769C62.2805 78.4078 62.4317 78.043 62.4317 77.6625C62.4317 77.2821 62.2805 76.9172 62.0115 76.6482C61.7425 76.3792 61.3785 76.228 60.9981 76.228Z" fill="black"/>
</svg>
